%TF.GenerationSoftware,KiCad,Pcbnew,6.0.2+dfsg-1*%
%TF.CreationDate,2022-05-26T14:47:14+01:00*%
%TF.ProjectId,Backplane,4261636b-706c-4616-9e65-2e6b69636164,1*%
%TF.SameCoordinates,Original*%
%TF.FileFunction,Copper,L1,Top*%
%TF.FilePolarity,Positive*%
%FSLAX46Y46*%
G04 Gerber Fmt 4.6, Leading zero omitted, Abs format (unit mm)*
G04 Created by KiCad (PCBNEW 6.0.2+dfsg-1) date 2022-05-26 14:47:14*
%MOMM*%
%LPD*%
G01*
G04 APERTURE LIST*
G04 Aperture macros list*
%AMRoundRect*
0 Rectangle with rounded corners*
0 $1 Rounding radius*
0 $2 $3 $4 $5 $6 $7 $8 $9 X,Y pos of 4 corners*
0 Add a 4 corners polygon primitive as box body*
4,1,4,$2,$3,$4,$5,$6,$7,$8,$9,$2,$3,0*
0 Add four circle primitives for the rounded corners*
1,1,$1+$1,$2,$3*
1,1,$1+$1,$4,$5*
1,1,$1+$1,$6,$7*
1,1,$1+$1,$8,$9*
0 Add four rect primitives between the rounded corners*
20,1,$1+$1,$2,$3,$4,$5,0*
20,1,$1+$1,$4,$5,$6,$7,0*
20,1,$1+$1,$6,$7,$8,$9,0*
20,1,$1+$1,$8,$9,$2,$3,0*%
G04 Aperture macros list end*
%TA.AperFunction,ConnectorPad*%
%ADD10R,1.780000X7.620000*%
%TD*%
%TA.AperFunction,ComponentPad*%
%ADD11RoundRect,0.381000X0.381000X-0.762000X0.381000X0.762000X-0.381000X0.762000X-0.381000X-0.762000X0*%
%TD*%
%TA.AperFunction,ComponentPad*%
%ADD12RoundRect,0.381000X-0.381000X0.762000X-0.381000X-0.762000X0.381000X-0.762000X0.381000X0.762000X0*%
%TD*%
%TA.AperFunction,ComponentPad*%
%ADD13RoundRect,0.381000X0.394241X-0.755235X0.367643X0.768533X-0.394241X0.755235X-0.367643X-0.768533X0*%
%TD*%
%TA.AperFunction,ComponentPad*%
%ADD14C,5.000000*%
%TD*%
%TA.AperFunction,ComponentPad*%
%ADD15R,1.700000X1.700000*%
%TD*%
%TA.AperFunction,ComponentPad*%
%ADD16O,1.700000X1.700000*%
%TD*%
%TA.AperFunction,ComponentPad*%
%ADD17R,3.000000X3.000000*%
%TD*%
%TA.AperFunction,ComponentPad*%
%ADD18C,3.000000*%
%TD*%
%TA.AperFunction,ViaPad*%
%ADD19C,0.800000*%
%TD*%
%TA.AperFunction,Conductor*%
%ADD20C,0.500000*%
%TD*%
%TA.AperFunction,Conductor*%
%ADD21C,0.250000*%
%TD*%
G04 APERTURE END LIST*
D10*
%TO.P,U1,U1,A15*%
%TO.N,/A15*%
X152654000Y-146431000D03*
%TO.P,U1,U2,A13*%
%TO.N,/A13*%
X155194000Y-146431000D03*
%TO.P,U1,U3,D7*%
%TO.N,/D7*%
X157734000Y-146431000D03*
%TO.P,U1,U4,NC*%
%TO.N,/NC*%
X160274000Y-146431000D03*
%TO.P,U1,U6,D0*%
%TO.N,/D0*%
X165354000Y-146431000D03*
%TO.P,U1,U7,D1*%
%TO.N,/D1*%
X167894000Y-146431000D03*
%TO.P,U1,U8,D2*%
%TO.N,/D2*%
X170434000Y-146431000D03*
%TO.P,U1,U9,D6*%
%TO.N,/D6*%
X172974000Y-146431000D03*
%TO.P,U1,U10,D5*%
%TO.N,/D5*%
X175514000Y-146431000D03*
%TO.P,U1,U11,D3*%
%TO.N,/D3*%
X178054000Y-146431000D03*
%TO.P,U1,U12,D4*%
%TO.N,/D4*%
X180594000Y-146431000D03*
%TO.P,U1,U13,/INT*%
%TO.N,/{slash}INT*%
X183134000Y-146431000D03*
%TO.P,U1,U14,/NMI*%
%TO.N,/{slash}NMI*%
X185674000Y-146431000D03*
%TO.P,U1,U15,/HALT*%
%TO.N,/{slash}HALT*%
X188214000Y-146431000D03*
%TO.P,U1,U16,/MREQ*%
%TO.N,/{slash}MREQ*%
X190754000Y-146431000D03*
%TO.P,U1,U17,/IORQ*%
%TO.N,/{slash}IORQ*%
X193294000Y-146431000D03*
%TO.P,U1,U18,/RD*%
%TO.N,/{slash}RD*%
X195834000Y-146431000D03*
%TO.P,U1,U19,/WR*%
%TO.N,/{slash}WR*%
X198374000Y-146431000D03*
%TO.P,U1,U20,-5v*%
%TO.N,/-5V*%
X200914000Y-146431000D03*
%TO.P,U1,U21,/WAIT*%
%TO.N,/{slash}WAIT*%
X203454000Y-146431000D03*
%TO.P,U1,U22,+12V*%
%TO.N,/+12V*%
X205994000Y-146431000D03*
%TO.P,U1,U23,+12V_UR*%
%TO.N,/-12V*%
X208534000Y-146431000D03*
%TO.P,U1,U24,/M1*%
%TO.N,/{slash}M1*%
X211074000Y-146431000D03*
%TO.P,U1,U25,/RFSH*%
%TO.N,/{slash}RFSH*%
X213614000Y-146431000D03*
%TO.P,U1,U26,A8*%
%TO.N,/A8*%
X216154000Y-146431000D03*
%TO.P,U1,U27,A10*%
%TO.N,/A10*%
X218694000Y-146431000D03*
%TO.P,U1,U28,NC2*%
%TO.N,/NC2*%
X221234000Y-146431000D03*
%TD*%
D11*
%TO.P,U2,B1,A14*%
%TO.N,/A14*%
X152501600Y-130102067D03*
D12*
%TO.P,U2,B2,A12*%
%TO.N,/A12*%
X155041600Y-130102067D03*
D11*
%TO.P,U2,B3,+5V*%
%TO.N,/+5V*%
X157581600Y-130102067D03*
%TO.P,U2,B4,+9v*%
%TO.N,/+9V*%
X160121600Y-130102067D03*
%TO.P,U2,B6,0v*%
%TO.N,GND*%
X165201600Y-130102067D03*
%TO.P,U2,B7,0v*%
X167741600Y-130102067D03*
%TO.P,U2,B8,Clk*%
%TO.N,/Clk*%
X170281600Y-130102067D03*
%TO.P,U2,B9,A0*%
%TO.N,/A0*%
X172821600Y-130102067D03*
%TO.P,U2,B10,A1*%
%TO.N,/A1*%
X175361600Y-130102067D03*
%TO.P,U2,B11,A2*%
%TO.N,/A2*%
X177901600Y-130102067D03*
%TO.P,U2,B12,A3*%
%TO.N,/A3*%
X180441600Y-130102067D03*
%TO.P,U2,B13,/IORQGE*%
%TO.N,/IORQGE*%
X182981600Y-130102067D03*
%TO.P,U2,B14,0v*%
%TO.N,/0V1*%
X185521600Y-130102067D03*
%TO.P,U2,B15,Video*%
%TO.N,/Video*%
X188061600Y-130102067D03*
%TO.P,U2,B16,U*%
%TO.N,/U*%
X190601600Y-130102067D03*
%TO.P,U2,B17,V*%
%TO.N,/V*%
X193141600Y-130102067D03*
%TO.P,U2,B18,/BUSRQ*%
%TO.N,/{slash}BUSRQ*%
X195681600Y-130102067D03*
%TO.P,U2,B19,/RESET*%
%TO.N,/{slash}RESET*%
X198221600Y-130102067D03*
%TO.P,U2,B20,A7*%
%TO.N,/A7*%
X200761600Y-130102067D03*
%TO.P,U2,B21,A6*%
%TO.N,/A6*%
X203301600Y-130102067D03*
%TO.P,U2,B22,A5*%
%TO.N,/A5*%
X205841600Y-130102067D03*
%TO.P,U2,B23,A4*%
%TO.N,/A4*%
X208381600Y-130102067D03*
%TO.P,U2,B24*%
%TO.N,N/C*%
X210921600Y-130102067D03*
%TO.P,U2,B25,/ROMCS*%
%TO.N,/{slash}ROMCS*%
X213461600Y-130102067D03*
%TO.P,U2,B26,/BusAK*%
%TO.N,/{slash}BUSAK*%
X216001600Y-130102067D03*
%TO.P,U2,B27,A9*%
%TO.N,/A9*%
X218541600Y-130102067D03*
%TO.P,U2,B28,A11*%
%TO.N,/A11*%
X221081600Y-130102067D03*
%TO.P,U2,U1,A15*%
%TO.N,/A15*%
X152501600Y-125022067D03*
%TO.P,U2,U2,A13*%
%TO.N,/A13*%
X155041600Y-125022067D03*
%TO.P,U2,U3,D7*%
%TO.N,/D7*%
X157581600Y-125022067D03*
%TO.P,U2,U4,NC*%
%TO.N,/NC*%
X160121600Y-125022067D03*
%TO.P,U2,U6,D0*%
%TO.N,/D0*%
X165201600Y-125022067D03*
D13*
%TO.P,U2,U7,D1*%
%TO.N,/D1*%
X167741600Y-125022067D03*
D11*
%TO.P,U2,U8,D2*%
%TO.N,/D2*%
X170281600Y-125022067D03*
%TO.P,U2,U9,D6*%
%TO.N,/D6*%
X172821600Y-125022067D03*
%TO.P,U2,U10,D5*%
%TO.N,/D5*%
X175361600Y-125022067D03*
%TO.P,U2,U11,D3*%
%TO.N,/D3*%
X177901600Y-125022067D03*
%TO.P,U2,U12,D4*%
%TO.N,/D4*%
X180441600Y-125022067D03*
%TO.P,U2,U13,/INT*%
%TO.N,/{slash}INT*%
X182981600Y-125022067D03*
%TO.P,U2,U14,/NMI*%
%TO.N,/{slash}NMI*%
X185521600Y-125022067D03*
%TO.P,U2,U15,/HALT*%
%TO.N,/{slash}HALT*%
X188061600Y-125022067D03*
%TO.P,U2,U16,/MREQ*%
%TO.N,/{slash}MREQ*%
X190601600Y-125022067D03*
%TO.P,U2,U17,/IORQ*%
%TO.N,/{slash}IORQ*%
X193141600Y-125022067D03*
%TO.P,U2,U18,/RD*%
%TO.N,/{slash}RD*%
X195681600Y-125022067D03*
%TO.P,U2,U19,/WR*%
%TO.N,/{slash}WR*%
X198221600Y-125022067D03*
%TO.P,U2,U20,-5v*%
%TO.N,/-5V*%
X200761600Y-125022067D03*
%TO.P,U2,U21,/WAIT*%
%TO.N,/{slash}WAIT*%
X203301600Y-125022067D03*
%TO.P,U2,U22,+12V*%
%TO.N,/+12V*%
X205841600Y-125022067D03*
%TO.P,U2,U23,+12V_UR*%
%TO.N,/-12V*%
X208381600Y-125022067D03*
%TO.P,U2,U24,/M1*%
%TO.N,/{slash}M1*%
X210921600Y-125022067D03*
%TO.P,U2,U25,/RFSH*%
%TO.N,/{slash}RFSH*%
X213461600Y-125022067D03*
%TO.P,U2,U26,A8*%
%TO.N,/A8*%
X216001600Y-125022067D03*
%TO.P,U2,U27,A10*%
%TO.N,/A10*%
X218541600Y-125022067D03*
%TO.P,U2,U28,NC2*%
%TO.N,/NC2*%
X221081600Y-125022067D03*
%TD*%
%TO.P,U5,B1,A14*%
%TO.N,/A14*%
X152501600Y-70104000D03*
D12*
%TO.P,U5,B2,A12*%
%TO.N,/A12*%
X155041600Y-70104000D03*
D11*
%TO.P,U5,B3,+5V*%
%TO.N,/+5V*%
X157581600Y-70104000D03*
%TO.P,U5,B4,+9v*%
%TO.N,/+9V*%
X160121600Y-70104000D03*
%TO.P,U5,B6,0v*%
%TO.N,GND*%
X165201600Y-70104000D03*
%TO.P,U5,B7,0v*%
X167741600Y-70104000D03*
%TO.P,U5,B8,Clk*%
%TO.N,/Clk*%
X170281600Y-70104000D03*
%TO.P,U5,B9,A0*%
%TO.N,/A0*%
X172821600Y-70104000D03*
%TO.P,U5,B10,A1*%
%TO.N,/A1*%
X175361600Y-70104000D03*
%TO.P,U5,B11,A2*%
%TO.N,/A2*%
X177901600Y-70104000D03*
%TO.P,U5,B12,A3*%
%TO.N,/A3*%
X180441600Y-70104000D03*
%TO.P,U5,B13,/IORQGE*%
%TO.N,/IORQGE*%
X182981600Y-70104000D03*
%TO.P,U5,B14,0v*%
%TO.N,/0V1*%
X185521600Y-70104000D03*
%TO.P,U5,B15,Video*%
%TO.N,/Video*%
X188061600Y-70104000D03*
%TO.P,U5,B16,U*%
%TO.N,/U*%
X190601600Y-70104000D03*
%TO.P,U5,B17,V*%
%TO.N,/V*%
X193141600Y-70104000D03*
%TO.P,U5,B18,/BUSRQ*%
%TO.N,/{slash}BUSRQ*%
X195681600Y-70104000D03*
%TO.P,U5,B19,/RESET*%
%TO.N,/{slash}RESET*%
X198221600Y-70104000D03*
%TO.P,U5,B20,A7*%
%TO.N,/A7*%
X200761600Y-70104000D03*
%TO.P,U5,B21,A6*%
%TO.N,/A6*%
X203301600Y-70104000D03*
%TO.P,U5,B22,A5*%
%TO.N,/A5*%
X205841600Y-70104000D03*
%TO.P,U5,B23,A4*%
%TO.N,/A4*%
X208381600Y-70104000D03*
%TO.P,U5,B24*%
%TO.N,N/C*%
X210921600Y-70104000D03*
%TO.P,U5,B25,/ROMCS*%
%TO.N,/{slash}ROMCS*%
X213461600Y-70104000D03*
%TO.P,U5,B26,/BusAK*%
%TO.N,/{slash}BUSAK*%
X216001600Y-70104000D03*
%TO.P,U5,B27,A9*%
%TO.N,/A9*%
X218541600Y-70104000D03*
%TO.P,U5,B28,A11*%
%TO.N,/A11*%
X221081600Y-70104000D03*
%TO.P,U5,U1,A15*%
%TO.N,/A15*%
X152501600Y-65024000D03*
%TO.P,U5,U2,A13*%
%TO.N,/A13*%
X155041600Y-65024000D03*
%TO.P,U5,U3,D7*%
%TO.N,/D7*%
X157581600Y-65024000D03*
%TO.P,U5,U4,NC*%
%TO.N,/NC*%
X160121600Y-65024000D03*
%TO.P,U5,U6,D0*%
%TO.N,/D0*%
X165201600Y-65024000D03*
D13*
%TO.P,U5,U7,D1*%
%TO.N,/D1*%
X167741600Y-65024000D03*
D11*
%TO.P,U5,U8,D2*%
%TO.N,/D2*%
X170281600Y-65024000D03*
%TO.P,U5,U9,D6*%
%TO.N,/D6*%
X172821600Y-65024000D03*
%TO.P,U5,U10,D5*%
%TO.N,/D5*%
X175361600Y-65024000D03*
%TO.P,U5,U11,D3*%
%TO.N,/D3*%
X177901600Y-65024000D03*
%TO.P,U5,U12,D4*%
%TO.N,/D4*%
X180441600Y-65024000D03*
%TO.P,U5,U13,/INT*%
%TO.N,/{slash}INT*%
X182981600Y-65024000D03*
%TO.P,U5,U14,/NMI*%
%TO.N,/{slash}NMI*%
X185521600Y-65024000D03*
%TO.P,U5,U15,/HALT*%
%TO.N,/{slash}HALT*%
X188061600Y-65024000D03*
%TO.P,U5,U16,/MREQ*%
%TO.N,/{slash}MREQ*%
X190601600Y-65024000D03*
%TO.P,U5,U17,/IORQ*%
%TO.N,/{slash}IORQ*%
X193141600Y-65024000D03*
%TO.P,U5,U18,/RD*%
%TO.N,/{slash}RD*%
X195681600Y-65024000D03*
%TO.P,U5,U19,/WR*%
%TO.N,/{slash}WR*%
X198221600Y-65024000D03*
%TO.P,U5,U20,-5v*%
%TO.N,/-5V*%
X200761600Y-65024000D03*
%TO.P,U5,U21,/WAIT*%
%TO.N,/{slash}WAIT*%
X203301600Y-65024000D03*
%TO.P,U5,U22,+12V*%
%TO.N,/+12V*%
X205841600Y-65024000D03*
%TO.P,U5,U23,+12V_UR*%
%TO.N,/-12V*%
X208381600Y-65024000D03*
%TO.P,U5,U24,/M1*%
%TO.N,/{slash}M1*%
X210921600Y-65024000D03*
%TO.P,U5,U25,/RFSH*%
%TO.N,/{slash}RFSH*%
X213461600Y-65024000D03*
%TO.P,U5,U26,A8*%
%TO.N,/A8*%
X216001600Y-65024000D03*
%TO.P,U5,U27,A10*%
%TO.N,/A10*%
X218541600Y-65024000D03*
%TO.P,U5,U28,NC2*%
%TO.N,/NC2*%
X221081600Y-65024000D03*
%TD*%
D14*
%TO.P,H2,1,1*%
%TO.N,GND*%
X227965000Y-145542000D03*
%TD*%
%TO.P,H4,1,1*%
%TO.N,GND*%
X229362000Y-62534800D03*
%TD*%
%TO.P,H1,1,1*%
%TO.N,GND*%
X143662400Y-62230000D03*
%TD*%
D15*
%TO.P,J2,1,Pin_1*%
%TO.N,Net-(J1-Pad2)*%
X145034000Y-131064000D03*
D16*
%TO.P,J2,2,Pin_2*%
%TO.N,/+5V*%
X145034000Y-133604000D03*
%TO.P,J2,3,Pin_3*%
%TO.N,Net-(J2-Pad3)*%
X145034000Y-136144000D03*
%TD*%
D17*
%TO.P,J1,1,Pin_1*%
%TO.N,GND*%
X145542000Y-118872000D03*
D18*
%TO.P,J1,2,Pin_2*%
%TO.N,Net-(J1-Pad2)*%
X145542000Y-123952000D03*
%TD*%
D11*
%TO.P,U3,B1,A14*%
%TO.N,/A14*%
X152501600Y-110134400D03*
D12*
%TO.P,U3,B2,A12*%
%TO.N,/A12*%
X155041600Y-110134400D03*
D11*
%TO.P,U3,B3,+5V*%
%TO.N,/+5V*%
X157581600Y-110134400D03*
%TO.P,U3,B4,+9v*%
%TO.N,/+9V*%
X160121600Y-110134400D03*
%TO.P,U3,B6,0v*%
%TO.N,GND*%
X165201600Y-110134400D03*
%TO.P,U3,B7,0v*%
X167741600Y-110134400D03*
%TO.P,U3,B8,Clk*%
%TO.N,/Clk*%
X170281600Y-110134400D03*
%TO.P,U3,B9,A0*%
%TO.N,/A0*%
X172821600Y-110134400D03*
%TO.P,U3,B10,A1*%
%TO.N,/A1*%
X175361600Y-110134400D03*
%TO.P,U3,B11,A2*%
%TO.N,/A2*%
X177901600Y-110134400D03*
%TO.P,U3,B12,A3*%
%TO.N,/A3*%
X180441600Y-110134400D03*
%TO.P,U3,B13,/IORQGE*%
%TO.N,/IORQGE*%
X182981600Y-110134400D03*
%TO.P,U3,B14,0v*%
%TO.N,/0V1*%
X185521600Y-110134400D03*
%TO.P,U3,B15,Video*%
%TO.N,/Video*%
X188061600Y-110134400D03*
%TO.P,U3,B16,U*%
%TO.N,/U*%
X190601600Y-110134400D03*
%TO.P,U3,B17,V*%
%TO.N,/V*%
X193141600Y-110134400D03*
%TO.P,U3,B18,/BUSRQ*%
%TO.N,/{slash}BUSRQ*%
X195681600Y-110134400D03*
%TO.P,U3,B19,/RESET*%
%TO.N,/{slash}RESET*%
X198221600Y-110134400D03*
%TO.P,U3,B20,A7*%
%TO.N,/A7*%
X200761600Y-110134400D03*
%TO.P,U3,B21,A6*%
%TO.N,/A6*%
X203301600Y-110134400D03*
%TO.P,U3,B22,A5*%
%TO.N,/A5*%
X205841600Y-110134400D03*
%TO.P,U3,B23,A4*%
%TO.N,/A4*%
X208381600Y-110134400D03*
%TO.P,U3,B24*%
%TO.N,N/C*%
X210921600Y-110134400D03*
%TO.P,U3,B25,/ROMCS*%
%TO.N,/{slash}ROMCS*%
X213461600Y-110134400D03*
%TO.P,U3,B26,/BusAK*%
%TO.N,/{slash}BUSAK*%
X216001600Y-110134400D03*
%TO.P,U3,B27,A9*%
%TO.N,/A9*%
X218541600Y-110134400D03*
%TO.P,U3,B28,A11*%
%TO.N,/A11*%
X221081600Y-110134400D03*
%TO.P,U3,U1,A15*%
%TO.N,/A15*%
X152501600Y-105054400D03*
%TO.P,U3,U2,A13*%
%TO.N,/A13*%
X155041600Y-105054400D03*
%TO.P,U3,U3,D7*%
%TO.N,/D7*%
X157581600Y-105054400D03*
%TO.P,U3,U4,NC*%
%TO.N,/NC*%
X160121600Y-105054400D03*
%TO.P,U3,U6,D0*%
%TO.N,/D0*%
X165201600Y-105054400D03*
D13*
%TO.P,U3,U7,D1*%
%TO.N,/D1*%
X167741600Y-105054400D03*
D11*
%TO.P,U3,U8,D2*%
%TO.N,/D2*%
X170281600Y-105054400D03*
%TO.P,U3,U9,D6*%
%TO.N,/D6*%
X172821600Y-105054400D03*
%TO.P,U3,U10,D5*%
%TO.N,/D5*%
X175361600Y-105054400D03*
%TO.P,U3,U11,D3*%
%TO.N,/D3*%
X177901600Y-105054400D03*
%TO.P,U3,U12,D4*%
%TO.N,/D4*%
X180441600Y-105054400D03*
%TO.P,U3,U13,/INT*%
%TO.N,/{slash}INT*%
X182981600Y-105054400D03*
%TO.P,U3,U14,/NMI*%
%TO.N,/{slash}NMI*%
X185521600Y-105054400D03*
%TO.P,U3,U15,/HALT*%
%TO.N,/{slash}HALT*%
X188061600Y-105054400D03*
%TO.P,U3,U16,/MREQ*%
%TO.N,/{slash}MREQ*%
X190601600Y-105054400D03*
%TO.P,U3,U17,/IORQ*%
%TO.N,/{slash}IORQ*%
X193141600Y-105054400D03*
%TO.P,U3,U18,/RD*%
%TO.N,/{slash}RD*%
X195681600Y-105054400D03*
%TO.P,U3,U19,/WR*%
%TO.N,/{slash}WR*%
X198221600Y-105054400D03*
%TO.P,U3,U20,-5v*%
%TO.N,/-5V*%
X200761600Y-105054400D03*
%TO.P,U3,U21,/WAIT*%
%TO.N,/{slash}WAIT*%
X203301600Y-105054400D03*
%TO.P,U3,U22,+12V*%
%TO.N,/+12V*%
X205841600Y-105054400D03*
%TO.P,U3,U23,+12V_UR*%
%TO.N,/-12V*%
X208381600Y-105054400D03*
%TO.P,U3,U24,/M1*%
%TO.N,/{slash}M1*%
X210921600Y-105054400D03*
%TO.P,U3,U25,/RFSH*%
%TO.N,/{slash}RFSH*%
X213461600Y-105054400D03*
%TO.P,U3,U26,A8*%
%TO.N,/A8*%
X216001600Y-105054400D03*
%TO.P,U3,U27,A10*%
%TO.N,/A10*%
X218541600Y-105054400D03*
%TO.P,U3,U28,NC2*%
%TO.N,/NC2*%
X221081600Y-105054400D03*
%TD*%
D14*
%TO.P,H3,1,1*%
%TO.N,GND*%
X144907000Y-145415000D03*
%TD*%
D11*
%TO.P,U4,B1,A14*%
%TO.N,/A14*%
X152501600Y-90119200D03*
D12*
%TO.P,U4,B2,A12*%
%TO.N,/A12*%
X155041600Y-90119200D03*
D11*
%TO.P,U4,B3,+5V*%
%TO.N,/+5V*%
X157581600Y-90119200D03*
%TO.P,U4,B4,+9v*%
%TO.N,/+9V*%
X160121600Y-90119200D03*
%TO.P,U4,B6,0v*%
%TO.N,GND*%
X165201600Y-90119200D03*
%TO.P,U4,B7,0v*%
X167741600Y-90119200D03*
%TO.P,U4,B8,Clk*%
%TO.N,/Clk*%
X170281600Y-90119200D03*
%TO.P,U4,B9,A0*%
%TO.N,/A0*%
X172821600Y-90119200D03*
%TO.P,U4,B10,A1*%
%TO.N,/A1*%
X175361600Y-90119200D03*
%TO.P,U4,B11,A2*%
%TO.N,/A2*%
X177901600Y-90119200D03*
%TO.P,U4,B12,A3*%
%TO.N,/A3*%
X180441600Y-90119200D03*
%TO.P,U4,B13,/IORQGE*%
%TO.N,/IORQGE*%
X182981600Y-90119200D03*
%TO.P,U4,B14,0v*%
%TO.N,/0V1*%
X185521600Y-90119200D03*
%TO.P,U4,B15,Video*%
%TO.N,/Video*%
X188061600Y-90119200D03*
%TO.P,U4,B16,U*%
%TO.N,/U*%
X190601600Y-90119200D03*
%TO.P,U4,B17,V*%
%TO.N,/V*%
X193141600Y-90119200D03*
%TO.P,U4,B18,/BUSRQ*%
%TO.N,/{slash}BUSRQ*%
X195681600Y-90119200D03*
%TO.P,U4,B19,/RESET*%
%TO.N,/{slash}RESET*%
X198221600Y-90119200D03*
%TO.P,U4,B20,A7*%
%TO.N,/A7*%
X200761600Y-90119200D03*
%TO.P,U4,B21,A6*%
%TO.N,/A6*%
X203301600Y-90119200D03*
%TO.P,U4,B22,A5*%
%TO.N,/A5*%
X205841600Y-90119200D03*
%TO.P,U4,B23,A4*%
%TO.N,/A4*%
X208381600Y-90119200D03*
%TO.P,U4,B24*%
%TO.N,N/C*%
X210921600Y-90119200D03*
%TO.P,U4,B25,/ROMCS*%
%TO.N,/{slash}ROMCS*%
X213461600Y-90119200D03*
%TO.P,U4,B26,/BusAK*%
%TO.N,/{slash}BUSAK*%
X216001600Y-90119200D03*
%TO.P,U4,B27,A9*%
%TO.N,/A9*%
X218541600Y-90119200D03*
%TO.P,U4,B28,A11*%
%TO.N,/A11*%
X221081600Y-90119200D03*
%TO.P,U4,U1,A15*%
%TO.N,/A15*%
X152501600Y-85039200D03*
%TO.P,U4,U2,A13*%
%TO.N,/A13*%
X155041600Y-85039200D03*
%TO.P,U4,U3,D7*%
%TO.N,/D7*%
X157581600Y-85039200D03*
%TO.P,U4,U4,NC*%
%TO.N,/NC*%
X160121600Y-85039200D03*
%TO.P,U4,U6,D0*%
%TO.N,/D0*%
X165201600Y-85039200D03*
D13*
%TO.P,U4,U7,D1*%
%TO.N,/D1*%
X167741600Y-85039200D03*
D11*
%TO.P,U4,U8,D2*%
%TO.N,/D2*%
X170281600Y-85039200D03*
%TO.P,U4,U9,D6*%
%TO.N,/D6*%
X172821600Y-85039200D03*
%TO.P,U4,U10,D5*%
%TO.N,/D5*%
X175361600Y-85039200D03*
%TO.P,U4,U11,D3*%
%TO.N,/D3*%
X177901600Y-85039200D03*
%TO.P,U4,U12,D4*%
%TO.N,/D4*%
X180441600Y-85039200D03*
%TO.P,U4,U13,/INT*%
%TO.N,/{slash}INT*%
X182981600Y-85039200D03*
%TO.P,U4,U14,/NMI*%
%TO.N,/{slash}NMI*%
X185521600Y-85039200D03*
%TO.P,U4,U15,/HALT*%
%TO.N,/{slash}HALT*%
X188061600Y-85039200D03*
%TO.P,U4,U16,/MREQ*%
%TO.N,/{slash}MREQ*%
X190601600Y-85039200D03*
%TO.P,U4,U17,/IORQ*%
%TO.N,/{slash}IORQ*%
X193141600Y-85039200D03*
%TO.P,U4,U18,/RD*%
%TO.N,/{slash}RD*%
X195681600Y-85039200D03*
%TO.P,U4,U19,/WR*%
%TO.N,/{slash}WR*%
X198221600Y-85039200D03*
%TO.P,U4,U20,-5v*%
%TO.N,/-5V*%
X200761600Y-85039200D03*
%TO.P,U4,U21,/WAIT*%
%TO.N,/{slash}WAIT*%
X203301600Y-85039200D03*
%TO.P,U4,U22,+12V*%
%TO.N,/+12V*%
X205841600Y-85039200D03*
%TO.P,U4,U23,+12V_UR*%
%TO.N,/-12V*%
X208381600Y-85039200D03*
%TO.P,U4,U24,/M1*%
%TO.N,/{slash}M1*%
X210921600Y-85039200D03*
%TO.P,U4,U25,/RFSH*%
%TO.N,/{slash}RFSH*%
X213461600Y-85039200D03*
%TO.P,U4,U26,A8*%
%TO.N,/A8*%
X216001600Y-85039200D03*
%TO.P,U4,U27,A10*%
%TO.N,/A10*%
X218541600Y-85039200D03*
%TO.P,U4,U28,NC2*%
%TO.N,/NC2*%
X221081600Y-85039200D03*
%TD*%
D19*
%TO.N,GND*%
X159105600Y-139090400D03*
X159359600Y-133400800D03*
X156514800Y-139496800D03*
X156362400Y-135026400D03*
%TO.N,/+9V*%
X160147000Y-117348000D03*
X160147000Y-122555000D03*
%TO.N,/+5V*%
X157600000Y-121900000D03*
X157607000Y-117348000D03*
%TO.N,/A12*%
X155067000Y-122555000D03*
X155067000Y-117475000D03*
X155067000Y-137541000D03*
X155067000Y-132461000D03*
%TO.N,/A14*%
X152527000Y-122682000D03*
X152654000Y-137541000D03*
X152654000Y-132588000D03*
X152654000Y-117348000D03*
%TD*%
D20*
%TO.N,/A15*%
X150825200Y-123345667D02*
X150825200Y-106730800D01*
X150825200Y-86715600D02*
X150825200Y-66446400D01*
X151130000Y-126238000D02*
X152527000Y-124841000D01*
X152654000Y-146431000D02*
X152654000Y-139954000D01*
X152247600Y-65024000D02*
X152501600Y-65024000D01*
X150825200Y-66446400D02*
X152247600Y-65024000D01*
X150825200Y-106730800D02*
X150825200Y-86715600D01*
X151130000Y-138430000D02*
X151130000Y-126238000D01*
X150825200Y-106730800D02*
X152501600Y-105054400D01*
X152654000Y-139954000D02*
X151130000Y-138430000D01*
X152501600Y-125022067D02*
X150825200Y-123345667D01*
X150825200Y-86715600D02*
X152501600Y-85039200D01*
%TO.N,/A13*%
X155041600Y-107442000D02*
X155041600Y-105054400D01*
X155194000Y-146431000D02*
X155194000Y-140208000D01*
X153830080Y-127703520D02*
X153830080Y-138777920D01*
X155041600Y-126492000D02*
X153830080Y-127703520D01*
X153830080Y-138777920D02*
X153797000Y-138811000D01*
X155041600Y-67259200D02*
X153713120Y-68587680D01*
X153830080Y-108653520D02*
X155041600Y-107442000D01*
X155041600Y-124460000D02*
X153822400Y-123240800D01*
X153713120Y-68587680D02*
X153713120Y-79849920D01*
X155194000Y-140208000D02*
X153797000Y-138811000D01*
X153830080Y-88739920D02*
X155041600Y-87528400D01*
X155041600Y-125022067D02*
X155041600Y-126492000D01*
X153713120Y-79849920D02*
X155041600Y-81178400D01*
X155041600Y-125022067D02*
X155041600Y-124460000D01*
X155041600Y-81178400D02*
X155041600Y-85039200D01*
X153822400Y-123240800D02*
X153830080Y-123233120D01*
X155041600Y-105054400D02*
X155041600Y-100787200D01*
X155041600Y-87528400D02*
X155041600Y-85039200D01*
X153830080Y-123233120D02*
X153830080Y-108653520D01*
X155041600Y-65024000D02*
X155041600Y-67259200D01*
X153830080Y-99575680D02*
X153830080Y-88739920D01*
X155041600Y-100787200D02*
X153830080Y-99575680D01*
%TO.N,/D7*%
X156260800Y-122224800D02*
X156260800Y-108762800D01*
X157581600Y-97536000D02*
X156370080Y-96324480D01*
X157581600Y-107442000D02*
X157581600Y-105054400D01*
X157581600Y-105054400D02*
X157581600Y-97536000D01*
X157581600Y-65024000D02*
X157581600Y-67786468D01*
X156253120Y-77868720D02*
X157581600Y-79197200D01*
X156260800Y-108762800D02*
X157581600Y-107442000D01*
X157734000Y-133434000D02*
X156300000Y-132000000D01*
X157581600Y-67786468D02*
X156253120Y-69114948D01*
X157607000Y-126793000D02*
X157607000Y-124841000D01*
X157581600Y-125022067D02*
X157581600Y-123545600D01*
X157632400Y-85090000D02*
X157581600Y-85039200D01*
X156370080Y-96324480D02*
X156370080Y-88536720D01*
X157581600Y-79197200D02*
X157581600Y-85039200D01*
X156300000Y-132000000D02*
X156300000Y-128100000D01*
X156300000Y-128100000D02*
X157607000Y-126793000D01*
X156253120Y-69114948D02*
X156253120Y-77868720D01*
X157632400Y-87274400D02*
X157632400Y-85090000D01*
X156370080Y-88536720D02*
X157632400Y-87274400D01*
X157581600Y-123545600D02*
X156260800Y-122224800D01*
X157734000Y-146431000D02*
X157734000Y-133434000D01*
%TO.N,/NC*%
X158910080Y-68369120D02*
X158910080Y-76360080D01*
X158500000Y-132400000D02*
X158900000Y-132000000D01*
X158750000Y-122936000D02*
X158910080Y-122775920D01*
X158910080Y-98305680D02*
X159910720Y-98305680D01*
X160121600Y-98516560D02*
X160121600Y-105054400D01*
X160274000Y-135683520D02*
X158900000Y-134309520D01*
X160121600Y-124307600D02*
X158750000Y-122936000D01*
X160121600Y-67157600D02*
X158910080Y-68369120D01*
X160121600Y-127784535D02*
X160121600Y-125022067D01*
X158900000Y-134300000D02*
X158500000Y-133900000D01*
X158500000Y-133900000D02*
X158500000Y-132400000D01*
X160274000Y-107188000D02*
X160274000Y-105206800D01*
X160274000Y-105206800D02*
X160121600Y-105054400D01*
X160121600Y-85039200D02*
X160121600Y-87274400D01*
X158910080Y-122775920D02*
X158910080Y-108551920D01*
X160121600Y-125022067D02*
X160121600Y-124307600D01*
X158910080Y-88485920D02*
X158910080Y-98305680D01*
D21*
X158900000Y-134309520D02*
X158900000Y-134300000D01*
D20*
X159910720Y-98305680D02*
X160121600Y-98516560D01*
X158910080Y-108551920D02*
X160274000Y-107188000D01*
X160274000Y-146431000D02*
X160274000Y-135683520D01*
X158900000Y-129006135D02*
X160121600Y-127784535D01*
X158900000Y-132000000D02*
X158900000Y-129006135D01*
X160121600Y-87274400D02*
X158910080Y-88485920D01*
X160121600Y-65024000D02*
X160121600Y-67157600D01*
X158910080Y-76360080D02*
X160121600Y-77571600D01*
X160121600Y-77571600D02*
X160121600Y-85039200D01*
%TO.N,/{slash}HALT*%
X187956160Y-80928240D02*
X186744640Y-79716720D01*
X188006960Y-104909107D02*
X188006960Y-100892640D01*
X186850080Y-136812080D02*
X186850080Y-128996055D01*
X187956160Y-84944707D02*
X187956160Y-80928240D01*
X188061600Y-127784535D02*
X188061600Y-125022067D01*
X188057760Y-107445840D02*
X188057760Y-105058240D01*
X188057760Y-125025907D02*
X188057760Y-121009440D01*
X186795440Y-99681120D02*
X186795440Y-88540560D01*
X186846240Y-108657360D02*
X188057760Y-107445840D01*
X188214000Y-146431000D02*
X188214000Y-138176000D01*
X186744640Y-79716720D02*
X186744640Y-68576160D01*
X188214000Y-138176000D02*
X186850080Y-136812080D01*
X188057760Y-121009440D02*
X186846240Y-119797920D01*
X186744640Y-68576160D02*
X187956160Y-67364640D01*
X186795440Y-88540560D02*
X188006960Y-87329040D01*
X187956160Y-67364640D02*
X187956160Y-64977040D01*
X186850080Y-128996055D02*
X188061600Y-127784535D01*
X188006960Y-87329040D02*
X188006960Y-84941440D01*
X188006960Y-100892640D02*
X186795440Y-99681120D01*
X186846240Y-119797920D02*
X186846240Y-108657360D01*
%TO.N,/{slash}MREQ*%
X190546960Y-120958640D02*
X189335440Y-119747120D01*
X190496160Y-104959907D02*
X190496160Y-100943440D01*
X190754000Y-137515600D02*
X189390080Y-136151680D01*
X190546960Y-124975107D02*
X190546960Y-120958640D01*
X190546960Y-67466240D02*
X190546960Y-65078640D01*
X189335440Y-68677760D02*
X190546960Y-67466240D01*
X189335440Y-108606560D02*
X190546960Y-107395040D01*
X190496160Y-100943440D02*
X189284640Y-99731920D01*
X189390080Y-128719520D02*
X190601600Y-127508000D01*
X190546960Y-85046307D02*
X190546960Y-81029840D01*
X190496160Y-87379840D02*
X190496160Y-84992240D01*
X190754000Y-146431000D02*
X190754000Y-137515600D01*
X189390080Y-136151680D02*
X189390080Y-128719520D01*
X190546960Y-81029840D02*
X189335440Y-79818320D01*
X189284640Y-88591360D02*
X190496160Y-87379840D01*
X189284640Y-99731920D02*
X189284640Y-88591360D01*
X190601600Y-127508000D02*
X190601600Y-125022067D01*
X190546960Y-107395040D02*
X190546960Y-105007440D01*
X189335440Y-79818320D02*
X189335440Y-68677760D01*
X189335440Y-119747120D02*
X189335440Y-108606560D01*
%TO.N,/{slash}IORQ*%
X191875440Y-99630320D02*
X191875440Y-88489760D01*
X193137760Y-121009440D02*
X191926240Y-119797920D01*
X191875440Y-79665920D02*
X191875440Y-68525360D01*
X193086960Y-87278240D02*
X193086960Y-84890640D01*
X193086960Y-104858307D02*
X193086960Y-100841840D01*
X191875440Y-68525360D02*
X193086960Y-67313840D01*
X193137760Y-107445840D02*
X193137760Y-105058240D01*
X191926240Y-119797920D02*
X191926240Y-108657360D01*
X193137760Y-125025907D02*
X193137760Y-121009440D01*
X193141600Y-127784535D02*
X193141600Y-125022067D01*
X191926240Y-108657360D02*
X193137760Y-107445840D01*
X191813120Y-135933120D02*
X191813120Y-129113015D01*
X193086960Y-100841840D02*
X191875440Y-99630320D01*
X193086960Y-84893907D02*
X193086960Y-80877440D01*
X191875440Y-88489760D02*
X193086960Y-87278240D01*
X193086960Y-67313840D02*
X193086960Y-64926240D01*
X193294000Y-146431000D02*
X193294000Y-137414000D01*
X193086960Y-80877440D02*
X191875440Y-79665920D01*
X191813120Y-129113015D02*
X193141600Y-127784535D01*
X193294000Y-137414000D02*
X191813120Y-135933120D01*
%TO.N,/{slash}RD*%
X195626960Y-104959907D02*
X195626960Y-100943440D01*
X194415440Y-119797920D02*
X194415440Y-108657360D01*
X194470080Y-128996055D02*
X195681600Y-127784535D01*
X194470080Y-135999280D02*
X194470080Y-128996055D01*
X195626960Y-67364640D02*
X195626960Y-64977040D01*
X194415440Y-99731920D02*
X194415440Y-88591360D01*
X195626960Y-84944707D02*
X195626960Y-80928240D01*
X195626960Y-107445840D02*
X195626960Y-105058240D01*
X195626960Y-121009440D02*
X194415440Y-119797920D01*
X195626960Y-80928240D02*
X194415440Y-79716720D01*
X195681600Y-127784535D02*
X195681600Y-125022067D01*
X195626960Y-87379840D02*
X195626960Y-84992240D01*
X194415440Y-68576160D02*
X195626960Y-67364640D01*
X195626960Y-100943440D02*
X194415440Y-99731920D01*
X194415440Y-108657360D02*
X195626960Y-107445840D01*
X195626960Y-125025907D02*
X195626960Y-121009440D01*
X195834000Y-146431000D02*
X195834000Y-137363200D01*
X194415440Y-79716720D02*
X194415440Y-68576160D01*
X194415440Y-88591360D02*
X195626960Y-87379840D01*
X195834000Y-137363200D02*
X194470080Y-135999280D01*
%TO.N,/{slash}WR*%
X197010080Y-128996055D02*
X198221600Y-127784535D01*
X198166960Y-100943440D02*
X196955440Y-99731920D01*
X198217760Y-67364640D02*
X198217760Y-64977040D01*
X198217760Y-80928240D02*
X197006240Y-79716720D01*
X198166960Y-121009440D02*
X196955440Y-119797920D01*
X196955440Y-88591360D02*
X198166960Y-87379840D01*
X196955440Y-108657360D02*
X198166960Y-107445840D01*
X198166960Y-107445840D02*
X198166960Y-105058240D01*
X196955440Y-119797920D02*
X196955440Y-108657360D01*
X197006240Y-79716720D02*
X197006240Y-68576160D01*
X198374000Y-146431000D02*
X198374000Y-136550400D01*
X196955440Y-99731920D02*
X196955440Y-88591360D01*
X198217760Y-84944707D02*
X198217760Y-80928240D01*
X197010080Y-135186480D02*
X197010080Y-128996055D01*
X198166960Y-87379840D02*
X198166960Y-84992240D01*
X198221600Y-127784535D02*
X198221600Y-125022067D01*
X198166960Y-104959907D02*
X198166960Y-100943440D01*
X197006240Y-68576160D02*
X198217760Y-67364640D01*
X198166960Y-125025907D02*
X198166960Y-121009440D01*
X198374000Y-136550400D02*
X197010080Y-135186480D01*
%TO.N,/-5V*%
X200706960Y-87379840D02*
X200706960Y-84992240D01*
X200706960Y-100943440D02*
X199495440Y-99731920D01*
X200757760Y-67364640D02*
X200757760Y-64977040D01*
X200757760Y-121060240D02*
X199546240Y-119848720D01*
X199546240Y-79716720D02*
X199546240Y-68576160D01*
X200757760Y-125076707D02*
X200757760Y-121060240D01*
X200761600Y-127784535D02*
X200761600Y-125022067D01*
X199433120Y-134764720D02*
X199433120Y-129113015D01*
X200757760Y-84944707D02*
X200757760Y-80928240D01*
X200757760Y-80928240D02*
X199546240Y-79716720D01*
X199495440Y-88591360D02*
X200706960Y-87379840D01*
X199546240Y-108708160D02*
X200757760Y-107496640D01*
X199546240Y-68576160D02*
X200757760Y-67364640D01*
X200757760Y-107496640D02*
X200757760Y-105109040D01*
X200706960Y-104959907D02*
X200706960Y-100943440D01*
X199433120Y-129113015D02*
X200761600Y-127784535D01*
X199546240Y-119848720D02*
X199546240Y-108708160D01*
X199495440Y-99731920D02*
X199495440Y-88591360D01*
X200914000Y-136245600D02*
X199433120Y-134764720D01*
X200914000Y-146431000D02*
X200914000Y-136245600D01*
%TO.N,/{slash}WAIT*%
X203196160Y-84893907D02*
X203196160Y-80877440D01*
X202090080Y-128996055D02*
X203301600Y-127784535D01*
X203246960Y-100892640D02*
X202035440Y-99681120D01*
X203454000Y-135940800D02*
X202090080Y-134576880D01*
X203246960Y-87329040D02*
X203246960Y-84941440D01*
X203297760Y-125025907D02*
X203297760Y-121009440D01*
X203297760Y-107445840D02*
X203297760Y-105058240D01*
X203297760Y-121009440D02*
X202086240Y-119797920D01*
X202086240Y-119797920D02*
X202086240Y-108657360D01*
X201984640Y-79665920D02*
X201984640Y-68525360D01*
X202086240Y-108657360D02*
X203297760Y-107445840D01*
X202035440Y-99681120D02*
X202035440Y-88540560D01*
X201984640Y-68525360D02*
X203196160Y-67313840D01*
X203301600Y-127784535D02*
X203301600Y-125022067D01*
X203246960Y-104909107D02*
X203246960Y-100892640D01*
X202035440Y-88540560D02*
X203246960Y-87329040D01*
X203454000Y-146431000D02*
X203454000Y-135940800D01*
X203196160Y-80877440D02*
X201984640Y-79665920D01*
X203196160Y-67313840D02*
X203196160Y-64926240D01*
X202090080Y-134576880D02*
X202090080Y-128996055D01*
%TO.N,/+12V*%
X204630080Y-136151680D02*
X204630080Y-128996055D01*
X205837760Y-84995507D02*
X205837760Y-80979040D01*
X205837760Y-80979040D02*
X204626240Y-79767520D01*
X205994000Y-146431000D02*
X205994000Y-137515600D01*
X205994000Y-137515600D02*
X204630080Y-136151680D01*
X204575440Y-88591360D02*
X205786960Y-87379840D01*
X205786960Y-121009440D02*
X204575440Y-119797920D01*
X205841600Y-127784535D02*
X205841600Y-125022067D01*
X205786960Y-125025907D02*
X205786960Y-121009440D01*
X204575440Y-119797920D02*
X204575440Y-108657360D01*
X204630080Y-128996055D02*
X205841600Y-127784535D01*
X204626240Y-79767520D02*
X204626240Y-68626960D01*
X204575440Y-108657360D02*
X205786960Y-107445840D01*
X204575440Y-99731920D02*
X204575440Y-88591360D01*
X205786960Y-107445840D02*
X205786960Y-105058240D01*
X205786960Y-100943440D02*
X204575440Y-99731920D01*
X205786960Y-87379840D02*
X205786960Y-84992240D01*
X204626240Y-68626960D02*
X205837760Y-67415440D01*
X205786960Y-104959907D02*
X205786960Y-100943440D01*
X205837760Y-67415440D02*
X205837760Y-65027840D01*
%TO.N,/-12V*%
X208326960Y-100892640D02*
X207115440Y-99681120D01*
X208326960Y-104909107D02*
X208326960Y-100892640D01*
X208326960Y-87329040D02*
X208326960Y-84941440D01*
X208534000Y-137109200D02*
X207170080Y-135745280D01*
X207115440Y-99681120D02*
X207115440Y-88540560D01*
X208381600Y-127784535D02*
X208381600Y-125022067D01*
X207166240Y-79818320D02*
X207166240Y-68677760D01*
X208326960Y-125025907D02*
X208326960Y-121009440D01*
X208326960Y-121009440D02*
X207115440Y-119797920D01*
X208377760Y-85046307D02*
X208377760Y-81029840D01*
X207170080Y-135745280D02*
X207170080Y-128996055D01*
X208377760Y-67466240D02*
X208377760Y-65078640D01*
X207115440Y-108657360D02*
X208326960Y-107445840D01*
X208326960Y-107445840D02*
X208326960Y-105058240D01*
X207166240Y-68677760D02*
X208377760Y-67466240D01*
X207115440Y-119797920D02*
X207115440Y-108657360D01*
X207115440Y-88540560D02*
X208326960Y-87329040D01*
X207170080Y-128996055D02*
X208381600Y-127784535D01*
X208377760Y-81029840D02*
X207166240Y-79818320D01*
X208534000Y-146431000D02*
X208534000Y-137109200D01*
%TO.N,/{slash}M1*%
X210921600Y-127784535D02*
X210921600Y-125022067D01*
X209710080Y-136456480D02*
X209710080Y-128996055D01*
X209655440Y-79767520D02*
X209655440Y-68626960D01*
X209655440Y-68626960D02*
X210866960Y-67415440D01*
X210866960Y-84995507D02*
X210866960Y-80979040D01*
X210866960Y-107395040D02*
X210866960Y-105007440D01*
X210866960Y-120958640D02*
X209655440Y-119747120D01*
X210866960Y-124975107D02*
X210866960Y-120958640D01*
X210866960Y-67415440D02*
X210866960Y-65027840D01*
X209655440Y-119747120D02*
X209655440Y-108606560D01*
X211074000Y-137820400D02*
X209710080Y-136456480D01*
X211074000Y-146431000D02*
X211074000Y-137820400D01*
X210866960Y-80979040D02*
X209655440Y-79767520D01*
X209655440Y-99681120D02*
X209655440Y-88540560D01*
X209710080Y-128996055D02*
X210921600Y-127784535D01*
X209655440Y-108606560D02*
X210866960Y-107395040D01*
X210866960Y-104909107D02*
X210866960Y-100892640D01*
X209655440Y-88540560D02*
X210866960Y-87329040D01*
X210866960Y-87329040D02*
X210866960Y-84941440D01*
X210866960Y-100892640D02*
X209655440Y-99681120D01*
%TO.N,/{slash}RFSH*%
X212195440Y-99731920D02*
X212195440Y-88591360D01*
X213406960Y-87379840D02*
X213406960Y-84992240D01*
X213406960Y-67313840D02*
X213406960Y-64926240D01*
X212195440Y-108657360D02*
X213406960Y-107445840D01*
X212195440Y-119797920D02*
X212195440Y-108657360D01*
X212195440Y-88591360D02*
X213406960Y-87379840D01*
X213614000Y-137617200D02*
X212133120Y-136136320D01*
X213461600Y-127784535D02*
X213461600Y-125022067D01*
X213406960Y-121009440D02*
X212195440Y-119797920D01*
X213406960Y-80877440D02*
X212195440Y-79665920D01*
X213406960Y-104959907D02*
X213406960Y-100943440D01*
X213406960Y-107445840D02*
X213406960Y-105058240D01*
X213406960Y-100943440D02*
X212195440Y-99731920D01*
X212133120Y-129113015D02*
X213461600Y-127784535D01*
X212195440Y-79665920D02*
X212195440Y-68525360D01*
X212133120Y-136136320D02*
X212133120Y-129113015D01*
X212195440Y-68525360D02*
X213406960Y-67313840D01*
X213406960Y-84893907D02*
X213406960Y-80877440D01*
X213614000Y-146431000D02*
X213614000Y-137617200D01*
X213406960Y-125025907D02*
X213406960Y-121009440D01*
%TO.N,/A8*%
X215946960Y-80826640D02*
X214735440Y-79615120D01*
X214735440Y-79615120D02*
X214735440Y-68474560D01*
X215946960Y-107395040D02*
X215946960Y-105007440D01*
X214735440Y-99681120D02*
X214735440Y-88540560D01*
X216154000Y-146431000D02*
X216154000Y-137668000D01*
X214735440Y-119747120D02*
X214735440Y-108606560D01*
X215946960Y-104909107D02*
X215946960Y-100892640D01*
X214735440Y-68474560D02*
X215946960Y-67263040D01*
X215946960Y-120958640D02*
X214735440Y-119747120D01*
X216154000Y-137668000D02*
X214790080Y-136304080D01*
X214790080Y-136304080D02*
X214790080Y-128996055D01*
X216001600Y-127784535D02*
X216001600Y-125022067D01*
X215946960Y-100892640D02*
X214735440Y-99681120D01*
X215946960Y-87329040D02*
X215946960Y-84941440D01*
X214735440Y-88540560D02*
X215946960Y-87329040D01*
X214735440Y-108606560D02*
X215946960Y-107395040D01*
X215946960Y-67263040D02*
X215946960Y-64875440D01*
X214790080Y-128996055D02*
X216001600Y-127784535D01*
X215946960Y-84843107D02*
X215946960Y-80826640D01*
X215946960Y-124975107D02*
X215946960Y-120958640D01*
%TO.N,/A10*%
X217275440Y-79767520D02*
X217275440Y-68626960D01*
X218694000Y-146431000D02*
X218694000Y-137515600D01*
X218486960Y-100943440D02*
X217275440Y-99731920D01*
X217275440Y-88591360D02*
X218486960Y-87379840D01*
X218694000Y-137515600D02*
X217213120Y-136034720D01*
X218541600Y-127784535D02*
X218541600Y-125022067D01*
X218436160Y-107496640D02*
X218436160Y-105109040D01*
X218486960Y-104959907D02*
X218486960Y-100943440D01*
X218436160Y-125076707D02*
X218436160Y-121060240D01*
X217275440Y-99731920D02*
X217275440Y-88591360D01*
X218486960Y-84995507D02*
X218486960Y-80979040D01*
X218486960Y-87379840D02*
X218486960Y-84992240D01*
X217213120Y-136034720D02*
X217213120Y-129113015D01*
X217224640Y-119848720D02*
X217224640Y-108708160D01*
X218436160Y-121060240D02*
X217224640Y-119848720D01*
X218486960Y-67415440D02*
X218486960Y-65027840D01*
X217224640Y-108708160D02*
X218436160Y-107496640D01*
X218486960Y-80979040D02*
X217275440Y-79767520D01*
X217213120Y-129113015D02*
X218541600Y-127784535D01*
X217275440Y-68626960D02*
X218486960Y-67415440D01*
%TO.N,/NC2*%
X219870080Y-119794080D02*
X219870080Y-108653520D01*
X221081600Y-107442000D02*
X221081600Y-105054400D01*
X219870080Y-128996055D02*
X221081600Y-127784535D01*
X221081600Y-125022067D02*
X221081600Y-121005600D01*
X220976160Y-84995507D02*
X220976160Y-80979040D01*
X220976160Y-80979040D02*
X219764640Y-79767520D01*
X220976160Y-100943440D02*
X219764640Y-99731920D01*
X219870080Y-135745280D02*
X219870080Y-128996055D01*
X219764640Y-68626960D02*
X220976160Y-67415440D01*
X219764640Y-79767520D02*
X219764640Y-68626960D01*
X221081600Y-127784535D02*
X221081600Y-125022067D01*
X220976160Y-67415440D02*
X220976160Y-65027840D01*
X219764640Y-99731920D02*
X219764640Y-88591360D01*
X221234000Y-146431000D02*
X221234000Y-137109200D01*
X219870080Y-108653520D02*
X221081600Y-107442000D01*
X220976160Y-87379840D02*
X220976160Y-84992240D01*
X219764640Y-88591360D02*
X220976160Y-87379840D01*
X221234000Y-137109200D02*
X219870080Y-135745280D01*
X221081600Y-121005600D02*
X219870080Y-119794080D01*
X220976160Y-104959907D02*
X220976160Y-100943440D01*
%TO.N,/D0*%
X163322000Y-69666068D02*
X163423600Y-69564468D01*
X165201600Y-85039200D02*
X163322000Y-86918800D01*
X165201600Y-105054400D02*
X163322000Y-103174800D01*
X163118800Y-127104867D02*
X165201600Y-125022067D01*
X163990080Y-123810547D02*
X163990080Y-106265920D01*
X163990080Y-106265920D02*
X165201600Y-105054400D01*
X163322000Y-103174800D02*
X163322000Y-86918800D01*
X163118800Y-135737600D02*
X163118800Y-127104867D01*
X165354000Y-146431000D02*
X165354000Y-137972800D01*
X165201600Y-125022067D02*
X163990080Y-123810547D01*
X163423600Y-69564468D02*
X163423600Y-66802000D01*
X163322000Y-86918800D02*
X163322000Y-69666068D01*
X163423600Y-66802000D02*
X165201600Y-65024000D01*
X165354000Y-137972800D02*
X163118800Y-135737600D01*
%TO.N,/+9V*%
X160147000Y-117348000D02*
X160147000Y-122555000D01*
%TO.N,/+5V*%
X157600000Y-121900000D02*
X157600000Y-117355000D01*
X157600000Y-117355000D02*
X157607000Y-117348000D01*
%TO.N,/A12*%
X155067000Y-117475000D02*
X155067000Y-122555000D01*
X155067000Y-137541000D02*
X155067000Y-132461000D01*
%TO.N,/A14*%
X152654000Y-137541000D02*
X152654000Y-132588000D01*
D21*
X152654000Y-122555000D02*
X152527000Y-122682000D01*
D20*
X152654000Y-117348000D02*
X152654000Y-122555000D01*
%TO.N,/D1*%
X166475440Y-68677760D02*
X167686960Y-67466240D01*
X167894000Y-137210800D02*
X166413120Y-135729920D01*
X167686960Y-81029840D02*
X166475440Y-79818320D01*
X167386000Y-105410000D02*
X167741600Y-105054400D01*
X166413120Y-135729920D02*
X166413120Y-129113015D01*
X167741600Y-125022067D02*
X167741600Y-121310400D01*
X166413120Y-129113015D02*
X167741600Y-127784535D01*
X166530080Y-88689120D02*
X166530080Y-100540880D01*
X166475440Y-79818320D02*
X166475440Y-68677760D01*
X166530080Y-100540880D02*
X167741600Y-101752400D01*
X167686960Y-85046307D02*
X167686960Y-81029840D01*
X166530080Y-120098880D02*
X166530080Y-108551920D01*
X166530080Y-108551920D02*
X167386000Y-107696000D01*
X167741600Y-87477600D02*
X166530080Y-88689120D01*
X167386000Y-107696000D02*
X167386000Y-105410000D01*
X167741600Y-121310400D02*
X166530080Y-120098880D01*
X167741600Y-101752400D02*
X167741600Y-105054400D01*
X167686960Y-67466240D02*
X167686960Y-65078640D01*
X167741600Y-127784535D02*
X167741600Y-125022067D01*
X167894000Y-146431000D02*
X167894000Y-137210800D01*
X167741600Y-85039200D02*
X167741600Y-87477600D01*
%TO.N,/D2*%
X170281600Y-121056400D02*
X168953120Y-119727920D01*
X170281600Y-101600000D02*
X169070080Y-100388480D01*
X170281600Y-105054400D02*
X170281600Y-101600000D01*
X169070080Y-100388480D02*
X169070080Y-88282720D01*
X170277760Y-67466240D02*
X170277760Y-65078640D01*
X169070080Y-128363920D02*
X170281600Y-127152400D01*
X169070080Y-88282720D02*
X170281600Y-87071200D01*
X170277760Y-85046307D02*
X170277760Y-81029840D01*
X170434000Y-146431000D02*
X170434000Y-137820400D01*
X170281600Y-107137200D02*
X170281600Y-105054400D01*
X170277760Y-81029840D02*
X169066240Y-79818320D01*
X169066240Y-79818320D02*
X169066240Y-68677760D01*
X170281600Y-125022067D02*
X170281600Y-121056400D01*
X170281600Y-127152400D02*
X170281600Y-125022067D01*
X170281600Y-87071200D02*
X170281600Y-85039200D01*
X169070080Y-136456480D02*
X169070080Y-128363920D01*
X168953120Y-119727920D02*
X168953120Y-108465680D01*
X170434000Y-137820400D02*
X169070080Y-136456480D01*
X168953120Y-108465680D02*
X170281600Y-107137200D01*
X169066240Y-68677760D02*
X170277760Y-67466240D01*
%TO.N,/D6*%
X172821600Y-105054400D02*
X172821600Y-100787200D01*
X172974000Y-146431000D02*
X172974000Y-138480800D01*
X172766960Y-80928240D02*
X171555440Y-79716720D01*
X172821600Y-119684800D02*
X171493120Y-118356320D01*
X171610080Y-88536720D02*
X172821600Y-87325200D01*
X171610080Y-99575680D02*
X171610080Y-88536720D01*
X171493120Y-129113015D02*
X172821600Y-127784535D01*
X172821600Y-87325200D02*
X172821600Y-85039200D01*
X172766960Y-67364640D02*
X172766960Y-64977040D01*
X171493120Y-109145348D02*
X172821600Y-107816868D01*
X171555440Y-68576160D02*
X172766960Y-67364640D01*
X171493120Y-118356320D02*
X171493120Y-109145348D01*
X172974000Y-138480800D02*
X171493120Y-136999920D01*
X172821600Y-100787200D02*
X171610080Y-99575680D01*
X172766960Y-84944707D02*
X172766960Y-80928240D01*
X172821600Y-107816868D02*
X172821600Y-105054400D01*
X172821600Y-127784535D02*
X172821600Y-125022067D01*
X172821600Y-125022067D02*
X172821600Y-119684800D01*
X171493120Y-136999920D02*
X171493120Y-129113015D01*
X171555440Y-79716720D02*
X171555440Y-68576160D01*
%TO.N,/D5*%
X175361600Y-107391200D02*
X175361600Y-105054400D01*
X174044640Y-68626960D02*
X175256160Y-67415440D01*
X175361600Y-98958400D02*
X174150080Y-97746880D01*
X175256160Y-67415440D02*
X175256160Y-65027840D01*
X174150080Y-128996055D02*
X175361600Y-127784535D01*
X174033120Y-119067520D02*
X174033120Y-108719680D01*
X175361600Y-105054400D02*
X175361600Y-98958400D01*
X175256160Y-84995507D02*
X175256160Y-80979040D01*
X175361600Y-120396000D02*
X174033120Y-119067520D01*
X174150080Y-136761280D02*
X174150080Y-128996055D01*
X175361600Y-125022067D02*
X175361600Y-120396000D01*
X174044640Y-79767520D02*
X174044640Y-68626960D01*
X175514000Y-138125200D02*
X174150080Y-136761280D01*
X174033120Y-108719680D02*
X175361600Y-107391200D01*
X175361600Y-127784535D02*
X175361600Y-125022067D01*
X175256160Y-80979040D02*
X174044640Y-79767520D01*
X175361600Y-86817200D02*
X175361600Y-85039200D01*
X174150080Y-88028720D02*
X175361600Y-86817200D01*
X174150080Y-97746880D02*
X174150080Y-88028720D01*
X175514000Y-146431000D02*
X175514000Y-138125200D01*
%TO.N,/D3*%
X176635440Y-79665920D02*
X176635440Y-68525360D01*
X177901600Y-127784535D02*
X177901600Y-125022067D01*
X176690080Y-136456480D02*
X176690080Y-128996055D01*
X176690080Y-88130320D02*
X177901600Y-86918800D01*
X177901600Y-120294400D02*
X176690080Y-119082880D01*
X177846960Y-84984560D02*
X177901600Y-85039200D01*
X177846960Y-80877440D02*
X177846960Y-84984560D01*
X177901600Y-105054400D02*
X177901600Y-97739200D01*
X176690080Y-119082880D02*
X176690080Y-108094720D01*
X176690080Y-108094720D02*
X177901600Y-106883200D01*
X177901600Y-86918800D02*
X177901600Y-85039200D01*
X177846960Y-80877440D02*
X176635440Y-79665920D01*
X178054000Y-137820400D02*
X176690080Y-136456480D01*
X177901600Y-106883200D02*
X177901600Y-105054400D01*
X177901600Y-125022067D02*
X177901600Y-120294400D01*
X176635440Y-68525360D02*
X177846960Y-67313840D01*
X177901600Y-97739200D02*
X176690080Y-96527680D01*
X177846960Y-67313840D02*
X177846960Y-65078640D01*
X178054000Y-146431000D02*
X178054000Y-137820400D01*
X176690080Y-128996055D02*
X177901600Y-127784535D01*
X176690080Y-96527680D02*
X176690080Y-88130320D01*
%TO.N,/D4*%
X180336160Y-81131440D02*
X179124640Y-79919920D01*
X180336160Y-85147907D02*
X180336160Y-81131440D01*
X180386960Y-87278240D02*
X180386960Y-84890640D01*
X180437760Y-120958640D02*
X179226240Y-119747120D01*
X179124640Y-79919920D02*
X179124640Y-68779360D01*
X180386960Y-100841840D02*
X179175440Y-99630320D01*
X180437760Y-124975107D02*
X180437760Y-120958640D01*
X179120800Y-129105335D02*
X180441600Y-127784535D01*
X179175440Y-99630320D02*
X179175440Y-88489760D01*
X180594000Y-146431000D02*
X180594000Y-137261600D01*
X179226240Y-119747120D02*
X179226240Y-108606560D01*
X180336160Y-67567840D02*
X180336160Y-65180240D01*
X179175440Y-88489760D02*
X180386960Y-87278240D01*
X179226240Y-108606560D02*
X180437760Y-107395040D01*
X180437760Y-107395040D02*
X180437760Y-105007440D01*
X180386960Y-104858307D02*
X180386960Y-100841840D01*
X179120800Y-135788400D02*
X179120800Y-129105335D01*
X180441600Y-127784535D02*
X180441600Y-125022067D01*
X180594000Y-137261600D02*
X179120800Y-135788400D01*
X179124640Y-68779360D02*
X180336160Y-67567840D01*
%TO.N,/{slash}INT*%
X181613840Y-68474560D02*
X182825360Y-67263040D01*
X181653120Y-129113015D02*
X182981600Y-127784535D01*
X182825360Y-80826640D02*
X181613840Y-79615120D01*
X182926960Y-124975107D02*
X182926960Y-120958640D01*
X183134000Y-136906000D02*
X181653120Y-135425120D01*
X181711600Y-79585880D02*
X181711600Y-68445320D01*
X182825360Y-67263040D02*
X182825360Y-64875440D01*
X181715440Y-88540560D02*
X182926960Y-87329040D01*
X182825360Y-84843107D02*
X182825360Y-80826640D01*
X182926960Y-104909107D02*
X182926960Y-100892640D01*
X181715440Y-108606560D02*
X182926960Y-107395040D01*
X181715440Y-119747120D02*
X181715440Y-108606560D01*
X182926960Y-107395040D02*
X182926960Y-105007440D01*
X182926960Y-120958640D02*
X181715440Y-119747120D01*
X182981600Y-127784535D02*
X182981600Y-125022067D01*
X181653120Y-135425120D02*
X181653120Y-129113015D01*
X181715440Y-99681120D02*
X181715440Y-88540560D01*
X182926960Y-87329040D02*
X182926960Y-84941440D01*
X182926960Y-100892640D02*
X181715440Y-99681120D01*
X183134000Y-146431000D02*
X183134000Y-136906000D01*
%TO.N,/{slash}NMI*%
X185416160Y-67212240D02*
X185416160Y-64824640D01*
X184255440Y-108606560D02*
X185466960Y-107395040D01*
X184204640Y-79564320D02*
X184204640Y-68423760D01*
X185674000Y-137363200D02*
X184310080Y-135999280D01*
X185466960Y-107395040D02*
X185466960Y-105007440D01*
X185517760Y-87379840D02*
X185517760Y-84992240D01*
X185466960Y-124975107D02*
X185466960Y-120958640D01*
X184310080Y-135999280D02*
X184310080Y-128996055D01*
X185521600Y-127784535D02*
X185521600Y-125022067D01*
X185674000Y-146431000D02*
X185674000Y-137363200D01*
X184204640Y-68423760D02*
X185416160Y-67212240D01*
X185416160Y-84792307D02*
X185416160Y-80775840D01*
X185466960Y-120958640D02*
X184255440Y-119747120D01*
X184306240Y-88591360D02*
X185517760Y-87379840D01*
X185517760Y-104959907D02*
X185517760Y-100943440D01*
X184306240Y-99731920D02*
X184306240Y-88591360D01*
X184310080Y-128996055D02*
X185521600Y-127784535D01*
X185416160Y-80775840D02*
X184204640Y-79564320D01*
X185517760Y-100943440D02*
X184306240Y-99731920D01*
X184255440Y-119747120D02*
X184255440Y-108606560D01*
%TD*%
%TA.AperFunction,Conductor*%
%TO.N,GND*%
G36*
X141857886Y-59608402D02*
G01*
X141904379Y-59662058D01*
X141914483Y-59732332D01*
X141884989Y-59796912D01*
X141868546Y-59812734D01*
X141736002Y-59918923D01*
X141727532Y-59931048D01*
X141733927Y-59942316D01*
X143649590Y-61857980D01*
X143663531Y-61865592D01*
X143665366Y-61865461D01*
X143671980Y-61861210D01*
X145589474Y-59943716D01*
X145596866Y-59930179D01*
X145590079Y-59920479D01*
X145486876Y-59832335D01*
X145481100Y-59827950D01*
X145467753Y-59818981D01*
X145422369Y-59764385D01*
X145413706Y-59693919D01*
X145444515Y-59629955D01*
X145505014Y-59592802D01*
X145538030Y-59588400D01*
X227995136Y-59588400D01*
X228063257Y-59608402D01*
X228109750Y-59662058D01*
X228119854Y-59732332D01*
X228090360Y-59796912D01*
X228049380Y-59828126D01*
X227913707Y-59892839D01*
X227907349Y-59896334D01*
X227619654Y-60076805D01*
X227613731Y-60081014D01*
X227435601Y-60223723D01*
X227427132Y-60235848D01*
X227433527Y-60247116D01*
X229349190Y-62162780D01*
X229363131Y-62170392D01*
X229364966Y-62170261D01*
X229371580Y-62166010D01*
X231289074Y-60248516D01*
X231296466Y-60234979D01*
X231289679Y-60225279D01*
X231186476Y-60137135D01*
X231180704Y-60132753D01*
X230898796Y-59943319D01*
X230892575Y-59939639D01*
X230673111Y-59826366D01*
X230621752Y-59777348D01*
X230605047Y-59708345D01*
X230628299Y-59641264D01*
X230684127Y-59597403D01*
X230730901Y-59588400D01*
X231903000Y-59588400D01*
X231971121Y-59608402D01*
X232017614Y-59662058D01*
X232029000Y-59714400D01*
X232029000Y-60699979D01*
X232008998Y-60768100D01*
X231955342Y-60814593D01*
X231885068Y-60824697D01*
X231820488Y-60795203D01*
X231801453Y-60774573D01*
X231685774Y-60617095D01*
X231681166Y-60611526D01*
X231675830Y-60605784D01*
X231662178Y-60597666D01*
X231661570Y-60597687D01*
X231653092Y-60602919D01*
X229734020Y-62521990D01*
X229726408Y-62535931D01*
X229726539Y-62537766D01*
X229730790Y-62544380D01*
X231648268Y-64461857D01*
X231661622Y-64469149D01*
X231671594Y-64462095D01*
X231778641Y-64334067D01*
X231782963Y-64328249D01*
X231797688Y-64305831D01*
X231851805Y-64259876D01*
X231922177Y-64250475D01*
X231986460Y-64280612D01*
X232024245Y-64340718D01*
X232029000Y-64375007D01*
X232029000Y-150115000D01*
X232008998Y-150183121D01*
X231955342Y-150229614D01*
X231903000Y-150241000D01*
X222758500Y-150241000D01*
X222690379Y-150220998D01*
X222643886Y-150167342D01*
X222632500Y-150115000D01*
X222632500Y-147843681D01*
X226028860Y-147843681D01*
X226028878Y-147843933D01*
X226034793Y-147852677D01*
X226066111Y-147881174D01*
X226071748Y-147885738D01*
X226347544Y-148083918D01*
X226353682Y-148087813D01*
X226650435Y-148252984D01*
X226656955Y-148256136D01*
X226970738Y-148386109D01*
X226977589Y-148388495D01*
X227304212Y-148481536D01*
X227311301Y-148483120D01*
X227646465Y-148538006D01*
X227653671Y-148538763D01*
X227992926Y-148554762D01*
X228000176Y-148554686D01*
X228339010Y-148531587D01*
X228346219Y-148530676D01*
X228680160Y-148468784D01*
X228687190Y-148467057D01*
X229011819Y-148367187D01*
X229018597Y-148364667D01*
X229329603Y-148228145D01*
X229336043Y-148224864D01*
X229629293Y-148053502D01*
X229635326Y-148049493D01*
X229893828Y-147855405D01*
X229902282Y-147844078D01*
X229895537Y-147831748D01*
X227977810Y-145914020D01*
X227963869Y-145906408D01*
X227962034Y-145906539D01*
X227955420Y-145910790D01*
X226036474Y-147829737D01*
X226028860Y-147843681D01*
X222632500Y-147843681D01*
X222632500Y-145450987D01*
X224953484Y-145450987D01*
X224962374Y-145790505D01*
X224962980Y-145797721D01*
X225010835Y-146133963D01*
X225012269Y-146141074D01*
X225098455Y-146469595D01*
X225100692Y-146476478D01*
X225224064Y-146792914D01*
X225227081Y-146799503D01*
X225386002Y-147099652D01*
X225389761Y-147105860D01*
X225582129Y-147385757D01*
X225586574Y-147391486D01*
X225653743Y-147468484D01*
X225666917Y-147476888D01*
X225676769Y-147471020D01*
X227592980Y-145554810D01*
X227599357Y-145543131D01*
X228329408Y-145543131D01*
X228329539Y-145544966D01*
X228333790Y-145551580D01*
X230251268Y-147469057D01*
X230264622Y-147476349D01*
X230274594Y-147469295D01*
X230381641Y-147341267D01*
X230385957Y-147335456D01*
X230572432Y-147051575D01*
X230576046Y-147045313D01*
X230728658Y-146741882D01*
X230731530Y-146735244D01*
X230848249Y-146416293D01*
X230850345Y-146409351D01*
X230929631Y-146079103D01*
X230930915Y-146071964D01*
X230971816Y-145733973D01*
X230972240Y-145728403D01*
X230978010Y-145544797D01*
X230977937Y-145539204D01*
X230958338Y-145199303D01*
X230957506Y-145192113D01*
X230899113Y-144857529D01*
X230897458Y-144850474D01*
X230800998Y-144524834D01*
X230798540Y-144518006D01*
X230665290Y-144205608D01*
X230662073Y-144199125D01*
X230493788Y-143904089D01*
X230489856Y-143898034D01*
X230288774Y-143624295D01*
X230284166Y-143618726D01*
X230278830Y-143612984D01*
X230265178Y-143604866D01*
X230264570Y-143604887D01*
X230256092Y-143610119D01*
X228337020Y-145529190D01*
X228329408Y-145543131D01*
X227599357Y-145543131D01*
X227600592Y-145540869D01*
X227600461Y-145539034D01*
X227596210Y-145532420D01*
X225677374Y-143613585D01*
X225664581Y-143606599D01*
X225653827Y-143614464D01*
X225493037Y-143819527D01*
X225488902Y-143825476D01*
X225311440Y-144115068D01*
X225308019Y-144121447D01*
X225165016Y-144429522D01*
X225162356Y-144436241D01*
X225055711Y-144758707D01*
X225053834Y-144765711D01*
X224984961Y-145098288D01*
X224983904Y-145105449D01*
X224953712Y-145443735D01*
X224953484Y-145450987D01*
X222632500Y-145450987D01*
X222632500Y-143243048D01*
X226030132Y-143243048D01*
X226036527Y-143254316D01*
X227952190Y-145169980D01*
X227966131Y-145177592D01*
X227967966Y-145177461D01*
X227974580Y-145173210D01*
X229892074Y-143255716D01*
X229899466Y-143242179D01*
X229892679Y-143232479D01*
X229789476Y-143144335D01*
X229783704Y-143139953D01*
X229501796Y-142950519D01*
X229495575Y-142946839D01*
X229193757Y-142791060D01*
X229187146Y-142788116D01*
X228869439Y-142668065D01*
X228862513Y-142665894D01*
X228533112Y-142583155D01*
X228526005Y-142581799D01*
X228189278Y-142537468D01*
X228182036Y-142536937D01*
X227842467Y-142531602D01*
X227835205Y-142531906D01*
X227497256Y-142565638D01*
X227490108Y-142566770D01*
X227158263Y-142639124D01*
X227151285Y-142641072D01*
X226829960Y-142751086D01*
X226823253Y-142753823D01*
X226516707Y-142900039D01*
X226510349Y-142903534D01*
X226222654Y-143084005D01*
X226216731Y-143088214D01*
X226038601Y-143230923D01*
X226030132Y-143243048D01*
X222632500Y-143243048D01*
X222632500Y-142572866D01*
X222625745Y-142510684D01*
X222574615Y-142374295D01*
X222487261Y-142257739D01*
X222370705Y-142170385D01*
X222234316Y-142119255D01*
X222172134Y-142112500D01*
X222118500Y-142112500D01*
X222050379Y-142092498D01*
X222003886Y-142038842D01*
X221992500Y-141986500D01*
X221992500Y-137176269D01*
X221993933Y-137157318D01*
X221996099Y-137143083D01*
X221996099Y-137143081D01*
X221997199Y-137135851D01*
X221996508Y-137127348D01*
X221992915Y-137083182D01*
X221992500Y-137072967D01*
X221992500Y-137064907D01*
X221990214Y-137045301D01*
X221989211Y-137036693D01*
X221988778Y-137032318D01*
X221983454Y-136966861D01*
X221983453Y-136966858D01*
X221982860Y-136959563D01*
X221980604Y-136952599D01*
X221979413Y-136946640D01*
X221978029Y-136940785D01*
X221977182Y-136933519D01*
X221952265Y-136864873D01*
X221950848Y-136860745D01*
X221933366Y-136806781D01*
X221928351Y-136791301D01*
X221924555Y-136785045D01*
X221922049Y-136779572D01*
X221919330Y-136774142D01*
X221916833Y-136767263D01*
X221911164Y-136758616D01*
X221876814Y-136706224D01*
X221874467Y-136702505D01*
X221873417Y-136700774D01*
X221836595Y-136640093D01*
X221829197Y-136631716D01*
X221829224Y-136631692D01*
X221826571Y-136628700D01*
X221823868Y-136625467D01*
X221819856Y-136619348D01*
X221763617Y-136566072D01*
X221761175Y-136563694D01*
X220665485Y-135468004D01*
X220631459Y-135405692D01*
X220628580Y-135378909D01*
X220628580Y-131879567D01*
X220648582Y-131811446D01*
X220702238Y-131764953D01*
X220754580Y-131753567D01*
X221524858Y-131753567D01*
X221527306Y-131753374D01*
X221527314Y-131753374D01*
X221596759Y-131747908D01*
X221602515Y-131747455D01*
X221608088Y-131745962D01*
X221608092Y-131745961D01*
X221776750Y-131700769D01*
X221776751Y-131700769D01*
X221783124Y-131699061D01*
X221949725Y-131614174D01*
X222095036Y-131496503D01*
X222212707Y-131351192D01*
X222297594Y-131184591D01*
X222345988Y-131003982D01*
X222352100Y-130926325D01*
X222352100Y-129277809D01*
X222345988Y-129200152D01*
X222325647Y-129124236D01*
X222299302Y-129025917D01*
X222299302Y-129025916D01*
X222297594Y-129019543D01*
X222212707Y-128852942D01*
X222095036Y-128707631D01*
X221949725Y-128589960D01*
X221783124Y-128505073D01*
X221717093Y-128487380D01*
X221656471Y-128450428D01*
X221625449Y-128386567D01*
X221633878Y-128316073D01*
X221650889Y-128287497D01*
X221651480Y-128286749D01*
X221666895Y-128267266D01*
X221669672Y-128263880D01*
X221712191Y-128213832D01*
X221712192Y-128213830D01*
X221716933Y-128208250D01*
X221720261Y-128201734D01*
X221723628Y-128196685D01*
X221726795Y-128191556D01*
X221731334Y-128185819D01*
X221762255Y-128119660D01*
X221764161Y-128115760D01*
X221776411Y-128091770D01*
X221797369Y-128050727D01*
X221799108Y-128043619D01*
X221801207Y-128037976D01*
X221803124Y-128032213D01*
X221806222Y-128025585D01*
X221821087Y-127954118D01*
X221822057Y-127949834D01*
X221826491Y-127931715D01*
X221839408Y-127878925D01*
X221840100Y-127867771D01*
X221840136Y-127867773D01*
X221840375Y-127863780D01*
X221840749Y-127859588D01*
X221842240Y-127852420D01*
X221840146Y-127775014D01*
X221840100Y-127771607D01*
X221840100Y-126667243D01*
X221860102Y-126599122D01*
X221908898Y-126554976D01*
X221914759Y-126551990D01*
X221949725Y-126534174D01*
X222095036Y-126416503D01*
X222113749Y-126393395D01*
X222208553Y-126276322D01*
X222208554Y-126276321D01*
X222212707Y-126271192D01*
X222297594Y-126104591D01*
X222324517Y-126004113D01*
X222344494Y-125929559D01*
X222344495Y-125929555D01*
X222345988Y-125923982D01*
X222350935Y-125861130D01*
X222351907Y-125848781D01*
X222351907Y-125848773D01*
X222352100Y-125846325D01*
X222352100Y-124197809D01*
X222349015Y-124158605D01*
X222346441Y-124125908D01*
X222345988Y-124120152D01*
X222306588Y-123973107D01*
X222299302Y-123945917D01*
X222299302Y-123945916D01*
X222297594Y-123939543D01*
X222212707Y-123772942D01*
X222156237Y-123703207D01*
X222099187Y-123632757D01*
X222095036Y-123627631D01*
X221949725Y-123509960D01*
X221908898Y-123489158D01*
X221857282Y-123440411D01*
X221840100Y-123376891D01*
X221840100Y-121072670D01*
X221841533Y-121053720D01*
X221843699Y-121039485D01*
X221843699Y-121039481D01*
X221844799Y-121032251D01*
X221844129Y-121024007D01*
X221840515Y-120979582D01*
X221840100Y-120969367D01*
X221840100Y-120961307D01*
X221838551Y-120948017D01*
X221836811Y-120933093D01*
X221836378Y-120928718D01*
X221831054Y-120863261D01*
X221831053Y-120863258D01*
X221830460Y-120855963D01*
X221828204Y-120848999D01*
X221827013Y-120843040D01*
X221825629Y-120837185D01*
X221824782Y-120829919D01*
X221799865Y-120761273D01*
X221798448Y-120757145D01*
X221778207Y-120694664D01*
X221778206Y-120694662D01*
X221775951Y-120687701D01*
X221772155Y-120681446D01*
X221769649Y-120675972D01*
X221766930Y-120670542D01*
X221764433Y-120663663D01*
X221753970Y-120647704D01*
X221724414Y-120602624D01*
X221722067Y-120598905D01*
X221720262Y-120595930D01*
X221684195Y-120536493D01*
X221676797Y-120528116D01*
X221676824Y-120528092D01*
X221674171Y-120525100D01*
X221671468Y-120521867D01*
X221667456Y-120515748D01*
X221611217Y-120462472D01*
X221608775Y-120460094D01*
X220665485Y-119516804D01*
X220631459Y-119454492D01*
X220628580Y-119427709D01*
X220628580Y-111911900D01*
X220648582Y-111843779D01*
X220702238Y-111797286D01*
X220754580Y-111785900D01*
X221524858Y-111785900D01*
X221527306Y-111785707D01*
X221527314Y-111785707D01*
X221596759Y-111780241D01*
X221602515Y-111779788D01*
X221608088Y-111778295D01*
X221608092Y-111778294D01*
X221776750Y-111733102D01*
X221776751Y-111733102D01*
X221783124Y-111731394D01*
X221949725Y-111646507D01*
X222095036Y-111528836D01*
X222212707Y-111383525D01*
X222297594Y-111216924D01*
X222345988Y-111036315D01*
X222352100Y-110958658D01*
X222352100Y-109310142D01*
X222345988Y-109232485D01*
X222297594Y-109051876D01*
X222212707Y-108885275D01*
X222095036Y-108739964D01*
X221949725Y-108622293D01*
X221783124Y-108537406D01*
X221776750Y-108535698D01*
X221608092Y-108490506D01*
X221608088Y-108490505D01*
X221602515Y-108489012D01*
X221580128Y-108487250D01*
X221527314Y-108483093D01*
X221527306Y-108483093D01*
X221524858Y-108482900D01*
X221417571Y-108482900D01*
X221349450Y-108462898D01*
X221302957Y-108409242D01*
X221292853Y-108338968D01*
X221322347Y-108274388D01*
X221328476Y-108267805D01*
X221570511Y-108025770D01*
X221584923Y-108013384D01*
X221596518Y-108004851D01*
X221596523Y-108004846D01*
X221602418Y-108000508D01*
X221607157Y-107994930D01*
X221607160Y-107994927D01*
X221636635Y-107960232D01*
X221643565Y-107952716D01*
X221649260Y-107947021D01*
X221657149Y-107937050D01*
X221666881Y-107924749D01*
X221669672Y-107921345D01*
X221712191Y-107871297D01*
X221712192Y-107871295D01*
X221716933Y-107865715D01*
X221720261Y-107859199D01*
X221723628Y-107854150D01*
X221726795Y-107849021D01*
X221731334Y-107843284D01*
X221762255Y-107777125D01*
X221764161Y-107773225D01*
X221771229Y-107759384D01*
X221797369Y-107708192D01*
X221799108Y-107701084D01*
X221801207Y-107695441D01*
X221803124Y-107689678D01*
X221806222Y-107683050D01*
X221821087Y-107611583D01*
X221822057Y-107607299D01*
X221832498Y-107564628D01*
X221839408Y-107536390D01*
X221840100Y-107525236D01*
X221840136Y-107525238D01*
X221840375Y-107521245D01*
X221840749Y-107517053D01*
X221842240Y-107509885D01*
X221840146Y-107432479D01*
X221840100Y-107429072D01*
X221840100Y-106699576D01*
X221860102Y-106631455D01*
X221908898Y-106587309D01*
X221943843Y-106569504D01*
X221943845Y-106569503D01*
X221949725Y-106566507D01*
X222083411Y-106458250D01*
X222089910Y-106452987D01*
X222095036Y-106448836D01*
X222113749Y-106425728D01*
X222208553Y-106308655D01*
X222208554Y-106308654D01*
X222212707Y-106303525D01*
X222297594Y-106136924D01*
X222307321Y-106100621D01*
X222344494Y-105961892D01*
X222344495Y-105961888D01*
X222345988Y-105956315D01*
X222352100Y-105878658D01*
X222352100Y-104230142D01*
X222345988Y-104152485D01*
X222297594Y-103971876D01*
X222212707Y-103805275D01*
X222095036Y-103659964D01*
X222089910Y-103655813D01*
X221954855Y-103546447D01*
X221954854Y-103546446D01*
X221949725Y-103542293D01*
X221803457Y-103467766D01*
X221751842Y-103419018D01*
X221734660Y-103355499D01*
X221734660Y-101010510D01*
X221736093Y-100991560D01*
X221738259Y-100977325D01*
X221738259Y-100977321D01*
X221739359Y-100970091D01*
X221737740Y-100950180D01*
X221735075Y-100917422D01*
X221734660Y-100907207D01*
X221734660Y-100899147D01*
X221732233Y-100878332D01*
X221731371Y-100870933D01*
X221730938Y-100866558D01*
X221725614Y-100801101D01*
X221725613Y-100801098D01*
X221725020Y-100793803D01*
X221722764Y-100786839D01*
X221721573Y-100780880D01*
X221720189Y-100775025D01*
X221719342Y-100767759D01*
X221694425Y-100699113D01*
X221693008Y-100694985D01*
X221672767Y-100632504D01*
X221672766Y-100632502D01*
X221670511Y-100625541D01*
X221666715Y-100619286D01*
X221664209Y-100613812D01*
X221661490Y-100608382D01*
X221658993Y-100601503D01*
X221650676Y-100588817D01*
X221618974Y-100540464D01*
X221616627Y-100536745D01*
X221613031Y-100530819D01*
X221578755Y-100474333D01*
X221571357Y-100465956D01*
X221571384Y-100465932D01*
X221568731Y-100462940D01*
X221566028Y-100459707D01*
X221562016Y-100453588D01*
X221505777Y-100400312D01*
X221503335Y-100397934D01*
X220560045Y-99454644D01*
X220526019Y-99392332D01*
X220523140Y-99365549D01*
X220523140Y-91896700D01*
X220543142Y-91828579D01*
X220596798Y-91782086D01*
X220649140Y-91770700D01*
X221524858Y-91770700D01*
X221527306Y-91770507D01*
X221527314Y-91770507D01*
X221596759Y-91765041D01*
X221602515Y-91764588D01*
X221608088Y-91763095D01*
X221608092Y-91763094D01*
X221776750Y-91717902D01*
X221776751Y-91717902D01*
X221783124Y-91716194D01*
X221949725Y-91631307D01*
X222095036Y-91513636D01*
X222212707Y-91368325D01*
X222297594Y-91201724D01*
X222345988Y-91021115D01*
X222352100Y-90943458D01*
X222352100Y-89294942D01*
X222345988Y-89217285D01*
X222297594Y-89036676D01*
X222212707Y-88870075D01*
X222095036Y-88724764D01*
X221967189Y-88621235D01*
X221954855Y-88611247D01*
X221954854Y-88611246D01*
X221949725Y-88607093D01*
X221783124Y-88522206D01*
X221776750Y-88520498D01*
X221608092Y-88475306D01*
X221608088Y-88475305D01*
X221602515Y-88473812D01*
X221588069Y-88472675D01*
X221527314Y-88467893D01*
X221527306Y-88467893D01*
X221524858Y-88467700D01*
X221265171Y-88467700D01*
X221197050Y-88447698D01*
X221150557Y-88394042D01*
X221140453Y-88323768D01*
X221169947Y-88259188D01*
X221176076Y-88252605D01*
X221465071Y-87963610D01*
X221479483Y-87951224D01*
X221491078Y-87942691D01*
X221491083Y-87942686D01*
X221496978Y-87938348D01*
X221501717Y-87932770D01*
X221501720Y-87932767D01*
X221531195Y-87898072D01*
X221538125Y-87890556D01*
X221543820Y-87884861D01*
X221554841Y-87870931D01*
X221561441Y-87862589D01*
X221564232Y-87859185D01*
X221606751Y-87809137D01*
X221606752Y-87809135D01*
X221611493Y-87803555D01*
X221614821Y-87797039D01*
X221618188Y-87791990D01*
X221621355Y-87786861D01*
X221625894Y-87781124D01*
X221656815Y-87714965D01*
X221658721Y-87711065D01*
X221659644Y-87709257D01*
X221691929Y-87646032D01*
X221693668Y-87638924D01*
X221695767Y-87633281D01*
X221697684Y-87627518D01*
X221700782Y-87620890D01*
X221702707Y-87611638D01*
X221715310Y-87551044D01*
X221715647Y-87549423D01*
X221716617Y-87545139D01*
X221724695Y-87512127D01*
X221733968Y-87474230D01*
X221734350Y-87468081D01*
X221734660Y-87463076D01*
X221734696Y-87463078D01*
X221734935Y-87459085D01*
X221735309Y-87454893D01*
X221736800Y-87447725D01*
X221734706Y-87370319D01*
X221734660Y-87366912D01*
X221734660Y-86738101D01*
X221754662Y-86669980D01*
X221803457Y-86625834D01*
X221902657Y-86575289D01*
X221949725Y-86551307D01*
X221954859Y-86547150D01*
X222089910Y-86437787D01*
X222095036Y-86433636D01*
X222212707Y-86288325D01*
X222297594Y-86121724D01*
X222345988Y-85941115D01*
X222352100Y-85863458D01*
X222352100Y-84214942D01*
X222345988Y-84137285D01*
X222297594Y-83956676D01*
X222212707Y-83790075D01*
X222095036Y-83644764D01*
X221999500Y-83567400D01*
X221954855Y-83531247D01*
X221954854Y-83531246D01*
X221949725Y-83527093D01*
X221803457Y-83452566D01*
X221751842Y-83403818D01*
X221734660Y-83340299D01*
X221734660Y-81046110D01*
X221736093Y-81027160D01*
X221738259Y-81012925D01*
X221738259Y-81012921D01*
X221739359Y-81005691D01*
X221738559Y-80995847D01*
X221735075Y-80953022D01*
X221734660Y-80942807D01*
X221734660Y-80934747D01*
X221733111Y-80921457D01*
X221731371Y-80906533D01*
X221730938Y-80902158D01*
X221725614Y-80836701D01*
X221725613Y-80836698D01*
X221725020Y-80829403D01*
X221722764Y-80822439D01*
X221721573Y-80816480D01*
X221720189Y-80810625D01*
X221719342Y-80803359D01*
X221694425Y-80734713D01*
X221693008Y-80730585D01*
X221672767Y-80668104D01*
X221672766Y-80668102D01*
X221670511Y-80661141D01*
X221666715Y-80654886D01*
X221664209Y-80649412D01*
X221661490Y-80643982D01*
X221658993Y-80637103D01*
X221646012Y-80617304D01*
X221618974Y-80576064D01*
X221616627Y-80572345D01*
X221609581Y-80560733D01*
X221578755Y-80509933D01*
X221571357Y-80501556D01*
X221571384Y-80501532D01*
X221568731Y-80498540D01*
X221566028Y-80495307D01*
X221562016Y-80489188D01*
X221505777Y-80435912D01*
X221503335Y-80433534D01*
X220560045Y-79490244D01*
X220526019Y-79427932D01*
X220523140Y-79401149D01*
X220523140Y-71881500D01*
X220543142Y-71813379D01*
X220596798Y-71766886D01*
X220649140Y-71755500D01*
X221524858Y-71755500D01*
X221527306Y-71755307D01*
X221527314Y-71755307D01*
X221596759Y-71749841D01*
X221602515Y-71749388D01*
X221608088Y-71747895D01*
X221608092Y-71747894D01*
X221776750Y-71702702D01*
X221776751Y-71702702D01*
X221783124Y-71700994D01*
X221949725Y-71616107D01*
X222095036Y-71498436D01*
X222212707Y-71353125D01*
X222297594Y-71186524D01*
X222345988Y-71005915D01*
X222352100Y-70928258D01*
X222352100Y-69279742D01*
X222345988Y-69202085D01*
X222297594Y-69021476D01*
X222212707Y-68854875D01*
X222095036Y-68709564D01*
X221949725Y-68591893D01*
X221783124Y-68507006D01*
X221776750Y-68505298D01*
X221608092Y-68460106D01*
X221608088Y-68460105D01*
X221602515Y-68458612D01*
X221588069Y-68457475D01*
X221527314Y-68452693D01*
X221527306Y-68452693D01*
X221524858Y-68452500D01*
X221315971Y-68452500D01*
X221247850Y-68432498D01*
X221201357Y-68378842D01*
X221191253Y-68308568D01*
X221220747Y-68243988D01*
X221226876Y-68237405D01*
X221465071Y-67999210D01*
X221479483Y-67986824D01*
X221491078Y-67978291D01*
X221491083Y-67978286D01*
X221496978Y-67973948D01*
X221501717Y-67968370D01*
X221501720Y-67968367D01*
X221531195Y-67933672D01*
X221538125Y-67926156D01*
X221543820Y-67920461D01*
X221552553Y-67909423D01*
X221561441Y-67898189D01*
X221564232Y-67894785D01*
X221606751Y-67844737D01*
X221606752Y-67844735D01*
X221611493Y-67839155D01*
X221614821Y-67832639D01*
X221618188Y-67827590D01*
X221621355Y-67822461D01*
X221625894Y-67816724D01*
X221656815Y-67750565D01*
X221658721Y-67746665D01*
X221660052Y-67744058D01*
X221691929Y-67681632D01*
X221693668Y-67674524D01*
X221695767Y-67668881D01*
X221697684Y-67663118D01*
X221700782Y-67656490D01*
X221715647Y-67585023D01*
X221716617Y-67580739D01*
X221721146Y-67562229D01*
X221733968Y-67509830D01*
X221734660Y-67498676D01*
X221734696Y-67498678D01*
X221734935Y-67494685D01*
X221735309Y-67490493D01*
X221736800Y-67483325D01*
X221734706Y-67405919D01*
X221734660Y-67402512D01*
X221734660Y-66722901D01*
X221754662Y-66654780D01*
X221803457Y-66610634D01*
X221836260Y-66593920D01*
X221949725Y-66536107D01*
X221954859Y-66531950D01*
X222089910Y-66422587D01*
X222095036Y-66418436D01*
X222132070Y-66372703D01*
X222208553Y-66278255D01*
X222208554Y-66278254D01*
X222212707Y-66273125D01*
X222297594Y-66106524D01*
X222340112Y-65947844D01*
X222344494Y-65931492D01*
X222344495Y-65931488D01*
X222345988Y-65925915D01*
X222348981Y-65887892D01*
X222351907Y-65850714D01*
X222351907Y-65850706D01*
X222352100Y-65848258D01*
X222352100Y-64836481D01*
X227425860Y-64836481D01*
X227425878Y-64836733D01*
X227431793Y-64845477D01*
X227463111Y-64873974D01*
X227468748Y-64878538D01*
X227744544Y-65076718D01*
X227750682Y-65080613D01*
X228047435Y-65245784D01*
X228053955Y-65248936D01*
X228367738Y-65378909D01*
X228374589Y-65381295D01*
X228701212Y-65474336D01*
X228708301Y-65475920D01*
X229043465Y-65530806D01*
X229050671Y-65531563D01*
X229389926Y-65547562D01*
X229397176Y-65547486D01*
X229736010Y-65524387D01*
X229743219Y-65523476D01*
X230077160Y-65461584D01*
X230084190Y-65459857D01*
X230408819Y-65359987D01*
X230415597Y-65357467D01*
X230726603Y-65220945D01*
X230733043Y-65217664D01*
X231026293Y-65046302D01*
X231032326Y-65042293D01*
X231290828Y-64848205D01*
X231299282Y-64836878D01*
X231292537Y-64824548D01*
X229374810Y-62906820D01*
X229360869Y-62899208D01*
X229359034Y-62899339D01*
X229352420Y-62903590D01*
X227433474Y-64822537D01*
X227425860Y-64836481D01*
X222352100Y-64836481D01*
X222352100Y-64199742D01*
X222349315Y-64164349D01*
X222346441Y-64127841D01*
X222345988Y-64122085D01*
X222339712Y-64098660D01*
X222299302Y-63947850D01*
X222299302Y-63947849D01*
X222297594Y-63941476D01*
X222212707Y-63774875D01*
X222095036Y-63629564D01*
X221949725Y-63511893D01*
X221783124Y-63427006D01*
X221769084Y-63423244D01*
X221608092Y-63380106D01*
X221608088Y-63380105D01*
X221602515Y-63378612D01*
X221591134Y-63377716D01*
X221527314Y-63372693D01*
X221527306Y-63372693D01*
X221524858Y-63372500D01*
X220638342Y-63372500D01*
X220635894Y-63372693D01*
X220635886Y-63372693D01*
X220572066Y-63377716D01*
X220560685Y-63378612D01*
X220555112Y-63380105D01*
X220555108Y-63380106D01*
X220394116Y-63423244D01*
X220380076Y-63427006D01*
X220213475Y-63511893D01*
X220068164Y-63629564D01*
X219950493Y-63774875D01*
X219947498Y-63780752D01*
X219947494Y-63780759D01*
X219923867Y-63827131D01*
X219875119Y-63878747D01*
X219806204Y-63895813D01*
X219739003Y-63872913D01*
X219699333Y-63827131D01*
X219675706Y-63780759D01*
X219675702Y-63780752D01*
X219672707Y-63774875D01*
X219555036Y-63629564D01*
X219409725Y-63511893D01*
X219243124Y-63427006D01*
X219229084Y-63423244D01*
X219068092Y-63380106D01*
X219068088Y-63380105D01*
X219062515Y-63378612D01*
X219051134Y-63377716D01*
X218987314Y-63372693D01*
X218987306Y-63372693D01*
X218984858Y-63372500D01*
X218098342Y-63372500D01*
X218095894Y-63372693D01*
X218095886Y-63372693D01*
X218032066Y-63377716D01*
X218020685Y-63378612D01*
X218015112Y-63380105D01*
X218015108Y-63380106D01*
X217854116Y-63423244D01*
X217840076Y-63427006D01*
X217673475Y-63511893D01*
X217528164Y-63629564D01*
X217410493Y-63774875D01*
X217407498Y-63780752D01*
X217407494Y-63780759D01*
X217383867Y-63827131D01*
X217335119Y-63878747D01*
X217266204Y-63895813D01*
X217199003Y-63872913D01*
X217159333Y-63827131D01*
X217135706Y-63780759D01*
X217135702Y-63780752D01*
X217132707Y-63774875D01*
X217015036Y-63629564D01*
X216869725Y-63511893D01*
X216703124Y-63427006D01*
X216689084Y-63423244D01*
X216528092Y-63380106D01*
X216528088Y-63380105D01*
X216522515Y-63378612D01*
X216511134Y-63377716D01*
X216447314Y-63372693D01*
X216447306Y-63372693D01*
X216444858Y-63372500D01*
X215558342Y-63372500D01*
X215555894Y-63372693D01*
X215555886Y-63372693D01*
X215492066Y-63377716D01*
X215480685Y-63378612D01*
X215475112Y-63380105D01*
X215475108Y-63380106D01*
X215314116Y-63423244D01*
X215300076Y-63427006D01*
X215133475Y-63511893D01*
X214988164Y-63629564D01*
X214870493Y-63774875D01*
X214867498Y-63780752D01*
X214867494Y-63780759D01*
X214843867Y-63827131D01*
X214795119Y-63878747D01*
X214726204Y-63895813D01*
X214659003Y-63872913D01*
X214619333Y-63827131D01*
X214595706Y-63780759D01*
X214595702Y-63780752D01*
X214592707Y-63774875D01*
X214475036Y-63629564D01*
X214329725Y-63511893D01*
X214163124Y-63427006D01*
X214149084Y-63423244D01*
X213988092Y-63380106D01*
X213988088Y-63380105D01*
X213982515Y-63378612D01*
X213971134Y-63377716D01*
X213907314Y-63372693D01*
X213907306Y-63372693D01*
X213904858Y-63372500D01*
X213018342Y-63372500D01*
X213015894Y-63372693D01*
X213015886Y-63372693D01*
X212952066Y-63377716D01*
X212940685Y-63378612D01*
X212935112Y-63380105D01*
X212935108Y-63380106D01*
X212774116Y-63423244D01*
X212760076Y-63427006D01*
X212593475Y-63511893D01*
X212448164Y-63629564D01*
X212330493Y-63774875D01*
X212327498Y-63780752D01*
X212327494Y-63780759D01*
X212303867Y-63827131D01*
X212255119Y-63878747D01*
X212186204Y-63895813D01*
X212119003Y-63872913D01*
X212079333Y-63827131D01*
X212055706Y-63780759D01*
X212055702Y-63780752D01*
X212052707Y-63774875D01*
X211935036Y-63629564D01*
X211789725Y-63511893D01*
X211623124Y-63427006D01*
X211609084Y-63423244D01*
X211448092Y-63380106D01*
X211448088Y-63380105D01*
X211442515Y-63378612D01*
X211431134Y-63377716D01*
X211367314Y-63372693D01*
X211367306Y-63372693D01*
X211364858Y-63372500D01*
X210478342Y-63372500D01*
X210475894Y-63372693D01*
X210475886Y-63372693D01*
X210412066Y-63377716D01*
X210400685Y-63378612D01*
X210395112Y-63380105D01*
X210395108Y-63380106D01*
X210234116Y-63423244D01*
X210220076Y-63427006D01*
X210053475Y-63511893D01*
X209908164Y-63629564D01*
X209790493Y-63774875D01*
X209787498Y-63780752D01*
X209787494Y-63780759D01*
X209763867Y-63827131D01*
X209715119Y-63878747D01*
X209646204Y-63895813D01*
X209579003Y-63872913D01*
X209539333Y-63827131D01*
X209515706Y-63780759D01*
X209515702Y-63780752D01*
X209512707Y-63774875D01*
X209395036Y-63629564D01*
X209249725Y-63511893D01*
X209083124Y-63427006D01*
X209069084Y-63423244D01*
X208908092Y-63380106D01*
X208908088Y-63380105D01*
X208902515Y-63378612D01*
X208891134Y-63377716D01*
X208827314Y-63372693D01*
X208827306Y-63372693D01*
X208824858Y-63372500D01*
X207938342Y-63372500D01*
X207935894Y-63372693D01*
X207935886Y-63372693D01*
X207872066Y-63377716D01*
X207860685Y-63378612D01*
X207855112Y-63380105D01*
X207855108Y-63380106D01*
X207694116Y-63423244D01*
X207680076Y-63427006D01*
X207513475Y-63511893D01*
X207368164Y-63629564D01*
X207250493Y-63774875D01*
X207247498Y-63780752D01*
X207247494Y-63780759D01*
X207223867Y-63827131D01*
X207175119Y-63878747D01*
X207106204Y-63895813D01*
X207039003Y-63872913D01*
X206999333Y-63827131D01*
X206975706Y-63780759D01*
X206975702Y-63780752D01*
X206972707Y-63774875D01*
X206855036Y-63629564D01*
X206709725Y-63511893D01*
X206543124Y-63427006D01*
X206529084Y-63423244D01*
X206368092Y-63380106D01*
X206368088Y-63380105D01*
X206362515Y-63378612D01*
X206351134Y-63377716D01*
X206287314Y-63372693D01*
X206287306Y-63372693D01*
X206284858Y-63372500D01*
X205398342Y-63372500D01*
X205395894Y-63372693D01*
X205395886Y-63372693D01*
X205332066Y-63377716D01*
X205320685Y-63378612D01*
X205315112Y-63380105D01*
X205315108Y-63380106D01*
X205154116Y-63423244D01*
X205140076Y-63427006D01*
X204973475Y-63511893D01*
X204828164Y-63629564D01*
X204710493Y-63774875D01*
X204707498Y-63780752D01*
X204707494Y-63780759D01*
X204683867Y-63827131D01*
X204635119Y-63878747D01*
X204566204Y-63895813D01*
X204499003Y-63872913D01*
X204459333Y-63827131D01*
X204435706Y-63780759D01*
X204435702Y-63780752D01*
X204432707Y-63774875D01*
X204315036Y-63629564D01*
X204169725Y-63511893D01*
X204003124Y-63427006D01*
X203989084Y-63423244D01*
X203828092Y-63380106D01*
X203828088Y-63380105D01*
X203822515Y-63378612D01*
X203811134Y-63377716D01*
X203747314Y-63372693D01*
X203747306Y-63372693D01*
X203744858Y-63372500D01*
X202858342Y-63372500D01*
X202855894Y-63372693D01*
X202855886Y-63372693D01*
X202792066Y-63377716D01*
X202780685Y-63378612D01*
X202775112Y-63380105D01*
X202775108Y-63380106D01*
X202614116Y-63423244D01*
X202600076Y-63427006D01*
X202433475Y-63511893D01*
X202288164Y-63629564D01*
X202170493Y-63774875D01*
X202167498Y-63780752D01*
X202167494Y-63780759D01*
X202143867Y-63827131D01*
X202095119Y-63878747D01*
X202026204Y-63895813D01*
X201959003Y-63872913D01*
X201919333Y-63827131D01*
X201895706Y-63780759D01*
X201895702Y-63780752D01*
X201892707Y-63774875D01*
X201775036Y-63629564D01*
X201629725Y-63511893D01*
X201463124Y-63427006D01*
X201449084Y-63423244D01*
X201288092Y-63380106D01*
X201288088Y-63380105D01*
X201282515Y-63378612D01*
X201271134Y-63377716D01*
X201207314Y-63372693D01*
X201207306Y-63372693D01*
X201204858Y-63372500D01*
X200318342Y-63372500D01*
X200315894Y-63372693D01*
X200315886Y-63372693D01*
X200252066Y-63377716D01*
X200240685Y-63378612D01*
X200235112Y-63380105D01*
X200235108Y-63380106D01*
X200074116Y-63423244D01*
X200060076Y-63427006D01*
X199893475Y-63511893D01*
X199748164Y-63629564D01*
X199630493Y-63774875D01*
X199627498Y-63780752D01*
X199627494Y-63780759D01*
X199603867Y-63827131D01*
X199555119Y-63878747D01*
X199486204Y-63895813D01*
X199419003Y-63872913D01*
X199379333Y-63827131D01*
X199355706Y-63780759D01*
X199355702Y-63780752D01*
X199352707Y-63774875D01*
X199235036Y-63629564D01*
X199089725Y-63511893D01*
X198923124Y-63427006D01*
X198909084Y-63423244D01*
X198748092Y-63380106D01*
X198748088Y-63380105D01*
X198742515Y-63378612D01*
X198731134Y-63377716D01*
X198667314Y-63372693D01*
X198667306Y-63372693D01*
X198664858Y-63372500D01*
X197778342Y-63372500D01*
X197775894Y-63372693D01*
X197775886Y-63372693D01*
X197712066Y-63377716D01*
X197700685Y-63378612D01*
X197695112Y-63380105D01*
X197695108Y-63380106D01*
X197534116Y-63423244D01*
X197520076Y-63427006D01*
X197353475Y-63511893D01*
X197208164Y-63629564D01*
X197090493Y-63774875D01*
X197087498Y-63780752D01*
X197087494Y-63780759D01*
X197063867Y-63827131D01*
X197015119Y-63878747D01*
X196946204Y-63895813D01*
X196879003Y-63872913D01*
X196839333Y-63827131D01*
X196815706Y-63780759D01*
X196815702Y-63780752D01*
X196812707Y-63774875D01*
X196695036Y-63629564D01*
X196549725Y-63511893D01*
X196383124Y-63427006D01*
X196369084Y-63423244D01*
X196208092Y-63380106D01*
X196208088Y-63380105D01*
X196202515Y-63378612D01*
X196191134Y-63377716D01*
X196127314Y-63372693D01*
X196127306Y-63372693D01*
X196124858Y-63372500D01*
X195238342Y-63372500D01*
X195235894Y-63372693D01*
X195235886Y-63372693D01*
X195172066Y-63377716D01*
X195160685Y-63378612D01*
X195155112Y-63380105D01*
X195155108Y-63380106D01*
X194994116Y-63423244D01*
X194980076Y-63427006D01*
X194813475Y-63511893D01*
X194668164Y-63629564D01*
X194550493Y-63774875D01*
X194547498Y-63780752D01*
X194547494Y-63780759D01*
X194523867Y-63827131D01*
X194475119Y-63878747D01*
X194406204Y-63895813D01*
X194339003Y-63872913D01*
X194299333Y-63827131D01*
X194275706Y-63780759D01*
X194275702Y-63780752D01*
X194272707Y-63774875D01*
X194155036Y-63629564D01*
X194009725Y-63511893D01*
X193843124Y-63427006D01*
X193829084Y-63423244D01*
X193668092Y-63380106D01*
X193668088Y-63380105D01*
X193662515Y-63378612D01*
X193651134Y-63377716D01*
X193587314Y-63372693D01*
X193587306Y-63372693D01*
X193584858Y-63372500D01*
X192698342Y-63372500D01*
X192695894Y-63372693D01*
X192695886Y-63372693D01*
X192632066Y-63377716D01*
X192620685Y-63378612D01*
X192615112Y-63380105D01*
X192615108Y-63380106D01*
X192454116Y-63423244D01*
X192440076Y-63427006D01*
X192273475Y-63511893D01*
X192128164Y-63629564D01*
X192010493Y-63774875D01*
X192007498Y-63780752D01*
X192007494Y-63780759D01*
X191983867Y-63827131D01*
X191935119Y-63878747D01*
X191866204Y-63895813D01*
X191799003Y-63872913D01*
X191759333Y-63827131D01*
X191735706Y-63780759D01*
X191735702Y-63780752D01*
X191732707Y-63774875D01*
X191615036Y-63629564D01*
X191469725Y-63511893D01*
X191303124Y-63427006D01*
X191289084Y-63423244D01*
X191128092Y-63380106D01*
X191128088Y-63380105D01*
X191122515Y-63378612D01*
X191111134Y-63377716D01*
X191047314Y-63372693D01*
X191047306Y-63372693D01*
X191044858Y-63372500D01*
X190158342Y-63372500D01*
X190155894Y-63372693D01*
X190155886Y-63372693D01*
X190092066Y-63377716D01*
X190080685Y-63378612D01*
X190075112Y-63380105D01*
X190075108Y-63380106D01*
X189914116Y-63423244D01*
X189900076Y-63427006D01*
X189733475Y-63511893D01*
X189588164Y-63629564D01*
X189470493Y-63774875D01*
X189467498Y-63780752D01*
X189467494Y-63780759D01*
X189443867Y-63827131D01*
X189395119Y-63878747D01*
X189326204Y-63895813D01*
X189259003Y-63872913D01*
X189219333Y-63827131D01*
X189195706Y-63780759D01*
X189195702Y-63780752D01*
X189192707Y-63774875D01*
X189075036Y-63629564D01*
X188929725Y-63511893D01*
X188763124Y-63427006D01*
X188749084Y-63423244D01*
X188588092Y-63380106D01*
X188588088Y-63380105D01*
X188582515Y-63378612D01*
X188571134Y-63377716D01*
X188507314Y-63372693D01*
X188507306Y-63372693D01*
X188504858Y-63372500D01*
X187618342Y-63372500D01*
X187615894Y-63372693D01*
X187615886Y-63372693D01*
X187552066Y-63377716D01*
X187540685Y-63378612D01*
X187535112Y-63380105D01*
X187535108Y-63380106D01*
X187374116Y-63423244D01*
X187360076Y-63427006D01*
X187193475Y-63511893D01*
X187048164Y-63629564D01*
X186930493Y-63774875D01*
X186927498Y-63780752D01*
X186927494Y-63780759D01*
X186903867Y-63827131D01*
X186855119Y-63878747D01*
X186786204Y-63895813D01*
X186719003Y-63872913D01*
X186679333Y-63827131D01*
X186655706Y-63780759D01*
X186655702Y-63780752D01*
X186652707Y-63774875D01*
X186535036Y-63629564D01*
X186389725Y-63511893D01*
X186223124Y-63427006D01*
X186209084Y-63423244D01*
X186048092Y-63380106D01*
X186048088Y-63380105D01*
X186042515Y-63378612D01*
X186031134Y-63377716D01*
X185967314Y-63372693D01*
X185967306Y-63372693D01*
X185964858Y-63372500D01*
X185078342Y-63372500D01*
X185075894Y-63372693D01*
X185075886Y-63372693D01*
X185012066Y-63377716D01*
X185000685Y-63378612D01*
X184995112Y-63380105D01*
X184995108Y-63380106D01*
X184834116Y-63423244D01*
X184820076Y-63427006D01*
X184653475Y-63511893D01*
X184508164Y-63629564D01*
X184390493Y-63774875D01*
X184387498Y-63780752D01*
X184387494Y-63780759D01*
X184363867Y-63827131D01*
X184315119Y-63878747D01*
X184246204Y-63895813D01*
X184179003Y-63872913D01*
X184139333Y-63827131D01*
X184115706Y-63780759D01*
X184115702Y-63780752D01*
X184112707Y-63774875D01*
X183995036Y-63629564D01*
X183849725Y-63511893D01*
X183683124Y-63427006D01*
X183669084Y-63423244D01*
X183508092Y-63380106D01*
X183508088Y-63380105D01*
X183502515Y-63378612D01*
X183491134Y-63377716D01*
X183427314Y-63372693D01*
X183427306Y-63372693D01*
X183424858Y-63372500D01*
X182538342Y-63372500D01*
X182535894Y-63372693D01*
X182535886Y-63372693D01*
X182472066Y-63377716D01*
X182460685Y-63378612D01*
X182455112Y-63380105D01*
X182455108Y-63380106D01*
X182294116Y-63423244D01*
X182280076Y-63427006D01*
X182113475Y-63511893D01*
X181968164Y-63629564D01*
X181850493Y-63774875D01*
X181847498Y-63780752D01*
X181847494Y-63780759D01*
X181823867Y-63827131D01*
X181775119Y-63878747D01*
X181706204Y-63895813D01*
X181639003Y-63872913D01*
X181599333Y-63827131D01*
X181575706Y-63780759D01*
X181575702Y-63780752D01*
X181572707Y-63774875D01*
X181455036Y-63629564D01*
X181309725Y-63511893D01*
X181143124Y-63427006D01*
X181129084Y-63423244D01*
X180968092Y-63380106D01*
X180968088Y-63380105D01*
X180962515Y-63378612D01*
X180951134Y-63377716D01*
X180887314Y-63372693D01*
X180887306Y-63372693D01*
X180884858Y-63372500D01*
X179998342Y-63372500D01*
X179995894Y-63372693D01*
X179995886Y-63372693D01*
X179932066Y-63377716D01*
X179920685Y-63378612D01*
X179915112Y-63380105D01*
X179915108Y-63380106D01*
X179754116Y-63423244D01*
X179740076Y-63427006D01*
X179573475Y-63511893D01*
X179428164Y-63629564D01*
X179310493Y-63774875D01*
X179307498Y-63780752D01*
X179307494Y-63780759D01*
X179283867Y-63827131D01*
X179235119Y-63878747D01*
X179166204Y-63895813D01*
X179099003Y-63872913D01*
X179059333Y-63827131D01*
X179035706Y-63780759D01*
X179035702Y-63780752D01*
X179032707Y-63774875D01*
X178915036Y-63629564D01*
X178769725Y-63511893D01*
X178603124Y-63427006D01*
X178589084Y-63423244D01*
X178428092Y-63380106D01*
X178428088Y-63380105D01*
X178422515Y-63378612D01*
X178411134Y-63377716D01*
X178347314Y-63372693D01*
X178347306Y-63372693D01*
X178344858Y-63372500D01*
X177458342Y-63372500D01*
X177455894Y-63372693D01*
X177455886Y-63372693D01*
X177392066Y-63377716D01*
X177380685Y-63378612D01*
X177375112Y-63380105D01*
X177375108Y-63380106D01*
X177214116Y-63423244D01*
X177200076Y-63427006D01*
X177033475Y-63511893D01*
X176888164Y-63629564D01*
X176770493Y-63774875D01*
X176767498Y-63780752D01*
X176767494Y-63780759D01*
X176743867Y-63827131D01*
X176695119Y-63878747D01*
X176626204Y-63895813D01*
X176559003Y-63872913D01*
X176519333Y-63827131D01*
X176495706Y-63780759D01*
X176495702Y-63780752D01*
X176492707Y-63774875D01*
X176375036Y-63629564D01*
X176229725Y-63511893D01*
X176063124Y-63427006D01*
X176049084Y-63423244D01*
X175888092Y-63380106D01*
X175888088Y-63380105D01*
X175882515Y-63378612D01*
X175871134Y-63377716D01*
X175807314Y-63372693D01*
X175807306Y-63372693D01*
X175804858Y-63372500D01*
X174918342Y-63372500D01*
X174915894Y-63372693D01*
X174915886Y-63372693D01*
X174852066Y-63377716D01*
X174840685Y-63378612D01*
X174835112Y-63380105D01*
X174835108Y-63380106D01*
X174674116Y-63423244D01*
X174660076Y-63427006D01*
X174493475Y-63511893D01*
X174348164Y-63629564D01*
X174230493Y-63774875D01*
X174227498Y-63780752D01*
X174227494Y-63780759D01*
X174203867Y-63827131D01*
X174155119Y-63878747D01*
X174086204Y-63895813D01*
X174019003Y-63872913D01*
X173979333Y-63827131D01*
X173955706Y-63780759D01*
X173955702Y-63780752D01*
X173952707Y-63774875D01*
X173835036Y-63629564D01*
X173689725Y-63511893D01*
X173523124Y-63427006D01*
X173509084Y-63423244D01*
X173348092Y-63380106D01*
X173348088Y-63380105D01*
X173342515Y-63378612D01*
X173331134Y-63377716D01*
X173267314Y-63372693D01*
X173267306Y-63372693D01*
X173264858Y-63372500D01*
X172378342Y-63372500D01*
X172375894Y-63372693D01*
X172375886Y-63372693D01*
X172312066Y-63377716D01*
X172300685Y-63378612D01*
X172295112Y-63380105D01*
X172295108Y-63380106D01*
X172134116Y-63423244D01*
X172120076Y-63427006D01*
X171953475Y-63511893D01*
X171808164Y-63629564D01*
X171690493Y-63774875D01*
X171687498Y-63780752D01*
X171687494Y-63780759D01*
X171663867Y-63827131D01*
X171615119Y-63878747D01*
X171546204Y-63895813D01*
X171479003Y-63872913D01*
X171439333Y-63827131D01*
X171415706Y-63780759D01*
X171415702Y-63780752D01*
X171412707Y-63774875D01*
X171295036Y-63629564D01*
X171149725Y-63511893D01*
X170983124Y-63427006D01*
X170969084Y-63423244D01*
X170808092Y-63380106D01*
X170808088Y-63380105D01*
X170802515Y-63378612D01*
X170791134Y-63377716D01*
X170727314Y-63372693D01*
X170727306Y-63372693D01*
X170724858Y-63372500D01*
X169838342Y-63372500D01*
X169835894Y-63372693D01*
X169835886Y-63372693D01*
X169772066Y-63377716D01*
X169760685Y-63378612D01*
X169755112Y-63380105D01*
X169755108Y-63380106D01*
X169594116Y-63423244D01*
X169580076Y-63427006D01*
X169413475Y-63511893D01*
X169268164Y-63629564D01*
X169150493Y-63774875D01*
X169147498Y-63780752D01*
X169147494Y-63780759D01*
X169118779Y-63837117D01*
X169070031Y-63888733D01*
X169001116Y-63905799D01*
X168933915Y-63882899D01*
X168895261Y-63839068D01*
X168853836Y-63761159D01*
X168850734Y-63755325D01*
X168730545Y-63612089D01*
X168583203Y-63496972D01*
X168415146Y-63415006D01*
X168313029Y-63389545D01*
X168239323Y-63371168D01*
X168233720Y-63369771D01*
X168167251Y-63365706D01*
X168158438Y-63365167D01*
X168158437Y-63365167D01*
X168155968Y-63365016D01*
X168153500Y-63365059D01*
X168153497Y-63365059D01*
X167272048Y-63380444D01*
X167272047Y-63380444D01*
X167269587Y-63380487D01*
X167192048Y-63387954D01*
X167186499Y-63389545D01*
X167186500Y-63389545D01*
X167018657Y-63437673D01*
X167018654Y-63437674D01*
X167012311Y-63439493D01*
X167006486Y-63442590D01*
X167006484Y-63442591D01*
X166868332Y-63516047D01*
X166847217Y-63527274D01*
X166703982Y-63647463D01*
X166588865Y-63794806D01*
X166579335Y-63814345D01*
X166531498Y-63866802D01*
X166462891Y-63885069D01*
X166395300Y-63863346D01*
X166353821Y-63816313D01*
X166335704Y-63780756D01*
X166335702Y-63780752D01*
X166332707Y-63774875D01*
X166215036Y-63629564D01*
X166069725Y-63511893D01*
X165903124Y-63427006D01*
X165889084Y-63423244D01*
X165728092Y-63380106D01*
X165728088Y-63380105D01*
X165722515Y-63378612D01*
X165711134Y-63377716D01*
X165647314Y-63372693D01*
X165647306Y-63372693D01*
X165644858Y-63372500D01*
X164758342Y-63372500D01*
X164755894Y-63372693D01*
X164755886Y-63372693D01*
X164692066Y-63377716D01*
X164680685Y-63378612D01*
X164675112Y-63380105D01*
X164675108Y-63380106D01*
X164514116Y-63423244D01*
X164500076Y-63427006D01*
X164333475Y-63511893D01*
X164188164Y-63629564D01*
X164070493Y-63774875D01*
X163985606Y-63941476D01*
X163983898Y-63947849D01*
X163983898Y-63947850D01*
X163943489Y-64098660D01*
X163937212Y-64122085D01*
X163936759Y-64127841D01*
X163933886Y-64164349D01*
X163931100Y-64199742D01*
X163931100Y-65169629D01*
X163911098Y-65237750D01*
X163894195Y-65258724D01*
X162934689Y-66218230D01*
X162920277Y-66230616D01*
X162908682Y-66239149D01*
X162908677Y-66239154D01*
X162902782Y-66243492D01*
X162898043Y-66249070D01*
X162898040Y-66249073D01*
X162868565Y-66283768D01*
X162861635Y-66291284D01*
X162855940Y-66296979D01*
X162853660Y-66299861D01*
X162838319Y-66319251D01*
X162835528Y-66322655D01*
X162793009Y-66372703D01*
X162788267Y-66378285D01*
X162784939Y-66384801D01*
X162781572Y-66389850D01*
X162778405Y-66394979D01*
X162773866Y-66400716D01*
X162742945Y-66466875D01*
X162741042Y-66470769D01*
X162707831Y-66535808D01*
X162706092Y-66542916D01*
X162703993Y-66548559D01*
X162702076Y-66554322D01*
X162698978Y-66560950D01*
X162684696Y-66629616D01*
X162684114Y-66632412D01*
X162683144Y-66636696D01*
X162665792Y-66707610D01*
X162665100Y-66718764D01*
X162665064Y-66718762D01*
X162664825Y-66722755D01*
X162664451Y-66726947D01*
X162662960Y-66734115D01*
X162663158Y-66741432D01*
X162665054Y-66811521D01*
X162665100Y-66814928D01*
X162665100Y-69252127D01*
X162653250Y-69305472D01*
X162641345Y-69330943D01*
X162639442Y-69334837D01*
X162606231Y-69399876D01*
X162604492Y-69406984D01*
X162602393Y-69412627D01*
X162600476Y-69418390D01*
X162597378Y-69425018D01*
X162595888Y-69432180D01*
X162595888Y-69432181D01*
X162582514Y-69496480D01*
X162581544Y-69500764D01*
X162564192Y-69571678D01*
X162563500Y-69582832D01*
X162563464Y-69582830D01*
X162563225Y-69586823D01*
X162562851Y-69591015D01*
X162561360Y-69598183D01*
X162561558Y-69605500D01*
X162563454Y-69675589D01*
X162563500Y-69678996D01*
X162563500Y-86830859D01*
X162563001Y-86842060D01*
X162562850Y-86843750D01*
X162561360Y-86850915D01*
X162562284Y-86885085D01*
X162563454Y-86928321D01*
X162563500Y-86931728D01*
X162563500Y-103107730D01*
X162562067Y-103126680D01*
X162558801Y-103148149D01*
X162559394Y-103155441D01*
X162559394Y-103155444D01*
X162563085Y-103200818D01*
X162563500Y-103211033D01*
X162563500Y-103219093D01*
X162563925Y-103222737D01*
X162566789Y-103247307D01*
X162567222Y-103251682D01*
X162573140Y-103324437D01*
X162575396Y-103331401D01*
X162576587Y-103337360D01*
X162577971Y-103343215D01*
X162578818Y-103350481D01*
X162603735Y-103419127D01*
X162605152Y-103423255D01*
X162625293Y-103485425D01*
X162627649Y-103492699D01*
X162631445Y-103498954D01*
X162633951Y-103504428D01*
X162636670Y-103509858D01*
X162639167Y-103516737D01*
X162643180Y-103522857D01*
X162643180Y-103522858D01*
X162679186Y-103577776D01*
X162681523Y-103581480D01*
X162719405Y-103643907D01*
X162723121Y-103648115D01*
X162723122Y-103648116D01*
X162726803Y-103652284D01*
X162726776Y-103652308D01*
X162729429Y-103655300D01*
X162732132Y-103658533D01*
X162736144Y-103664652D01*
X162792383Y-103717928D01*
X162794825Y-103720306D01*
X163894195Y-104819676D01*
X163928221Y-104881988D01*
X163931100Y-104908771D01*
X163931100Y-105200029D01*
X163911098Y-105268150D01*
X163894195Y-105289124D01*
X163501169Y-105682150D01*
X163486757Y-105694536D01*
X163475162Y-105703069D01*
X163475157Y-105703074D01*
X163469262Y-105707412D01*
X163464523Y-105712990D01*
X163464520Y-105712993D01*
X163435045Y-105747688D01*
X163428115Y-105755204D01*
X163422420Y-105760899D01*
X163420140Y-105763781D01*
X163404799Y-105783171D01*
X163402008Y-105786575D01*
X163359489Y-105836623D01*
X163354747Y-105842205D01*
X163351419Y-105848721D01*
X163348052Y-105853770D01*
X163344885Y-105858899D01*
X163340346Y-105864636D01*
X163309425Y-105930795D01*
X163307522Y-105934689D01*
X163274311Y-105999728D01*
X163272572Y-106006836D01*
X163270473Y-106012479D01*
X163268556Y-106018242D01*
X163265458Y-106024870D01*
X163263968Y-106032032D01*
X163263968Y-106032033D01*
X163250594Y-106096332D01*
X163249624Y-106100616D01*
X163232272Y-106171530D01*
X163231580Y-106182684D01*
X163231544Y-106182682D01*
X163231305Y-106186675D01*
X163230931Y-106190867D01*
X163229440Y-106198035D01*
X163229638Y-106205352D01*
X163231534Y-106275441D01*
X163231580Y-106278848D01*
X163231580Y-123743477D01*
X163230147Y-123762427D01*
X163229328Y-123767813D01*
X163226881Y-123783896D01*
X163227474Y-123791188D01*
X163227474Y-123791191D01*
X163231165Y-123836565D01*
X163231580Y-123846780D01*
X163231580Y-123854840D01*
X163232005Y-123858484D01*
X163234869Y-123883054D01*
X163235302Y-123887429D01*
X163240353Y-123949519D01*
X163241220Y-123960184D01*
X163243476Y-123967148D01*
X163244667Y-123973107D01*
X163246051Y-123978962D01*
X163246898Y-123986228D01*
X163271815Y-124054874D01*
X163273232Y-124059002D01*
X163295729Y-124128446D01*
X163299525Y-124134701D01*
X163302031Y-124140175D01*
X163304750Y-124145605D01*
X163307247Y-124152484D01*
X163311260Y-124158604D01*
X163311260Y-124158605D01*
X163347266Y-124213523D01*
X163349603Y-124217227D01*
X163387485Y-124279654D01*
X163391201Y-124283862D01*
X163391202Y-124283863D01*
X163394883Y-124288031D01*
X163394856Y-124288055D01*
X163397509Y-124291047D01*
X163400212Y-124294280D01*
X163404224Y-124300399D01*
X163409536Y-124305431D01*
X163460463Y-124353675D01*
X163462905Y-124356053D01*
X163894195Y-124787343D01*
X163928221Y-124849655D01*
X163931100Y-124876438D01*
X163931100Y-125167696D01*
X163911098Y-125235817D01*
X163894195Y-125256791D01*
X162629889Y-126521097D01*
X162615477Y-126533483D01*
X162603882Y-126542016D01*
X162603877Y-126542021D01*
X162597982Y-126546359D01*
X162593243Y-126551937D01*
X162593240Y-126551940D01*
X162563765Y-126586635D01*
X162556835Y-126594151D01*
X162551140Y-126599846D01*
X162548860Y-126602728D01*
X162533519Y-126622118D01*
X162530728Y-126625522D01*
X162490075Y-126673374D01*
X162483467Y-126681152D01*
X162480139Y-126687668D01*
X162476772Y-126692717D01*
X162473605Y-126697846D01*
X162469066Y-126703583D01*
X162438145Y-126769742D01*
X162436242Y-126773636D01*
X162403031Y-126838675D01*
X162401292Y-126845783D01*
X162399193Y-126851426D01*
X162397276Y-126857189D01*
X162394178Y-126863817D01*
X162392688Y-126870979D01*
X162392688Y-126870980D01*
X162379314Y-126935279D01*
X162378344Y-126939563D01*
X162360992Y-127010477D01*
X162360300Y-127021631D01*
X162360264Y-127021629D01*
X162360025Y-127025622D01*
X162359651Y-127029814D01*
X162358160Y-127036982D01*
X162358358Y-127044299D01*
X162360254Y-127114388D01*
X162360300Y-127117795D01*
X162360300Y-135670530D01*
X162358867Y-135689480D01*
X162356891Y-135702472D01*
X162355601Y-135710949D01*
X162356194Y-135718241D01*
X162356194Y-135718244D01*
X162359885Y-135763618D01*
X162360300Y-135773833D01*
X162360300Y-135781893D01*
X162360725Y-135785537D01*
X162363589Y-135810107D01*
X162364022Y-135814482D01*
X162368992Y-135875580D01*
X162369940Y-135887237D01*
X162372195Y-135894199D01*
X162373385Y-135900152D01*
X162374771Y-135906015D01*
X162375618Y-135913281D01*
X162400535Y-135981927D01*
X162401952Y-135986055D01*
X162417449Y-136033890D01*
X162424449Y-136055499D01*
X162428245Y-136061754D01*
X162430751Y-136067228D01*
X162433470Y-136072658D01*
X162435967Y-136079537D01*
X162439980Y-136085657D01*
X162439980Y-136085658D01*
X162475986Y-136140576D01*
X162478323Y-136144280D01*
X162516205Y-136206707D01*
X162519921Y-136210915D01*
X162519922Y-136210916D01*
X162523603Y-136215084D01*
X162523576Y-136215108D01*
X162526229Y-136218100D01*
X162528932Y-136221333D01*
X162532944Y-136227452D01*
X162564671Y-136257507D01*
X162589183Y-136280728D01*
X162591625Y-136283106D01*
X164558595Y-138250076D01*
X164592621Y-138312388D01*
X164595500Y-138339171D01*
X164595500Y-141986500D01*
X164575498Y-142054621D01*
X164521842Y-142101114D01*
X164469500Y-142112500D01*
X164415866Y-142112500D01*
X164353684Y-142119255D01*
X164217295Y-142170385D01*
X164100739Y-142257739D01*
X164013385Y-142374295D01*
X164010233Y-142382703D01*
X164010232Y-142382705D01*
X163995305Y-142422523D01*
X163952664Y-142479288D01*
X163886103Y-142503988D01*
X163850541Y-142501415D01*
X163830000Y-142496947D01*
X163830000Y-142494000D01*
X161746818Y-142494000D01*
X161678697Y-142473998D01*
X161632204Y-142420342D01*
X161628836Y-142412230D01*
X161614615Y-142374295D01*
X161609235Y-142367116D01*
X161609233Y-142367113D01*
X161532642Y-142264919D01*
X161527261Y-142257739D01*
X161410705Y-142170385D01*
X161274316Y-142119255D01*
X161212134Y-142112500D01*
X161158500Y-142112500D01*
X161090379Y-142092498D01*
X161043886Y-142038842D01*
X161032500Y-141986500D01*
X161032500Y-135750583D01*
X161033933Y-135731634D01*
X161034241Y-135729608D01*
X161037198Y-135710171D01*
X161036479Y-135701321D01*
X161032915Y-135657511D01*
X161032500Y-135647297D01*
X161032500Y-135639227D01*
X161032078Y-135635607D01*
X161032077Y-135635589D01*
X161029208Y-135610981D01*
X161028775Y-135606606D01*
X161023454Y-135541181D01*
X161023453Y-135541178D01*
X161022860Y-135533883D01*
X161020604Y-135526919D01*
X161019413Y-135520960D01*
X161018029Y-135515105D01*
X161017182Y-135507839D01*
X160992265Y-135439193D01*
X160990848Y-135435065D01*
X160970607Y-135372584D01*
X160970606Y-135372582D01*
X160968351Y-135365621D01*
X160964555Y-135359366D01*
X160962049Y-135353892D01*
X160959330Y-135348462D01*
X160956833Y-135341583D01*
X160916809Y-135280536D01*
X160914472Y-135276832D01*
X160906299Y-135263362D01*
X160893460Y-135242204D01*
X160879509Y-135219213D01*
X160879505Y-135219208D01*
X160876595Y-135214412D01*
X160869197Y-135206036D01*
X160869223Y-135206013D01*
X160866574Y-135203023D01*
X160863866Y-135199784D01*
X160859856Y-135193668D01*
X160854549Y-135188641D01*
X160854546Y-135188637D01*
X160803617Y-135140392D01*
X160801175Y-135138014D01*
X159526522Y-133863361D01*
X159507900Y-133839635D01*
X159502595Y-133830892D01*
X159495197Y-133822516D01*
X159295405Y-133622724D01*
X159261379Y-133560412D01*
X159258500Y-133533629D01*
X159258500Y-132766371D01*
X159278502Y-132698250D01*
X159295405Y-132677276D01*
X159388911Y-132583770D01*
X159403323Y-132571384D01*
X159414918Y-132562851D01*
X159414923Y-132562846D01*
X159420818Y-132558508D01*
X159425557Y-132552930D01*
X159425560Y-132552927D01*
X159455035Y-132518232D01*
X159461965Y-132510716D01*
X159467660Y-132505021D01*
X159485281Y-132482749D01*
X159488072Y-132479345D01*
X159530591Y-132429297D01*
X159530592Y-132429295D01*
X159535333Y-132423715D01*
X159538661Y-132417199D01*
X159542028Y-132412150D01*
X159545195Y-132407021D01*
X159549734Y-132401284D01*
X159580655Y-132335125D01*
X159582561Y-132331225D01*
X159615769Y-132266192D01*
X159617508Y-132259084D01*
X159619607Y-132253441D01*
X159621524Y-132247678D01*
X159624622Y-132241050D01*
X159639487Y-132169583D01*
X159640457Y-132165299D01*
X159642242Y-132158003D01*
X159657808Y-132094390D01*
X159658500Y-132083236D01*
X159658536Y-132083238D01*
X159658775Y-132079245D01*
X159659149Y-132075053D01*
X159660640Y-132067885D01*
X159658546Y-131990479D01*
X159658500Y-131987072D01*
X159658500Y-131879567D01*
X159678502Y-131811446D01*
X159732158Y-131764953D01*
X159784500Y-131753567D01*
X160564858Y-131753567D01*
X160567306Y-131753374D01*
X160567314Y-131753374D01*
X160636759Y-131747908D01*
X160642515Y-131747455D01*
X160648088Y-131745962D01*
X160648092Y-131745961D01*
X160816750Y-131700769D01*
X160816751Y-131700769D01*
X160823124Y-131699061D01*
X160989725Y-131614174D01*
X161135036Y-131496503D01*
X161252707Y-131351192D01*
X161337594Y-131184591D01*
X161385988Y-131003982D01*
X161392100Y-130926325D01*
X161392100Y-129277809D01*
X161385988Y-129200152D01*
X161365647Y-129124236D01*
X161339302Y-129025917D01*
X161339302Y-129025916D01*
X161337594Y-129019543D01*
X161252707Y-128852942D01*
X161135036Y-128707631D01*
X160989725Y-128589960D01*
X160823124Y-128505073D01*
X160757093Y-128487380D01*
X160696471Y-128450428D01*
X160665449Y-128386567D01*
X160673878Y-128316073D01*
X160690889Y-128287497D01*
X160691480Y-128286749D01*
X160706895Y-128267266D01*
X160709672Y-128263880D01*
X160752191Y-128213832D01*
X160752192Y-128213830D01*
X160756933Y-128208250D01*
X160760261Y-128201734D01*
X160763628Y-128196685D01*
X160766795Y-128191556D01*
X160771334Y-128185819D01*
X160802255Y-128119660D01*
X160804161Y-128115760D01*
X160816411Y-128091770D01*
X160837369Y-128050727D01*
X160839108Y-128043619D01*
X160841207Y-128037976D01*
X160843124Y-128032213D01*
X160846222Y-128025585D01*
X160861087Y-127954118D01*
X160862057Y-127949834D01*
X160866491Y-127931715D01*
X160879408Y-127878925D01*
X160880100Y-127867771D01*
X160880136Y-127867773D01*
X160880375Y-127863780D01*
X160880749Y-127859588D01*
X160882240Y-127852420D01*
X160880146Y-127775014D01*
X160880100Y-127771607D01*
X160880100Y-126667243D01*
X160900102Y-126599122D01*
X160948898Y-126554976D01*
X160954759Y-126551990D01*
X160989725Y-126534174D01*
X161135036Y-126416503D01*
X161153749Y-126393395D01*
X161248553Y-126276322D01*
X161248554Y-126276321D01*
X161252707Y-126271192D01*
X161337594Y-126104591D01*
X161364517Y-126004113D01*
X161384494Y-125929559D01*
X161384495Y-125929555D01*
X161385988Y-125923982D01*
X161390935Y-125861130D01*
X161391907Y-125848781D01*
X161391907Y-125848773D01*
X161392100Y-125846325D01*
X161392100Y-124197809D01*
X161389015Y-124158605D01*
X161386441Y-124125908D01*
X161385988Y-124120152D01*
X161346588Y-123973107D01*
X161339302Y-123945917D01*
X161339302Y-123945916D01*
X161337594Y-123939543D01*
X161252707Y-123772942D01*
X161196237Y-123703207D01*
X161139187Y-123632757D01*
X161135036Y-123627631D01*
X161008719Y-123525341D01*
X160994855Y-123514114D01*
X160994854Y-123514113D01*
X160989725Y-123509960D01*
X160866096Y-123446968D01*
X160829007Y-123428070D01*
X160829003Y-123428068D01*
X160823124Y-123425073D01*
X160817425Y-123423546D01*
X160761204Y-123380618D01*
X160737028Y-123313865D01*
X160752779Y-123244637D01*
X160769151Y-123221763D01*
X160881621Y-123096852D01*
X160881622Y-123096851D01*
X160886040Y-123091944D01*
X160981527Y-122926556D01*
X161040542Y-122744928D01*
X161048550Y-122668742D01*
X161059814Y-122561565D01*
X161060504Y-122555000D01*
X161053419Y-122487588D01*
X161041232Y-122371635D01*
X161041232Y-122371633D01*
X161040542Y-122365072D01*
X160981527Y-122183444D01*
X160922381Y-122081000D01*
X160905500Y-122018001D01*
X160905500Y-117884999D01*
X160922381Y-117821999D01*
X160978223Y-117725279D01*
X160978224Y-117725278D01*
X160981527Y-117719556D01*
X161040542Y-117537928D01*
X161060504Y-117348000D01*
X161040542Y-117158072D01*
X160981527Y-116976444D01*
X160886040Y-116811056D01*
X160762933Y-116674331D01*
X160762675Y-116674045D01*
X160762674Y-116674044D01*
X160758253Y-116669134D01*
X160625420Y-116572625D01*
X160609094Y-116560763D01*
X160609093Y-116560762D01*
X160603752Y-116556882D01*
X160597724Y-116554198D01*
X160597722Y-116554197D01*
X160435319Y-116481891D01*
X160435318Y-116481891D01*
X160429288Y-116479206D01*
X160317794Y-116455507D01*
X160248944Y-116440872D01*
X160248939Y-116440872D01*
X160242487Y-116439500D01*
X160051513Y-116439500D01*
X160045061Y-116440872D01*
X160045056Y-116440872D01*
X159976206Y-116455507D01*
X159864712Y-116479206D01*
X159858677Y-116481893D01*
X159845828Y-116487613D01*
X159775460Y-116497047D01*
X159711164Y-116466940D01*
X159673351Y-116406850D01*
X159668580Y-116372506D01*
X159668580Y-111911900D01*
X159688582Y-111843779D01*
X159742238Y-111797286D01*
X159794580Y-111785900D01*
X160564858Y-111785900D01*
X160567306Y-111785707D01*
X160567314Y-111785707D01*
X160636759Y-111780241D01*
X160642515Y-111779788D01*
X160648088Y-111778295D01*
X160648092Y-111778294D01*
X160816750Y-111733102D01*
X160816751Y-111733102D01*
X160823124Y-111731394D01*
X160989725Y-111646507D01*
X161135036Y-111528836D01*
X161252707Y-111383525D01*
X161337594Y-111216924D01*
X161385988Y-111036315D01*
X161392100Y-110958658D01*
X161392100Y-109310142D01*
X161385988Y-109232485D01*
X161337594Y-109051876D01*
X161252707Y-108885275D01*
X161135036Y-108739964D01*
X160989725Y-108622293D01*
X160823124Y-108537406D01*
X160816750Y-108535698D01*
X160648092Y-108490506D01*
X160648088Y-108490505D01*
X160642515Y-108489012D01*
X160620128Y-108487250D01*
X160567314Y-108483093D01*
X160567306Y-108483093D01*
X160564858Y-108482900D01*
X160355971Y-108482900D01*
X160287850Y-108462898D01*
X160241357Y-108409242D01*
X160231253Y-108338968D01*
X160260747Y-108274388D01*
X160266876Y-108267805D01*
X160762911Y-107771770D01*
X160777323Y-107759384D01*
X160788918Y-107750851D01*
X160788923Y-107750846D01*
X160794818Y-107746508D01*
X160799557Y-107740930D01*
X160799560Y-107740927D01*
X160829035Y-107706232D01*
X160835965Y-107698716D01*
X160841660Y-107693021D01*
X160859281Y-107670749D01*
X160862072Y-107667345D01*
X160904591Y-107617297D01*
X160904592Y-107617295D01*
X160909333Y-107611715D01*
X160912661Y-107605199D01*
X160916028Y-107600150D01*
X160919195Y-107595021D01*
X160923734Y-107589284D01*
X160954655Y-107523125D01*
X160956561Y-107519225D01*
X160957343Y-107517694D01*
X160989769Y-107454192D01*
X160991508Y-107447084D01*
X160993607Y-107441441D01*
X160995524Y-107435678D01*
X160998622Y-107429050D01*
X161013487Y-107357583D01*
X161014457Y-107353299D01*
X161026887Y-107302499D01*
X161031808Y-107282390D01*
X161032500Y-107271236D01*
X161032536Y-107271238D01*
X161032775Y-107267245D01*
X161033149Y-107263053D01*
X161034640Y-107255885D01*
X161032546Y-107178479D01*
X161032500Y-107175072D01*
X161032500Y-106591966D01*
X161052502Y-106523845D01*
X161079202Y-106494049D01*
X161135036Y-106448836D01*
X161146090Y-106435186D01*
X161248553Y-106308655D01*
X161248554Y-106308654D01*
X161252707Y-106303525D01*
X161337594Y-106136924D01*
X161347321Y-106100621D01*
X161384494Y-105961892D01*
X161384495Y-105961888D01*
X161385988Y-105956315D01*
X161392100Y-105878658D01*
X161392100Y-104230142D01*
X161385988Y-104152485D01*
X161337594Y-103971876D01*
X161252707Y-103805275D01*
X161135036Y-103659964D01*
X160989725Y-103542293D01*
X160948898Y-103521491D01*
X160897282Y-103472744D01*
X160880100Y-103409224D01*
X160880100Y-98583623D01*
X160881533Y-98564674D01*
X160883697Y-98550446D01*
X160884798Y-98543211D01*
X160880515Y-98490550D01*
X160880100Y-98480337D01*
X160880100Y-98472267D01*
X160879678Y-98468647D01*
X160879677Y-98468629D01*
X160876808Y-98444021D01*
X160876375Y-98439646D01*
X160871054Y-98374221D01*
X160871053Y-98374218D01*
X160870460Y-98366923D01*
X160868204Y-98359959D01*
X160867013Y-98354000D01*
X160865629Y-98348145D01*
X160864782Y-98340879D01*
X160839865Y-98272233D01*
X160838448Y-98268105D01*
X160818207Y-98205624D01*
X160818206Y-98205622D01*
X160815951Y-98198661D01*
X160812155Y-98192406D01*
X160809649Y-98186932D01*
X160806930Y-98181502D01*
X160804433Y-98174623D01*
X160764409Y-98113576D01*
X160762072Y-98109872D01*
X160727109Y-98052253D01*
X160727105Y-98052248D01*
X160724195Y-98047452D01*
X160716797Y-98039076D01*
X160716823Y-98039053D01*
X160714174Y-98036063D01*
X160711466Y-98032824D01*
X160707456Y-98026708D01*
X160702149Y-98021681D01*
X160702146Y-98021677D01*
X160651217Y-97973432D01*
X160648775Y-97971054D01*
X160494490Y-97816769D01*
X160482104Y-97802357D01*
X160473571Y-97790762D01*
X160473566Y-97790757D01*
X160469228Y-97784862D01*
X160463650Y-97780123D01*
X160463647Y-97780120D01*
X160428952Y-97750645D01*
X160421436Y-97743715D01*
X160415741Y-97738020D01*
X160409600Y-97733162D01*
X160393469Y-97720399D01*
X160390065Y-97717608D01*
X160340017Y-97675089D01*
X160340015Y-97675088D01*
X160334435Y-97670347D01*
X160327919Y-97667019D01*
X160322870Y-97663652D01*
X160317741Y-97660485D01*
X160312004Y-97655946D01*
X160245845Y-97625025D01*
X160241945Y-97623119D01*
X160176912Y-97589911D01*
X160169804Y-97588172D01*
X160164161Y-97586073D01*
X160158398Y-97584156D01*
X160151770Y-97581058D01*
X160080303Y-97566193D01*
X160076019Y-97565223D01*
X160005110Y-97547872D01*
X159999508Y-97547524D01*
X159999505Y-97547524D01*
X159993956Y-97547180D01*
X159993958Y-97547144D01*
X159989965Y-97546905D01*
X159985773Y-97546531D01*
X159978605Y-97545040D01*
X159912395Y-97546831D01*
X159901199Y-97547134D01*
X159897792Y-97547180D01*
X159794580Y-97547180D01*
X159726459Y-97527178D01*
X159679966Y-97473522D01*
X159668580Y-97421180D01*
X159668580Y-91896700D01*
X159688582Y-91828579D01*
X159742238Y-91782086D01*
X159794580Y-91770700D01*
X160564858Y-91770700D01*
X160567306Y-91770507D01*
X160567314Y-91770507D01*
X160636759Y-91765041D01*
X160642515Y-91764588D01*
X160648088Y-91763095D01*
X160648092Y-91763094D01*
X160816750Y-91717902D01*
X160816751Y-91717902D01*
X160823124Y-91716194D01*
X160989725Y-91631307D01*
X161135036Y-91513636D01*
X161252707Y-91368325D01*
X161337594Y-91201724D01*
X161385988Y-91021115D01*
X161392100Y-90943458D01*
X161392100Y-89294942D01*
X161385988Y-89217285D01*
X161337594Y-89036676D01*
X161252707Y-88870075D01*
X161135036Y-88724764D01*
X161007189Y-88621235D01*
X160994855Y-88611247D01*
X160994854Y-88611246D01*
X160989725Y-88607093D01*
X160823124Y-88522206D01*
X160816750Y-88520498D01*
X160648092Y-88475306D01*
X160648088Y-88475305D01*
X160642515Y-88473812D01*
X160628069Y-88472675D01*
X160567314Y-88467893D01*
X160567306Y-88467893D01*
X160564858Y-88467700D01*
X160305171Y-88467700D01*
X160237050Y-88447698D01*
X160190557Y-88394042D01*
X160180453Y-88323768D01*
X160209947Y-88259188D01*
X160216076Y-88252605D01*
X160610511Y-87858170D01*
X160624923Y-87845784D01*
X160636518Y-87837251D01*
X160636523Y-87837246D01*
X160642418Y-87832908D01*
X160647157Y-87827330D01*
X160647160Y-87827327D01*
X160676635Y-87792632D01*
X160683565Y-87785116D01*
X160689260Y-87779421D01*
X160698468Y-87767782D01*
X160706881Y-87757149D01*
X160709672Y-87753745D01*
X160752191Y-87703697D01*
X160752192Y-87703695D01*
X160756933Y-87698115D01*
X160760261Y-87691599D01*
X160763628Y-87686550D01*
X160766795Y-87681421D01*
X160771334Y-87675684D01*
X160802255Y-87609525D01*
X160804161Y-87605625D01*
X160810306Y-87593591D01*
X160837369Y-87540592D01*
X160839108Y-87533484D01*
X160841207Y-87527841D01*
X160843124Y-87522078D01*
X160846222Y-87515450D01*
X160861087Y-87443983D01*
X160862057Y-87439699D01*
X160866038Y-87423430D01*
X160879408Y-87368790D01*
X160880100Y-87357636D01*
X160880136Y-87357638D01*
X160880375Y-87353645D01*
X160880749Y-87349453D01*
X160882240Y-87342285D01*
X160880146Y-87264879D01*
X160880100Y-87261472D01*
X160880100Y-86684376D01*
X160900102Y-86616255D01*
X160948898Y-86572109D01*
X160949091Y-86572011D01*
X160989725Y-86551307D01*
X161135036Y-86433636D01*
X161252707Y-86288325D01*
X161337594Y-86121724D01*
X161385988Y-85941115D01*
X161392100Y-85863458D01*
X161392100Y-84214942D01*
X161385988Y-84137285D01*
X161337594Y-83956676D01*
X161252707Y-83790075D01*
X161135036Y-83644764D01*
X160989725Y-83527093D01*
X160948898Y-83506291D01*
X160897282Y-83457544D01*
X160880100Y-83394024D01*
X160880100Y-77638670D01*
X160881533Y-77619720D01*
X160883699Y-77605485D01*
X160883699Y-77605481D01*
X160884799Y-77598251D01*
X160880515Y-77545582D01*
X160880100Y-77535367D01*
X160880100Y-77527307D01*
X160878551Y-77514017D01*
X160876811Y-77499093D01*
X160876378Y-77494718D01*
X160871054Y-77429261D01*
X160871053Y-77429258D01*
X160870460Y-77421963D01*
X160868204Y-77414999D01*
X160867013Y-77409040D01*
X160865629Y-77403185D01*
X160864782Y-77395919D01*
X160839865Y-77327273D01*
X160838448Y-77323145D01*
X160818207Y-77260664D01*
X160818206Y-77260662D01*
X160815951Y-77253701D01*
X160812155Y-77247446D01*
X160809649Y-77241972D01*
X160806930Y-77236542D01*
X160804433Y-77229663D01*
X160764414Y-77168624D01*
X160762067Y-77164905D01*
X160724195Y-77102493D01*
X160716797Y-77094116D01*
X160716824Y-77094092D01*
X160714171Y-77091100D01*
X160711468Y-77087867D01*
X160707456Y-77081748D01*
X160651217Y-77028472D01*
X160648775Y-77026094D01*
X159705485Y-76082804D01*
X159671459Y-76020492D01*
X159668580Y-75993709D01*
X159668580Y-71881500D01*
X159688582Y-71813379D01*
X159742238Y-71766886D01*
X159794580Y-71755500D01*
X160564858Y-71755500D01*
X160567306Y-71755307D01*
X160567314Y-71755307D01*
X160636759Y-71749841D01*
X160642515Y-71749388D01*
X160648088Y-71747895D01*
X160648092Y-71747894D01*
X160816750Y-71702702D01*
X160816751Y-71702702D01*
X160823124Y-71700994D01*
X160989725Y-71616107D01*
X161135036Y-71498436D01*
X161252707Y-71353125D01*
X161337594Y-71186524D01*
X161385988Y-71005915D01*
X161392100Y-70928258D01*
X161392100Y-69279742D01*
X161385988Y-69202085D01*
X161337594Y-69021476D01*
X161252707Y-68854875D01*
X161135036Y-68709564D01*
X160989725Y-68591893D01*
X160823124Y-68507006D01*
X160816750Y-68505298D01*
X160648092Y-68460106D01*
X160648088Y-68460105D01*
X160642515Y-68458612D01*
X160628069Y-68457475D01*
X160567314Y-68452693D01*
X160567306Y-68452693D01*
X160564858Y-68452500D01*
X160203571Y-68452500D01*
X160135450Y-68432498D01*
X160088957Y-68378842D01*
X160078853Y-68308568D01*
X160108347Y-68243988D01*
X160114476Y-68237405D01*
X160610511Y-67741370D01*
X160624923Y-67728984D01*
X160636518Y-67720451D01*
X160636523Y-67720446D01*
X160642418Y-67716108D01*
X160647157Y-67710530D01*
X160647160Y-67710527D01*
X160676635Y-67675832D01*
X160683565Y-67668316D01*
X160689260Y-67662621D01*
X160702399Y-67646014D01*
X160706881Y-67640349D01*
X160709672Y-67636945D01*
X160752191Y-67586897D01*
X160752192Y-67586895D01*
X160756933Y-67581315D01*
X160760261Y-67574799D01*
X160763628Y-67569750D01*
X160766795Y-67564621D01*
X160771334Y-67558884D01*
X160802255Y-67492725D01*
X160804161Y-67488825D01*
X160806917Y-67483428D01*
X160837369Y-67423792D01*
X160839108Y-67416684D01*
X160841207Y-67411041D01*
X160843124Y-67405278D01*
X160846222Y-67398650D01*
X160861087Y-67327183D01*
X160862057Y-67322899D01*
X160870006Y-67290414D01*
X160879408Y-67251990D01*
X160880100Y-67240836D01*
X160880136Y-67240838D01*
X160880375Y-67236845D01*
X160880749Y-67232653D01*
X160882240Y-67225485D01*
X160880146Y-67148079D01*
X160880100Y-67144672D01*
X160880100Y-66669176D01*
X160900102Y-66601055D01*
X160948898Y-66556909D01*
X160960441Y-66551028D01*
X160989725Y-66536107D01*
X161135036Y-66418436D01*
X161172070Y-66372703D01*
X161248553Y-66278255D01*
X161248554Y-66278254D01*
X161252707Y-66273125D01*
X161337594Y-66106524D01*
X161380112Y-65947844D01*
X161384494Y-65931492D01*
X161384495Y-65931488D01*
X161385988Y-65925915D01*
X161388981Y-65887892D01*
X161391907Y-65850714D01*
X161391907Y-65850706D01*
X161392100Y-65848258D01*
X161392100Y-64199742D01*
X161389315Y-64164349D01*
X161386441Y-64127841D01*
X161385988Y-64122085D01*
X161379712Y-64098660D01*
X161339302Y-63947850D01*
X161339302Y-63947849D01*
X161337594Y-63941476D01*
X161252707Y-63774875D01*
X161135036Y-63629564D01*
X160989725Y-63511893D01*
X160823124Y-63427006D01*
X160809084Y-63423244D01*
X160648092Y-63380106D01*
X160648088Y-63380105D01*
X160642515Y-63378612D01*
X160631134Y-63377716D01*
X160567314Y-63372693D01*
X160567306Y-63372693D01*
X160564858Y-63372500D01*
X159678342Y-63372500D01*
X159675894Y-63372693D01*
X159675886Y-63372693D01*
X159612066Y-63377716D01*
X159600685Y-63378612D01*
X159595112Y-63380105D01*
X159595108Y-63380106D01*
X159434116Y-63423244D01*
X159420076Y-63427006D01*
X159253475Y-63511893D01*
X159108164Y-63629564D01*
X158990493Y-63774875D01*
X158987498Y-63780752D01*
X158987494Y-63780759D01*
X158963867Y-63827131D01*
X158915119Y-63878747D01*
X158846204Y-63895813D01*
X158779003Y-63872913D01*
X158739333Y-63827131D01*
X158715706Y-63780759D01*
X158715702Y-63780752D01*
X158712707Y-63774875D01*
X158595036Y-63629564D01*
X158449725Y-63511893D01*
X158283124Y-63427006D01*
X158269084Y-63423244D01*
X158108092Y-63380106D01*
X158108088Y-63380105D01*
X158102515Y-63378612D01*
X158091134Y-63377716D01*
X158027314Y-63372693D01*
X158027306Y-63372693D01*
X158024858Y-63372500D01*
X157138342Y-63372500D01*
X157135894Y-63372693D01*
X157135886Y-63372693D01*
X157072066Y-63377716D01*
X157060685Y-63378612D01*
X157055112Y-63380105D01*
X157055108Y-63380106D01*
X156894116Y-63423244D01*
X156880076Y-63427006D01*
X156713475Y-63511893D01*
X156568164Y-63629564D01*
X156450493Y-63774875D01*
X156447498Y-63780752D01*
X156447494Y-63780759D01*
X156423867Y-63827131D01*
X156375119Y-63878747D01*
X156306204Y-63895813D01*
X156239003Y-63872913D01*
X156199333Y-63827131D01*
X156175706Y-63780759D01*
X156175702Y-63780752D01*
X156172707Y-63774875D01*
X156055036Y-63629564D01*
X155909725Y-63511893D01*
X155743124Y-63427006D01*
X155729084Y-63423244D01*
X155568092Y-63380106D01*
X155568088Y-63380105D01*
X155562515Y-63378612D01*
X155551134Y-63377716D01*
X155487314Y-63372693D01*
X155487306Y-63372693D01*
X155484858Y-63372500D01*
X154598342Y-63372500D01*
X154595894Y-63372693D01*
X154595886Y-63372693D01*
X154532066Y-63377716D01*
X154520685Y-63378612D01*
X154515112Y-63380105D01*
X154515108Y-63380106D01*
X154354116Y-63423244D01*
X154340076Y-63427006D01*
X154173475Y-63511893D01*
X154028164Y-63629564D01*
X153910493Y-63774875D01*
X153907498Y-63780752D01*
X153907494Y-63780759D01*
X153883867Y-63827131D01*
X153835119Y-63878747D01*
X153766204Y-63895813D01*
X153699003Y-63872913D01*
X153659333Y-63827131D01*
X153635706Y-63780759D01*
X153635702Y-63780752D01*
X153632707Y-63774875D01*
X153515036Y-63629564D01*
X153369725Y-63511893D01*
X153203124Y-63427006D01*
X153189084Y-63423244D01*
X153028092Y-63380106D01*
X153028088Y-63380105D01*
X153022515Y-63378612D01*
X153011134Y-63377716D01*
X152947314Y-63372693D01*
X152947306Y-63372693D01*
X152944858Y-63372500D01*
X152058342Y-63372500D01*
X152055894Y-63372693D01*
X152055886Y-63372693D01*
X151992066Y-63377716D01*
X151980685Y-63378612D01*
X151975112Y-63380105D01*
X151975108Y-63380106D01*
X151814116Y-63423244D01*
X151800076Y-63427006D01*
X151633475Y-63511893D01*
X151488164Y-63629564D01*
X151370493Y-63774875D01*
X151285606Y-63941476D01*
X151283898Y-63947849D01*
X151283898Y-63947850D01*
X151243489Y-64098660D01*
X151237212Y-64122085D01*
X151236759Y-64127841D01*
X151233886Y-64164349D01*
X151231100Y-64199742D01*
X151231100Y-64915629D01*
X151211098Y-64983750D01*
X151194195Y-65004724D01*
X150336289Y-65862630D01*
X150321877Y-65875016D01*
X150310282Y-65883549D01*
X150310277Y-65883554D01*
X150304382Y-65887892D01*
X150299643Y-65893470D01*
X150299640Y-65893473D01*
X150270165Y-65928168D01*
X150263235Y-65935684D01*
X150257540Y-65941379D01*
X150255260Y-65944261D01*
X150239919Y-65963651D01*
X150237128Y-65967055D01*
X150194609Y-66017103D01*
X150189867Y-66022685D01*
X150186539Y-66029201D01*
X150183172Y-66034250D01*
X150180005Y-66039379D01*
X150175466Y-66045116D01*
X150144545Y-66111275D01*
X150142642Y-66115169D01*
X150109431Y-66180208D01*
X150107692Y-66187316D01*
X150105593Y-66192959D01*
X150103676Y-66198722D01*
X150100578Y-66205350D01*
X150099088Y-66212512D01*
X150099088Y-66212513D01*
X150085714Y-66276812D01*
X150084744Y-66281096D01*
X150067392Y-66352010D01*
X150066700Y-66363164D01*
X150066664Y-66363162D01*
X150066425Y-66367155D01*
X150066051Y-66371347D01*
X150064560Y-66378515D01*
X150064758Y-66385832D01*
X150066654Y-66455921D01*
X150066700Y-66459328D01*
X150066700Y-86627659D01*
X150066201Y-86638860D01*
X150066050Y-86640550D01*
X150064560Y-86647715D01*
X150065570Y-86685041D01*
X150066654Y-86725121D01*
X150066700Y-86728528D01*
X150066700Y-106642859D01*
X150066201Y-106654060D01*
X150066050Y-106655750D01*
X150064560Y-106662915D01*
X150065570Y-106700241D01*
X150066654Y-106740321D01*
X150066700Y-106743728D01*
X150066700Y-123278597D01*
X150065267Y-123297547D01*
X150062001Y-123319016D01*
X150062594Y-123326308D01*
X150062594Y-123326311D01*
X150066285Y-123371685D01*
X150066700Y-123381900D01*
X150066700Y-123389960D01*
X150067125Y-123393604D01*
X150069989Y-123418174D01*
X150070422Y-123422549D01*
X150073576Y-123461317D01*
X150076340Y-123495304D01*
X150078596Y-123502268D01*
X150079787Y-123508227D01*
X150081171Y-123514082D01*
X150082018Y-123521348D01*
X150106935Y-123589994D01*
X150108352Y-123594122D01*
X150127660Y-123653721D01*
X150130849Y-123663566D01*
X150134645Y-123669821D01*
X150137151Y-123675295D01*
X150139870Y-123680725D01*
X150142367Y-123687604D01*
X150146380Y-123693724D01*
X150146380Y-123693725D01*
X150182386Y-123748643D01*
X150184723Y-123752347D01*
X150222605Y-123814774D01*
X150226321Y-123818982D01*
X150226322Y-123818983D01*
X150230003Y-123823151D01*
X150229976Y-123823175D01*
X150232629Y-123826167D01*
X150235332Y-123829400D01*
X150239344Y-123835519D01*
X150244656Y-123840551D01*
X150295583Y-123888795D01*
X150298025Y-123891173D01*
X151194195Y-124787343D01*
X151228221Y-124849655D01*
X151231100Y-124876438D01*
X151231100Y-125012029D01*
X151211098Y-125080150D01*
X151194195Y-125101124D01*
X150641089Y-125654230D01*
X150626677Y-125666616D01*
X150615082Y-125675149D01*
X150615077Y-125675154D01*
X150609182Y-125679492D01*
X150604443Y-125685070D01*
X150604440Y-125685073D01*
X150574965Y-125719768D01*
X150568035Y-125727284D01*
X150562340Y-125732979D01*
X150560060Y-125735861D01*
X150544719Y-125755251D01*
X150541928Y-125758655D01*
X150499409Y-125808703D01*
X150494667Y-125814285D01*
X150491339Y-125820801D01*
X150487972Y-125825850D01*
X150484805Y-125830979D01*
X150480266Y-125836716D01*
X150449345Y-125902875D01*
X150447442Y-125906769D01*
X150414231Y-125971808D01*
X150412492Y-125978916D01*
X150410393Y-125984559D01*
X150408476Y-125990322D01*
X150405378Y-125996950D01*
X150403888Y-126004112D01*
X150403888Y-126004113D01*
X150390514Y-126068412D01*
X150389544Y-126072696D01*
X150372192Y-126143610D01*
X150371500Y-126154764D01*
X150371464Y-126154762D01*
X150371225Y-126158755D01*
X150370851Y-126162947D01*
X150369360Y-126170115D01*
X150369558Y-126177432D01*
X150371454Y-126247521D01*
X150371500Y-126250928D01*
X150371500Y-138362930D01*
X150370067Y-138381880D01*
X150366801Y-138403349D01*
X150367394Y-138410641D01*
X150367394Y-138410644D01*
X150371085Y-138456018D01*
X150371500Y-138466233D01*
X150371500Y-138474293D01*
X150371925Y-138477937D01*
X150374789Y-138502507D01*
X150375222Y-138506882D01*
X150379779Y-138562900D01*
X150381140Y-138579637D01*
X150383396Y-138586601D01*
X150384587Y-138592560D01*
X150385971Y-138598415D01*
X150386818Y-138605681D01*
X150411735Y-138674327D01*
X150413152Y-138678455D01*
X150435649Y-138747899D01*
X150439445Y-138754154D01*
X150441951Y-138759628D01*
X150444670Y-138765058D01*
X150447167Y-138771937D01*
X150451180Y-138778057D01*
X150451180Y-138778058D01*
X150487186Y-138832976D01*
X150489523Y-138836680D01*
X150527405Y-138899107D01*
X150531121Y-138903315D01*
X150531122Y-138903316D01*
X150534803Y-138907484D01*
X150534776Y-138907508D01*
X150537429Y-138910500D01*
X150540132Y-138913733D01*
X150544144Y-138919852D01*
X150587197Y-138960637D01*
X150600383Y-138973128D01*
X150602825Y-138975506D01*
X151858595Y-140231276D01*
X151892621Y-140293588D01*
X151895500Y-140320371D01*
X151895500Y-141986500D01*
X151875498Y-142054621D01*
X151821842Y-142101114D01*
X151769500Y-142112500D01*
X151715866Y-142112500D01*
X151653684Y-142119255D01*
X151517295Y-142170385D01*
X151400739Y-142257739D01*
X151313385Y-142374295D01*
X151262255Y-142510684D01*
X151255500Y-142572866D01*
X151255500Y-150115000D01*
X151235498Y-150183121D01*
X151181842Y-150229614D01*
X151129500Y-150241000D01*
X140969000Y-150241000D01*
X140900879Y-150220998D01*
X140854386Y-150167342D01*
X140843000Y-150115000D01*
X140843000Y-147716681D01*
X142970860Y-147716681D01*
X142970878Y-147716933D01*
X142976793Y-147725677D01*
X143008111Y-147754174D01*
X143013748Y-147758738D01*
X143289544Y-147956918D01*
X143295682Y-147960813D01*
X143592435Y-148125984D01*
X143598955Y-148129136D01*
X143912738Y-148259109D01*
X143919589Y-148261495D01*
X144246212Y-148354536D01*
X144253301Y-148356120D01*
X144588465Y-148411006D01*
X144595671Y-148411763D01*
X144934926Y-148427762D01*
X144942176Y-148427686D01*
X145281010Y-148404587D01*
X145288219Y-148403676D01*
X145622160Y-148341784D01*
X145629190Y-148340057D01*
X145953819Y-148240187D01*
X145960597Y-148237667D01*
X146271603Y-148101145D01*
X146278043Y-148097864D01*
X146571293Y-147926502D01*
X146577326Y-147922493D01*
X146835828Y-147728405D01*
X146844282Y-147717078D01*
X146837537Y-147704748D01*
X144919810Y-145787020D01*
X144905869Y-145779408D01*
X144904034Y-145779539D01*
X144897420Y-145783790D01*
X142978474Y-147702737D01*
X142970860Y-147716681D01*
X140843000Y-147716681D01*
X140843000Y-145323987D01*
X141895484Y-145323987D01*
X141904374Y-145663505D01*
X141904980Y-145670721D01*
X141952835Y-146006963D01*
X141954269Y-146014074D01*
X142040455Y-146342595D01*
X142042692Y-146349478D01*
X142166064Y-146665914D01*
X142169081Y-146672503D01*
X142328002Y-146972652D01*
X142331761Y-146978860D01*
X142524129Y-147258757D01*
X142528574Y-147264486D01*
X142595743Y-147341484D01*
X142608917Y-147349888D01*
X142618769Y-147344020D01*
X144534980Y-145427810D01*
X144541357Y-145416131D01*
X145271408Y-145416131D01*
X145271539Y-145417966D01*
X145275790Y-145424580D01*
X147193268Y-147342057D01*
X147206622Y-147349349D01*
X147216594Y-147342295D01*
X147323641Y-147214267D01*
X147327957Y-147208456D01*
X147514432Y-146924575D01*
X147518046Y-146918313D01*
X147670658Y-146614882D01*
X147673530Y-146608244D01*
X147790249Y-146289293D01*
X147792345Y-146282351D01*
X147871631Y-145952103D01*
X147872915Y-145944964D01*
X147913816Y-145606973D01*
X147914240Y-145601403D01*
X147920010Y-145417797D01*
X147919937Y-145412204D01*
X147900338Y-145072303D01*
X147899506Y-145065113D01*
X147841113Y-144730529D01*
X147839458Y-144723474D01*
X147742998Y-144397834D01*
X147740540Y-144391006D01*
X147607290Y-144078608D01*
X147604073Y-144072125D01*
X147435788Y-143777089D01*
X147431856Y-143771034D01*
X147230774Y-143497295D01*
X147226166Y-143491726D01*
X147220830Y-143485984D01*
X147207178Y-143477866D01*
X147206570Y-143477887D01*
X147198092Y-143483119D01*
X145279020Y-145402190D01*
X145271408Y-145416131D01*
X144541357Y-145416131D01*
X144542592Y-145413869D01*
X144542461Y-145412034D01*
X144538210Y-145405420D01*
X142619374Y-143486585D01*
X142606581Y-143479599D01*
X142595827Y-143487464D01*
X142435037Y-143692527D01*
X142430902Y-143698476D01*
X142253440Y-143988068D01*
X142250019Y-143994447D01*
X142107016Y-144302522D01*
X142104356Y-144309241D01*
X141997711Y-144631707D01*
X141995834Y-144638711D01*
X141926961Y-144971288D01*
X141925904Y-144978449D01*
X141895712Y-145316735D01*
X141895484Y-145323987D01*
X140843000Y-145323987D01*
X140843000Y-143116048D01*
X142972132Y-143116048D01*
X142978527Y-143127316D01*
X144894190Y-145042980D01*
X144908131Y-145050592D01*
X144909966Y-145050461D01*
X144916580Y-145046210D01*
X146834074Y-143128716D01*
X146841466Y-143115179D01*
X146834679Y-143105479D01*
X146731476Y-143017335D01*
X146725704Y-143012953D01*
X146443796Y-142823519D01*
X146437575Y-142819839D01*
X146135757Y-142664060D01*
X146129146Y-142661116D01*
X145811439Y-142541065D01*
X145804513Y-142538894D01*
X145475112Y-142456155D01*
X145468005Y-142454799D01*
X145131278Y-142410468D01*
X145124036Y-142409937D01*
X144784467Y-142404602D01*
X144777205Y-142404906D01*
X144439256Y-142438638D01*
X144432108Y-142439770D01*
X144100263Y-142512124D01*
X144093285Y-142514072D01*
X143771960Y-142624086D01*
X143765253Y-142626823D01*
X143458707Y-142773039D01*
X143452349Y-142776534D01*
X143164654Y-142957005D01*
X143158731Y-142961214D01*
X142980601Y-143103923D01*
X142972132Y-143116048D01*
X140843000Y-143116048D01*
X140843000Y-136110695D01*
X143671251Y-136110695D01*
X143671548Y-136115848D01*
X143671548Y-136115851D01*
X143682755Y-136310216D01*
X143684110Y-136333715D01*
X143685247Y-136338761D01*
X143685248Y-136338767D01*
X143706275Y-136432069D01*
X143733222Y-136551639D01*
X143785587Y-136680599D01*
X143811392Y-136744149D01*
X143817266Y-136758616D01*
X143848274Y-136809217D01*
X143930767Y-136943833D01*
X143933987Y-136949088D01*
X144080250Y-137117938D01*
X144252126Y-137260632D01*
X144445000Y-137373338D01*
X144653692Y-137453030D01*
X144658760Y-137454061D01*
X144658763Y-137454062D01*
X144744671Y-137471540D01*
X144872597Y-137497567D01*
X144877772Y-137497757D01*
X144877774Y-137497757D01*
X145090673Y-137505564D01*
X145090677Y-137505564D01*
X145095837Y-137505753D01*
X145100957Y-137505097D01*
X145100959Y-137505097D01*
X145312288Y-137478025D01*
X145312289Y-137478025D01*
X145317416Y-137477368D01*
X145325769Y-137474862D01*
X145526429Y-137414661D01*
X145526434Y-137414659D01*
X145531384Y-137413174D01*
X145731994Y-137314896D01*
X145913860Y-137185173D01*
X145925411Y-137173663D01*
X146003244Y-137096101D01*
X146072096Y-137027489D01*
X146080534Y-137015747D01*
X146199435Y-136850277D01*
X146202453Y-136846077D01*
X146205516Y-136839881D01*
X146299136Y-136650453D01*
X146299137Y-136650451D01*
X146301430Y-136645811D01*
X146343289Y-136508036D01*
X146364865Y-136437023D01*
X146364865Y-136437021D01*
X146366370Y-136432069D01*
X146395529Y-136210590D01*
X146395976Y-136192310D01*
X146397074Y-136147365D01*
X146397074Y-136147361D01*
X146397156Y-136144000D01*
X146378852Y-135921361D01*
X146324431Y-135704702D01*
X146235354Y-135499840D01*
X146180947Y-135415739D01*
X146116822Y-135316617D01*
X146116820Y-135316614D01*
X146114014Y-135312277D01*
X145963670Y-135147051D01*
X145959619Y-135143852D01*
X145959615Y-135143848D01*
X145792414Y-135011800D01*
X145792410Y-135011798D01*
X145788359Y-135008598D01*
X145747053Y-134985796D01*
X145697084Y-134935364D01*
X145682312Y-134865921D01*
X145707428Y-134799516D01*
X145734780Y-134772909D01*
X145783624Y-134738069D01*
X145913860Y-134645173D01*
X146072096Y-134487489D01*
X146131594Y-134404689D01*
X146199435Y-134310277D01*
X146202453Y-134306077D01*
X146236449Y-134237292D01*
X146299136Y-134110453D01*
X146299137Y-134110451D01*
X146301430Y-134105811D01*
X146366370Y-133892069D01*
X146395529Y-133670590D01*
X146397156Y-133604000D01*
X146378852Y-133381361D01*
X146324431Y-133164702D01*
X146235354Y-132959840D01*
X146148368Y-132825380D01*
X146116822Y-132776617D01*
X146116820Y-132776614D01*
X146114014Y-132772277D01*
X146108640Y-132766371D01*
X145966798Y-132610488D01*
X145935746Y-132546642D01*
X145944141Y-132476143D01*
X145989317Y-132421375D01*
X146015761Y-132407706D01*
X146122297Y-132367767D01*
X146130705Y-132364615D01*
X146247261Y-132277261D01*
X146334615Y-132160705D01*
X146385745Y-132024316D01*
X146392500Y-131962134D01*
X146392500Y-130165866D01*
X146385745Y-130103684D01*
X146334615Y-129967295D01*
X146247261Y-129850739D01*
X146130705Y-129763385D01*
X145994316Y-129712255D01*
X145932134Y-129705500D01*
X144135866Y-129705500D01*
X144073684Y-129712255D01*
X143937295Y-129763385D01*
X143820739Y-129850739D01*
X143733385Y-129967295D01*
X143682255Y-130103684D01*
X143675500Y-130165866D01*
X143675500Y-131962134D01*
X143682255Y-132024316D01*
X143733385Y-132160705D01*
X143820739Y-132277261D01*
X143937295Y-132364615D01*
X143945704Y-132367767D01*
X143945705Y-132367768D01*
X144054451Y-132408535D01*
X144111216Y-132451176D01*
X144135916Y-132517738D01*
X144120709Y-132587087D01*
X144101316Y-132613568D01*
X143974629Y-132746138D01*
X143971715Y-132750410D01*
X143971714Y-132750411D01*
X143904953Y-132848279D01*
X143848743Y-132930680D01*
X143833166Y-132964238D01*
X143779843Y-133079114D01*
X143754688Y-133133305D01*
X143694989Y-133348570D01*
X143671251Y-133570695D01*
X143671548Y-133575848D01*
X143671548Y-133575851D01*
X143683812Y-133788547D01*
X143684110Y-133793715D01*
X143685247Y-133798761D01*
X143685248Y-133798767D01*
X143705119Y-133886939D01*
X143733222Y-134011639D01*
X143817266Y-134218616D01*
X143933987Y-134409088D01*
X144080250Y-134577938D01*
X144252126Y-134720632D01*
X144284312Y-134739440D01*
X144325445Y-134763476D01*
X144374169Y-134815114D01*
X144387240Y-134884897D01*
X144360509Y-134950669D01*
X144320055Y-134984027D01*
X144307607Y-134990507D01*
X144303474Y-134993610D01*
X144303471Y-134993612D01*
X144133100Y-135121530D01*
X144128965Y-135124635D01*
X144125393Y-135128373D01*
X143981723Y-135278715D01*
X143974629Y-135286138D01*
X143971715Y-135290410D01*
X143971714Y-135290411D01*
X143912647Y-135377000D01*
X143848743Y-135470680D01*
X143819405Y-135533883D01*
X143759013Y-135663988D01*
X143754688Y-135673305D01*
X143694989Y-135888570D01*
X143671251Y-136110695D01*
X140843000Y-136110695D01*
X140843000Y-123930918D01*
X143528917Y-123930918D01*
X143544682Y-124204320D01*
X143545507Y-124208525D01*
X143545508Y-124208533D01*
X143561105Y-124288031D01*
X143597405Y-124473053D01*
X143598792Y-124477103D01*
X143598793Y-124477108D01*
X143619605Y-124537895D01*
X143686112Y-124732144D01*
X143809160Y-124976799D01*
X143811586Y-124980328D01*
X143811589Y-124980334D01*
X143961843Y-125198953D01*
X143964274Y-125202490D01*
X144148582Y-125405043D01*
X144358675Y-125580707D01*
X144362316Y-125582991D01*
X144587024Y-125723951D01*
X144587028Y-125723953D01*
X144590664Y-125726234D01*
X144715461Y-125782582D01*
X144836345Y-125837164D01*
X144836349Y-125837166D01*
X144840257Y-125838930D01*
X144856887Y-125843856D01*
X145098723Y-125915491D01*
X145098727Y-125915492D01*
X145102836Y-125916709D01*
X145107070Y-125917357D01*
X145107075Y-125917358D01*
X145369298Y-125957483D01*
X145369300Y-125957483D01*
X145373540Y-125958132D01*
X145512912Y-125960322D01*
X145643071Y-125962367D01*
X145643077Y-125962367D01*
X145647362Y-125962434D01*
X145919235Y-125929534D01*
X146184127Y-125860041D01*
X146188087Y-125858401D01*
X146188092Y-125858399D01*
X146310631Y-125807641D01*
X146437136Y-125755241D01*
X146598455Y-125660974D01*
X146669879Y-125619237D01*
X146669880Y-125619236D01*
X146673582Y-125617073D01*
X146889089Y-125448094D01*
X146930809Y-125405043D01*
X147076686Y-125254509D01*
X147079669Y-125251431D01*
X147082202Y-125247983D01*
X147082206Y-125247978D01*
X147239257Y-125034178D01*
X147241795Y-125030723D01*
X147269154Y-124980334D01*
X147370418Y-124793830D01*
X147370419Y-124793828D01*
X147372468Y-124790054D01*
X147469269Y-124533877D01*
X147521590Y-124305431D01*
X147529449Y-124271117D01*
X147529450Y-124271113D01*
X147530407Y-124266933D01*
X147536796Y-124195353D01*
X147554531Y-123996627D01*
X147554531Y-123996625D01*
X147554751Y-123994161D01*
X147555193Y-123952000D01*
X147551231Y-123893880D01*
X147536859Y-123683055D01*
X147536858Y-123683049D01*
X147536567Y-123678778D01*
X147527037Y-123632757D01*
X147504149Y-123522240D01*
X147481032Y-123410612D01*
X147389617Y-123152465D01*
X147264013Y-122909112D01*
X147254040Y-122894921D01*
X147109008Y-122688562D01*
X147106545Y-122685057D01*
X146979588Y-122548435D01*
X146923046Y-122487588D01*
X146923043Y-122487585D01*
X146920125Y-122484445D01*
X146916810Y-122481731D01*
X146916806Y-122481728D01*
X146786069Y-122374721D01*
X146708205Y-122310990D01*
X146474704Y-122167901D01*
X146468592Y-122165218D01*
X146227873Y-122059549D01*
X146227869Y-122059548D01*
X146223945Y-122057825D01*
X145960566Y-121982800D01*
X145956324Y-121982196D01*
X145956318Y-121982195D01*
X145755834Y-121953662D01*
X145689443Y-121944213D01*
X145545589Y-121943460D01*
X145419877Y-121942802D01*
X145419871Y-121942802D01*
X145415591Y-121942780D01*
X145411347Y-121943339D01*
X145411343Y-121943339D01*
X145292302Y-121959011D01*
X145144078Y-121978525D01*
X145139938Y-121979658D01*
X145139936Y-121979658D01*
X145067008Y-121999609D01*
X144879928Y-122050788D01*
X144875980Y-122052472D01*
X144631982Y-122156546D01*
X144631978Y-122156548D01*
X144628030Y-122158232D01*
X144585904Y-122183444D01*
X144396725Y-122296664D01*
X144396721Y-122296667D01*
X144393043Y-122298868D01*
X144179318Y-122470094D01*
X143990808Y-122668742D01*
X143831002Y-122891136D01*
X143702857Y-123133161D01*
X143701385Y-123137184D01*
X143701383Y-123137188D01*
X143610221Y-123386297D01*
X143608743Y-123390337D01*
X143550404Y-123657907D01*
X143528917Y-123930918D01*
X140843000Y-123930918D01*
X140843000Y-120416669D01*
X143534001Y-120416669D01*
X143534371Y-120423490D01*
X143539895Y-120474352D01*
X143543521Y-120489604D01*
X143588676Y-120610054D01*
X143597214Y-120625649D01*
X143673715Y-120727724D01*
X143686276Y-120740285D01*
X143788351Y-120816786D01*
X143803946Y-120825324D01*
X143924394Y-120870478D01*
X143939649Y-120874105D01*
X143990514Y-120879631D01*
X143997328Y-120880000D01*
X145269885Y-120880000D01*
X145285124Y-120875525D01*
X145286329Y-120874135D01*
X145288000Y-120866452D01*
X145288000Y-120861884D01*
X145796000Y-120861884D01*
X145800475Y-120877123D01*
X145801865Y-120878328D01*
X145809548Y-120879999D01*
X147086669Y-120879999D01*
X147093490Y-120879629D01*
X147144352Y-120874105D01*
X147159604Y-120870479D01*
X147280054Y-120825324D01*
X147295649Y-120816786D01*
X147397724Y-120740285D01*
X147410285Y-120727724D01*
X147486786Y-120625649D01*
X147495324Y-120610054D01*
X147540478Y-120489606D01*
X147544105Y-120474351D01*
X147549631Y-120423486D01*
X147550000Y-120416672D01*
X147550000Y-119144115D01*
X147545525Y-119128876D01*
X147544135Y-119127671D01*
X147536452Y-119126000D01*
X145814115Y-119126000D01*
X145798876Y-119130475D01*
X145797671Y-119131865D01*
X145796000Y-119139548D01*
X145796000Y-120861884D01*
X145288000Y-120861884D01*
X145288000Y-119144115D01*
X145283525Y-119128876D01*
X145282135Y-119127671D01*
X145274452Y-119126000D01*
X143552116Y-119126000D01*
X143536877Y-119130475D01*
X143535672Y-119131865D01*
X143534001Y-119139548D01*
X143534001Y-120416669D01*
X140843000Y-120416669D01*
X140843000Y-118599885D01*
X143534000Y-118599885D01*
X143538475Y-118615124D01*
X143539865Y-118616329D01*
X143547548Y-118618000D01*
X145269885Y-118618000D01*
X145285124Y-118613525D01*
X145286329Y-118612135D01*
X145288000Y-118604452D01*
X145288000Y-118599885D01*
X145796000Y-118599885D01*
X145800475Y-118615124D01*
X145801865Y-118616329D01*
X145809548Y-118618000D01*
X147531884Y-118618000D01*
X147547123Y-118613525D01*
X147548328Y-118612135D01*
X147549999Y-118604452D01*
X147549999Y-117327331D01*
X147549629Y-117320510D01*
X147544105Y-117269648D01*
X147540479Y-117254396D01*
X147495324Y-117133946D01*
X147486786Y-117118351D01*
X147410285Y-117016276D01*
X147397724Y-117003715D01*
X147295649Y-116927214D01*
X147280054Y-116918676D01*
X147159606Y-116873522D01*
X147144351Y-116869895D01*
X147093486Y-116864369D01*
X147086672Y-116864000D01*
X145814115Y-116864000D01*
X145798876Y-116868475D01*
X145797671Y-116869865D01*
X145796000Y-116877548D01*
X145796000Y-118599885D01*
X145288000Y-118599885D01*
X145288000Y-116882116D01*
X145283525Y-116866877D01*
X145282135Y-116865672D01*
X145274452Y-116864001D01*
X143997331Y-116864001D01*
X143990510Y-116864371D01*
X143939648Y-116869895D01*
X143924396Y-116873521D01*
X143803946Y-116918676D01*
X143788351Y-116927214D01*
X143686276Y-117003715D01*
X143673715Y-117016276D01*
X143597214Y-117118351D01*
X143588676Y-117133946D01*
X143543522Y-117254394D01*
X143539895Y-117269649D01*
X143534369Y-117320514D01*
X143534000Y-117327328D01*
X143534000Y-118599885D01*
X140843000Y-118599885D01*
X140843000Y-64531681D01*
X141726260Y-64531681D01*
X141726278Y-64531933D01*
X141732193Y-64540677D01*
X141763511Y-64569174D01*
X141769148Y-64573738D01*
X142044944Y-64771918D01*
X142051082Y-64775813D01*
X142347835Y-64940984D01*
X142354355Y-64944136D01*
X142668138Y-65074109D01*
X142674989Y-65076495D01*
X143001612Y-65169536D01*
X143008701Y-65171120D01*
X143343865Y-65226006D01*
X143351071Y-65226763D01*
X143690326Y-65242762D01*
X143697576Y-65242686D01*
X144036410Y-65219587D01*
X144043619Y-65218676D01*
X144377560Y-65156784D01*
X144384590Y-65155057D01*
X144709219Y-65055187D01*
X144715997Y-65052667D01*
X145027003Y-64916145D01*
X145033443Y-64912864D01*
X145326693Y-64741502D01*
X145332726Y-64737493D01*
X145591228Y-64543405D01*
X145599682Y-64532078D01*
X145592937Y-64519748D01*
X143675210Y-62602020D01*
X143661269Y-62594408D01*
X143659434Y-62594539D01*
X143652820Y-62598790D01*
X141733874Y-64517737D01*
X141726260Y-64531681D01*
X140843000Y-64531681D01*
X140843000Y-63840854D01*
X140863002Y-63772733D01*
X140916658Y-63726240D01*
X140986932Y-63716136D01*
X141051512Y-63745630D01*
X141080354Y-63781894D01*
X141083406Y-63787659D01*
X141087161Y-63793860D01*
X141279529Y-64073757D01*
X141283974Y-64079486D01*
X141351143Y-64156484D01*
X141364317Y-64164888D01*
X141374169Y-64159020D01*
X143290380Y-62242810D01*
X143296757Y-62231131D01*
X144026808Y-62231131D01*
X144026939Y-62232966D01*
X144031190Y-62239580D01*
X145948668Y-64157057D01*
X145962022Y-64164349D01*
X145971994Y-64157295D01*
X146079041Y-64029267D01*
X146083357Y-64023456D01*
X146269833Y-63739572D01*
X146273446Y-63733313D01*
X146426058Y-63429882D01*
X146428930Y-63423244D01*
X146545649Y-63104293D01*
X146547745Y-63097351D01*
X146627031Y-62767103D01*
X146628315Y-62759964D01*
X146666576Y-62443787D01*
X226350484Y-62443787D01*
X226359374Y-62783305D01*
X226359980Y-62790521D01*
X226407835Y-63126763D01*
X226409269Y-63133874D01*
X226495455Y-63462395D01*
X226497692Y-63469278D01*
X226621064Y-63785714D01*
X226624081Y-63792303D01*
X226783002Y-64092452D01*
X226786761Y-64098660D01*
X226979129Y-64378557D01*
X226983574Y-64384286D01*
X227050743Y-64461284D01*
X227063917Y-64469688D01*
X227073769Y-64463820D01*
X228989980Y-62547610D01*
X228997592Y-62533669D01*
X228997461Y-62531834D01*
X228993210Y-62525220D01*
X227074374Y-60606385D01*
X227061581Y-60599399D01*
X227050827Y-60607264D01*
X226890037Y-60812327D01*
X226885902Y-60818276D01*
X226708440Y-61107868D01*
X226705019Y-61114247D01*
X226562016Y-61422322D01*
X226559356Y-61429041D01*
X226452711Y-61751507D01*
X226450834Y-61758511D01*
X226381961Y-62091088D01*
X226380904Y-62098249D01*
X226350712Y-62436535D01*
X226350484Y-62443787D01*
X146666576Y-62443787D01*
X146669216Y-62421973D01*
X146669640Y-62416403D01*
X146675410Y-62232797D01*
X146675337Y-62227204D01*
X146655738Y-61887303D01*
X146654906Y-61880113D01*
X146596513Y-61545529D01*
X146594858Y-61538474D01*
X146498398Y-61212834D01*
X146495940Y-61206006D01*
X146362690Y-60893608D01*
X146359473Y-60887125D01*
X146191188Y-60592089D01*
X146187256Y-60586034D01*
X145986174Y-60312295D01*
X145981566Y-60306726D01*
X145976230Y-60300984D01*
X145962578Y-60292866D01*
X145961970Y-60292887D01*
X145953492Y-60298119D01*
X144034420Y-62217190D01*
X144026808Y-62231131D01*
X143296757Y-62231131D01*
X143297992Y-62228869D01*
X143297861Y-62227034D01*
X143293610Y-62220420D01*
X141374774Y-60301585D01*
X141361981Y-60294599D01*
X141351227Y-60302464D01*
X141190437Y-60507527D01*
X141186302Y-60513476D01*
X141076433Y-60692766D01*
X141023785Y-60740397D01*
X140953744Y-60752004D01*
X140888546Y-60723901D01*
X140848892Y-60665010D01*
X140843000Y-60626931D01*
X140843000Y-59714400D01*
X140863002Y-59646279D01*
X140916658Y-59599786D01*
X140969000Y-59588400D01*
X141789765Y-59588400D01*
X141857886Y-59608402D01*
G37*
%TD.AperFunction*%
%TA.AperFunction,Conductor*%
G36*
X158701012Y-135183667D02*
G01*
X158707595Y-135189796D01*
X159478595Y-135960796D01*
X159512621Y-136023108D01*
X159515500Y-136049891D01*
X159515500Y-141986500D01*
X159495498Y-142054621D01*
X159441842Y-142101114D01*
X159389500Y-142112500D01*
X159335866Y-142112500D01*
X159273684Y-142119255D01*
X159137295Y-142170385D01*
X159130110Y-142175770D01*
X159130108Y-142175771D01*
X159079565Y-142213651D01*
X159013058Y-142238499D01*
X158943676Y-142223446D01*
X158928435Y-142213651D01*
X158877892Y-142175771D01*
X158877890Y-142175770D01*
X158870705Y-142170385D01*
X158734316Y-142119255D01*
X158672134Y-142112500D01*
X158618500Y-142112500D01*
X158550379Y-142092498D01*
X158503886Y-142038842D01*
X158492500Y-141986500D01*
X158492500Y-135278891D01*
X158512502Y-135210770D01*
X158566158Y-135164277D01*
X158636432Y-135154173D01*
X158701012Y-135183667D01*
G37*
%TD.AperFunction*%
%TA.AperFunction,Conductor*%
G36*
X166549285Y-126163168D02*
G01*
X166587939Y-126206999D01*
X166618944Y-126265311D01*
X166632466Y-126290742D01*
X166752655Y-126433978D01*
X166757858Y-126438043D01*
X166757859Y-126438044D01*
X166872793Y-126527841D01*
X166899997Y-126549095D01*
X166905933Y-126551990D01*
X166912337Y-126555114D01*
X166964794Y-126602955D01*
X166983100Y-126668361D01*
X166983100Y-127418164D01*
X166963098Y-127486285D01*
X166946195Y-127507259D01*
X165989849Y-128463605D01*
X165927537Y-128497631D01*
X165868143Y-128496217D01*
X165728013Y-128458669D01*
X165716681Y-128456722D01*
X165647281Y-128451260D01*
X165642354Y-128451067D01*
X165473715Y-128451067D01*
X165458476Y-128455542D01*
X165457271Y-128456932D01*
X165455600Y-128464615D01*
X165455600Y-129829952D01*
X165460075Y-129845191D01*
X165461465Y-129846396D01*
X165469148Y-129848067D01*
X165528620Y-129848067D01*
X165596741Y-129868069D01*
X165643234Y-129921725D01*
X165654620Y-129974067D01*
X165654620Y-130230067D01*
X165634618Y-130298188D01*
X165580962Y-130344681D01*
X165528620Y-130356067D01*
X165473715Y-130356067D01*
X165458476Y-130360542D01*
X165457271Y-130361932D01*
X165455600Y-130369615D01*
X165455600Y-131734952D01*
X165460075Y-131750191D01*
X165461465Y-131751396D01*
X165469148Y-131753067D01*
X165528620Y-131753067D01*
X165596741Y-131773069D01*
X165643234Y-131826725D01*
X165654620Y-131879067D01*
X165654620Y-135662850D01*
X165653187Y-135681800D01*
X165651159Y-135695132D01*
X165649921Y-135703269D01*
X165650514Y-135710561D01*
X165650514Y-135710564D01*
X165654205Y-135755938D01*
X165654620Y-135766153D01*
X165654620Y-135774213D01*
X165655045Y-135777857D01*
X165657909Y-135802427D01*
X165658342Y-135806802D01*
X165662921Y-135863092D01*
X165664260Y-135879557D01*
X165666516Y-135886521D01*
X165667707Y-135892480D01*
X165669091Y-135898335D01*
X165669938Y-135905601D01*
X165694855Y-135974247D01*
X165696272Y-135978375D01*
X165714257Y-136033890D01*
X165718769Y-136047819D01*
X165722565Y-136054074D01*
X165725071Y-136059548D01*
X165727790Y-136064978D01*
X165730287Y-136071857D01*
X165734300Y-136077977D01*
X165734300Y-136077978D01*
X165770306Y-136132896D01*
X165772643Y-136136600D01*
X165810525Y-136199027D01*
X165814241Y-136203235D01*
X165814242Y-136203236D01*
X165817923Y-136207404D01*
X165817896Y-136207428D01*
X165820549Y-136210420D01*
X165823252Y-136213653D01*
X165827264Y-136219772D01*
X165854573Y-136245642D01*
X165883503Y-136273048D01*
X165885945Y-136275426D01*
X167098595Y-137488076D01*
X167132621Y-137550388D01*
X167135500Y-137577171D01*
X167135500Y-141986500D01*
X167115498Y-142054621D01*
X167061842Y-142101114D01*
X167009500Y-142112500D01*
X166955866Y-142112500D01*
X166893684Y-142119255D01*
X166757295Y-142170385D01*
X166750110Y-142175770D01*
X166750108Y-142175771D01*
X166699565Y-142213651D01*
X166633058Y-142238499D01*
X166563676Y-142223446D01*
X166548435Y-142213651D01*
X166497892Y-142175771D01*
X166497890Y-142175770D01*
X166490705Y-142170385D01*
X166354316Y-142119255D01*
X166292134Y-142112500D01*
X166238500Y-142112500D01*
X166170379Y-142092498D01*
X166123886Y-142038842D01*
X166112500Y-141986500D01*
X166112500Y-138039869D01*
X166113933Y-138020918D01*
X166116099Y-138006683D01*
X166116099Y-138006681D01*
X166117199Y-137999451D01*
X166116508Y-137990948D01*
X166112915Y-137946782D01*
X166112500Y-137936567D01*
X166112500Y-137928507D01*
X166109211Y-137900293D01*
X166108778Y-137895918D01*
X166103454Y-137830461D01*
X166103453Y-137830458D01*
X166102860Y-137823163D01*
X166100604Y-137816199D01*
X166099413Y-137810240D01*
X166098029Y-137804385D01*
X166097182Y-137797119D01*
X166072265Y-137728473D01*
X166070848Y-137724345D01*
X166050607Y-137661864D01*
X166050606Y-137661862D01*
X166048351Y-137654901D01*
X166044555Y-137648646D01*
X166042049Y-137643172D01*
X166039330Y-137637742D01*
X166036833Y-137630863D01*
X166005236Y-137582670D01*
X165996814Y-137569824D01*
X165994467Y-137566105D01*
X165984382Y-137549485D01*
X165956595Y-137503693D01*
X165949197Y-137495316D01*
X165949224Y-137495292D01*
X165946571Y-137492300D01*
X165943868Y-137489067D01*
X165939856Y-137482948D01*
X165883617Y-137429672D01*
X165881175Y-137427294D01*
X163914205Y-135460324D01*
X163880179Y-135398012D01*
X163877300Y-135371229D01*
X163877300Y-131467637D01*
X163897302Y-131399516D01*
X163950958Y-131353023D01*
X164021232Y-131342919D01*
X164085812Y-131372413D01*
X164101221Y-131388343D01*
X164184368Y-131491022D01*
X164193645Y-131500299D01*
X164328618Y-131609597D01*
X164339632Y-131616749D01*
X164494377Y-131695596D01*
X164506630Y-131700300D01*
X164675187Y-131745465D01*
X164686519Y-131747412D01*
X164755919Y-131752874D01*
X164760845Y-131753067D01*
X164929485Y-131753067D01*
X164944724Y-131748592D01*
X164945929Y-131747202D01*
X164947600Y-131739519D01*
X164947600Y-128469182D01*
X164943125Y-128453943D01*
X164941735Y-128452738D01*
X164934052Y-128451067D01*
X164760846Y-128451067D01*
X164755919Y-128451260D01*
X164686519Y-128456722D01*
X164675187Y-128458669D01*
X164506630Y-128503834D01*
X164494377Y-128508538D01*
X164339632Y-128587385D01*
X164328618Y-128594537D01*
X164193645Y-128703835D01*
X164184368Y-128713112D01*
X164101221Y-128815791D01*
X164042807Y-128856143D01*
X163971849Y-128858509D01*
X163910878Y-128822136D01*
X163879249Y-128758574D01*
X163877300Y-128736497D01*
X163877300Y-127471238D01*
X163897302Y-127403117D01*
X163914205Y-127382143D01*
X164591597Y-126704751D01*
X164653909Y-126670725D01*
X164690578Y-126668234D01*
X164755885Y-126673374D01*
X164755895Y-126673374D01*
X164758342Y-126673567D01*
X165644858Y-126673567D01*
X165647306Y-126673374D01*
X165647314Y-126673374D01*
X165716759Y-126667908D01*
X165722515Y-126667455D01*
X165728088Y-126665962D01*
X165728092Y-126665961D01*
X165896750Y-126620769D01*
X165896751Y-126620769D01*
X165903124Y-126619061D01*
X166069725Y-126534174D01*
X166084890Y-126521894D01*
X166209910Y-126420654D01*
X166215036Y-126416503D01*
X166233749Y-126393395D01*
X166328553Y-126276322D01*
X166328554Y-126276321D01*
X166332707Y-126271192D01*
X166335704Y-126265311D01*
X166335706Y-126265308D01*
X166364421Y-126208950D01*
X166413169Y-126157334D01*
X166482084Y-126140268D01*
X166549285Y-126163168D01*
G37*
%TD.AperFunction*%
%TA.AperFunction,Conductor*%
G36*
X156064392Y-132838332D02*
G01*
X156075598Y-132848279D01*
X156938595Y-133711276D01*
X156972621Y-133773588D01*
X156975500Y-133800371D01*
X156975500Y-141986500D01*
X156955498Y-142054621D01*
X156901842Y-142101114D01*
X156849500Y-142112500D01*
X156795866Y-142112500D01*
X156733684Y-142119255D01*
X156597295Y-142170385D01*
X156590110Y-142175770D01*
X156590108Y-142175771D01*
X156539565Y-142213651D01*
X156473058Y-142238499D01*
X156403676Y-142223446D01*
X156388435Y-142213651D01*
X156337892Y-142175771D01*
X156337890Y-142175770D01*
X156330705Y-142170385D01*
X156194316Y-142119255D01*
X156132134Y-142112500D01*
X156078500Y-142112500D01*
X156010379Y-142092498D01*
X155963886Y-142038842D01*
X155952500Y-141986500D01*
X155952500Y-140275063D01*
X155953933Y-140256114D01*
X155956097Y-140241886D01*
X155957198Y-140234651D01*
X155952915Y-140181990D01*
X155952500Y-140171777D01*
X155952500Y-140163707D01*
X155952078Y-140160087D01*
X155952077Y-140160069D01*
X155949208Y-140135461D01*
X155948775Y-140131086D01*
X155943454Y-140065661D01*
X155943453Y-140065658D01*
X155942860Y-140058363D01*
X155940604Y-140051399D01*
X155939413Y-140045440D01*
X155938029Y-140039585D01*
X155937182Y-140032319D01*
X155912265Y-139963673D01*
X155910848Y-139959545D01*
X155890607Y-139897064D01*
X155890606Y-139897062D01*
X155888351Y-139890101D01*
X155884555Y-139883846D01*
X155882049Y-139878372D01*
X155879330Y-139872942D01*
X155876833Y-139866063D01*
X155836809Y-139805016D01*
X155834472Y-139801312D01*
X155828594Y-139791624D01*
X155801575Y-139747098D01*
X155799509Y-139743693D01*
X155799505Y-139743688D01*
X155796595Y-139738892D01*
X155789197Y-139730516D01*
X155789223Y-139730493D01*
X155786574Y-139727503D01*
X155783866Y-139724264D01*
X155779856Y-139718148D01*
X155774549Y-139713121D01*
X155774546Y-139713117D01*
X155723617Y-139664872D01*
X155721175Y-139662494D01*
X154683893Y-138625212D01*
X154649867Y-138562900D01*
X154654932Y-138492085D01*
X154697479Y-138435249D01*
X154763999Y-138410438D01*
X154799183Y-138412870D01*
X154868483Y-138427600D01*
X154965056Y-138448128D01*
X154965061Y-138448128D01*
X154971513Y-138449500D01*
X155162487Y-138449500D01*
X155168939Y-138448128D01*
X155168944Y-138448128D01*
X155255887Y-138429647D01*
X155349288Y-138409794D01*
X155355319Y-138407109D01*
X155517722Y-138334803D01*
X155517724Y-138334802D01*
X155523752Y-138332118D01*
X155542825Y-138318261D01*
X155579157Y-138291864D01*
X155678253Y-138219866D01*
X155687242Y-138209883D01*
X155801621Y-138082852D01*
X155801622Y-138082851D01*
X155806040Y-138077944D01*
X155890471Y-137931706D01*
X155898223Y-137918279D01*
X155898224Y-137918278D01*
X155901527Y-137912556D01*
X155960542Y-137730928D01*
X155965656Y-137682276D01*
X155979814Y-137547565D01*
X155980504Y-137541000D01*
X155978125Y-137518363D01*
X155961232Y-137357635D01*
X155961232Y-137357633D01*
X155960542Y-137351072D01*
X155901527Y-137169444D01*
X155842381Y-137067000D01*
X155825500Y-137004001D01*
X155825500Y-132997999D01*
X155842382Y-132934997D01*
X155877385Y-132874372D01*
X155928768Y-132825380D01*
X155998482Y-132811945D01*
X156064392Y-132838332D01*
G37*
%TD.AperFunction*%
%TA.AperFunction,Conductor*%
G36*
X167937721Y-129868069D02*
G01*
X167984214Y-129921725D01*
X167995600Y-129974067D01*
X167995600Y-131734952D01*
X168000075Y-131750191D01*
X168001465Y-131751396D01*
X168009148Y-131753067D01*
X168184824Y-131753067D01*
X168184824Y-131754200D01*
X168249444Y-131770421D01*
X168298028Y-131822191D01*
X168311580Y-131879037D01*
X168311580Y-136251509D01*
X168291578Y-136319630D01*
X168237922Y-136366123D01*
X168167648Y-136376227D01*
X168103068Y-136346733D01*
X168096485Y-136340604D01*
X167208525Y-135452644D01*
X167174499Y-135390332D01*
X167171620Y-135363549D01*
X167171620Y-131879037D01*
X167191622Y-131810916D01*
X167245278Y-131764423D01*
X167298376Y-131753971D01*
X167298376Y-131753067D01*
X167469485Y-131753067D01*
X167484724Y-131748592D01*
X167485929Y-131747202D01*
X167487600Y-131739519D01*
X167487600Y-130374182D01*
X167483125Y-130358943D01*
X167481735Y-130357738D01*
X167474052Y-130356067D01*
X167297620Y-130356067D01*
X167229499Y-130336065D01*
X167183006Y-130282409D01*
X167171620Y-130230067D01*
X167171620Y-129974067D01*
X167191622Y-129905946D01*
X167245278Y-129859453D01*
X167297620Y-129848067D01*
X167869600Y-129848067D01*
X167937721Y-129868069D01*
G37*
%TD.AperFunction*%
%TA.AperFunction,Conductor*%
G36*
X167937721Y-109900402D02*
G01*
X167984214Y-109954058D01*
X167995600Y-110006400D01*
X167995600Y-111767285D01*
X168000075Y-111782524D01*
X168001465Y-111783729D01*
X168009148Y-111785400D01*
X168068620Y-111785400D01*
X168136741Y-111805402D01*
X168183234Y-111859058D01*
X168194620Y-111911400D01*
X168194620Y-119660850D01*
X168193187Y-119679800D01*
X168189921Y-119701269D01*
X168190514Y-119708561D01*
X168190514Y-119708564D01*
X168194205Y-119753938D01*
X168194620Y-119764153D01*
X168194620Y-119772213D01*
X168195720Y-119781650D01*
X168197909Y-119800427D01*
X168198342Y-119804802D01*
X168203368Y-119866587D01*
X168204260Y-119877557D01*
X168206516Y-119884521D01*
X168207707Y-119890480D01*
X168209091Y-119896335D01*
X168209938Y-119903601D01*
X168234855Y-119972247D01*
X168236272Y-119976375D01*
X168254231Y-120031810D01*
X168258769Y-120045819D01*
X168262565Y-120052074D01*
X168265071Y-120057548D01*
X168267790Y-120062978D01*
X168270287Y-120069857D01*
X168274300Y-120075977D01*
X168274300Y-120075978D01*
X168310306Y-120130896D01*
X168312643Y-120134600D01*
X168350525Y-120197027D01*
X168354241Y-120201235D01*
X168354242Y-120201236D01*
X168357923Y-120205404D01*
X168357896Y-120205428D01*
X168360549Y-120208420D01*
X168363252Y-120211653D01*
X168367264Y-120217772D01*
X168383998Y-120233624D01*
X168423503Y-120271048D01*
X168425945Y-120273426D01*
X169486195Y-121333676D01*
X169520221Y-121395988D01*
X169523100Y-121422771D01*
X169523100Y-123376891D01*
X169503098Y-123445012D01*
X169454302Y-123489158D01*
X169413475Y-123509960D01*
X169268164Y-123627631D01*
X169264013Y-123632757D01*
X169206964Y-123703207D01*
X169150493Y-123772942D01*
X169147498Y-123778819D01*
X169147494Y-123778826D01*
X169118779Y-123835184D01*
X169070031Y-123886800D01*
X169001116Y-123903866D01*
X168933915Y-123880966D01*
X168895261Y-123837135D01*
X168853836Y-123759226D01*
X168850734Y-123753392D01*
X168730545Y-123610156D01*
X168634118Y-123534818D01*
X168588406Y-123499104D01*
X168583203Y-123495039D01*
X168575156Y-123491114D01*
X168570863Y-123489020D01*
X168518406Y-123441179D01*
X168500100Y-123375773D01*
X168500100Y-121377470D01*
X168501533Y-121358520D01*
X168503699Y-121344285D01*
X168503699Y-121344281D01*
X168504799Y-121337051D01*
X168503395Y-121319781D01*
X168500515Y-121284382D01*
X168500100Y-121274167D01*
X168500100Y-121266107D01*
X168496811Y-121237893D01*
X168496378Y-121233518D01*
X168491054Y-121168061D01*
X168491053Y-121168058D01*
X168490460Y-121160763D01*
X168488204Y-121153799D01*
X168487013Y-121147840D01*
X168485629Y-121141985D01*
X168484782Y-121134719D01*
X168459865Y-121066073D01*
X168458448Y-121061945D01*
X168438207Y-120999464D01*
X168438206Y-120999462D01*
X168435951Y-120992501D01*
X168432155Y-120986246D01*
X168429649Y-120980772D01*
X168426930Y-120975342D01*
X168424433Y-120968463D01*
X168401243Y-120933093D01*
X168384414Y-120907424D01*
X168382067Y-120903705D01*
X168378411Y-120897680D01*
X168344195Y-120841293D01*
X168337542Y-120833759D01*
X168336797Y-120832916D01*
X168336824Y-120832892D01*
X168334171Y-120829900D01*
X168331468Y-120826667D01*
X168327456Y-120820548D01*
X168271217Y-120767272D01*
X168268775Y-120764894D01*
X167325485Y-119821604D01*
X167291459Y-119759292D01*
X167288580Y-119732509D01*
X167288580Y-111911400D01*
X167308582Y-111843279D01*
X167362238Y-111796786D01*
X167414580Y-111785400D01*
X167469485Y-111785400D01*
X167484724Y-111780925D01*
X167485929Y-111779535D01*
X167487600Y-111771852D01*
X167487600Y-110406515D01*
X167483125Y-110391276D01*
X167481735Y-110390071D01*
X167474052Y-110388400D01*
X167414580Y-110388400D01*
X167346459Y-110368398D01*
X167299966Y-110314742D01*
X167288580Y-110262400D01*
X167288580Y-110006400D01*
X167308582Y-109938279D01*
X167362238Y-109891786D01*
X167414580Y-109880400D01*
X167869600Y-109880400D01*
X167937721Y-109900402D01*
G37*
%TD.AperFunction*%
%TA.AperFunction,Conductor*%
G36*
X166549285Y-106195501D02*
G01*
X166587938Y-106239330D01*
X166612752Y-106285997D01*
X166627500Y-106345149D01*
X166627500Y-107329629D01*
X166607498Y-107397750D01*
X166590595Y-107418724D01*
X166041169Y-107968150D01*
X166026757Y-107980536D01*
X166015162Y-107989069D01*
X166015157Y-107989074D01*
X166009262Y-107993412D01*
X166004523Y-107998990D01*
X166004520Y-107998993D01*
X165975045Y-108033688D01*
X165968115Y-108041204D01*
X165962420Y-108046899D01*
X165960140Y-108049781D01*
X165944799Y-108069171D01*
X165942008Y-108072575D01*
X165901960Y-108119715D01*
X165894747Y-108128205D01*
X165891419Y-108134721D01*
X165888052Y-108139770D01*
X165884885Y-108144899D01*
X165880346Y-108150636D01*
X165849425Y-108216795D01*
X165847522Y-108220689D01*
X165814311Y-108285728D01*
X165812572Y-108292836D01*
X165810473Y-108298479D01*
X165808556Y-108304242D01*
X165805458Y-108310870D01*
X165790911Y-108380810D01*
X165790594Y-108382332D01*
X165789636Y-108386566D01*
X165789122Y-108388667D01*
X165753512Y-108450084D01*
X165690349Y-108482501D01*
X165656844Y-108484346D01*
X165647281Y-108483593D01*
X165642354Y-108483400D01*
X165473715Y-108483400D01*
X165458476Y-108487875D01*
X165457271Y-108489265D01*
X165455600Y-108496948D01*
X165455600Y-109862285D01*
X165460075Y-109877524D01*
X165461465Y-109878729D01*
X165469148Y-109880400D01*
X165645580Y-109880400D01*
X165713701Y-109900402D01*
X165760194Y-109954058D01*
X165771580Y-110006400D01*
X165771580Y-110262400D01*
X165751578Y-110330521D01*
X165697922Y-110377014D01*
X165645580Y-110388400D01*
X165473715Y-110388400D01*
X165458476Y-110392875D01*
X165457271Y-110394265D01*
X165455600Y-110401948D01*
X165455600Y-111767285D01*
X165460075Y-111782524D01*
X165461465Y-111783729D01*
X165469148Y-111785400D01*
X165644824Y-111785400D01*
X165644824Y-111786533D01*
X165709444Y-111802754D01*
X165758028Y-111854524D01*
X165771580Y-111911370D01*
X165771580Y-120031810D01*
X165770147Y-120050760D01*
X165769645Y-120054063D01*
X165766881Y-120072229D01*
X165767474Y-120079521D01*
X165767474Y-120079524D01*
X165771165Y-120124898D01*
X165771580Y-120135113D01*
X165771580Y-120143173D01*
X165772005Y-120146817D01*
X165774869Y-120171387D01*
X165775302Y-120175762D01*
X165780009Y-120233624D01*
X165781220Y-120248517D01*
X165783476Y-120255481D01*
X165784667Y-120261440D01*
X165786051Y-120267295D01*
X165786898Y-120274561D01*
X165811815Y-120343207D01*
X165813232Y-120347335D01*
X165835729Y-120416779D01*
X165839525Y-120423034D01*
X165842031Y-120428508D01*
X165844750Y-120433938D01*
X165847247Y-120440817D01*
X165851260Y-120446937D01*
X165851260Y-120446938D01*
X165887266Y-120501856D01*
X165889603Y-120505560D01*
X165927485Y-120567987D01*
X165931201Y-120572195D01*
X165931202Y-120572196D01*
X165934883Y-120576364D01*
X165934856Y-120576388D01*
X165937509Y-120579380D01*
X165940212Y-120582613D01*
X165944224Y-120588732D01*
X165949536Y-120593764D01*
X166000463Y-120642008D01*
X166002905Y-120644386D01*
X166946195Y-121587676D01*
X166980221Y-121649988D01*
X166983100Y-121676771D01*
X166983100Y-123377383D01*
X166963098Y-123445504D01*
X166916252Y-123488635D01*
X166853048Y-123522240D01*
X166853043Y-123522243D01*
X166847217Y-123525341D01*
X166703982Y-123645530D01*
X166623421Y-123748643D01*
X166595879Y-123783896D01*
X166588865Y-123792873D01*
X166579335Y-123812412D01*
X166531498Y-123864869D01*
X166462891Y-123883136D01*
X166395300Y-123861413D01*
X166353821Y-123814380D01*
X166335704Y-123778823D01*
X166335702Y-123778819D01*
X166332707Y-123772942D01*
X166276237Y-123703207D01*
X166219187Y-123632757D01*
X166215036Y-123627631D01*
X166088719Y-123525341D01*
X166074855Y-123514114D01*
X166074854Y-123514113D01*
X166069725Y-123509960D01*
X165903124Y-123425073D01*
X165896750Y-123423365D01*
X165728092Y-123378173D01*
X165728088Y-123378172D01*
X165722515Y-123376679D01*
X165700344Y-123374934D01*
X165647314Y-123370760D01*
X165647306Y-123370760D01*
X165644858Y-123370567D01*
X164874580Y-123370567D01*
X164806459Y-123350565D01*
X164759966Y-123296909D01*
X164748580Y-123244567D01*
X164748580Y-111911400D01*
X164768582Y-111843279D01*
X164822238Y-111796786D01*
X164874580Y-111785400D01*
X164929485Y-111785400D01*
X164944724Y-111780925D01*
X164945929Y-111779535D01*
X164947600Y-111771852D01*
X164947600Y-108501515D01*
X164943125Y-108486276D01*
X164941735Y-108485071D01*
X164934052Y-108483400D01*
X164874580Y-108483400D01*
X164806459Y-108463398D01*
X164759966Y-108409742D01*
X164748580Y-108357400D01*
X164748580Y-106831900D01*
X164768582Y-106763779D01*
X164822238Y-106717286D01*
X164874580Y-106705900D01*
X165644858Y-106705900D01*
X165647306Y-106705707D01*
X165647314Y-106705707D01*
X165716759Y-106700241D01*
X165722515Y-106699788D01*
X165728088Y-106698295D01*
X165728092Y-106698294D01*
X165896750Y-106653102D01*
X165896751Y-106653102D01*
X165903124Y-106651394D01*
X166069725Y-106566507D01*
X166074859Y-106562350D01*
X166209910Y-106452987D01*
X166215036Y-106448836D01*
X166233749Y-106425728D01*
X166328553Y-106308655D01*
X166328554Y-106308654D01*
X166332707Y-106303525D01*
X166335704Y-106297644D01*
X166335706Y-106297641D01*
X166364421Y-106241283D01*
X166413169Y-106189667D01*
X166482084Y-106172601D01*
X166549285Y-106195501D01*
G37*
%TD.AperFunction*%
%TA.AperFunction,Conductor*%
G36*
X167937721Y-89885202D02*
G01*
X167984214Y-89938858D01*
X167995600Y-89991200D01*
X167995600Y-91752085D01*
X168000075Y-91767324D01*
X168001465Y-91768529D01*
X168009148Y-91770200D01*
X168184824Y-91770200D01*
X168184824Y-91771333D01*
X168249444Y-91787554D01*
X168298028Y-91839324D01*
X168311580Y-91896170D01*
X168311580Y-100321410D01*
X168310147Y-100340360D01*
X168308755Y-100349512D01*
X168306881Y-100361829D01*
X168307474Y-100369121D01*
X168307474Y-100369124D01*
X168311165Y-100414498D01*
X168311580Y-100424713D01*
X168311580Y-100432773D01*
X168312516Y-100440799D01*
X168314869Y-100460987D01*
X168315302Y-100465362D01*
X168318689Y-100506995D01*
X168321220Y-100538117D01*
X168323476Y-100545081D01*
X168324667Y-100551040D01*
X168326051Y-100556895D01*
X168326898Y-100564161D01*
X168351815Y-100632807D01*
X168353232Y-100636935D01*
X168371137Y-100692203D01*
X168375729Y-100706379D01*
X168379525Y-100712634D01*
X168382031Y-100718108D01*
X168384750Y-100723538D01*
X168387247Y-100730417D01*
X168391260Y-100736537D01*
X168391260Y-100736538D01*
X168427266Y-100791456D01*
X168429603Y-100795160D01*
X168467485Y-100857587D01*
X168471201Y-100861795D01*
X168471202Y-100861796D01*
X168474883Y-100865964D01*
X168474856Y-100865988D01*
X168477509Y-100868980D01*
X168480212Y-100872213D01*
X168484224Y-100878332D01*
X168489536Y-100883364D01*
X168540463Y-100931608D01*
X168542905Y-100933986D01*
X169486195Y-101877276D01*
X169520221Y-101939588D01*
X169523100Y-101966371D01*
X169523100Y-103409224D01*
X169503098Y-103477345D01*
X169454302Y-103521491D01*
X169413475Y-103542293D01*
X169268164Y-103659964D01*
X169150493Y-103805275D01*
X169147498Y-103811152D01*
X169147494Y-103811159D01*
X169118779Y-103867517D01*
X169070031Y-103919133D01*
X169001116Y-103936199D01*
X168933915Y-103913299D01*
X168895261Y-103869468D01*
X168853836Y-103791559D01*
X168850734Y-103785725D01*
X168730545Y-103642489D01*
X168618019Y-103554573D01*
X168588406Y-103531437D01*
X168583203Y-103527372D01*
X168573948Y-103522858D01*
X168570863Y-103521353D01*
X168518406Y-103473512D01*
X168500100Y-103408106D01*
X168500100Y-101819470D01*
X168501533Y-101800520D01*
X168503699Y-101786285D01*
X168503699Y-101786281D01*
X168504799Y-101779051D01*
X168500515Y-101726382D01*
X168500100Y-101716167D01*
X168500100Y-101708107D01*
X168496811Y-101679893D01*
X168496378Y-101675518D01*
X168491054Y-101610061D01*
X168491053Y-101610058D01*
X168490460Y-101602763D01*
X168488204Y-101595799D01*
X168487013Y-101589840D01*
X168485629Y-101583985D01*
X168484782Y-101576719D01*
X168459865Y-101508073D01*
X168458448Y-101503945D01*
X168438207Y-101441464D01*
X168438206Y-101441462D01*
X168435951Y-101434501D01*
X168432155Y-101428246D01*
X168429649Y-101422772D01*
X168426930Y-101417342D01*
X168424433Y-101410463D01*
X168420420Y-101404342D01*
X168384414Y-101349424D01*
X168382067Y-101345705D01*
X168360286Y-101309811D01*
X168344195Y-101283293D01*
X168336797Y-101274916D01*
X168336824Y-101274892D01*
X168334171Y-101271900D01*
X168331468Y-101268667D01*
X168327456Y-101262548D01*
X168271217Y-101209272D01*
X168268775Y-101206894D01*
X167325485Y-100263604D01*
X167291459Y-100201292D01*
X167288580Y-100174509D01*
X167288580Y-91896200D01*
X167308582Y-91828079D01*
X167362238Y-91781586D01*
X167414580Y-91770200D01*
X167469485Y-91770200D01*
X167484724Y-91765725D01*
X167485929Y-91764335D01*
X167487600Y-91756652D01*
X167487600Y-90391315D01*
X167483125Y-90376076D01*
X167481735Y-90374871D01*
X167474052Y-90373200D01*
X167414580Y-90373200D01*
X167346459Y-90353198D01*
X167299966Y-90299542D01*
X167288580Y-90247200D01*
X167288580Y-89991200D01*
X167308582Y-89923079D01*
X167362238Y-89876586D01*
X167414580Y-89865200D01*
X167869600Y-89865200D01*
X167937721Y-89885202D01*
G37*
%TD.AperFunction*%
%TA.AperFunction,Conductor*%
G36*
X166549285Y-86180301D02*
G01*
X166587939Y-86224132D01*
X166618944Y-86282444D01*
X166632466Y-86307875D01*
X166752655Y-86451111D01*
X166757858Y-86455176D01*
X166757859Y-86455177D01*
X166884734Y-86554303D01*
X166899997Y-86566228D01*
X166905933Y-86569123D01*
X166912337Y-86572247D01*
X166964794Y-86620088D01*
X166983100Y-86685494D01*
X166983100Y-87111229D01*
X166963098Y-87179350D01*
X166946195Y-87200324D01*
X166041169Y-88105350D01*
X166026757Y-88117736D01*
X166015162Y-88126269D01*
X166015157Y-88126274D01*
X166009262Y-88130612D01*
X166004523Y-88136190D01*
X166004520Y-88136193D01*
X165975045Y-88170888D01*
X165968115Y-88178404D01*
X165962420Y-88184099D01*
X165959119Y-88188271D01*
X165944799Y-88206371D01*
X165942008Y-88209775D01*
X165899604Y-88259688D01*
X165894747Y-88265405D01*
X165891419Y-88271921D01*
X165888052Y-88276970D01*
X165884885Y-88282099D01*
X165880346Y-88287836D01*
X165849425Y-88353995D01*
X165847518Y-88357896D01*
X165823789Y-88404365D01*
X165774995Y-88455937D01*
X165701688Y-88472675D01*
X165647283Y-88468393D01*
X165642354Y-88468200D01*
X165473715Y-88468200D01*
X165458476Y-88472675D01*
X165457271Y-88474065D01*
X165455600Y-88481748D01*
X165455600Y-89847085D01*
X165460075Y-89862324D01*
X165461465Y-89863529D01*
X165469148Y-89865200D01*
X165645580Y-89865200D01*
X165713701Y-89885202D01*
X165760194Y-89938858D01*
X165771580Y-89991200D01*
X165771580Y-90247200D01*
X165751578Y-90315321D01*
X165697922Y-90361814D01*
X165645580Y-90373200D01*
X165473715Y-90373200D01*
X165458476Y-90377675D01*
X165457271Y-90379065D01*
X165455600Y-90386748D01*
X165455600Y-91752085D01*
X165460075Y-91767324D01*
X165461465Y-91768529D01*
X165469148Y-91770200D01*
X165644824Y-91770200D01*
X165644824Y-91771333D01*
X165709444Y-91787554D01*
X165758028Y-91839324D01*
X165771580Y-91896170D01*
X165771580Y-100473810D01*
X165770147Y-100492760D01*
X165769992Y-100493782D01*
X165766881Y-100514229D01*
X165767474Y-100521521D01*
X165767474Y-100521524D01*
X165771165Y-100566898D01*
X165771580Y-100577113D01*
X165771580Y-100585173D01*
X165772005Y-100588817D01*
X165774869Y-100613387D01*
X165775302Y-100617762D01*
X165779239Y-100666159D01*
X165781220Y-100690517D01*
X165783476Y-100697481D01*
X165784667Y-100703440D01*
X165786051Y-100709295D01*
X165786898Y-100716561D01*
X165811815Y-100785207D01*
X165813232Y-100789335D01*
X165835729Y-100858779D01*
X165839525Y-100865034D01*
X165842031Y-100870508D01*
X165844750Y-100875938D01*
X165847247Y-100882817D01*
X165851260Y-100888937D01*
X165851260Y-100888938D01*
X165887266Y-100943856D01*
X165889603Y-100947560D01*
X165927485Y-101009987D01*
X165931201Y-101014195D01*
X165931202Y-101014196D01*
X165934883Y-101018364D01*
X165934856Y-101018388D01*
X165937509Y-101021380D01*
X165940212Y-101024613D01*
X165944224Y-101030732D01*
X165949536Y-101035764D01*
X166000463Y-101084008D01*
X166002905Y-101086386D01*
X166946195Y-102029676D01*
X166980221Y-102091988D01*
X166983100Y-102118771D01*
X166983100Y-103409716D01*
X166963098Y-103477837D01*
X166916252Y-103520968D01*
X166853048Y-103554573D01*
X166853043Y-103554576D01*
X166847217Y-103557674D01*
X166703982Y-103677863D01*
X166588865Y-103825206D01*
X166579335Y-103844745D01*
X166531498Y-103897202D01*
X166462891Y-103915469D01*
X166395300Y-103893746D01*
X166353821Y-103846713D01*
X166335704Y-103811156D01*
X166335702Y-103811152D01*
X166332707Y-103805275D01*
X166215036Y-103659964D01*
X166209910Y-103655813D01*
X166074855Y-103546447D01*
X166074854Y-103546446D01*
X166069725Y-103542293D01*
X165903124Y-103457406D01*
X165896750Y-103455698D01*
X165728092Y-103410506D01*
X165728088Y-103410505D01*
X165722515Y-103409012D01*
X165700344Y-103407267D01*
X165647314Y-103403093D01*
X165647306Y-103403093D01*
X165644858Y-103402900D01*
X164758342Y-103402900D01*
X164755895Y-103403093D01*
X164755885Y-103403093D01*
X164690578Y-103408233D01*
X164621098Y-103393637D01*
X164591597Y-103371716D01*
X164117405Y-102897524D01*
X164083379Y-102835212D01*
X164080500Y-102808429D01*
X164080500Y-91689973D01*
X164100502Y-91621852D01*
X164154158Y-91575359D01*
X164224432Y-91565255D01*
X164285794Y-91592052D01*
X164328618Y-91626730D01*
X164339632Y-91633882D01*
X164494377Y-91712729D01*
X164506630Y-91717433D01*
X164675187Y-91762598D01*
X164686519Y-91764545D01*
X164755919Y-91770007D01*
X164760845Y-91770200D01*
X164929485Y-91770200D01*
X164944724Y-91765725D01*
X164945929Y-91764335D01*
X164947600Y-91756652D01*
X164947600Y-88486315D01*
X164943125Y-88471076D01*
X164941735Y-88469871D01*
X164934052Y-88468200D01*
X164760846Y-88468200D01*
X164755919Y-88468393D01*
X164686519Y-88473855D01*
X164675187Y-88475802D01*
X164506630Y-88520967D01*
X164494377Y-88525671D01*
X164339632Y-88604518D01*
X164328618Y-88611670D01*
X164285794Y-88646348D01*
X164220267Y-88673673D01*
X164150368Y-88661233D01*
X164098291Y-88612978D01*
X164080500Y-88548427D01*
X164080500Y-87285171D01*
X164100502Y-87217050D01*
X164117405Y-87196076D01*
X164591597Y-86721884D01*
X164653909Y-86687858D01*
X164690578Y-86685367D01*
X164755885Y-86690507D01*
X164755895Y-86690507D01*
X164758342Y-86690700D01*
X165644858Y-86690700D01*
X165647306Y-86690507D01*
X165647314Y-86690507D01*
X165716759Y-86685041D01*
X165722515Y-86684588D01*
X165728088Y-86683095D01*
X165728092Y-86683094D01*
X165896750Y-86637902D01*
X165896751Y-86637902D01*
X165903124Y-86636194D01*
X166069725Y-86551307D01*
X166074859Y-86547150D01*
X166209910Y-86437787D01*
X166215036Y-86433636D01*
X166332707Y-86288325D01*
X166335704Y-86282444D01*
X166335706Y-86282441D01*
X166364421Y-86226083D01*
X166413169Y-86174467D01*
X166482084Y-86157401D01*
X166549285Y-86180301D01*
G37*
%TD.AperFunction*%
%TA.AperFunction,Conductor*%
G36*
X167937721Y-69870002D02*
G01*
X167984214Y-69923658D01*
X167995600Y-69976000D01*
X167995600Y-71736885D01*
X168000075Y-71752124D01*
X168001465Y-71753329D01*
X168009148Y-71755000D01*
X168181740Y-71755000D01*
X168249861Y-71775002D01*
X168296354Y-71828658D01*
X168307740Y-71881000D01*
X168307740Y-79751250D01*
X168306307Y-79770200D01*
X168304383Y-79782850D01*
X168303041Y-79791669D01*
X168303634Y-79798961D01*
X168303634Y-79798964D01*
X168307325Y-79844338D01*
X168307740Y-79854553D01*
X168307740Y-79862613D01*
X168308811Y-79871800D01*
X168311029Y-79890827D01*
X168311462Y-79895202D01*
X168316778Y-79960550D01*
X168317380Y-79967957D01*
X168319636Y-79974921D01*
X168320827Y-79980880D01*
X168322211Y-79986735D01*
X168323058Y-79994001D01*
X168347975Y-80062647D01*
X168349392Y-80066775D01*
X168368897Y-80126982D01*
X168371889Y-80136219D01*
X168375685Y-80142474D01*
X168378191Y-80147948D01*
X168380910Y-80153378D01*
X168383407Y-80160257D01*
X168387420Y-80166377D01*
X168387420Y-80166378D01*
X168423426Y-80221296D01*
X168425763Y-80225000D01*
X168463645Y-80287427D01*
X168467361Y-80291635D01*
X168467362Y-80291636D01*
X168471043Y-80295804D01*
X168471016Y-80295828D01*
X168473669Y-80298820D01*
X168476372Y-80302053D01*
X168480384Y-80308172D01*
X168519053Y-80344804D01*
X168536623Y-80361448D01*
X168539065Y-80363826D01*
X169482355Y-81307116D01*
X169516381Y-81369428D01*
X169519260Y-81396211D01*
X169519260Y-83395980D01*
X169499258Y-83464101D01*
X169450462Y-83508247D01*
X169413475Y-83527093D01*
X169408346Y-83531246D01*
X169408345Y-83531247D01*
X169363700Y-83567400D01*
X169268164Y-83644764D01*
X169150493Y-83790075D01*
X169147498Y-83795952D01*
X169147494Y-83795959D01*
X169118779Y-83852317D01*
X169070031Y-83903933D01*
X169001116Y-83920999D01*
X168933915Y-83898099D01*
X168895261Y-83854268D01*
X168853836Y-83776359D01*
X168850734Y-83770525D01*
X168730545Y-83627289D01*
X168660884Y-83572863D01*
X168588406Y-83516237D01*
X168583203Y-83512172D01*
X168516225Y-83479505D01*
X168463767Y-83431665D01*
X168445460Y-83366257D01*
X168445460Y-81096910D01*
X168446893Y-81077960D01*
X168449059Y-81063725D01*
X168449059Y-81063721D01*
X168450159Y-81056491D01*
X168448540Y-81036580D01*
X168445875Y-81003822D01*
X168445460Y-80993607D01*
X168445460Y-80985547D01*
X168443517Y-80968880D01*
X168442171Y-80957333D01*
X168441738Y-80952958D01*
X168436414Y-80887501D01*
X168436413Y-80887498D01*
X168435820Y-80880203D01*
X168433564Y-80873239D01*
X168432373Y-80867280D01*
X168430989Y-80861425D01*
X168430142Y-80854159D01*
X168405225Y-80785513D01*
X168403808Y-80781385D01*
X168383567Y-80718904D01*
X168383566Y-80718902D01*
X168381311Y-80711941D01*
X168377515Y-80705686D01*
X168375009Y-80700212D01*
X168372290Y-80694782D01*
X168369793Y-80687903D01*
X168356174Y-80667130D01*
X168329774Y-80626864D01*
X168327427Y-80623145D01*
X168323883Y-80617304D01*
X168289555Y-80560733D01*
X168282157Y-80552356D01*
X168282184Y-80552332D01*
X168279531Y-80549340D01*
X168276828Y-80546107D01*
X168272816Y-80539988D01*
X168216577Y-80486712D01*
X168214135Y-80484334D01*
X167270845Y-79541044D01*
X167236819Y-79478732D01*
X167233940Y-79451949D01*
X167233940Y-71881000D01*
X167253942Y-71812879D01*
X167307598Y-71766386D01*
X167359940Y-71755000D01*
X167469485Y-71755000D01*
X167484724Y-71750525D01*
X167485929Y-71749135D01*
X167487600Y-71741452D01*
X167487600Y-70376115D01*
X167483125Y-70360876D01*
X167481735Y-70359671D01*
X167474052Y-70358000D01*
X167359940Y-70358000D01*
X167291819Y-70337998D01*
X167245326Y-70284342D01*
X167233940Y-70232000D01*
X167233940Y-69976000D01*
X167253942Y-69907879D01*
X167307598Y-69861386D01*
X167359940Y-69850000D01*
X167869600Y-69850000D01*
X167937721Y-69870002D01*
G37*
%TD.AperFunction*%
%TA.AperFunction,Conductor*%
G36*
X166549285Y-66165101D02*
G01*
X166587939Y-66208932D01*
X166618944Y-66267244D01*
X166632466Y-66292675D01*
X166752655Y-66435911D01*
X166757858Y-66439976D01*
X166757859Y-66439977D01*
X166832584Y-66498359D01*
X166875579Y-66531950D01*
X166880034Y-66535431D01*
X166921399Y-66593132D01*
X166928460Y-66634720D01*
X166928460Y-67099869D01*
X166908458Y-67167990D01*
X166891555Y-67188964D01*
X165986529Y-68093990D01*
X165972117Y-68106376D01*
X165960522Y-68114909D01*
X165960517Y-68114914D01*
X165954622Y-68119252D01*
X165949883Y-68124830D01*
X165949880Y-68124833D01*
X165920405Y-68159528D01*
X165913475Y-68167044D01*
X165907780Y-68172739D01*
X165905500Y-68175621D01*
X165890159Y-68195011D01*
X165887368Y-68198415D01*
X165844849Y-68248463D01*
X165840107Y-68254045D01*
X165836779Y-68260561D01*
X165833412Y-68265610D01*
X165830245Y-68270739D01*
X165825706Y-68276476D01*
X165794785Y-68342635D01*
X165792882Y-68346530D01*
X165791077Y-68350063D01*
X165773145Y-68385180D01*
X165724351Y-68436752D01*
X165651052Y-68453489D01*
X165647303Y-68453194D01*
X165642354Y-68453000D01*
X165473715Y-68453000D01*
X165458476Y-68457475D01*
X165457271Y-68458865D01*
X165455600Y-68466548D01*
X165455600Y-69831885D01*
X165460075Y-69847124D01*
X165461465Y-69848329D01*
X165469148Y-69850000D01*
X165590940Y-69850000D01*
X165659061Y-69870002D01*
X165705554Y-69923658D01*
X165716940Y-69976000D01*
X165716940Y-70232000D01*
X165696938Y-70300121D01*
X165643282Y-70346614D01*
X165590940Y-70358000D01*
X165473715Y-70358000D01*
X165458476Y-70362475D01*
X165457271Y-70363865D01*
X165455600Y-70371548D01*
X165455600Y-71736885D01*
X165460075Y-71752124D01*
X165461465Y-71753329D01*
X165469148Y-71755000D01*
X165590940Y-71755000D01*
X165659061Y-71775002D01*
X165705554Y-71828658D01*
X165716940Y-71881000D01*
X165716940Y-79751250D01*
X165715507Y-79770200D01*
X165713583Y-79782850D01*
X165712241Y-79791669D01*
X165712834Y-79798961D01*
X165712834Y-79798964D01*
X165716525Y-79844338D01*
X165716940Y-79854553D01*
X165716940Y-79862613D01*
X165718011Y-79871800D01*
X165720229Y-79890827D01*
X165720662Y-79895202D01*
X165725978Y-79960550D01*
X165726580Y-79967957D01*
X165728836Y-79974921D01*
X165730027Y-79980880D01*
X165731411Y-79986735D01*
X165732258Y-79994001D01*
X165757175Y-80062647D01*
X165758592Y-80066775D01*
X165778097Y-80126982D01*
X165781089Y-80136219D01*
X165784885Y-80142474D01*
X165787391Y-80147948D01*
X165790110Y-80153378D01*
X165792607Y-80160257D01*
X165796620Y-80166377D01*
X165796620Y-80166378D01*
X165832626Y-80221296D01*
X165834963Y-80225000D01*
X165872845Y-80287427D01*
X165876561Y-80291635D01*
X165876562Y-80291636D01*
X165880243Y-80295804D01*
X165880216Y-80295828D01*
X165882869Y-80298820D01*
X165885572Y-80302053D01*
X165889584Y-80308172D01*
X165928253Y-80344804D01*
X165945823Y-80361448D01*
X165948265Y-80363826D01*
X166891555Y-81307116D01*
X166925581Y-81369428D01*
X166928460Y-81396211D01*
X166928460Y-83423568D01*
X166908458Y-83491689D01*
X166861610Y-83534821D01*
X166853048Y-83539373D01*
X166853043Y-83539376D01*
X166847217Y-83542474D01*
X166703982Y-83662663D01*
X166588865Y-83810006D01*
X166579335Y-83829545D01*
X166531498Y-83882002D01*
X166462891Y-83900269D01*
X166395300Y-83878546D01*
X166353821Y-83831513D01*
X166335704Y-83795956D01*
X166335702Y-83795952D01*
X166332707Y-83790075D01*
X166215036Y-83644764D01*
X166119500Y-83567400D01*
X166074855Y-83531247D01*
X166074854Y-83531246D01*
X166069725Y-83527093D01*
X165903124Y-83442206D01*
X165896750Y-83440498D01*
X165728092Y-83395306D01*
X165728088Y-83395305D01*
X165722515Y-83393812D01*
X165700344Y-83392067D01*
X165647314Y-83387893D01*
X165647306Y-83387893D01*
X165644858Y-83387700D01*
X164758342Y-83387700D01*
X164755894Y-83387893D01*
X164755886Y-83387893D01*
X164702856Y-83392067D01*
X164680685Y-83393812D01*
X164675112Y-83395305D01*
X164675108Y-83395306D01*
X164506450Y-83440498D01*
X164500076Y-83442206D01*
X164333475Y-83527093D01*
X164328346Y-83531246D01*
X164328345Y-83531247D01*
X164314481Y-83542474D01*
X164286861Y-83564841D01*
X164285795Y-83565704D01*
X164220268Y-83593030D01*
X164150369Y-83580591D01*
X164098292Y-83532336D01*
X164080500Y-83467784D01*
X164080500Y-71674773D01*
X164100502Y-71606652D01*
X164154158Y-71560159D01*
X164224432Y-71550055D01*
X164285794Y-71576852D01*
X164328618Y-71611530D01*
X164339632Y-71618682D01*
X164494377Y-71697529D01*
X164506630Y-71702233D01*
X164675187Y-71747398D01*
X164686519Y-71749345D01*
X164755919Y-71754807D01*
X164760845Y-71755000D01*
X164929485Y-71755000D01*
X164944724Y-71750525D01*
X164945929Y-71749135D01*
X164947600Y-71741452D01*
X164947600Y-68471115D01*
X164943125Y-68455876D01*
X164941735Y-68454671D01*
X164934052Y-68453000D01*
X164760846Y-68453000D01*
X164755919Y-68453193D01*
X164686519Y-68458655D01*
X164675187Y-68460602D01*
X164506630Y-68505767D01*
X164494377Y-68510471D01*
X164365303Y-68576237D01*
X164295526Y-68589341D01*
X164229741Y-68562641D01*
X164188835Y-68504613D01*
X164182100Y-68463970D01*
X164182100Y-67168371D01*
X164202102Y-67100250D01*
X164219005Y-67079276D01*
X164591597Y-66706684D01*
X164653909Y-66672658D01*
X164690578Y-66670167D01*
X164755885Y-66675307D01*
X164755895Y-66675307D01*
X164758342Y-66675500D01*
X165644858Y-66675500D01*
X165647306Y-66675307D01*
X165647314Y-66675307D01*
X165716759Y-66669841D01*
X165722515Y-66669388D01*
X165728088Y-66667895D01*
X165728092Y-66667894D01*
X165896750Y-66622702D01*
X165896751Y-66622702D01*
X165903124Y-66620994D01*
X166069725Y-66536107D01*
X166074859Y-66531950D01*
X166209910Y-66422587D01*
X166215036Y-66418436D01*
X166252070Y-66372703D01*
X166328553Y-66278255D01*
X166328554Y-66278254D01*
X166332707Y-66273125D01*
X166335704Y-66267244D01*
X166335706Y-66267241D01*
X166364421Y-66210883D01*
X166413169Y-66159267D01*
X166482084Y-66142201D01*
X166549285Y-66165101D01*
G37*
%TD.AperFunction*%
%TD*%
M02*
