%TF.GenerationSoftware,KiCad,Pcbnew,6.0.6-3a73a75311~116~ubuntu22.04.1*%
%TF.CreationDate,2022-07-15T23:37:08+01:00*%
%TF.ProjectId,Backplane,4261636b-706c-4616-9e65-2e6b69636164,1*%
%TF.SameCoordinates,Original*%
%TF.FileFunction,Soldermask,Bot*%
%TF.FilePolarity,Negative*%
%FSLAX46Y46*%
G04 Gerber Fmt 4.6, Leading zero omitted, Abs format (unit mm)*
G04 Created by KiCad (PCBNEW 6.0.6-3a73a75311~116~ubuntu22.04.1) date 2022-07-15 23:37:08*
%MOMM*%
%LPD*%
G01*
G04 APERTURE LIST*
G04 Aperture macros list*
%AMRoundRect*
0 Rectangle with rounded corners*
0 $1 Rounding radius*
0 $2 $3 $4 $5 $6 $7 $8 $9 X,Y pos of 4 corners*
0 Add a 4 corners polygon primitive as box body*
4,1,4,$2,$3,$4,$5,$6,$7,$8,$9,$2,$3,0*
0 Add four circle primitives for the rounded corners*
1,1,$1+$1,$2,$3*
1,1,$1+$1,$4,$5*
1,1,$1+$1,$6,$7*
1,1,$1+$1,$8,$9*
0 Add four rect primitives between the rounded corners*
20,1,$1+$1,$2,$3,$4,$5,0*
20,1,$1+$1,$4,$5,$6,$7,0*
20,1,$1+$1,$6,$7,$8,$9,0*
20,1,$1+$1,$8,$9,$2,$3,0*%
G04 Aperture macros list end*
%ADD10RoundRect,0.381000X0.381000X-0.762000X0.381000X0.762000X-0.381000X0.762000X-0.381000X-0.762000X0*%
%ADD11RoundRect,0.381000X0.394241X-0.755235X0.367643X0.768533X-0.394241X0.755235X-0.367643X-0.768533X0*%
%ADD12RoundRect,0.381000X-0.381000X0.762000X-0.381000X-0.762000X0.381000X-0.762000X0.381000X0.762000X0*%
%ADD13R,1.780000X7.620000*%
%ADD14C,5.000000*%
%ADD15R,1.700000X1.700000*%
%ADD16O,1.700000X1.700000*%
%ADD17R,3.000000X3.000000*%
%ADD18C,3.000000*%
G04 APERTURE END LIST*
D10*
%TO.C,U5*%
X220980000Y-86360000D03*
X218440000Y-86360000D03*
X215900000Y-86360000D03*
X213360000Y-86360000D03*
X210820000Y-86360000D03*
X208280000Y-86360000D03*
X205740000Y-86360000D03*
X203200000Y-86360000D03*
X200660000Y-86360000D03*
X198120000Y-86360000D03*
X195580000Y-86360000D03*
X193040000Y-86360000D03*
X190500000Y-86360000D03*
X187960000Y-86360000D03*
X185420000Y-86360000D03*
X182880000Y-86360000D03*
X180340000Y-86360000D03*
X177800000Y-86360000D03*
X175260000Y-86360000D03*
X172720000Y-86360000D03*
X170180000Y-86360000D03*
D11*
X167640000Y-86360000D03*
D10*
X165100000Y-86360000D03*
X160020000Y-86360000D03*
X157480000Y-86360000D03*
X154940000Y-86360000D03*
X152400000Y-86360000D03*
X220980000Y-81280000D03*
X218440000Y-81280000D03*
X215900000Y-81280000D03*
X213360000Y-81280000D03*
X210820000Y-81280000D03*
X208280000Y-81280000D03*
X205740000Y-81280000D03*
X203200000Y-81280000D03*
X200660000Y-81280000D03*
X198120000Y-81280000D03*
X195580000Y-81280000D03*
X193040000Y-81280000D03*
X190500000Y-81280000D03*
X187960000Y-81280000D03*
X185420000Y-81280000D03*
X182880000Y-81280000D03*
X180340000Y-81280000D03*
X177800000Y-81280000D03*
X175260000Y-81280000D03*
X172720000Y-81280000D03*
X170180000Y-81280000D03*
X167640000Y-81280000D03*
X165100000Y-81280000D03*
X160020000Y-81280000D03*
X157480000Y-81280000D03*
D12*
X154940000Y-81280000D03*
D10*
X152400000Y-81280000D03*
%TD*%
%TO.C,U4*%
X220980000Y-106680000D03*
X218440000Y-106680000D03*
X215900000Y-106680000D03*
X213360000Y-106680000D03*
X210820000Y-106680000D03*
X208280000Y-106680000D03*
X205740000Y-106680000D03*
X203200000Y-106680000D03*
X200660000Y-106680000D03*
X198120000Y-106680000D03*
X195580000Y-106680000D03*
X193040000Y-106680000D03*
X190500000Y-106680000D03*
X187960000Y-106680000D03*
X185420000Y-106680000D03*
X182880000Y-106680000D03*
X180340000Y-106680000D03*
X177800000Y-106680000D03*
X175260000Y-106680000D03*
X172720000Y-106680000D03*
X170180000Y-106680000D03*
D11*
X167640000Y-106680000D03*
D10*
X165100000Y-106680000D03*
X160020000Y-106680000D03*
X157480000Y-106680000D03*
X154940000Y-106680000D03*
X152400000Y-106680000D03*
X220980000Y-101600000D03*
X218440000Y-101600000D03*
X215900000Y-101600000D03*
X213360000Y-101600000D03*
X210820000Y-101600000D03*
X208280000Y-101600000D03*
X205740000Y-101600000D03*
X203200000Y-101600000D03*
X200660000Y-101600000D03*
X198120000Y-101600000D03*
X195580000Y-101600000D03*
X193040000Y-101600000D03*
X190500000Y-101600000D03*
X187960000Y-101600000D03*
X185420000Y-101600000D03*
X182880000Y-101600000D03*
X180340000Y-101600000D03*
X177800000Y-101600000D03*
X175260000Y-101600000D03*
X172720000Y-101600000D03*
X170180000Y-101600000D03*
X167640000Y-101600000D03*
X165100000Y-101600000D03*
X160020000Y-101600000D03*
X157480000Y-101600000D03*
D12*
X154940000Y-101600000D03*
D10*
X152400000Y-101600000D03*
%TD*%
%TO.C,U3*%
X152400000Y-63500000D03*
D12*
X154940000Y-63500000D03*
D10*
X157480000Y-63500000D03*
X160020000Y-63500000D03*
X165100000Y-63500000D03*
X167640000Y-63500000D03*
X170180000Y-63500000D03*
X172720000Y-63500000D03*
X175260000Y-63500000D03*
X177800000Y-63500000D03*
X180340000Y-63500000D03*
X182880000Y-63500000D03*
X185420000Y-63500000D03*
X187960000Y-63500000D03*
X190500000Y-63500000D03*
X193040000Y-63500000D03*
X195580000Y-63500000D03*
X198120000Y-63500000D03*
X200660000Y-63500000D03*
X203200000Y-63500000D03*
X205740000Y-63500000D03*
X208280000Y-63500000D03*
X210820000Y-63500000D03*
X213360000Y-63500000D03*
X215900000Y-63500000D03*
X218440000Y-63500000D03*
X220980000Y-63500000D03*
X152400000Y-68580000D03*
X154940000Y-68580000D03*
X157480000Y-68580000D03*
X160020000Y-68580000D03*
X165100000Y-68580000D03*
D11*
X167640000Y-68580000D03*
D10*
X170180000Y-68580000D03*
X172720000Y-68580000D03*
X175260000Y-68580000D03*
X177800000Y-68580000D03*
X180340000Y-68580000D03*
X182880000Y-68580000D03*
X185420000Y-68580000D03*
X187960000Y-68580000D03*
X190500000Y-68580000D03*
X193040000Y-68580000D03*
X195580000Y-68580000D03*
X198120000Y-68580000D03*
X200660000Y-68580000D03*
X203200000Y-68580000D03*
X205740000Y-68580000D03*
X208280000Y-68580000D03*
X210820000Y-68580000D03*
X213360000Y-68580000D03*
X215900000Y-68580000D03*
X218440000Y-68580000D03*
X220980000Y-68580000D03*
%TD*%
%TO.C,U2*%
X220980000Y-127000000D03*
X218440000Y-127000000D03*
X215900000Y-127000000D03*
X213360000Y-127000000D03*
X210820000Y-127000000D03*
X208280000Y-127000000D03*
X205740000Y-127000000D03*
X203200000Y-127000000D03*
X200660000Y-127000000D03*
X198120000Y-127000000D03*
X195580000Y-127000000D03*
X193040000Y-127000000D03*
X190500000Y-127000000D03*
X187960000Y-127000000D03*
X185420000Y-127000000D03*
X182880000Y-127000000D03*
X180340000Y-127000000D03*
X177800000Y-127000000D03*
X175260000Y-127000000D03*
X172720000Y-127000000D03*
X170180000Y-127000000D03*
D11*
X167640000Y-127000000D03*
D10*
X165100000Y-127000000D03*
X160020000Y-127000000D03*
X157480000Y-127000000D03*
X154940000Y-127000000D03*
X152400000Y-127000000D03*
X220980000Y-121920000D03*
X218440000Y-121920000D03*
X215900000Y-121920000D03*
X213360000Y-121920000D03*
X210820000Y-121920000D03*
X208280000Y-121920000D03*
X205740000Y-121920000D03*
X203200000Y-121920000D03*
X200660000Y-121920000D03*
X198120000Y-121920000D03*
X195580000Y-121920000D03*
X193040000Y-121920000D03*
X190500000Y-121920000D03*
X187960000Y-121920000D03*
X185420000Y-121920000D03*
X182880000Y-121920000D03*
X180340000Y-121920000D03*
X177800000Y-121920000D03*
X175260000Y-121920000D03*
X172720000Y-121920000D03*
X170180000Y-121920000D03*
X167640000Y-121920000D03*
X165100000Y-121920000D03*
X160020000Y-121920000D03*
X157480000Y-121920000D03*
D12*
X154940000Y-121920000D03*
D10*
X152400000Y-121920000D03*
%TD*%
D13*
%TO.C,U1*%
X152654000Y-146431000D03*
X155194000Y-146431000D03*
X157734000Y-146431000D03*
X160274000Y-146431000D03*
X165354000Y-146431000D03*
X167894000Y-146431000D03*
X170434000Y-146431000D03*
X172974000Y-146431000D03*
X175514000Y-146431000D03*
X178054000Y-146431000D03*
X180594000Y-146431000D03*
X183134000Y-146431000D03*
X185674000Y-146431000D03*
X188214000Y-146431000D03*
X190754000Y-146431000D03*
X193294000Y-146431000D03*
X195834000Y-146431000D03*
X198374000Y-146431000D03*
X200914000Y-146431000D03*
X203454000Y-146431000D03*
X205994000Y-146431000D03*
X208534000Y-146431000D03*
X211074000Y-146431000D03*
X213614000Y-146431000D03*
X216154000Y-146431000D03*
X218694000Y-146431000D03*
X221234000Y-146431000D03*
%TD*%
D14*
%TO.C,H2*%
X227965000Y-145542000D03*
%TD*%
%TO.C,H4*%
X229362000Y-62534800D03*
%TD*%
%TO.C,H1*%
X143662400Y-62230000D03*
%TD*%
D15*
%TO.C,J2*%
X145034000Y-131064000D03*
D16*
X145034000Y-133604000D03*
X145034000Y-136144000D03*
%TD*%
D17*
%TO.C,J1*%
X145542000Y-118872000D03*
D18*
X145542000Y-123952000D03*
%TD*%
D14*
%TO.C,H3*%
X144907000Y-145415000D03*
%TD*%
M02*
