M48
; DRILL file {KiCad 6.0.2+dfsg-1} date Thu 26 May 2022 14:47:07 BST
; FORMAT={-:-/ absolute / inch / decimal}
; #@! TF.CreationDate,2022-05-26T14:47:07+01:00
; #@! TF.GenerationSoftware,Kicad,Pcbnew,6.0.2+dfsg-1
; #@! TF.FileFunction,Plated,1,2,PTH
FMAT,2
INCH
; #@! TA.AperFunction,Plated,PTH,ViaDrill
T1C0.0157
; #@! TA.AperFunction,Plated,PTH,ComponentDrill
T2C0.0394
; #@! TA.AperFunction,Plated,PTH,ComponentDrill
T3C0.0598
; #@! TA.AperFunction,Plated,PTH,ComponentDrill
T4C0.0984
%
G90
G05
T1
X6.005Y-4.83
X6.01Y-4.62
X6.01Y-5.22
X6.01Y-5.415
X6.105Y-4.625
X6.105Y-4.825
X6.105Y-5.215
X6.105Y-5.415
X6.156Y-5.316
X6.162Y-5.492
X6.2047Y-4.7992
X6.205Y-4.62
X6.264Y-5.476
X6.274Y-5.252
X6.305Y-4.62
X6.305Y-4.825
T2
X5.71Y-5.16
X5.71Y-5.26
X5.71Y-5.36
X6.004Y-2.56
X6.004Y-2.76
X6.004Y-3.348
X6.004Y-3.548
X6.004Y-4.136
X6.004Y-4.336
X6.004Y-4.9221
X6.004Y-5.1221
X6.104Y-2.56
X6.104Y-2.76
X6.104Y-3.348
X6.104Y-3.548
X6.104Y-4.136
X6.104Y-4.336
X6.104Y-4.9221
X6.104Y-5.1221
X6.204Y-2.56
X6.204Y-2.76
X6.204Y-3.348
X6.204Y-3.548
X6.204Y-4.136
X6.204Y-4.336
X6.204Y-4.9221
X6.204Y-5.1221
X6.304Y-2.56
X6.304Y-2.76
X6.304Y-3.348
X6.304Y-3.548
X6.304Y-4.136
X6.304Y-4.336
X6.304Y-4.9221
X6.304Y-5.1221
X6.504Y-2.56
X6.504Y-2.76
X6.504Y-3.348
X6.504Y-3.548
X6.504Y-4.136
X6.504Y-4.336
X6.504Y-4.9221
X6.504Y-5.1221
X6.604Y-2.56
X6.604Y-2.76
X6.604Y-3.348
X6.604Y-3.548
X6.604Y-4.136
X6.604Y-4.336
X6.604Y-4.9221
X6.604Y-5.1221
X6.704Y-2.56
X6.704Y-2.76
X6.704Y-3.348
X6.704Y-3.548
X6.704Y-4.136
X6.704Y-4.336
X6.704Y-4.9221
X6.704Y-5.1221
X6.804Y-2.56
X6.804Y-2.76
X6.804Y-3.348
X6.804Y-3.548
X6.804Y-4.136
X6.804Y-4.336
X6.804Y-4.9221
X6.804Y-5.1221
X6.904Y-2.56
X6.904Y-2.76
X6.904Y-3.348
X6.904Y-3.548
X6.904Y-4.136
X6.904Y-4.336
X6.904Y-4.9221
X6.904Y-5.1221
X7.004Y-2.56
X7.004Y-2.76
X7.004Y-3.348
X7.004Y-3.548
X7.004Y-4.136
X7.004Y-4.336
X7.004Y-4.9221
X7.004Y-5.1221
X7.104Y-2.56
X7.104Y-2.76
X7.104Y-3.348
X7.104Y-3.548
X7.104Y-4.136
X7.104Y-4.336
X7.104Y-4.9221
X7.104Y-5.1221
X7.204Y-2.56
X7.204Y-2.76
X7.204Y-3.348
X7.204Y-3.548
X7.204Y-4.136
X7.204Y-4.336
X7.204Y-4.9221
X7.204Y-5.1221
X7.304Y-2.56
X7.304Y-2.76
X7.304Y-3.348
X7.304Y-3.548
X7.304Y-4.136
X7.304Y-4.336
X7.304Y-4.9221
X7.304Y-5.1221
X7.404Y-2.56
X7.404Y-2.76
X7.404Y-3.348
X7.404Y-3.548
X7.404Y-4.136
X7.404Y-4.336
X7.404Y-4.9221
X7.404Y-5.1221
X7.504Y-2.56
X7.504Y-2.76
X7.504Y-3.348
X7.504Y-3.548
X7.504Y-4.136
X7.504Y-4.336
X7.504Y-4.9221
X7.504Y-5.1221
X7.604Y-2.56
X7.604Y-2.76
X7.604Y-3.348
X7.604Y-3.548
X7.604Y-4.136
X7.604Y-4.336
X7.604Y-4.9221
X7.604Y-5.1221
X7.704Y-2.56
X7.704Y-2.76
X7.704Y-3.348
X7.704Y-3.548
X7.704Y-4.136
X7.704Y-4.336
X7.704Y-4.9221
X7.704Y-5.1221
X7.804Y-2.56
X7.804Y-2.76
X7.804Y-3.348
X7.804Y-3.548
X7.804Y-4.136
X7.804Y-4.336
X7.804Y-4.9221
X7.804Y-5.1221
X7.904Y-2.56
X7.904Y-2.76
X7.904Y-3.348
X7.904Y-3.548
X7.904Y-4.136
X7.904Y-4.336
X7.904Y-4.9221
X7.904Y-5.1221
X8.004Y-2.56
X8.004Y-2.76
X8.004Y-3.348
X8.004Y-3.548
X8.004Y-4.136
X8.004Y-4.336
X8.004Y-4.9221
X8.004Y-5.1221
X8.104Y-2.56
X8.104Y-2.76
X8.104Y-3.348
X8.104Y-3.548
X8.104Y-4.136
X8.104Y-4.336
X8.104Y-4.9221
X8.104Y-5.1221
X8.204Y-2.56
X8.204Y-2.76
X8.204Y-3.348
X8.204Y-3.548
X8.204Y-4.136
X8.204Y-4.336
X8.204Y-4.9221
X8.204Y-5.1221
X8.304Y-2.56
X8.304Y-2.76
X8.304Y-3.348
X8.304Y-3.548
X8.304Y-4.136
X8.304Y-4.336
X8.304Y-4.9221
X8.304Y-5.1221
X8.404Y-2.56
X8.404Y-2.76
X8.404Y-3.348
X8.404Y-3.548
X8.404Y-4.136
X8.404Y-4.336
X8.404Y-4.9221
X8.404Y-5.1221
X8.504Y-2.56
X8.504Y-2.76
X8.504Y-3.348
X8.504Y-3.548
X8.504Y-4.136
X8.504Y-4.336
X8.504Y-4.9221
X8.504Y-5.1221
X8.604Y-2.56
X8.604Y-2.76
X8.604Y-3.348
X8.604Y-3.548
X8.604Y-4.136
X8.604Y-4.336
X8.604Y-4.9221
X8.604Y-5.1221
X8.704Y-2.56
X8.704Y-2.76
X8.704Y-3.348
X8.704Y-3.548
X8.704Y-4.136
X8.704Y-4.336
X8.704Y-4.9221
X8.704Y-5.1221
T3
X5.73Y-4.68
X5.73Y-4.88
T4
X5.656Y-2.45
X5.705Y-5.725
X8.975Y-5.73
X9.03Y-2.462
T0
M30
