%TF.GenerationSoftware,KiCad,Pcbnew,6.0.2+dfsg-1*%
%TF.CreationDate,2022-05-26T14:47:14+01:00*%
%TF.ProjectId,Backplane,4261636b-706c-4616-9e65-2e6b69636164,1*%
%TF.SameCoordinates,Original*%
%TF.FileFunction,Legend,Top*%
%TF.FilePolarity,Positive*%
%FSLAX46Y46*%
G04 Gerber Fmt 4.6, Leading zero omitted, Abs format (unit mm)*
G04 Created by KiCad (PCBNEW 6.0.2+dfsg-1) date 2022-05-26 14:47:14*
%MOMM*%
%LPD*%
G01*
G04 APERTURE LIST*
%ADD10C,0.150000*%
%ADD11C,0.300000*%
%ADD12C,0.120000*%
G04 APERTURE END LIST*
D10*
X142819380Y-137596095D02*
X141819380Y-137596095D01*
X142819380Y-137119904D02*
X141819380Y-137119904D01*
X142819380Y-136548476D01*
X141819380Y-136548476D01*
X141819380Y-136215142D02*
X141819380Y-135643714D01*
X142819380Y-135929428D02*
X141819380Y-135929428D01*
X142295571Y-132262761D02*
X142295571Y-131929428D01*
X142819380Y-131786571D02*
X142819380Y-132262761D01*
X141819380Y-132262761D01*
X141819380Y-131786571D01*
X141819380Y-131453238D02*
X142819380Y-130786571D01*
X141819380Y-130786571D02*
X142819380Y-131453238D01*
X141819380Y-130548476D02*
X141819380Y-129977047D01*
X142819380Y-130262761D02*
X141819380Y-130262761D01*
D11*
X144179642Y-106214000D02*
X144251071Y-105999714D01*
X144251071Y-105642571D01*
X144179642Y-105499714D01*
X144108214Y-105428285D01*
X143965357Y-105356857D01*
X143822500Y-105356857D01*
X143679642Y-105428285D01*
X143608214Y-105499714D01*
X143536785Y-105642571D01*
X143465357Y-105928285D01*
X143393928Y-106071142D01*
X143322500Y-106142571D01*
X143179642Y-106214000D01*
X143036785Y-106214000D01*
X142893928Y-106142571D01*
X142822500Y-106071142D01*
X142751071Y-105928285D01*
X142751071Y-105571142D01*
X142822500Y-105356857D01*
X143251071Y-104714000D02*
X144751071Y-104714000D01*
X143322500Y-104714000D02*
X143251071Y-104571142D01*
X143251071Y-104285428D01*
X143322500Y-104142571D01*
X143393928Y-104071142D01*
X143536785Y-103999714D01*
X143965357Y-103999714D01*
X144108214Y-104071142D01*
X144179642Y-104142571D01*
X144251071Y-104285428D01*
X144251071Y-104571142D01*
X144179642Y-104714000D01*
X144179642Y-102785428D02*
X144251071Y-102928285D01*
X144251071Y-103214000D01*
X144179642Y-103356857D01*
X144036785Y-103428285D01*
X143465357Y-103428285D01*
X143322500Y-103356857D01*
X143251071Y-103214000D01*
X143251071Y-102928285D01*
X143322500Y-102785428D01*
X143465357Y-102714000D01*
X143608214Y-102714000D01*
X143751071Y-103428285D01*
X144179642Y-101428285D02*
X144251071Y-101571142D01*
X144251071Y-101856857D01*
X144179642Y-101999714D01*
X144108214Y-102071142D01*
X143965357Y-102142571D01*
X143536785Y-102142571D01*
X143393928Y-102071142D01*
X143322500Y-101999714D01*
X143251071Y-101856857D01*
X143251071Y-101571142D01*
X143322500Y-101428285D01*
X143251071Y-100999714D02*
X143251071Y-100428285D01*
X142751071Y-100785428D02*
X144036785Y-100785428D01*
X144179642Y-100714000D01*
X144251071Y-100571142D01*
X144251071Y-100428285D01*
X144251071Y-99928285D02*
X143251071Y-99928285D01*
X143536785Y-99928285D02*
X143393928Y-99856857D01*
X143322500Y-99785428D01*
X143251071Y-99642571D01*
X143251071Y-99499714D01*
X143251071Y-98356857D02*
X144251071Y-98356857D01*
X143251071Y-98999714D02*
X144036785Y-98999714D01*
X144179642Y-98928285D01*
X144251071Y-98785428D01*
X144251071Y-98571142D01*
X144179642Y-98428285D01*
X144108214Y-98356857D01*
X144251071Y-97642571D02*
X143251071Y-97642571D01*
X143393928Y-97642571D02*
X143322500Y-97571142D01*
X143251071Y-97428285D01*
X143251071Y-97214000D01*
X143322500Y-97071142D01*
X143465357Y-96999714D01*
X144251071Y-96999714D01*
X143465357Y-96999714D02*
X143322500Y-96928285D01*
X143251071Y-96785428D01*
X143251071Y-96571142D01*
X143322500Y-96428285D01*
X143465357Y-96356857D01*
X144251071Y-96356857D01*
X143465357Y-93999714D02*
X143536785Y-93785428D01*
X143608214Y-93714000D01*
X143751071Y-93642571D01*
X143965357Y-93642571D01*
X144108214Y-93714000D01*
X144179642Y-93785428D01*
X144251071Y-93928285D01*
X144251071Y-94499714D01*
X142751071Y-94499714D01*
X142751071Y-93999714D01*
X142822500Y-93856857D01*
X142893928Y-93785428D01*
X143036785Y-93714000D01*
X143179642Y-93714000D01*
X143322500Y-93785428D01*
X143393928Y-93856857D01*
X143465357Y-93999714D01*
X143465357Y-94499714D01*
X143251071Y-92356857D02*
X144251071Y-92356857D01*
X143251071Y-92999714D02*
X144036785Y-92999714D01*
X144179642Y-92928285D01*
X144251071Y-92785428D01*
X144251071Y-92571142D01*
X144179642Y-92428285D01*
X144108214Y-92356857D01*
X144179642Y-91714000D02*
X144251071Y-91571142D01*
X144251071Y-91285428D01*
X144179642Y-91142571D01*
X144036785Y-91071142D01*
X143965357Y-91071142D01*
X143822500Y-91142571D01*
X143751071Y-91285428D01*
X143751071Y-91499714D01*
X143679642Y-91642571D01*
X143536785Y-91714000D01*
X143465357Y-91714000D01*
X143322500Y-91642571D01*
X143251071Y-91499714D01*
X143251071Y-91285428D01*
X143322500Y-91142571D01*
X143465357Y-89285428D02*
X143465357Y-88785428D01*
X144251071Y-88571142D02*
X144251071Y-89285428D01*
X142751071Y-89285428D01*
X142751071Y-88571142D01*
X144251071Y-88071142D02*
X143251071Y-87285428D01*
X143251071Y-88071142D02*
X144251071Y-87285428D01*
X143251071Y-86714000D02*
X144751071Y-86714000D01*
X143322500Y-86714000D02*
X143251071Y-86571142D01*
X143251071Y-86285428D01*
X143322500Y-86142571D01*
X143393928Y-86071142D01*
X143536785Y-85999714D01*
X143965357Y-85999714D01*
X144108214Y-86071142D01*
X144179642Y-86142571D01*
X144251071Y-86285428D01*
X144251071Y-86571142D01*
X144179642Y-86714000D01*
X144251071Y-84714000D02*
X143465357Y-84714000D01*
X143322500Y-84785428D01*
X143251071Y-84928285D01*
X143251071Y-85214000D01*
X143322500Y-85356857D01*
X144179642Y-84714000D02*
X144251071Y-84856857D01*
X144251071Y-85214000D01*
X144179642Y-85356857D01*
X144036785Y-85428285D01*
X143893928Y-85428285D01*
X143751071Y-85356857D01*
X143679642Y-85214000D01*
X143679642Y-84856857D01*
X143608214Y-84714000D01*
X143251071Y-83999714D02*
X144251071Y-83999714D01*
X143393928Y-83999714D02*
X143322500Y-83928285D01*
X143251071Y-83785428D01*
X143251071Y-83571142D01*
X143322500Y-83428285D01*
X143465357Y-83356857D01*
X144251071Y-83356857D01*
X144251071Y-81999714D02*
X142751071Y-81999714D01*
X144179642Y-81999714D02*
X144251071Y-82142571D01*
X144251071Y-82428285D01*
X144179642Y-82571142D01*
X144108214Y-82642571D01*
X143965357Y-82714000D01*
X143536785Y-82714000D01*
X143393928Y-82642571D01*
X143322500Y-82571142D01*
X143251071Y-82428285D01*
X143251071Y-82142571D01*
X143322500Y-81999714D01*
X144179642Y-80714000D02*
X144251071Y-80856857D01*
X144251071Y-81142571D01*
X144179642Y-81285428D01*
X144036785Y-81356857D01*
X143465357Y-81356857D01*
X143322500Y-81285428D01*
X143251071Y-81142571D01*
X143251071Y-80856857D01*
X143322500Y-80714000D01*
X143465357Y-80642571D01*
X143608214Y-80642571D01*
X143751071Y-81356857D01*
X144251071Y-79999714D02*
X143251071Y-79999714D01*
X143536785Y-79999714D02*
X143393928Y-79928285D01*
X143322500Y-79856857D01*
X143251071Y-79714000D01*
X143251071Y-79571142D01*
X145237500Y-109785428D02*
X145166071Y-109928285D01*
X145166071Y-110142571D01*
X145237500Y-110356857D01*
X145380357Y-110499714D01*
X145523214Y-110571142D01*
X145808928Y-110642571D01*
X146023214Y-110642571D01*
X146308928Y-110571142D01*
X146451785Y-110499714D01*
X146594642Y-110356857D01*
X146666071Y-110142571D01*
X146666071Y-109999714D01*
X146594642Y-109785428D01*
X146523214Y-109714000D01*
X146023214Y-109714000D01*
X146023214Y-109999714D01*
X146666071Y-109071142D02*
X145666071Y-109071142D01*
X145951785Y-109071142D02*
X145808928Y-108999714D01*
X145737500Y-108928285D01*
X145666071Y-108785428D01*
X145666071Y-108642571D01*
X146666071Y-107499714D02*
X145880357Y-107499714D01*
X145737500Y-107571142D01*
X145666071Y-107714000D01*
X145666071Y-107999714D01*
X145737500Y-108142571D01*
X146594642Y-107499714D02*
X146666071Y-107642571D01*
X146666071Y-107999714D01*
X146594642Y-108142571D01*
X146451785Y-108214000D01*
X146308928Y-108214000D01*
X146166071Y-108142571D01*
X146094642Y-107999714D01*
X146094642Y-107642571D01*
X146023214Y-107499714D01*
X146666071Y-106785428D02*
X145166071Y-106785428D01*
X146666071Y-106142571D02*
X145880357Y-106142571D01*
X145737500Y-106214000D01*
X145666071Y-106356857D01*
X145666071Y-106571142D01*
X145737500Y-106714000D01*
X145808928Y-106785428D01*
X146666071Y-104785428D02*
X145880357Y-104785428D01*
X145737500Y-104856857D01*
X145666071Y-104999714D01*
X145666071Y-105285428D01*
X145737500Y-105428285D01*
X146594642Y-104785428D02*
X146666071Y-104928285D01*
X146666071Y-105285428D01*
X146594642Y-105428285D01*
X146451785Y-105499714D01*
X146308928Y-105499714D01*
X146166071Y-105428285D01*
X146094642Y-105285428D01*
X146094642Y-104928285D01*
X146023214Y-104785428D01*
X146666071Y-104071142D02*
X145666071Y-104071142D01*
X145808928Y-104071142D02*
X145737500Y-103999714D01*
X145666071Y-103856857D01*
X145666071Y-103642571D01*
X145737500Y-103499714D01*
X145880357Y-103428285D01*
X146666071Y-103428285D01*
X145880357Y-103428285D02*
X145737500Y-103356857D01*
X145666071Y-103214000D01*
X145666071Y-102999714D01*
X145737500Y-102856857D01*
X145880357Y-102785428D01*
X146666071Y-102785428D01*
X145951785Y-101142571D02*
X145880357Y-101214000D01*
X145808928Y-101356857D01*
X145808928Y-101499714D01*
X145880357Y-101642571D01*
X145951785Y-101714000D01*
X146094642Y-101785428D01*
X146237500Y-101785428D01*
X146380357Y-101714000D01*
X146451785Y-101642571D01*
X146523214Y-101499714D01*
X146523214Y-101356857D01*
X146451785Y-101214000D01*
X146380357Y-101142571D01*
X145808928Y-101142571D02*
X146380357Y-101142571D01*
X146451785Y-101071142D01*
X146451785Y-100999714D01*
X146380357Y-100856857D01*
X146237500Y-100785428D01*
X145880357Y-100785428D01*
X145666071Y-100928285D01*
X145523214Y-101142571D01*
X145451785Y-101428285D01*
X145523214Y-101714000D01*
X145666071Y-101928285D01*
X145880357Y-102071142D01*
X146166071Y-102142571D01*
X146451785Y-102071142D01*
X146666071Y-101928285D01*
X146808928Y-101714000D01*
X146880357Y-101428285D01*
X146808928Y-101142571D01*
X146666071Y-100928285D01*
X146594642Y-100214000D02*
X146666071Y-100071142D01*
X146666071Y-99785428D01*
X146594642Y-99642571D01*
X146451785Y-99571142D01*
X146380357Y-99571142D01*
X146237500Y-99642571D01*
X146166071Y-99785428D01*
X146166071Y-99999714D01*
X146094642Y-100142571D01*
X145951785Y-100214000D01*
X145880357Y-100214000D01*
X145737500Y-100142571D01*
X145666071Y-99999714D01*
X145666071Y-99785428D01*
X145737500Y-99642571D01*
X146666071Y-98285428D02*
X145880357Y-98285428D01*
X145737500Y-98356857D01*
X145666071Y-98499714D01*
X145666071Y-98785428D01*
X145737500Y-98928285D01*
X146594642Y-98285428D02*
X146666071Y-98428285D01*
X146666071Y-98785428D01*
X146594642Y-98928285D01*
X146451785Y-98999714D01*
X146308928Y-98999714D01*
X146166071Y-98928285D01*
X146094642Y-98785428D01*
X146094642Y-98428285D01*
X146023214Y-98285428D01*
X146666071Y-97356857D02*
X146594642Y-97499714D01*
X146451785Y-97571142D01*
X145166071Y-97571142D01*
X146666071Y-96785428D02*
X145166071Y-96785428D01*
X146094642Y-96642571D02*
X146666071Y-96214000D01*
X145666071Y-96214000D02*
X146237500Y-96785428D01*
X146666071Y-95571142D02*
X145666071Y-95571142D01*
X145166071Y-95571142D02*
X145237500Y-95642571D01*
X145308928Y-95571142D01*
X145237500Y-95499714D01*
X145166071Y-95571142D01*
X145308928Y-95571142D01*
X145666071Y-94856857D02*
X146666071Y-94856857D01*
X145808928Y-94856857D02*
X145737500Y-94785428D01*
X145666071Y-94642571D01*
X145666071Y-94428285D01*
X145737500Y-94285428D01*
X145880357Y-94214000D01*
X146666071Y-94214000D01*
X146523214Y-93499714D02*
X146594642Y-93428285D01*
X146666071Y-93499714D01*
X146594642Y-93571142D01*
X146523214Y-93499714D01*
X146666071Y-93499714D01*
X146594642Y-92142571D02*
X146666071Y-92285428D01*
X146666071Y-92571142D01*
X146594642Y-92714000D01*
X146523214Y-92785428D01*
X146380357Y-92856857D01*
X145951785Y-92856857D01*
X145808928Y-92785428D01*
X145737500Y-92714000D01*
X145666071Y-92571142D01*
X145666071Y-92285428D01*
X145737500Y-92142571D01*
X146666071Y-91285428D02*
X146594642Y-91428285D01*
X146523214Y-91499714D01*
X146380357Y-91571142D01*
X145951785Y-91571142D01*
X145808928Y-91499714D01*
X145737500Y-91428285D01*
X145666071Y-91285428D01*
X145666071Y-91071142D01*
X145737500Y-90928285D01*
X145808928Y-90856857D01*
X145951785Y-90785428D01*
X146380357Y-90785428D01*
X146523214Y-90856857D01*
X146594642Y-90928285D01*
X146666071Y-91071142D01*
X146666071Y-91285428D01*
X146523214Y-90142571D02*
X146594642Y-90071142D01*
X146666071Y-90142571D01*
X146594642Y-90214000D01*
X146523214Y-90142571D01*
X146666071Y-90142571D01*
X145666071Y-88785428D02*
X146666071Y-88785428D01*
X145666071Y-89428285D02*
X146451785Y-89428285D01*
X146594642Y-89356857D01*
X146666071Y-89214000D01*
X146666071Y-88999714D01*
X146594642Y-88856857D01*
X146523214Y-88785428D01*
X146666071Y-88071142D02*
X145166071Y-88071142D01*
X146094642Y-87928285D02*
X146666071Y-87499714D01*
X145666071Y-87499714D02*
X146237500Y-88071142D01*
X146666071Y-85714000D02*
X145166071Y-85714000D01*
X146237500Y-85214000D01*
X145166071Y-84714000D01*
X146666071Y-84714000D01*
X146666071Y-83356857D02*
X145880357Y-83356857D01*
X145737500Y-83428285D01*
X145666071Y-83571142D01*
X145666071Y-83856857D01*
X145737500Y-83999714D01*
X146594642Y-83356857D02*
X146666071Y-83499714D01*
X146666071Y-83856857D01*
X146594642Y-83999714D01*
X146451785Y-84071142D01*
X146308928Y-84071142D01*
X146166071Y-83999714D01*
X146094642Y-83856857D01*
X146094642Y-83499714D01*
X146023214Y-83356857D01*
X145666071Y-82785428D02*
X146666071Y-82428285D01*
X145666071Y-82071142D02*
X146666071Y-82428285D01*
X147023214Y-82571142D01*
X147094642Y-82642571D01*
X147166071Y-82785428D01*
X145308928Y-80428285D02*
X145237500Y-80356857D01*
X145166071Y-80214000D01*
X145166071Y-79856857D01*
X145237500Y-79714000D01*
X145308928Y-79642571D01*
X145451785Y-79571142D01*
X145594642Y-79571142D01*
X145808928Y-79642571D01*
X146666071Y-80499714D01*
X146666071Y-79571142D01*
X145166071Y-78642571D02*
X145166071Y-78499714D01*
X145237500Y-78356857D01*
X145308928Y-78285428D01*
X145451785Y-78214000D01*
X145737500Y-78142571D01*
X146094642Y-78142571D01*
X146380357Y-78214000D01*
X146523214Y-78285428D01*
X146594642Y-78356857D01*
X146666071Y-78499714D01*
X146666071Y-78642571D01*
X146594642Y-78785428D01*
X146523214Y-78856857D01*
X146380357Y-78928285D01*
X146094642Y-78999714D01*
X145737500Y-78999714D01*
X145451785Y-78928285D01*
X145308928Y-78856857D01*
X145237500Y-78785428D01*
X145166071Y-78642571D01*
X145308928Y-77571142D02*
X145237500Y-77499714D01*
X145166071Y-77356857D01*
X145166071Y-76999714D01*
X145237500Y-76856857D01*
X145308928Y-76785428D01*
X145451785Y-76714000D01*
X145594642Y-76714000D01*
X145808928Y-76785428D01*
X146666071Y-77642571D01*
X146666071Y-76714000D01*
X145308928Y-76142571D02*
X145237500Y-76071142D01*
X145166071Y-75928285D01*
X145166071Y-75571142D01*
X145237500Y-75428285D01*
X145308928Y-75356857D01*
X145451785Y-75285428D01*
X145594642Y-75285428D01*
X145808928Y-75356857D01*
X146666071Y-76214000D01*
X146666071Y-75285428D01*
D10*
%TO.C,U2*%
X223073980Y-128450971D02*
X223883504Y-128450971D01*
X223978742Y-128403352D01*
X224026361Y-128355733D01*
X224073980Y-128260495D01*
X224073980Y-128070019D01*
X224026361Y-127974781D01*
X223978742Y-127927162D01*
X223883504Y-127879543D01*
X223073980Y-127879543D01*
X223169219Y-127450971D02*
X223121600Y-127403352D01*
X223073980Y-127308114D01*
X223073980Y-127070019D01*
X223121600Y-126974781D01*
X223169219Y-126927162D01*
X223264457Y-126879543D01*
X223359695Y-126879543D01*
X223502552Y-126927162D01*
X224073980Y-127498590D01*
X224073980Y-126879543D01*
X192673028Y-132713495D02*
X192530171Y-132665876D01*
X192482552Y-132618257D01*
X192434933Y-132523019D01*
X192434933Y-132380162D01*
X192482552Y-132284924D01*
X192530171Y-132237305D01*
X192625409Y-132189686D01*
X193006361Y-132189686D01*
X193006361Y-133189686D01*
X192673028Y-133189686D01*
X192577790Y-133142067D01*
X192530171Y-133094447D01*
X192482552Y-132999209D01*
X192482552Y-132903971D01*
X192530171Y-132808733D01*
X192577790Y-132761114D01*
X192673028Y-132713495D01*
X193006361Y-132713495D01*
X191863504Y-132189686D02*
X191958742Y-132237305D01*
X192006361Y-132284924D01*
X192053980Y-132380162D01*
X192053980Y-132665876D01*
X192006361Y-132761114D01*
X191958742Y-132808733D01*
X191863504Y-132856352D01*
X191720647Y-132856352D01*
X191625409Y-132808733D01*
X191577790Y-132761114D01*
X191530171Y-132665876D01*
X191530171Y-132380162D01*
X191577790Y-132284924D01*
X191625409Y-132237305D01*
X191720647Y-132189686D01*
X191863504Y-132189686D01*
X191244457Y-132856352D02*
X190863504Y-132856352D01*
X191101600Y-133189686D02*
X191101600Y-132332543D01*
X191053980Y-132237305D01*
X190958742Y-132189686D01*
X190863504Y-132189686D01*
X190673028Y-132856352D02*
X190292076Y-132856352D01*
X190530171Y-133189686D02*
X190530171Y-132332543D01*
X190482552Y-132237305D01*
X190387314Y-132189686D01*
X190292076Y-132189686D01*
X189815885Y-132189686D02*
X189911123Y-132237305D01*
X189958742Y-132284924D01*
X190006361Y-132380162D01*
X190006361Y-132665876D01*
X189958742Y-132761114D01*
X189911123Y-132808733D01*
X189815885Y-132856352D01*
X189673028Y-132856352D01*
X189577790Y-132808733D01*
X189530171Y-132761114D01*
X189482552Y-132665876D01*
X189482552Y-132380162D01*
X189530171Y-132284924D01*
X189577790Y-132237305D01*
X189673028Y-132189686D01*
X189815885Y-132189686D01*
X189053980Y-132189686D02*
X189053980Y-132856352D01*
X189053980Y-132761114D02*
X189006361Y-132808733D01*
X188911123Y-132856352D01*
X188768266Y-132856352D01*
X188673028Y-132808733D01*
X188625409Y-132713495D01*
X188625409Y-132189686D01*
X188625409Y-132713495D02*
X188577790Y-132808733D01*
X188482552Y-132856352D01*
X188339695Y-132856352D01*
X188244457Y-132808733D01*
X188196838Y-132713495D01*
X188196838Y-132189686D01*
X191792076Y-123029686D02*
X191220647Y-123029686D01*
X191506361Y-122029686D02*
X191506361Y-123029686D01*
X190744457Y-122029686D02*
X190839695Y-122077305D01*
X190887314Y-122124924D01*
X190934933Y-122220162D01*
X190934933Y-122505876D01*
X190887314Y-122601114D01*
X190839695Y-122648733D01*
X190744457Y-122696352D01*
X190601600Y-122696352D01*
X190506361Y-122648733D01*
X190458742Y-122601114D01*
X190411123Y-122505876D01*
X190411123Y-122220162D01*
X190458742Y-122124924D01*
X190506361Y-122077305D01*
X190601600Y-122029686D01*
X190744457Y-122029686D01*
X189982552Y-122696352D02*
X189982552Y-121696352D01*
X189982552Y-122648733D02*
X189887314Y-122696352D01*
X189696838Y-122696352D01*
X189601600Y-122648733D01*
X189553980Y-122601114D01*
X189506361Y-122505876D01*
X189506361Y-122220162D01*
X189553980Y-122124924D01*
X189601600Y-122077305D01*
X189696838Y-122029686D01*
X189887314Y-122029686D01*
X189982552Y-122077305D01*
%TO.C,U5*%
X223200980Y-68449638D02*
X224010504Y-68449638D01*
X224105742Y-68402019D01*
X224153361Y-68354400D01*
X224200980Y-68259162D01*
X224200980Y-68068686D01*
X224153361Y-67973448D01*
X224105742Y-67925829D01*
X224010504Y-67878210D01*
X223200980Y-67878210D01*
X223200980Y-66925829D02*
X223200980Y-67402019D01*
X223677171Y-67449638D01*
X223629552Y-67402019D01*
X223581933Y-67306781D01*
X223581933Y-67068686D01*
X223629552Y-66973448D01*
X223677171Y-66925829D01*
X223772409Y-66878210D01*
X224010504Y-66878210D01*
X224105742Y-66925829D01*
X224153361Y-66973448D01*
X224200980Y-67068686D01*
X224200980Y-67306781D01*
X224153361Y-67402019D01*
X224105742Y-67449638D01*
X192673028Y-72715428D02*
X192530171Y-72667809D01*
X192482552Y-72620190D01*
X192434933Y-72524952D01*
X192434933Y-72382095D01*
X192482552Y-72286857D01*
X192530171Y-72239238D01*
X192625409Y-72191619D01*
X193006361Y-72191619D01*
X193006361Y-73191619D01*
X192673028Y-73191619D01*
X192577790Y-73144000D01*
X192530171Y-73096380D01*
X192482552Y-73001142D01*
X192482552Y-72905904D01*
X192530171Y-72810666D01*
X192577790Y-72763047D01*
X192673028Y-72715428D01*
X193006361Y-72715428D01*
X191863504Y-72191619D02*
X191958742Y-72239238D01*
X192006361Y-72286857D01*
X192053980Y-72382095D01*
X192053980Y-72667809D01*
X192006361Y-72763047D01*
X191958742Y-72810666D01*
X191863504Y-72858285D01*
X191720647Y-72858285D01*
X191625409Y-72810666D01*
X191577790Y-72763047D01*
X191530171Y-72667809D01*
X191530171Y-72382095D01*
X191577790Y-72286857D01*
X191625409Y-72239238D01*
X191720647Y-72191619D01*
X191863504Y-72191619D01*
X191244457Y-72858285D02*
X190863504Y-72858285D01*
X191101600Y-73191619D02*
X191101600Y-72334476D01*
X191053980Y-72239238D01*
X190958742Y-72191619D01*
X190863504Y-72191619D01*
X190673028Y-72858285D02*
X190292076Y-72858285D01*
X190530171Y-73191619D02*
X190530171Y-72334476D01*
X190482552Y-72239238D01*
X190387314Y-72191619D01*
X190292076Y-72191619D01*
X189815885Y-72191619D02*
X189911123Y-72239238D01*
X189958742Y-72286857D01*
X190006361Y-72382095D01*
X190006361Y-72667809D01*
X189958742Y-72763047D01*
X189911123Y-72810666D01*
X189815885Y-72858285D01*
X189673028Y-72858285D01*
X189577790Y-72810666D01*
X189530171Y-72763047D01*
X189482552Y-72667809D01*
X189482552Y-72382095D01*
X189530171Y-72286857D01*
X189577790Y-72239238D01*
X189673028Y-72191619D01*
X189815885Y-72191619D01*
X189053980Y-72191619D02*
X189053980Y-72858285D01*
X189053980Y-72763047D02*
X189006361Y-72810666D01*
X188911123Y-72858285D01*
X188768266Y-72858285D01*
X188673028Y-72810666D01*
X188625409Y-72715428D01*
X188625409Y-72191619D01*
X188625409Y-72715428D02*
X188577790Y-72810666D01*
X188482552Y-72858285D01*
X188339695Y-72858285D01*
X188244457Y-72810666D01*
X188196838Y-72715428D01*
X188196838Y-72191619D01*
X191792076Y-63031619D02*
X191220647Y-63031619D01*
X191506361Y-62031619D02*
X191506361Y-63031619D01*
X190744457Y-62031619D02*
X190839695Y-62079238D01*
X190887314Y-62126857D01*
X190934933Y-62222095D01*
X190934933Y-62507809D01*
X190887314Y-62603047D01*
X190839695Y-62650666D01*
X190744457Y-62698285D01*
X190601600Y-62698285D01*
X190506361Y-62650666D01*
X190458742Y-62603047D01*
X190411123Y-62507809D01*
X190411123Y-62222095D01*
X190458742Y-62126857D01*
X190506361Y-62079238D01*
X190601600Y-62031619D01*
X190744457Y-62031619D01*
X189982552Y-62698285D02*
X189982552Y-61698285D01*
X189982552Y-62650666D02*
X189887314Y-62698285D01*
X189696838Y-62698285D01*
X189601600Y-62650666D01*
X189553980Y-62603047D01*
X189506361Y-62507809D01*
X189506361Y-62222095D01*
X189553980Y-62126857D01*
X189601600Y-62079238D01*
X189696838Y-62031619D01*
X189887314Y-62031619D01*
X189982552Y-62079238D01*
%TO.C,J2*%
X144613380Y-139271333D02*
X145327666Y-139271333D01*
X145470523Y-139318952D01*
X145565761Y-139414190D01*
X145613380Y-139557047D01*
X145613380Y-139652285D01*
X144708619Y-138842761D02*
X144661000Y-138795142D01*
X144613380Y-138699904D01*
X144613380Y-138461809D01*
X144661000Y-138366571D01*
X144708619Y-138318952D01*
X144803857Y-138271333D01*
X144899095Y-138271333D01*
X145041952Y-138318952D01*
X145613380Y-138890380D01*
X145613380Y-138271333D01*
X147899380Y-142572428D02*
X146899380Y-142572428D01*
X147232714Y-142096238D02*
X147899380Y-142096238D01*
X147327952Y-142096238D02*
X147280333Y-142048619D01*
X147232714Y-141953380D01*
X147232714Y-141810523D01*
X147280333Y-141715285D01*
X147375571Y-141667666D01*
X147899380Y-141667666D01*
X147232714Y-141334333D02*
X147232714Y-140953380D01*
X146899380Y-141191476D02*
X147756523Y-141191476D01*
X147851761Y-141143857D01*
X147899380Y-141048619D01*
X147899380Y-140953380D01*
X146851761Y-139905761D02*
X148137476Y-140762904D01*
X147375571Y-139572428D02*
X147375571Y-139239095D01*
X147899380Y-139096238D02*
X147899380Y-139572428D01*
X146899380Y-139572428D01*
X146899380Y-139096238D01*
X147899380Y-138762904D02*
X147232714Y-138239095D01*
X147232714Y-138762904D02*
X147899380Y-138239095D01*
X147232714Y-138001000D02*
X147232714Y-137620047D01*
X146899380Y-137858142D02*
X147756523Y-137858142D01*
X147851761Y-137810523D01*
X147899380Y-137715285D01*
X147899380Y-137620047D01*
X147232714Y-136524809D02*
X148232714Y-136524809D01*
X147280333Y-136524809D02*
X147232714Y-136429571D01*
X147232714Y-136239095D01*
X147280333Y-136143857D01*
X147327952Y-136096238D01*
X147423190Y-136048619D01*
X147708904Y-136048619D01*
X147804142Y-136096238D01*
X147851761Y-136143857D01*
X147899380Y-136239095D01*
X147899380Y-136429571D01*
X147851761Y-136524809D01*
X147899380Y-135477190D02*
X147851761Y-135572428D01*
X147804142Y-135620047D01*
X147708904Y-135667666D01*
X147423190Y-135667666D01*
X147327952Y-135620047D01*
X147280333Y-135572428D01*
X147232714Y-135477190D01*
X147232714Y-135334333D01*
X147280333Y-135239095D01*
X147327952Y-135191476D01*
X147423190Y-135143857D01*
X147708904Y-135143857D01*
X147804142Y-135191476D01*
X147851761Y-135239095D01*
X147899380Y-135334333D01*
X147899380Y-135477190D01*
X147232714Y-134810523D02*
X147899380Y-134620047D01*
X147423190Y-134429571D01*
X147899380Y-134239095D01*
X147232714Y-134048619D01*
X147851761Y-133286714D02*
X147899380Y-133381952D01*
X147899380Y-133572428D01*
X147851761Y-133667666D01*
X147756523Y-133715285D01*
X147375571Y-133715285D01*
X147280333Y-133667666D01*
X147232714Y-133572428D01*
X147232714Y-133381952D01*
X147280333Y-133286714D01*
X147375571Y-133239095D01*
X147470809Y-133239095D01*
X147566047Y-133715285D01*
X147899380Y-132810523D02*
X147232714Y-132810523D01*
X147423190Y-132810523D02*
X147327952Y-132762904D01*
X147280333Y-132715285D01*
X147232714Y-132620047D01*
X147232714Y-132524809D01*
X147851761Y-131477190D02*
X147899380Y-131381952D01*
X147899380Y-131191476D01*
X147851761Y-131096238D01*
X147756523Y-131048619D01*
X147708904Y-131048619D01*
X147613666Y-131096238D01*
X147566047Y-131191476D01*
X147566047Y-131334333D01*
X147518428Y-131429571D01*
X147423190Y-131477190D01*
X147375571Y-131477190D01*
X147280333Y-131429571D01*
X147232714Y-131334333D01*
X147232714Y-131191476D01*
X147280333Y-131096238D01*
X147851761Y-130239095D02*
X147899380Y-130334333D01*
X147899380Y-130524809D01*
X147851761Y-130620047D01*
X147756523Y-130667666D01*
X147375571Y-130667666D01*
X147280333Y-130620047D01*
X147232714Y-130524809D01*
X147232714Y-130334333D01*
X147280333Y-130239095D01*
X147375571Y-130191476D01*
X147470809Y-130191476D01*
X147566047Y-130667666D01*
X147899380Y-129620047D02*
X147851761Y-129715285D01*
X147756523Y-129762904D01*
X146899380Y-129762904D01*
X147851761Y-128858142D02*
X147899380Y-128953380D01*
X147899380Y-129143857D01*
X147851761Y-129239095D01*
X147756523Y-129286714D01*
X147375571Y-129286714D01*
X147280333Y-129239095D01*
X147232714Y-129143857D01*
X147232714Y-128953380D01*
X147280333Y-128858142D01*
X147375571Y-128810523D01*
X147470809Y-128810523D01*
X147566047Y-129286714D01*
X147851761Y-127953380D02*
X147899380Y-128048619D01*
X147899380Y-128239095D01*
X147851761Y-128334333D01*
X147804142Y-128381952D01*
X147708904Y-128429571D01*
X147423190Y-128429571D01*
X147327952Y-128381952D01*
X147280333Y-128334333D01*
X147232714Y-128239095D01*
X147232714Y-128048619D01*
X147280333Y-127953380D01*
X147232714Y-127667666D02*
X147232714Y-127286714D01*
X146899380Y-127524809D02*
X147756523Y-127524809D01*
X147851761Y-127477190D01*
X147899380Y-127381952D01*
X147899380Y-127286714D01*
%TO.C,J1*%
X142708380Y-115395333D02*
X143422666Y-115395333D01*
X143565523Y-115442952D01*
X143660761Y-115538190D01*
X143708380Y-115681047D01*
X143708380Y-115776285D01*
X143708380Y-114395333D02*
X143708380Y-114966761D01*
X143708380Y-114681047D02*
X142708380Y-114681047D01*
X142851238Y-114776285D01*
X142946476Y-114871523D01*
X142994095Y-114966761D01*
%TO.C,U3*%
X223581980Y-108737304D02*
X224391504Y-108737304D01*
X224486742Y-108689685D01*
X224534361Y-108642066D01*
X224581980Y-108546828D01*
X224581980Y-108356352D01*
X224534361Y-108261114D01*
X224486742Y-108213495D01*
X224391504Y-108165876D01*
X223581980Y-108165876D01*
X223581980Y-107784923D02*
X223581980Y-107165876D01*
X223962933Y-107499209D01*
X223962933Y-107356352D01*
X224010552Y-107261114D01*
X224058171Y-107213495D01*
X224153409Y-107165876D01*
X224391504Y-107165876D01*
X224486742Y-107213495D01*
X224534361Y-107261114D01*
X224581980Y-107356352D01*
X224581980Y-107642066D01*
X224534361Y-107737304D01*
X224486742Y-107784923D01*
X192673028Y-112745828D02*
X192530171Y-112698209D01*
X192482552Y-112650590D01*
X192434933Y-112555352D01*
X192434933Y-112412495D01*
X192482552Y-112317257D01*
X192530171Y-112269638D01*
X192625409Y-112222019D01*
X193006361Y-112222019D01*
X193006361Y-113222019D01*
X192673028Y-113222019D01*
X192577790Y-113174400D01*
X192530171Y-113126780D01*
X192482552Y-113031542D01*
X192482552Y-112936304D01*
X192530171Y-112841066D01*
X192577790Y-112793447D01*
X192673028Y-112745828D01*
X193006361Y-112745828D01*
X191863504Y-112222019D02*
X191958742Y-112269638D01*
X192006361Y-112317257D01*
X192053980Y-112412495D01*
X192053980Y-112698209D01*
X192006361Y-112793447D01*
X191958742Y-112841066D01*
X191863504Y-112888685D01*
X191720647Y-112888685D01*
X191625409Y-112841066D01*
X191577790Y-112793447D01*
X191530171Y-112698209D01*
X191530171Y-112412495D01*
X191577790Y-112317257D01*
X191625409Y-112269638D01*
X191720647Y-112222019D01*
X191863504Y-112222019D01*
X191244457Y-112888685D02*
X190863504Y-112888685D01*
X191101600Y-113222019D02*
X191101600Y-112364876D01*
X191053980Y-112269638D01*
X190958742Y-112222019D01*
X190863504Y-112222019D01*
X190673028Y-112888685D02*
X190292076Y-112888685D01*
X190530171Y-113222019D02*
X190530171Y-112364876D01*
X190482552Y-112269638D01*
X190387314Y-112222019D01*
X190292076Y-112222019D01*
X189815885Y-112222019D02*
X189911123Y-112269638D01*
X189958742Y-112317257D01*
X190006361Y-112412495D01*
X190006361Y-112698209D01*
X189958742Y-112793447D01*
X189911123Y-112841066D01*
X189815885Y-112888685D01*
X189673028Y-112888685D01*
X189577790Y-112841066D01*
X189530171Y-112793447D01*
X189482552Y-112698209D01*
X189482552Y-112412495D01*
X189530171Y-112317257D01*
X189577790Y-112269638D01*
X189673028Y-112222019D01*
X189815885Y-112222019D01*
X189053980Y-112222019D02*
X189053980Y-112888685D01*
X189053980Y-112793447D02*
X189006361Y-112841066D01*
X188911123Y-112888685D01*
X188768266Y-112888685D01*
X188673028Y-112841066D01*
X188625409Y-112745828D01*
X188625409Y-112222019D01*
X188625409Y-112745828D02*
X188577790Y-112841066D01*
X188482552Y-112888685D01*
X188339695Y-112888685D01*
X188244457Y-112841066D01*
X188196838Y-112745828D01*
X188196838Y-112222019D01*
X191792076Y-103062019D02*
X191220647Y-103062019D01*
X191506361Y-102062019D02*
X191506361Y-103062019D01*
X190744457Y-102062019D02*
X190839695Y-102109638D01*
X190887314Y-102157257D01*
X190934933Y-102252495D01*
X190934933Y-102538209D01*
X190887314Y-102633447D01*
X190839695Y-102681066D01*
X190744457Y-102728685D01*
X190601600Y-102728685D01*
X190506361Y-102681066D01*
X190458742Y-102633447D01*
X190411123Y-102538209D01*
X190411123Y-102252495D01*
X190458742Y-102157257D01*
X190506361Y-102109638D01*
X190601600Y-102062019D01*
X190744457Y-102062019D01*
X189982552Y-102728685D02*
X189982552Y-101728685D01*
X189982552Y-102681066D02*
X189887314Y-102728685D01*
X189696838Y-102728685D01*
X189601600Y-102681066D01*
X189553980Y-102633447D01*
X189506361Y-102538209D01*
X189506361Y-102252495D01*
X189553980Y-102157257D01*
X189601600Y-102109638D01*
X189696838Y-102062019D01*
X189887314Y-102062019D01*
X189982552Y-102109638D01*
%TO.C,U4*%
X223581980Y-88595104D02*
X224391504Y-88595104D01*
X224486742Y-88547485D01*
X224534361Y-88499866D01*
X224581980Y-88404628D01*
X224581980Y-88214152D01*
X224534361Y-88118914D01*
X224486742Y-88071295D01*
X224391504Y-88023676D01*
X223581980Y-88023676D01*
X223915314Y-87118914D02*
X224581980Y-87118914D01*
X223534361Y-87357009D02*
X224248647Y-87595104D01*
X224248647Y-86976057D01*
X192673028Y-92730628D02*
X192530171Y-92683009D01*
X192482552Y-92635390D01*
X192434933Y-92540152D01*
X192434933Y-92397295D01*
X192482552Y-92302057D01*
X192530171Y-92254438D01*
X192625409Y-92206819D01*
X193006361Y-92206819D01*
X193006361Y-93206819D01*
X192673028Y-93206819D01*
X192577790Y-93159200D01*
X192530171Y-93111580D01*
X192482552Y-93016342D01*
X192482552Y-92921104D01*
X192530171Y-92825866D01*
X192577790Y-92778247D01*
X192673028Y-92730628D01*
X193006361Y-92730628D01*
X191863504Y-92206819D02*
X191958742Y-92254438D01*
X192006361Y-92302057D01*
X192053980Y-92397295D01*
X192053980Y-92683009D01*
X192006361Y-92778247D01*
X191958742Y-92825866D01*
X191863504Y-92873485D01*
X191720647Y-92873485D01*
X191625409Y-92825866D01*
X191577790Y-92778247D01*
X191530171Y-92683009D01*
X191530171Y-92397295D01*
X191577790Y-92302057D01*
X191625409Y-92254438D01*
X191720647Y-92206819D01*
X191863504Y-92206819D01*
X191244457Y-92873485D02*
X190863504Y-92873485D01*
X191101600Y-93206819D02*
X191101600Y-92349676D01*
X191053980Y-92254438D01*
X190958742Y-92206819D01*
X190863504Y-92206819D01*
X190673028Y-92873485D02*
X190292076Y-92873485D01*
X190530171Y-93206819D02*
X190530171Y-92349676D01*
X190482552Y-92254438D01*
X190387314Y-92206819D01*
X190292076Y-92206819D01*
X189815885Y-92206819D02*
X189911123Y-92254438D01*
X189958742Y-92302057D01*
X190006361Y-92397295D01*
X190006361Y-92683009D01*
X189958742Y-92778247D01*
X189911123Y-92825866D01*
X189815885Y-92873485D01*
X189673028Y-92873485D01*
X189577790Y-92825866D01*
X189530171Y-92778247D01*
X189482552Y-92683009D01*
X189482552Y-92397295D01*
X189530171Y-92302057D01*
X189577790Y-92254438D01*
X189673028Y-92206819D01*
X189815885Y-92206819D01*
X189053980Y-92206819D02*
X189053980Y-92873485D01*
X189053980Y-92778247D02*
X189006361Y-92825866D01*
X188911123Y-92873485D01*
X188768266Y-92873485D01*
X188673028Y-92825866D01*
X188625409Y-92730628D01*
X188625409Y-92206819D01*
X188625409Y-92730628D02*
X188577790Y-92825866D01*
X188482552Y-92873485D01*
X188339695Y-92873485D01*
X188244457Y-92825866D01*
X188196838Y-92730628D01*
X188196838Y-92206819D01*
X191792076Y-83046819D02*
X191220647Y-83046819D01*
X191506361Y-82046819D02*
X191506361Y-83046819D01*
X190744457Y-82046819D02*
X190839695Y-82094438D01*
X190887314Y-82142057D01*
X190934933Y-82237295D01*
X190934933Y-82523009D01*
X190887314Y-82618247D01*
X190839695Y-82665866D01*
X190744457Y-82713485D01*
X190601600Y-82713485D01*
X190506361Y-82665866D01*
X190458742Y-82618247D01*
X190411123Y-82523009D01*
X190411123Y-82237295D01*
X190458742Y-82142057D01*
X190506361Y-82094438D01*
X190601600Y-82046819D01*
X190744457Y-82046819D01*
X189982552Y-82713485D02*
X189982552Y-81713485D01*
X189982552Y-82665866D02*
X189887314Y-82713485D01*
X189696838Y-82713485D01*
X189601600Y-82665866D01*
X189553980Y-82618247D01*
X189506361Y-82523009D01*
X189506361Y-82237295D01*
X189553980Y-82142057D01*
X189601600Y-82094438D01*
X189696838Y-82046819D01*
X189887314Y-82046819D01*
X189982552Y-82094438D01*
D12*
%TO.C,U1*%
X223014000Y-150281000D02*
X223014000Y-141331000D01*
X150054000Y-141351000D02*
X150054000Y-150281000D01*
%TO.C,J2*%
X145034000Y-129734000D02*
X146364000Y-129734000D01*
X146364000Y-132334000D02*
X146364000Y-137474000D01*
X143704000Y-132334000D02*
X143704000Y-137474000D01*
X143704000Y-132334000D02*
X146364000Y-132334000D01*
X146364000Y-129734000D02*
X146364000Y-131064000D01*
X143704000Y-137474000D02*
X146364000Y-137474000D01*
%TO.C,J1*%
X149352000Y-116332000D02*
X141732000Y-116332000D01*
X141732000Y-126492000D02*
X149352000Y-126492000D01*
X143002000Y-126492000D02*
X143002000Y-116332000D01*
X141732000Y-116332000D02*
X141732000Y-126492000D01*
X149352000Y-126492000D02*
X149352000Y-116332000D01*
%TD*%
M02*
