%TF.GenerationSoftware,KiCad,Pcbnew,6.0.2+dfsg-1*%
%TF.CreationDate,2022-05-26T14:47:14+01:00*%
%TF.ProjectId,Backplane,4261636b-706c-4616-9e65-2e6b69636164,1*%
%TF.SameCoordinates,Original*%
%TF.FileFunction,Paste,Bot*%
%TF.FilePolarity,Positive*%
%FSLAX46Y46*%
G04 Gerber Fmt 4.6, Leading zero omitted, Abs format (unit mm)*
G04 Created by KiCad (PCBNEW 6.0.2+dfsg-1) date 2022-05-26 14:47:14*
%MOMM*%
%LPD*%
G01*
G04 APERTURE LIST*
%ADD10C,0.150000*%
G04 APERTURE END LIST*
D10*
%TO.C,J1*%
X150296571Y-125856428D02*
X150296571Y-125523095D01*
X150820380Y-125380238D02*
X150820380Y-125856428D01*
X149820380Y-125856428D01*
X149820380Y-125380238D01*
X150820380Y-125046904D02*
X150153714Y-124523095D01*
X150153714Y-125046904D02*
X150820380Y-124523095D01*
X150153714Y-124285000D02*
X150153714Y-123904047D01*
X149820380Y-124142142D02*
X150677523Y-124142142D01*
X150772761Y-124094523D01*
X150820380Y-123999285D01*
X150820380Y-123904047D01*
X150820380Y-122808809D02*
X149820380Y-122808809D01*
X149820380Y-122427857D01*
X149868000Y-122332619D01*
X149915619Y-122285000D01*
X150010857Y-122237380D01*
X150153714Y-122237380D01*
X150248952Y-122285000D01*
X150296571Y-122332619D01*
X150344190Y-122427857D01*
X150344190Y-122808809D01*
X150820380Y-121665952D02*
X150772761Y-121761190D01*
X150725142Y-121808809D01*
X150629904Y-121856428D01*
X150344190Y-121856428D01*
X150248952Y-121808809D01*
X150201333Y-121761190D01*
X150153714Y-121665952D01*
X150153714Y-121523095D01*
X150201333Y-121427857D01*
X150248952Y-121380238D01*
X150344190Y-121332619D01*
X150629904Y-121332619D01*
X150725142Y-121380238D01*
X150772761Y-121427857D01*
X150820380Y-121523095D01*
X150820380Y-121665952D01*
X150153714Y-120999285D02*
X150820380Y-120808809D01*
X150344190Y-120618333D01*
X150820380Y-120427857D01*
X150153714Y-120237380D01*
X150772761Y-119475476D02*
X150820380Y-119570714D01*
X150820380Y-119761190D01*
X150772761Y-119856428D01*
X150677523Y-119904047D01*
X150296571Y-119904047D01*
X150201333Y-119856428D01*
X150153714Y-119761190D01*
X150153714Y-119570714D01*
X150201333Y-119475476D01*
X150296571Y-119427857D01*
X150391809Y-119427857D01*
X150487047Y-119904047D01*
X150820380Y-118999285D02*
X150153714Y-118999285D01*
X150344190Y-118999285D02*
X150248952Y-118951666D01*
X150201333Y-118904047D01*
X150153714Y-118808809D01*
X150153714Y-118713571D01*
X150820380Y-117618333D02*
X150153714Y-117618333D01*
X149820380Y-117618333D02*
X149868000Y-117665952D01*
X149915619Y-117618333D01*
X149868000Y-117570714D01*
X149820380Y-117618333D01*
X149915619Y-117618333D01*
X150153714Y-117142142D02*
X150820380Y-117142142D01*
X150248952Y-117142142D02*
X150201333Y-117094523D01*
X150153714Y-116999285D01*
X150153714Y-116856428D01*
X150201333Y-116761190D01*
X150296571Y-116713571D01*
X150820380Y-116713571D01*
%TD*%
M02*
