M48
; DRILL file {KiCad 6.0.6-3a73a75311~116~ubuntu22.04.1} date Fri 15 Jul 2022 23:37:15 BST
; FORMAT={-:-/ absolute / inch / decimal}
; #@! TF.CreationDate,2022-07-15T23:37:15+01:00
; #@! TF.GenerationSoftware,Kicad,Pcbnew,6.0.6-3a73a75311~116~ubuntu22.04.1
; #@! TF.FileFunction,Plated,1,2,PTH
FMAT,2
INCH
; #@! TA.AperFunction,Plated,PTH,ViaDrill
T1C0.0157
; #@! TA.AperFunction,Plated,PTH,ComponentDrill
T2C0.0394
; #@! TA.AperFunction,Plated,PTH,ComponentDrill
T3C0.0598
; #@! TA.AperFunction,Plated,PTH,ComponentDrill
T4C0.0984
%
G90
G05
T1
X5.7982Y-4.4685
X5.8238Y-5.312
X5.878Y-5.497
X5.9902Y-4.4695
X6.003Y-5.2106
X6.0049Y-5.4222
X6.1053Y-5.2146
X6.1053Y-5.4281
X6.2707Y-5.3986
X6.3002Y-2.9124
X6.3406Y-3.0807
X6.3504Y-3.8967
X6.3553Y-4.6791
X6.3553Y-5.251
X6.4459Y-5.5167
X6.5344Y-2.5965
X6.5591Y-5.1978
X6.6673Y-5.3701
X6.7096Y-4.8819
X8.6368Y-3.6585
X8.6398Y-4.4183
X8.6565Y-2.8642
X8.6663Y-2.6033
X8.6713Y-5.5315
X8.7461Y-3.6545
X8.7579Y-4.4793
X8.7579Y-5.2756
X8.7638Y-2.9636
X8.9419Y-4.0915
T2
X5.71Y-5.16
X5.71Y-5.26
X5.71Y-5.36
X6.0Y-2.5
X6.0Y-2.7
X6.0Y-3.2
X6.0Y-3.4
X6.0Y-4.0
X6.0Y-4.2
X6.0Y-4.8
X6.0Y-5.0
X6.1Y-2.5
X6.1Y-2.7
X6.1Y-3.2
X6.1Y-3.4
X6.1Y-4.0
X6.1Y-4.2
X6.1Y-4.8
X6.1Y-5.0
X6.2Y-2.5
X6.2Y-2.7
X6.2Y-3.2
X6.2Y-3.4
X6.2Y-4.0
X6.2Y-4.2
X6.2Y-4.8
X6.2Y-5.0
X6.3Y-2.5
X6.3Y-2.7
X6.3Y-3.2
X6.3Y-3.4
X6.3Y-4.0
X6.3Y-4.2
X6.3Y-4.8
X6.3Y-5.0
X6.5Y-2.5
X6.5Y-2.7
X6.5Y-3.2
X6.5Y-3.4
X6.5Y-4.0
X6.5Y-4.2
X6.5Y-4.8
X6.5Y-5.0
X6.6Y-2.5
X6.6Y-2.7
X6.6Y-3.2
X6.6Y-3.4
X6.6Y-4.0
X6.6Y-4.2
X6.6Y-4.8
X6.6Y-5.0
X6.7Y-2.5
X6.7Y-2.7
X6.7Y-3.2
X6.7Y-3.4
X6.7Y-4.0
X6.7Y-4.2
X6.7Y-4.8
X6.7Y-5.0
X6.8Y-2.5
X6.8Y-2.7
X6.8Y-3.2
X6.8Y-3.4
X6.8Y-4.0
X6.8Y-4.2
X6.8Y-4.8
X6.8Y-5.0
X6.9Y-2.5
X6.9Y-2.7
X6.9Y-3.2
X6.9Y-3.4
X6.9Y-4.0
X6.9Y-4.2
X6.9Y-4.8
X6.9Y-5.0
X7.0Y-2.5
X7.0Y-2.7
X7.0Y-3.2
X7.0Y-3.4
X7.0Y-4.0
X7.0Y-4.2
X7.0Y-4.8
X7.0Y-5.0
X7.1Y-2.5
X7.1Y-2.7
X7.1Y-3.2
X7.1Y-3.4
X7.1Y-4.0
X7.1Y-4.2
X7.1Y-4.8
X7.1Y-5.0
X7.2Y-2.5
X7.2Y-2.7
X7.2Y-3.2
X7.2Y-3.4
X7.2Y-4.0
X7.2Y-4.2
X7.2Y-4.8
X7.2Y-5.0
X7.3Y-2.5
X7.3Y-2.7
X7.3Y-3.2
X7.3Y-3.4
X7.3Y-4.0
X7.3Y-4.2
X7.3Y-4.8
X7.3Y-5.0
X7.4Y-2.5
X7.4Y-2.7
X7.4Y-3.2
X7.4Y-3.4
X7.4Y-4.0
X7.4Y-4.2
X7.4Y-4.8
X7.4Y-5.0
X7.5Y-2.5
X7.5Y-2.7
X7.5Y-3.2
X7.5Y-3.4
X7.5Y-4.0
X7.5Y-4.2
X7.5Y-4.8
X7.5Y-5.0
X7.6Y-2.5
X7.6Y-2.7
X7.6Y-3.2
X7.6Y-3.4
X7.6Y-4.0
X7.6Y-4.2
X7.6Y-4.8
X7.6Y-5.0
X7.7Y-2.5
X7.7Y-2.7
X7.7Y-3.2
X7.7Y-3.4
X7.7Y-4.0
X7.7Y-4.2
X7.7Y-4.8
X7.7Y-5.0
X7.8Y-2.5
X7.8Y-2.7
X7.8Y-3.2
X7.8Y-3.4
X7.8Y-4.0
X7.8Y-4.2
X7.8Y-4.8
X7.8Y-5.0
X7.9Y-2.5
X7.9Y-2.7
X7.9Y-3.2
X7.9Y-3.4
X7.9Y-4.0
X7.9Y-4.2
X7.9Y-4.8
X7.9Y-5.0
X8.0Y-2.5
X8.0Y-2.7
X8.0Y-3.2
X8.0Y-3.4
X8.0Y-4.0
X8.0Y-4.2
X8.0Y-4.8
X8.0Y-5.0
X8.1Y-2.5
X8.1Y-2.7
X8.1Y-3.2
X8.1Y-3.4
X8.1Y-4.0
X8.1Y-4.2
X8.1Y-4.8
X8.1Y-5.0
X8.2Y-2.5
X8.2Y-2.7
X8.2Y-3.2
X8.2Y-3.4
X8.2Y-4.0
X8.2Y-4.2
X8.2Y-4.8
X8.2Y-5.0
X8.3Y-2.5
X8.3Y-2.7
X8.3Y-3.2
X8.3Y-3.4
X8.3Y-4.0
X8.3Y-4.2
X8.3Y-4.8
X8.3Y-5.0
X8.4Y-2.5
X8.4Y-2.7
X8.4Y-3.2
X8.4Y-3.4
X8.4Y-4.0
X8.4Y-4.2
X8.4Y-4.8
X8.4Y-5.0
X8.5Y-2.5
X8.5Y-2.7
X8.5Y-3.2
X8.5Y-3.4
X8.5Y-4.0
X8.5Y-4.2
X8.5Y-4.8
X8.5Y-5.0
X8.6Y-2.5
X8.6Y-2.7
X8.6Y-3.2
X8.6Y-3.4
X8.6Y-4.0
X8.6Y-4.2
X8.6Y-4.8
X8.6Y-5.0
X8.7Y-2.5
X8.7Y-2.7
X8.7Y-3.2
X8.7Y-3.4
X8.7Y-4.0
X8.7Y-4.2
X8.7Y-4.8
X8.7Y-5.0
T3
X5.73Y-4.68
X5.73Y-4.88
T4
X5.656Y-2.45
X5.705Y-5.725
X8.975Y-5.73
X9.03Y-2.462
T0
M30
