%TF.GenerationSoftware,KiCad,Pcbnew,6.0.6-3a73a75311~116~ubuntu22.04.1*%
%TF.CreationDate,2022-07-15T23:37:08+01:00*%
%TF.ProjectId,Backplane,4261636b-706c-4616-9e65-2e6b69636164,1*%
%TF.SameCoordinates,Original*%
%TF.FileFunction,Legend,Top*%
%TF.FilePolarity,Positive*%
%FSLAX46Y46*%
G04 Gerber Fmt 4.6, Leading zero omitted, Abs format (unit mm)*
G04 Created by KiCad (PCBNEW 6.0.6-3a73a75311~116~ubuntu22.04.1) date 2022-07-15 23:37:08*
%MOMM*%
%LPD*%
G01*
G04 APERTURE LIST*
%ADD10C,0.150000*%
%ADD11C,0.300000*%
%ADD12C,0.120000*%
G04 APERTURE END LIST*
D10*
X142819380Y-137596095D02*
X141819380Y-137596095D01*
X142819380Y-137119904D02*
X141819380Y-137119904D01*
X142819380Y-136548476D01*
X141819380Y-136548476D01*
X141819380Y-136215142D02*
X141819380Y-135643714D01*
X142819380Y-135929428D02*
X141819380Y-135929428D01*
X142295571Y-132262761D02*
X142295571Y-131929428D01*
X142819380Y-131786571D02*
X142819380Y-132262761D01*
X141819380Y-132262761D01*
X141819380Y-131786571D01*
X141819380Y-131453238D02*
X142819380Y-130786571D01*
X141819380Y-130786571D02*
X142819380Y-131453238D01*
X141819380Y-130548476D02*
X141819380Y-129977047D01*
X142819380Y-130262761D02*
X141819380Y-130262761D01*
D11*
X144179642Y-108142571D02*
X144251071Y-107928285D01*
X144251071Y-107571142D01*
X144179642Y-107428285D01*
X144108214Y-107356857D01*
X143965357Y-107285428D01*
X143822500Y-107285428D01*
X143679642Y-107356857D01*
X143608214Y-107428285D01*
X143536785Y-107571142D01*
X143465357Y-107856857D01*
X143393928Y-107999714D01*
X143322500Y-108071142D01*
X143179642Y-108142571D01*
X143036785Y-108142571D01*
X142893928Y-108071142D01*
X142822500Y-107999714D01*
X142751071Y-107856857D01*
X142751071Y-107499714D01*
X142822500Y-107285428D01*
X143251071Y-106642571D02*
X144751071Y-106642571D01*
X143322500Y-106642571D02*
X143251071Y-106499714D01*
X143251071Y-106214000D01*
X143322500Y-106071142D01*
X143393928Y-105999714D01*
X143536785Y-105928285D01*
X143965357Y-105928285D01*
X144108214Y-105999714D01*
X144179642Y-106071142D01*
X144251071Y-106214000D01*
X144251071Y-106499714D01*
X144179642Y-106642571D01*
X144179642Y-104714000D02*
X144251071Y-104856857D01*
X144251071Y-105142571D01*
X144179642Y-105285428D01*
X144036785Y-105356857D01*
X143465357Y-105356857D01*
X143322500Y-105285428D01*
X143251071Y-105142571D01*
X143251071Y-104856857D01*
X143322500Y-104714000D01*
X143465357Y-104642571D01*
X143608214Y-104642571D01*
X143751071Y-105356857D01*
X144179642Y-103356857D02*
X144251071Y-103499714D01*
X144251071Y-103785428D01*
X144179642Y-103928285D01*
X144108214Y-103999714D01*
X143965357Y-104071142D01*
X143536785Y-104071142D01*
X143393928Y-103999714D01*
X143322500Y-103928285D01*
X143251071Y-103785428D01*
X143251071Y-103499714D01*
X143322500Y-103356857D01*
X143251071Y-102928285D02*
X143251071Y-102356857D01*
X142751071Y-102714000D02*
X144036785Y-102714000D01*
X144179642Y-102642571D01*
X144251071Y-102499714D01*
X144251071Y-102356857D01*
X144251071Y-101856857D02*
X143251071Y-101856857D01*
X143536785Y-101856857D02*
X143393928Y-101785428D01*
X143322500Y-101714000D01*
X143251071Y-101571142D01*
X143251071Y-101428285D01*
X143251071Y-100285428D02*
X144251071Y-100285428D01*
X143251071Y-100928285D02*
X144036785Y-100928285D01*
X144179642Y-100856857D01*
X144251071Y-100714000D01*
X144251071Y-100499714D01*
X144179642Y-100356857D01*
X144108214Y-100285428D01*
X144251071Y-99571142D02*
X143251071Y-99571142D01*
X143393928Y-99571142D02*
X143322500Y-99499714D01*
X143251071Y-99356857D01*
X143251071Y-99142571D01*
X143322500Y-98999714D01*
X143465357Y-98928285D01*
X144251071Y-98928285D01*
X143465357Y-98928285D02*
X143322500Y-98856857D01*
X143251071Y-98714000D01*
X143251071Y-98499714D01*
X143322500Y-98356857D01*
X143465357Y-98285428D01*
X144251071Y-98285428D01*
X143465357Y-95928285D02*
X143536785Y-95714000D01*
X143608214Y-95642571D01*
X143751071Y-95571142D01*
X143965357Y-95571142D01*
X144108214Y-95642571D01*
X144179642Y-95714000D01*
X144251071Y-95856857D01*
X144251071Y-96428285D01*
X142751071Y-96428285D01*
X142751071Y-95928285D01*
X142822500Y-95785428D01*
X142893928Y-95714000D01*
X143036785Y-95642571D01*
X143179642Y-95642571D01*
X143322500Y-95714000D01*
X143393928Y-95785428D01*
X143465357Y-95928285D01*
X143465357Y-96428285D01*
X143251071Y-94285428D02*
X144251071Y-94285428D01*
X143251071Y-94928285D02*
X144036785Y-94928285D01*
X144179642Y-94856857D01*
X144251071Y-94714000D01*
X144251071Y-94499714D01*
X144179642Y-94356857D01*
X144108214Y-94285428D01*
X144179642Y-93642571D02*
X144251071Y-93499714D01*
X144251071Y-93214000D01*
X144179642Y-93071142D01*
X144036785Y-92999714D01*
X143965357Y-92999714D01*
X143822500Y-93071142D01*
X143751071Y-93214000D01*
X143751071Y-93428285D01*
X143679642Y-93571142D01*
X143536785Y-93642571D01*
X143465357Y-93642571D01*
X143322500Y-93571142D01*
X143251071Y-93428285D01*
X143251071Y-93214000D01*
X143322500Y-93071142D01*
X143465357Y-91214000D02*
X143465357Y-90714000D01*
X144251071Y-90499714D02*
X144251071Y-91214000D01*
X142751071Y-91214000D01*
X142751071Y-90499714D01*
X144251071Y-89999714D02*
X143251071Y-89214000D01*
X143251071Y-89999714D02*
X144251071Y-89214000D01*
X143251071Y-88642571D02*
X144751071Y-88642571D01*
X143322500Y-88642571D02*
X143251071Y-88499714D01*
X143251071Y-88214000D01*
X143322500Y-88071142D01*
X143393928Y-87999714D01*
X143536785Y-87928285D01*
X143965357Y-87928285D01*
X144108214Y-87999714D01*
X144179642Y-88071142D01*
X144251071Y-88214000D01*
X144251071Y-88499714D01*
X144179642Y-88642571D01*
X144251071Y-86642571D02*
X143465357Y-86642571D01*
X143322500Y-86714000D01*
X143251071Y-86856857D01*
X143251071Y-87142571D01*
X143322500Y-87285428D01*
X144179642Y-86642571D02*
X144251071Y-86785428D01*
X144251071Y-87142571D01*
X144179642Y-87285428D01*
X144036785Y-87356857D01*
X143893928Y-87356857D01*
X143751071Y-87285428D01*
X143679642Y-87142571D01*
X143679642Y-86785428D01*
X143608214Y-86642571D01*
X143251071Y-85928285D02*
X144251071Y-85928285D01*
X143393928Y-85928285D02*
X143322500Y-85856857D01*
X143251071Y-85714000D01*
X143251071Y-85499714D01*
X143322500Y-85356857D01*
X143465357Y-85285428D01*
X144251071Y-85285428D01*
X144251071Y-83928285D02*
X142751071Y-83928285D01*
X144179642Y-83928285D02*
X144251071Y-84071142D01*
X144251071Y-84356857D01*
X144179642Y-84499714D01*
X144108214Y-84571142D01*
X143965357Y-84642571D01*
X143536785Y-84642571D01*
X143393928Y-84571142D01*
X143322500Y-84499714D01*
X143251071Y-84356857D01*
X143251071Y-84071142D01*
X143322500Y-83928285D01*
X144179642Y-82642571D02*
X144251071Y-82785428D01*
X144251071Y-83071142D01*
X144179642Y-83214000D01*
X144036785Y-83285428D01*
X143465357Y-83285428D01*
X143322500Y-83214000D01*
X143251071Y-83071142D01*
X143251071Y-82785428D01*
X143322500Y-82642571D01*
X143465357Y-82571142D01*
X143608214Y-82571142D01*
X143751071Y-83285428D01*
X144251071Y-81928285D02*
X143251071Y-81928285D01*
X143536785Y-81928285D02*
X143393928Y-81856857D01*
X143322500Y-81785428D01*
X143251071Y-81642571D01*
X143251071Y-81499714D01*
X142751071Y-80071142D02*
X144251071Y-79571142D01*
X142751071Y-79071142D01*
X142893928Y-78642571D02*
X142822500Y-78571142D01*
X142751071Y-78428285D01*
X142751071Y-78071142D01*
X142822500Y-77928285D01*
X142893928Y-77856857D01*
X143036785Y-77785428D01*
X143179642Y-77785428D01*
X143393928Y-77856857D01*
X144251071Y-78714000D01*
X144251071Y-77785428D01*
X145237500Y-109892571D02*
X145166071Y-110035428D01*
X145166071Y-110249714D01*
X145237500Y-110464000D01*
X145380357Y-110606857D01*
X145523214Y-110678285D01*
X145808928Y-110749714D01*
X146023214Y-110749714D01*
X146308928Y-110678285D01*
X146451785Y-110606857D01*
X146594642Y-110464000D01*
X146666071Y-110249714D01*
X146666071Y-110106857D01*
X146594642Y-109892571D01*
X146523214Y-109821142D01*
X146023214Y-109821142D01*
X146023214Y-110106857D01*
X146666071Y-109178285D02*
X145666071Y-109178285D01*
X145951785Y-109178285D02*
X145808928Y-109106857D01*
X145737500Y-109035428D01*
X145666071Y-108892571D01*
X145666071Y-108749714D01*
X146666071Y-107606857D02*
X145880357Y-107606857D01*
X145737500Y-107678285D01*
X145666071Y-107821142D01*
X145666071Y-108106857D01*
X145737500Y-108249714D01*
X146594642Y-107606857D02*
X146666071Y-107749714D01*
X146666071Y-108106857D01*
X146594642Y-108249714D01*
X146451785Y-108321142D01*
X146308928Y-108321142D01*
X146166071Y-108249714D01*
X146094642Y-108106857D01*
X146094642Y-107749714D01*
X146023214Y-107606857D01*
X146666071Y-106892571D02*
X145166071Y-106892571D01*
X146666071Y-106249714D02*
X145880357Y-106249714D01*
X145737500Y-106321142D01*
X145666071Y-106464000D01*
X145666071Y-106678285D01*
X145737500Y-106821142D01*
X145808928Y-106892571D01*
X146666071Y-104892571D02*
X145880357Y-104892571D01*
X145737500Y-104964000D01*
X145666071Y-105106857D01*
X145666071Y-105392571D01*
X145737500Y-105535428D01*
X146594642Y-104892571D02*
X146666071Y-105035428D01*
X146666071Y-105392571D01*
X146594642Y-105535428D01*
X146451785Y-105606857D01*
X146308928Y-105606857D01*
X146166071Y-105535428D01*
X146094642Y-105392571D01*
X146094642Y-105035428D01*
X146023214Y-104892571D01*
X146666071Y-104178285D02*
X145666071Y-104178285D01*
X145808928Y-104178285D02*
X145737500Y-104106857D01*
X145666071Y-103964000D01*
X145666071Y-103749714D01*
X145737500Y-103606857D01*
X145880357Y-103535428D01*
X146666071Y-103535428D01*
X145880357Y-103535428D02*
X145737500Y-103464000D01*
X145666071Y-103321142D01*
X145666071Y-103106857D01*
X145737500Y-102964000D01*
X145880357Y-102892571D01*
X146666071Y-102892571D01*
X145951785Y-101249714D02*
X145880357Y-101321142D01*
X145808928Y-101464000D01*
X145808928Y-101606857D01*
X145880357Y-101749714D01*
X145951785Y-101821142D01*
X146094642Y-101892571D01*
X146237500Y-101892571D01*
X146380357Y-101821142D01*
X146451785Y-101749714D01*
X146523214Y-101606857D01*
X146523214Y-101464000D01*
X146451785Y-101321142D01*
X146380357Y-101249714D01*
X145808928Y-101249714D02*
X146380357Y-101249714D01*
X146451785Y-101178285D01*
X146451785Y-101106857D01*
X146380357Y-100964000D01*
X146237500Y-100892571D01*
X145880357Y-100892571D01*
X145666071Y-101035428D01*
X145523214Y-101249714D01*
X145451785Y-101535428D01*
X145523214Y-101821142D01*
X145666071Y-102035428D01*
X145880357Y-102178285D01*
X146166071Y-102249714D01*
X146451785Y-102178285D01*
X146666071Y-102035428D01*
X146808928Y-101821142D01*
X146880357Y-101535428D01*
X146808928Y-101249714D01*
X146666071Y-101035428D01*
X146594642Y-100321142D02*
X146666071Y-100178285D01*
X146666071Y-99892571D01*
X146594642Y-99749714D01*
X146451785Y-99678285D01*
X146380357Y-99678285D01*
X146237500Y-99749714D01*
X146166071Y-99892571D01*
X146166071Y-100106857D01*
X146094642Y-100249714D01*
X145951785Y-100321142D01*
X145880357Y-100321142D01*
X145737500Y-100249714D01*
X145666071Y-100106857D01*
X145666071Y-99892571D01*
X145737500Y-99749714D01*
X146666071Y-98392571D02*
X145880357Y-98392571D01*
X145737500Y-98464000D01*
X145666071Y-98606857D01*
X145666071Y-98892571D01*
X145737500Y-99035428D01*
X146594642Y-98392571D02*
X146666071Y-98535428D01*
X146666071Y-98892571D01*
X146594642Y-99035428D01*
X146451785Y-99106857D01*
X146308928Y-99106857D01*
X146166071Y-99035428D01*
X146094642Y-98892571D01*
X146094642Y-98535428D01*
X146023214Y-98392571D01*
X146666071Y-97464000D02*
X146594642Y-97606857D01*
X146451785Y-97678285D01*
X145166071Y-97678285D01*
X146666071Y-96892571D02*
X145166071Y-96892571D01*
X146094642Y-96749714D02*
X146666071Y-96321142D01*
X145666071Y-96321142D02*
X146237500Y-96892571D01*
X146666071Y-95678285D02*
X145666071Y-95678285D01*
X145166071Y-95678285D02*
X145237500Y-95749714D01*
X145308928Y-95678285D01*
X145237500Y-95606857D01*
X145166071Y-95678285D01*
X145308928Y-95678285D01*
X145666071Y-94964000D02*
X146666071Y-94964000D01*
X145808928Y-94964000D02*
X145737500Y-94892571D01*
X145666071Y-94749714D01*
X145666071Y-94535428D01*
X145737500Y-94392571D01*
X145880357Y-94321142D01*
X146666071Y-94321142D01*
X146523214Y-93606857D02*
X146594642Y-93535428D01*
X146666071Y-93606857D01*
X146594642Y-93678285D01*
X146523214Y-93606857D01*
X146666071Y-93606857D01*
X146594642Y-92249714D02*
X146666071Y-92392571D01*
X146666071Y-92678285D01*
X146594642Y-92821142D01*
X146523214Y-92892571D01*
X146380357Y-92964000D01*
X145951785Y-92964000D01*
X145808928Y-92892571D01*
X145737500Y-92821142D01*
X145666071Y-92678285D01*
X145666071Y-92392571D01*
X145737500Y-92249714D01*
X146666071Y-91392571D02*
X146594642Y-91535428D01*
X146523214Y-91606857D01*
X146380357Y-91678285D01*
X145951785Y-91678285D01*
X145808928Y-91606857D01*
X145737500Y-91535428D01*
X145666071Y-91392571D01*
X145666071Y-91178285D01*
X145737500Y-91035428D01*
X145808928Y-90964000D01*
X145951785Y-90892571D01*
X146380357Y-90892571D01*
X146523214Y-90964000D01*
X146594642Y-91035428D01*
X146666071Y-91178285D01*
X146666071Y-91392571D01*
X146523214Y-90249714D02*
X146594642Y-90178285D01*
X146666071Y-90249714D01*
X146594642Y-90321142D01*
X146523214Y-90249714D01*
X146666071Y-90249714D01*
X145666071Y-88892571D02*
X146666071Y-88892571D01*
X145666071Y-89535428D02*
X146451785Y-89535428D01*
X146594642Y-89464000D01*
X146666071Y-89321142D01*
X146666071Y-89106857D01*
X146594642Y-88964000D01*
X146523214Y-88892571D01*
X146666071Y-88178285D02*
X145166071Y-88178285D01*
X146094642Y-88035428D02*
X146666071Y-87606857D01*
X145666071Y-87606857D02*
X146237500Y-88178285D01*
X145166071Y-85392571D02*
X146237500Y-85392571D01*
X146451785Y-85464000D01*
X146594642Y-85606857D01*
X146666071Y-85821142D01*
X146666071Y-85964000D01*
X145666071Y-84035428D02*
X146666071Y-84035428D01*
X145666071Y-84678285D02*
X146451785Y-84678285D01*
X146594642Y-84606857D01*
X146666071Y-84464000D01*
X146666071Y-84249714D01*
X146594642Y-84106857D01*
X146523214Y-84035428D01*
X146666071Y-83106857D02*
X146594642Y-83249714D01*
X146451785Y-83321142D01*
X145166071Y-83321142D01*
X145666071Y-82678285D02*
X146666071Y-82321142D01*
X145666071Y-81964000D02*
X146666071Y-82321142D01*
X147023214Y-82464000D01*
X147094642Y-82535428D01*
X147166071Y-82678285D01*
X145308928Y-80321142D02*
X145237500Y-80249714D01*
X145166071Y-80106857D01*
X145166071Y-79749714D01*
X145237500Y-79606857D01*
X145308928Y-79535428D01*
X145451785Y-79464000D01*
X145594642Y-79464000D01*
X145808928Y-79535428D01*
X146666071Y-80392571D01*
X146666071Y-79464000D01*
X145166071Y-78535428D02*
X145166071Y-78392571D01*
X145237500Y-78249714D01*
X145308928Y-78178285D01*
X145451785Y-78106857D01*
X145737500Y-78035428D01*
X146094642Y-78035428D01*
X146380357Y-78106857D01*
X146523214Y-78178285D01*
X146594642Y-78249714D01*
X146666071Y-78392571D01*
X146666071Y-78535428D01*
X146594642Y-78678285D01*
X146523214Y-78749714D01*
X146380357Y-78821142D01*
X146094642Y-78892571D01*
X145737500Y-78892571D01*
X145451785Y-78821142D01*
X145308928Y-78749714D01*
X145237500Y-78678285D01*
X145166071Y-78535428D01*
X145308928Y-77464000D02*
X145237500Y-77392571D01*
X145166071Y-77249714D01*
X145166071Y-76892571D01*
X145237500Y-76749714D01*
X145308928Y-76678285D01*
X145451785Y-76606857D01*
X145594642Y-76606857D01*
X145808928Y-76678285D01*
X146666071Y-77535428D01*
X146666071Y-76606857D01*
X145308928Y-76035428D02*
X145237500Y-75964000D01*
X145166071Y-75821142D01*
X145166071Y-75464000D01*
X145237500Y-75321142D01*
X145308928Y-75249714D01*
X145451785Y-75178285D01*
X145594642Y-75178285D01*
X145808928Y-75249714D01*
X146666071Y-76106857D01*
X146666071Y-75178285D01*
D10*
%TO.C,U5*%
X222872380Y-84581904D02*
X223681904Y-84581904D01*
X223777142Y-84534285D01*
X223824761Y-84486666D01*
X223872380Y-84391428D01*
X223872380Y-84200952D01*
X223824761Y-84105714D01*
X223777142Y-84058095D01*
X223681904Y-84010476D01*
X222872380Y-84010476D01*
X222872380Y-83058095D02*
X222872380Y-83534285D01*
X223348571Y-83581904D01*
X223300952Y-83534285D01*
X223253333Y-83439047D01*
X223253333Y-83200952D01*
X223300952Y-83105714D01*
X223348571Y-83058095D01*
X223443809Y-83010476D01*
X223681904Y-83010476D01*
X223777142Y-83058095D01*
X223824761Y-83105714D01*
X223872380Y-83200952D01*
X223872380Y-83439047D01*
X223824761Y-83534285D01*
X223777142Y-83581904D01*
X175172666Y-79200285D02*
X175172666Y-78724095D01*
X175458380Y-79295523D02*
X174458380Y-78962190D01*
X175458380Y-78628857D01*
X175458380Y-77771714D02*
X175458380Y-78343142D01*
X175458380Y-78057428D02*
X174458380Y-78057428D01*
X174601238Y-78152666D01*
X174696476Y-78247904D01*
X174744095Y-78343142D01*
X203366666Y-79200285D02*
X203366666Y-78724095D01*
X203652380Y-79295523D02*
X202652380Y-78962190D01*
X203652380Y-78628857D01*
X202652380Y-78390761D02*
X202652380Y-77724095D01*
X203652380Y-78152666D01*
X170537142Y-78589142D02*
X170584761Y-78636761D01*
X170632380Y-78779619D01*
X170632380Y-78874857D01*
X170584761Y-79017714D01*
X170489523Y-79112952D01*
X170394285Y-79160571D01*
X170203809Y-79208190D01*
X170060952Y-79208190D01*
X169870476Y-79160571D01*
X169775238Y-79112952D01*
X169680000Y-79017714D01*
X169632380Y-78874857D01*
X169632380Y-78779619D01*
X169680000Y-78636761D01*
X169727619Y-78589142D01*
X170632380Y-78017714D02*
X170584761Y-78112952D01*
X170489523Y-78160571D01*
X169632380Y-78160571D01*
X170632380Y-77636761D02*
X169632380Y-77636761D01*
X170251428Y-77541523D02*
X170632380Y-77255809D01*
X169965714Y-77255809D02*
X170346666Y-77636761D01*
X183332380Y-90312761D02*
X182332380Y-90312761D01*
X183332380Y-89836571D02*
X182332380Y-89836571D01*
X183332380Y-89265142D01*
X182332380Y-89265142D01*
X182332380Y-88931809D02*
X182332380Y-88360380D01*
X183332380Y-88646095D02*
X182332380Y-88646095D01*
X205811428Y-91931904D02*
X205811428Y-91170000D01*
X206192380Y-91550952D02*
X205430476Y-91550952D01*
X206192380Y-90170000D02*
X206192380Y-90741428D01*
X206192380Y-90455714D02*
X205192380Y-90455714D01*
X205335238Y-90550952D01*
X205430476Y-90646190D01*
X205478095Y-90741428D01*
X205287619Y-89789047D02*
X205240000Y-89741428D01*
X205192380Y-89646190D01*
X205192380Y-89408095D01*
X205240000Y-89312857D01*
X205287619Y-89265238D01*
X205382857Y-89217619D01*
X205478095Y-89217619D01*
X205620952Y-89265238D01*
X206192380Y-89836666D01*
X206192380Y-89217619D01*
X205192380Y-88931904D02*
X206192380Y-88598571D01*
X205192380Y-88265238D01*
X160091428Y-79263714D02*
X160091428Y-78501809D01*
X160472380Y-78882761D02*
X159710476Y-78882761D01*
X160472380Y-77978000D02*
X160472380Y-77787523D01*
X160424761Y-77692285D01*
X160377142Y-77644666D01*
X160234285Y-77549428D01*
X160043809Y-77501809D01*
X159662857Y-77501809D01*
X159567619Y-77549428D01*
X159520000Y-77597047D01*
X159472380Y-77692285D01*
X159472380Y-77882761D01*
X159520000Y-77978000D01*
X159567619Y-78025619D01*
X159662857Y-78073238D01*
X159900952Y-78073238D01*
X159996190Y-78025619D01*
X160043809Y-77978000D01*
X160091428Y-77882761D01*
X160091428Y-77692285D01*
X160043809Y-77597047D01*
X159996190Y-77549428D01*
X159900952Y-77501809D01*
X159472380Y-77216095D02*
X160472380Y-76882761D01*
X159472380Y-76549428D01*
X211272380Y-89963523D02*
X210272380Y-89963523D01*
X210986666Y-89630190D01*
X210272380Y-89296857D01*
X211272380Y-89296857D01*
X211272380Y-88296857D02*
X211272380Y-88868285D01*
X211272380Y-88582571D02*
X210272380Y-88582571D01*
X210415238Y-88677809D01*
X210510476Y-88773047D01*
X210558095Y-88868285D01*
X200731428Y-91201714D02*
X200731428Y-90439809D01*
X200112380Y-89487428D02*
X200112380Y-89963619D01*
X200588571Y-90011238D01*
X200540952Y-89963619D01*
X200493333Y-89868380D01*
X200493333Y-89630285D01*
X200540952Y-89535047D01*
X200588571Y-89487428D01*
X200683809Y-89439809D01*
X200921904Y-89439809D01*
X201017142Y-89487428D01*
X201064761Y-89535047D01*
X201112380Y-89630285D01*
X201112380Y-89868380D01*
X201064761Y-89963619D01*
X201017142Y-90011238D01*
X200112380Y-89154095D02*
X201112380Y-88820761D01*
X200112380Y-88487428D01*
X205906666Y-79200285D02*
X205906666Y-78724095D01*
X206192380Y-79295523D02*
X205192380Y-78962190D01*
X206192380Y-78628857D01*
X205192380Y-77866952D02*
X205192380Y-78057428D01*
X205240000Y-78152666D01*
X205287619Y-78200285D01*
X205430476Y-78295523D01*
X205620952Y-78343142D01*
X206001904Y-78343142D01*
X206097142Y-78295523D01*
X206144761Y-78247904D01*
X206192380Y-78152666D01*
X206192380Y-77962190D01*
X206144761Y-77866952D01*
X206097142Y-77819333D01*
X206001904Y-77771714D01*
X205763809Y-77771714D01*
X205668571Y-77819333D01*
X205620952Y-77866952D01*
X205573333Y-77962190D01*
X205573333Y-78152666D01*
X205620952Y-78247904D01*
X205668571Y-78295523D01*
X205763809Y-78343142D01*
X184229523Y-91654380D02*
X184800952Y-91654380D01*
X184515238Y-92654380D02*
X184515238Y-91654380D01*
X185277142Y-92654380D02*
X185181904Y-92606761D01*
X185134285Y-92559142D01*
X185086666Y-92463904D01*
X185086666Y-92178190D01*
X185134285Y-92082952D01*
X185181904Y-92035333D01*
X185277142Y-91987714D01*
X185420000Y-91987714D01*
X185515238Y-92035333D01*
X185562857Y-92082952D01*
X185610476Y-92178190D01*
X185610476Y-92463904D01*
X185562857Y-92559142D01*
X185515238Y-92606761D01*
X185420000Y-92654380D01*
X185277142Y-92654380D01*
X186039047Y-91987714D02*
X186039047Y-92987714D01*
X186039047Y-92035333D02*
X186134285Y-91987714D01*
X186324761Y-91987714D01*
X186420000Y-92035333D01*
X186467619Y-92082952D01*
X186515238Y-92178190D01*
X186515238Y-92463904D01*
X186467619Y-92559142D01*
X186420000Y-92606761D01*
X186324761Y-92654380D01*
X186134285Y-92654380D01*
X186039047Y-92606761D01*
X168092380Y-89892095D02*
X167092380Y-89892095D01*
X167092380Y-89654000D01*
X167140000Y-89511142D01*
X167235238Y-89415904D01*
X167330476Y-89368285D01*
X167520952Y-89320666D01*
X167663809Y-89320666D01*
X167854285Y-89368285D01*
X167949523Y-89415904D01*
X168044761Y-89511142D01*
X168092380Y-89654000D01*
X168092380Y-89892095D01*
X168092380Y-88368285D02*
X168092380Y-88939714D01*
X168092380Y-88654000D02*
X167092380Y-88654000D01*
X167235238Y-88749238D01*
X167330476Y-88844476D01*
X167378095Y-88939714D01*
X208351428Y-91931904D02*
X208351428Y-91170000D01*
X208732380Y-90170000D02*
X208732380Y-90741428D01*
X208732380Y-90455714D02*
X207732380Y-90455714D01*
X207875238Y-90550952D01*
X207970476Y-90646190D01*
X208018095Y-90741428D01*
X207827619Y-89789047D02*
X207780000Y-89741428D01*
X207732380Y-89646190D01*
X207732380Y-89408095D01*
X207780000Y-89312857D01*
X207827619Y-89265238D01*
X207922857Y-89217619D01*
X208018095Y-89217619D01*
X208160952Y-89265238D01*
X208732380Y-89836666D01*
X208732380Y-89217619D01*
X207732380Y-88931904D02*
X208732380Y-88598571D01*
X207732380Y-88265238D01*
X158186380Y-89892095D02*
X157186380Y-89892095D01*
X157186380Y-89654000D01*
X157234000Y-89511142D01*
X157329238Y-89415904D01*
X157424476Y-89368285D01*
X157614952Y-89320666D01*
X157757809Y-89320666D01*
X157948285Y-89368285D01*
X158043523Y-89415904D01*
X158138761Y-89511142D01*
X158186380Y-89654000D01*
X158186380Y-89892095D01*
X157186380Y-88987333D02*
X157186380Y-88320666D01*
X158186380Y-88749238D01*
X198048571Y-78914380D02*
X198096190Y-78771523D01*
X198143809Y-78723904D01*
X198239047Y-78676285D01*
X198381904Y-78676285D01*
X198477142Y-78723904D01*
X198524761Y-78771523D01*
X198572380Y-78866761D01*
X198572380Y-79247714D01*
X197572380Y-79247714D01*
X197572380Y-78914380D01*
X197620000Y-78819142D01*
X197667619Y-78771523D01*
X197762857Y-78723904D01*
X197858095Y-78723904D01*
X197953333Y-78771523D01*
X198000952Y-78819142D01*
X198048571Y-78914380D01*
X198048571Y-79247714D01*
X197572380Y-78247714D02*
X198381904Y-78247714D01*
X198477142Y-78200095D01*
X198524761Y-78152476D01*
X198572380Y-78057238D01*
X198572380Y-77866761D01*
X198524761Y-77771523D01*
X198477142Y-77723904D01*
X198381904Y-77676285D01*
X197572380Y-77676285D01*
X198524761Y-77247714D02*
X198572380Y-77104857D01*
X198572380Y-76866761D01*
X198524761Y-76771523D01*
X198477142Y-76723904D01*
X198381904Y-76676285D01*
X198286666Y-76676285D01*
X198191428Y-76723904D01*
X198143809Y-76771523D01*
X198096190Y-76866761D01*
X198048571Y-77057238D01*
X198000952Y-77152476D01*
X197953333Y-77200095D01*
X197858095Y-77247714D01*
X197762857Y-77247714D01*
X197667619Y-77200095D01*
X197620000Y-77152476D01*
X197572380Y-77057238D01*
X197572380Y-76819142D01*
X197620000Y-76676285D01*
X198572380Y-75676285D02*
X198096190Y-76009619D01*
X198572380Y-76247714D02*
X197572380Y-76247714D01*
X197572380Y-75866761D01*
X197620000Y-75771523D01*
X197667619Y-75723904D01*
X197762857Y-75676285D01*
X197905714Y-75676285D01*
X198000952Y-75723904D01*
X198048571Y-75771523D01*
X198096190Y-75866761D01*
X198096190Y-76247714D01*
X198667619Y-74581047D02*
X198620000Y-74676285D01*
X198524761Y-74771523D01*
X198381904Y-74914380D01*
X198334285Y-75009619D01*
X198334285Y-75104857D01*
X198572380Y-75057238D02*
X198524761Y-75152476D01*
X198429523Y-75247714D01*
X198239047Y-75295333D01*
X197905714Y-75295333D01*
X197715238Y-75247714D01*
X197620000Y-75152476D01*
X197572380Y-75057238D01*
X197572380Y-74866761D01*
X197620000Y-74771523D01*
X197715238Y-74676285D01*
X197905714Y-74628666D01*
X198239047Y-74628666D01*
X198429523Y-74676285D01*
X198524761Y-74771523D01*
X198572380Y-74866761D01*
X198572380Y-75057238D01*
X185872380Y-90503238D02*
X184872380Y-90503238D01*
X185872380Y-89931809D01*
X184872380Y-89931809D01*
X185872380Y-89455619D02*
X184872380Y-89455619D01*
X185586666Y-89122285D01*
X184872380Y-88788952D01*
X185872380Y-88788952D01*
X185872380Y-88312761D02*
X184872380Y-88312761D01*
X187412380Y-79374761D02*
X188412380Y-79041428D01*
X187412380Y-78708095D01*
X188412380Y-78374761D02*
X187745714Y-78374761D01*
X187412380Y-78374761D02*
X187460000Y-78422380D01*
X187507619Y-78374761D01*
X187460000Y-78327142D01*
X187412380Y-78374761D01*
X187507619Y-78374761D01*
X188412380Y-77470000D02*
X187412380Y-77470000D01*
X188364761Y-77470000D02*
X188412380Y-77565238D01*
X188412380Y-77755714D01*
X188364761Y-77850952D01*
X188317142Y-77898571D01*
X188221904Y-77946190D01*
X187936190Y-77946190D01*
X187840952Y-77898571D01*
X187793333Y-77850952D01*
X187745714Y-77755714D01*
X187745714Y-77565238D01*
X187793333Y-77470000D01*
X188364761Y-76612857D02*
X188412380Y-76708095D01*
X188412380Y-76898571D01*
X188364761Y-76993809D01*
X188269523Y-77041428D01*
X187888571Y-77041428D01*
X187793333Y-76993809D01*
X187745714Y-76898571D01*
X187745714Y-76708095D01*
X187793333Y-76612857D01*
X187888571Y-76565238D01*
X187983809Y-76565238D01*
X188079047Y-77041428D01*
X188412380Y-75993809D02*
X188364761Y-76089047D01*
X188317142Y-76136666D01*
X188221904Y-76184285D01*
X187936190Y-76184285D01*
X187840952Y-76136666D01*
X187793333Y-76089047D01*
X187745714Y-75993809D01*
X187745714Y-75850952D01*
X187793333Y-75755714D01*
X187840952Y-75708095D01*
X187936190Y-75660476D01*
X188221904Y-75660476D01*
X188317142Y-75708095D01*
X188364761Y-75755714D01*
X188412380Y-75850952D01*
X188412380Y-75993809D01*
X178268571Y-76128571D02*
X178411428Y-76176190D01*
X178459047Y-76223809D01*
X178506666Y-76319047D01*
X178506666Y-76461904D01*
X178459047Y-76557142D01*
X178411428Y-76604761D01*
X178316190Y-76652380D01*
X177935238Y-76652380D01*
X177935238Y-75652380D01*
X178268571Y-75652380D01*
X178363809Y-75700000D01*
X178411428Y-75747619D01*
X178459047Y-75842857D01*
X178459047Y-75938095D01*
X178411428Y-76033333D01*
X178363809Y-76080952D01*
X178268571Y-76128571D01*
X177935238Y-76128571D01*
X179078095Y-76652380D02*
X178982857Y-76604761D01*
X178935238Y-76557142D01*
X178887619Y-76461904D01*
X178887619Y-76176190D01*
X178935238Y-76080952D01*
X178982857Y-76033333D01*
X179078095Y-75985714D01*
X179220952Y-75985714D01*
X179316190Y-76033333D01*
X179363809Y-76080952D01*
X179411428Y-76176190D01*
X179411428Y-76461904D01*
X179363809Y-76557142D01*
X179316190Y-76604761D01*
X179220952Y-76652380D01*
X179078095Y-76652380D01*
X179697142Y-75985714D02*
X180078095Y-75985714D01*
X179840000Y-75652380D02*
X179840000Y-76509523D01*
X179887619Y-76604761D01*
X179982857Y-76652380D01*
X180078095Y-76652380D01*
X180268571Y-75985714D02*
X180649523Y-75985714D01*
X180411428Y-75652380D02*
X180411428Y-76509523D01*
X180459047Y-76604761D01*
X180554285Y-76652380D01*
X180649523Y-76652380D01*
X181125714Y-76652380D02*
X181030476Y-76604761D01*
X180982857Y-76557142D01*
X180935238Y-76461904D01*
X180935238Y-76176190D01*
X180982857Y-76080952D01*
X181030476Y-76033333D01*
X181125714Y-75985714D01*
X181268571Y-75985714D01*
X181363809Y-76033333D01*
X181411428Y-76080952D01*
X181459047Y-76176190D01*
X181459047Y-76461904D01*
X181411428Y-76557142D01*
X181363809Y-76604761D01*
X181268571Y-76652380D01*
X181125714Y-76652380D01*
X181887619Y-76652380D02*
X181887619Y-75985714D01*
X181887619Y-76080952D02*
X181935238Y-76033333D01*
X182030476Y-75985714D01*
X182173333Y-75985714D01*
X182268571Y-76033333D01*
X182316190Y-76128571D01*
X182316190Y-76652380D01*
X182316190Y-76128571D02*
X182363809Y-76033333D01*
X182459047Y-75985714D01*
X182601904Y-75985714D01*
X182697142Y-76033333D01*
X182744761Y-76128571D01*
X182744761Y-76652380D01*
X216066666Y-89868285D02*
X216066666Y-89392095D01*
X216352380Y-89963523D02*
X215352380Y-89630190D01*
X216352380Y-89296857D01*
X215780952Y-88820666D02*
X215733333Y-88915904D01*
X215685714Y-88963523D01*
X215590476Y-89011142D01*
X215542857Y-89011142D01*
X215447619Y-88963523D01*
X215400000Y-88915904D01*
X215352380Y-88820666D01*
X215352380Y-88630190D01*
X215400000Y-88534952D01*
X215447619Y-88487333D01*
X215542857Y-88439714D01*
X215590476Y-88439714D01*
X215685714Y-88487333D01*
X215733333Y-88534952D01*
X215780952Y-88630190D01*
X215780952Y-88820666D01*
X215828571Y-88915904D01*
X215876190Y-88963523D01*
X215971428Y-89011142D01*
X216161904Y-89011142D01*
X216257142Y-88963523D01*
X216304761Y-88915904D01*
X216352380Y-88820666D01*
X216352380Y-88630190D01*
X216304761Y-88534952D01*
X216257142Y-88487333D01*
X216161904Y-88439714D01*
X215971428Y-88439714D01*
X215876190Y-88487333D01*
X215828571Y-88534952D01*
X215780952Y-88630190D01*
X164600000Y-78620857D02*
X164552380Y-78716095D01*
X164552380Y-78858952D01*
X164600000Y-79001809D01*
X164695238Y-79097047D01*
X164790476Y-79144666D01*
X164980952Y-79192285D01*
X165123809Y-79192285D01*
X165314285Y-79144666D01*
X165409523Y-79097047D01*
X165504761Y-79001809D01*
X165552380Y-78858952D01*
X165552380Y-78763714D01*
X165504761Y-78620857D01*
X165457142Y-78573238D01*
X165123809Y-78573238D01*
X165123809Y-78763714D01*
X164885714Y-78144666D02*
X165552380Y-78144666D01*
X164980952Y-78144666D02*
X164933333Y-78097047D01*
X164885714Y-78001809D01*
X164885714Y-77858952D01*
X164933333Y-77763714D01*
X165028571Y-77716095D01*
X165552380Y-77716095D01*
X165552380Y-76811333D02*
X164552380Y-76811333D01*
X165504761Y-76811333D02*
X165552380Y-76906571D01*
X165552380Y-77097047D01*
X165504761Y-77192285D01*
X165457142Y-77239904D01*
X165361904Y-77287523D01*
X165076190Y-77287523D01*
X164980952Y-77239904D01*
X164933333Y-77192285D01*
X164885714Y-77097047D01*
X164885714Y-76906571D01*
X164933333Y-76811333D01*
X218606666Y-79200285D02*
X218606666Y-78724095D01*
X218892380Y-79295523D02*
X217892380Y-78962190D01*
X218892380Y-78628857D01*
X218892380Y-78247904D02*
X218892380Y-78057428D01*
X218844761Y-77962190D01*
X218797142Y-77914571D01*
X218654285Y-77819333D01*
X218463809Y-77771714D01*
X218082857Y-77771714D01*
X217987619Y-77819333D01*
X217940000Y-77866952D01*
X217892380Y-77962190D01*
X217892380Y-78152666D01*
X217940000Y-78247904D01*
X217987619Y-78295523D01*
X218082857Y-78343142D01*
X218320952Y-78343142D01*
X218416190Y-78295523D01*
X218463809Y-78247904D01*
X218511428Y-78152666D01*
X218511428Y-77962190D01*
X218463809Y-77866952D01*
X218416190Y-77819333D01*
X218320952Y-77771714D01*
X155106666Y-79168476D02*
X155106666Y-78692285D01*
X155392380Y-79263714D02*
X154392380Y-78930380D01*
X155392380Y-78597047D01*
X155392380Y-77739904D02*
X155392380Y-78311333D01*
X155392380Y-78025619D02*
X154392380Y-78025619D01*
X154535238Y-78120857D01*
X154630476Y-78216095D01*
X154678095Y-78311333D01*
X154487619Y-77358952D02*
X154440000Y-77311333D01*
X154392380Y-77216095D01*
X154392380Y-76978000D01*
X154440000Y-76882761D01*
X154487619Y-76835142D01*
X154582857Y-76787523D01*
X154678095Y-76787523D01*
X154820952Y-76835142D01*
X155392380Y-77406571D01*
X155392380Y-76787523D01*
X177712666Y-79200285D02*
X177712666Y-78724095D01*
X177998380Y-79295523D02*
X176998380Y-78962190D01*
X177998380Y-78628857D01*
X177093619Y-78343142D02*
X177046000Y-78295523D01*
X176998380Y-78200285D01*
X176998380Y-77962190D01*
X177046000Y-77866952D01*
X177093619Y-77819333D01*
X177188857Y-77771714D01*
X177284095Y-77771714D01*
X177426952Y-77819333D01*
X177998380Y-78390761D01*
X177998380Y-77771714D01*
X183332380Y-79271714D02*
X182332380Y-79271714D01*
X183332380Y-78700285D01*
X182332380Y-78700285D01*
X183237142Y-77652666D02*
X183284761Y-77700285D01*
X183332380Y-77843142D01*
X183332380Y-77938380D01*
X183284761Y-78081238D01*
X183189523Y-78176476D01*
X183094285Y-78224095D01*
X182903809Y-78271714D01*
X182760952Y-78271714D01*
X182570476Y-78224095D01*
X182475238Y-78176476D01*
X182380000Y-78081238D01*
X182332380Y-77938380D01*
X182332380Y-77843142D01*
X182380000Y-77700285D01*
X182427619Y-77652666D01*
X193492380Y-91463619D02*
X192492380Y-91463619D01*
X192492380Y-90796952D02*
X192492380Y-90606476D01*
X192540000Y-90511238D01*
X192635238Y-90416000D01*
X192825714Y-90368380D01*
X193159047Y-90368380D01*
X193349523Y-90416000D01*
X193444761Y-90511238D01*
X193492380Y-90606476D01*
X193492380Y-90796952D01*
X193444761Y-90892190D01*
X193349523Y-90987428D01*
X193159047Y-91035047D01*
X192825714Y-91035047D01*
X192635238Y-90987428D01*
X192540000Y-90892190D01*
X192492380Y-90796952D01*
X193492380Y-89368380D02*
X193016190Y-89701714D01*
X193492380Y-89939809D02*
X192492380Y-89939809D01*
X192492380Y-89558857D01*
X192540000Y-89463619D01*
X192587619Y-89416000D01*
X192682857Y-89368380D01*
X192825714Y-89368380D01*
X192920952Y-89416000D01*
X192968571Y-89463619D01*
X193016190Y-89558857D01*
X193016190Y-89939809D01*
X193587619Y-88273142D02*
X193540000Y-88368380D01*
X193444761Y-88463619D01*
X193301904Y-88606476D01*
X193254285Y-88701714D01*
X193254285Y-88796952D01*
X193492380Y-88749333D02*
X193444761Y-88844571D01*
X193349523Y-88939809D01*
X193159047Y-88987428D01*
X192825714Y-88987428D01*
X192635238Y-88939809D01*
X192540000Y-88844571D01*
X192492380Y-88749333D01*
X192492380Y-88558857D01*
X192540000Y-88463619D01*
X192635238Y-88368380D01*
X192825714Y-88320761D01*
X193159047Y-88320761D01*
X193349523Y-88368380D01*
X193444761Y-88463619D01*
X193492380Y-88558857D01*
X193492380Y-88749333D01*
X213812380Y-91289047D02*
X213336190Y-91622380D01*
X213812380Y-91860476D02*
X212812380Y-91860476D01*
X212812380Y-91479523D01*
X212860000Y-91384285D01*
X212907619Y-91336666D01*
X213002857Y-91289047D01*
X213145714Y-91289047D01*
X213240952Y-91336666D01*
X213288571Y-91384285D01*
X213336190Y-91479523D01*
X213336190Y-91860476D01*
X213288571Y-90527142D02*
X213288571Y-90860476D01*
X213812380Y-90860476D02*
X212812380Y-90860476D01*
X212812380Y-90384285D01*
X213764761Y-90050952D02*
X213812380Y-89908095D01*
X213812380Y-89670000D01*
X213764761Y-89574761D01*
X213717142Y-89527142D01*
X213621904Y-89479523D01*
X213526666Y-89479523D01*
X213431428Y-89527142D01*
X213383809Y-89574761D01*
X213336190Y-89670000D01*
X213288571Y-89860476D01*
X213240952Y-89955714D01*
X213193333Y-90003333D01*
X213098095Y-90050952D01*
X213002857Y-90050952D01*
X212907619Y-90003333D01*
X212860000Y-89955714D01*
X212812380Y-89860476D01*
X212812380Y-89622380D01*
X212860000Y-89479523D01*
X213812380Y-89050952D02*
X212812380Y-89050952D01*
X213288571Y-89050952D02*
X213288571Y-88479523D01*
X213812380Y-88479523D02*
X212812380Y-88479523D01*
X152566666Y-79168476D02*
X152566666Y-78692285D01*
X152852380Y-79263714D02*
X151852380Y-78930380D01*
X152852380Y-78597047D01*
X152852380Y-77739904D02*
X152852380Y-78311333D01*
X152852380Y-78025619D02*
X151852380Y-78025619D01*
X151995238Y-78120857D01*
X152090476Y-78216095D01*
X152138095Y-78311333D01*
X152185714Y-76882761D02*
X152852380Y-76882761D01*
X151804761Y-77120857D02*
X152519047Y-77358952D01*
X152519047Y-76739904D01*
X221432380Y-89939714D02*
X220432380Y-89939714D01*
X221432380Y-89368285D01*
X220432380Y-89368285D01*
X221337142Y-88320666D02*
X221384761Y-88368285D01*
X221432380Y-88511142D01*
X221432380Y-88606380D01*
X221384761Y-88749238D01*
X221289523Y-88844476D01*
X221194285Y-88892095D01*
X221003809Y-88939714D01*
X220860952Y-88939714D01*
X220670476Y-88892095D01*
X220575238Y-88844476D01*
X220480000Y-88749238D01*
X220432380Y-88606380D01*
X220432380Y-88511142D01*
X220480000Y-88368285D01*
X220527619Y-88320666D01*
X173172380Y-89892095D02*
X172172380Y-89892095D01*
X172172380Y-89654000D01*
X172220000Y-89511142D01*
X172315238Y-89415904D01*
X172410476Y-89368285D01*
X172600952Y-89320666D01*
X172743809Y-89320666D01*
X172934285Y-89368285D01*
X173029523Y-89415904D01*
X173124761Y-89511142D01*
X173172380Y-89654000D01*
X173172380Y-89892095D01*
X172172380Y-88463523D02*
X172172380Y-88654000D01*
X172220000Y-88749238D01*
X172267619Y-88796857D01*
X172410476Y-88892095D01*
X172600952Y-88939714D01*
X172981904Y-88939714D01*
X173077142Y-88892095D01*
X173124761Y-88844476D01*
X173172380Y-88749238D01*
X173172380Y-88558761D01*
X173124761Y-88463523D01*
X173077142Y-88415904D01*
X172981904Y-88368285D01*
X172743809Y-88368285D01*
X172648571Y-88415904D01*
X172600952Y-88463523D01*
X172553333Y-88558761D01*
X172553333Y-88749238D01*
X172600952Y-88844476D01*
X172648571Y-88892095D01*
X172743809Y-88939714D01*
X170632380Y-89892095D02*
X169632380Y-89892095D01*
X169632380Y-89654000D01*
X169680000Y-89511142D01*
X169775238Y-89415904D01*
X169870476Y-89368285D01*
X170060952Y-89320666D01*
X170203809Y-89320666D01*
X170394285Y-89368285D01*
X170489523Y-89415904D01*
X170584761Y-89511142D01*
X170632380Y-89654000D01*
X170632380Y-89892095D01*
X169727619Y-88939714D02*
X169680000Y-88892095D01*
X169632380Y-88796857D01*
X169632380Y-88558761D01*
X169680000Y-88463523D01*
X169727619Y-88415904D01*
X169822857Y-88368285D01*
X169918095Y-88368285D01*
X170060952Y-88415904D01*
X170632380Y-88987333D01*
X170632380Y-88368285D01*
X152566666Y-90598476D02*
X152566666Y-90122285D01*
X152852380Y-90693714D02*
X151852380Y-90360380D01*
X152852380Y-90027047D01*
X152852380Y-89169904D02*
X152852380Y-89741333D01*
X152852380Y-89455619D02*
X151852380Y-89455619D01*
X151995238Y-89550857D01*
X152090476Y-89646095D01*
X152138095Y-89741333D01*
X151852380Y-88265142D02*
X151852380Y-88741333D01*
X152328571Y-88788952D01*
X152280952Y-88741333D01*
X152233333Y-88646095D01*
X152233333Y-88408000D01*
X152280952Y-88312761D01*
X152328571Y-88265142D01*
X152423809Y-88217523D01*
X152661904Y-88217523D01*
X152757142Y-88265142D01*
X152804761Y-88312761D01*
X152852380Y-88408000D01*
X152852380Y-88646095D01*
X152804761Y-88741333D01*
X152757142Y-88788952D01*
X192492380Y-79327333D02*
X193492380Y-78994000D01*
X192492380Y-78660666D01*
X190952380Y-91979523D02*
X189952380Y-91979523D01*
X190666666Y-91646190D01*
X189952380Y-91312857D01*
X190952380Y-91312857D01*
X190952380Y-90265238D02*
X190476190Y-90598571D01*
X190952380Y-90836666D02*
X189952380Y-90836666D01*
X189952380Y-90455714D01*
X190000000Y-90360476D01*
X190047619Y-90312857D01*
X190142857Y-90265238D01*
X190285714Y-90265238D01*
X190380952Y-90312857D01*
X190428571Y-90360476D01*
X190476190Y-90455714D01*
X190476190Y-90836666D01*
X190428571Y-89836666D02*
X190428571Y-89503333D01*
X190952380Y-89360476D02*
X190952380Y-89836666D01*
X189952380Y-89836666D01*
X189952380Y-89360476D01*
X191047619Y-88265238D02*
X191000000Y-88360476D01*
X190904761Y-88455714D01*
X190761904Y-88598571D01*
X190714285Y-88693809D01*
X190714285Y-88789047D01*
X190952380Y-88741428D02*
X190904761Y-88836666D01*
X190809523Y-88931904D01*
X190619047Y-88979523D01*
X190285714Y-88979523D01*
X190095238Y-88931904D01*
X190000000Y-88836666D01*
X189952380Y-88741428D01*
X189952380Y-88550952D01*
X190000000Y-88455714D01*
X190095238Y-88360476D01*
X190285714Y-88312857D01*
X190619047Y-88312857D01*
X190809523Y-88360476D01*
X190904761Y-88455714D01*
X190952380Y-88550952D01*
X190952380Y-88741428D01*
X201127380Y-78652380D02*
X200651190Y-78985714D01*
X201127380Y-79223809D02*
X200127380Y-79223809D01*
X200127380Y-78842857D01*
X200175000Y-78747619D01*
X200222619Y-78700000D01*
X200317857Y-78652380D01*
X200460714Y-78652380D01*
X200555952Y-78700000D01*
X200603571Y-78747619D01*
X200651190Y-78842857D01*
X200651190Y-79223809D01*
X200603571Y-78223809D02*
X200603571Y-77890476D01*
X201127380Y-77747619D02*
X201127380Y-78223809D01*
X200127380Y-78223809D01*
X200127380Y-77747619D01*
X201079761Y-77366666D02*
X201127380Y-77223809D01*
X201127380Y-76985714D01*
X201079761Y-76890476D01*
X201032142Y-76842857D01*
X200936904Y-76795238D01*
X200841666Y-76795238D01*
X200746428Y-76842857D01*
X200698809Y-76890476D01*
X200651190Y-76985714D01*
X200603571Y-77176190D01*
X200555952Y-77271428D01*
X200508333Y-77319047D01*
X200413095Y-77366666D01*
X200317857Y-77366666D01*
X200222619Y-77319047D01*
X200175000Y-77271428D01*
X200127380Y-77176190D01*
X200127380Y-76938095D01*
X200175000Y-76795238D01*
X200603571Y-76366666D02*
X200603571Y-76033333D01*
X201127380Y-75890476D02*
X201127380Y-76366666D01*
X200127380Y-76366666D01*
X200127380Y-75890476D01*
X200127380Y-75604761D02*
X200127380Y-75033333D01*
X201127380Y-75319047D02*
X200127380Y-75319047D01*
X175712380Y-89892095D02*
X174712380Y-89892095D01*
X174712380Y-89654000D01*
X174760000Y-89511142D01*
X174855238Y-89415904D01*
X174950476Y-89368285D01*
X175140952Y-89320666D01*
X175283809Y-89320666D01*
X175474285Y-89368285D01*
X175569523Y-89415904D01*
X175664761Y-89511142D01*
X175712380Y-89654000D01*
X175712380Y-89892095D01*
X174712380Y-88415904D02*
X174712380Y-88892095D01*
X175188571Y-88939714D01*
X175140952Y-88892095D01*
X175093333Y-88796857D01*
X175093333Y-88558761D01*
X175140952Y-88463523D01*
X175188571Y-88415904D01*
X175283809Y-88368285D01*
X175521904Y-88368285D01*
X175617142Y-88415904D01*
X175664761Y-88463523D01*
X175712380Y-88558761D01*
X175712380Y-88796857D01*
X175664761Y-88892095D01*
X175617142Y-88939714D01*
X172886666Y-79200285D02*
X172886666Y-78724095D01*
X173172380Y-79295523D02*
X172172380Y-78962190D01*
X173172380Y-78628857D01*
X172172380Y-78105047D02*
X172172380Y-78009809D01*
X172220000Y-77914571D01*
X172267619Y-77866952D01*
X172362857Y-77819333D01*
X172553333Y-77771714D01*
X172791428Y-77771714D01*
X172981904Y-77819333D01*
X173077142Y-77866952D01*
X173124761Y-77914571D01*
X173172380Y-78009809D01*
X173172380Y-78105047D01*
X173124761Y-78200285D01*
X173077142Y-78247904D01*
X172981904Y-78295523D01*
X172791428Y-78343142D01*
X172553333Y-78343142D01*
X172362857Y-78295523D01*
X172267619Y-78247904D01*
X172220000Y-78200285D01*
X172172380Y-78105047D01*
X218606666Y-90852476D02*
X218606666Y-90376285D01*
X218892380Y-90947714D02*
X217892380Y-90614380D01*
X218892380Y-90281047D01*
X218892380Y-89423904D02*
X218892380Y-89995333D01*
X218892380Y-89709619D02*
X217892380Y-89709619D01*
X218035238Y-89804857D01*
X218130476Y-89900095D01*
X218178095Y-89995333D01*
X217892380Y-88804857D02*
X217892380Y-88709619D01*
X217940000Y-88614380D01*
X217987619Y-88566761D01*
X218082857Y-88519142D01*
X218273333Y-88471523D01*
X218511428Y-88471523D01*
X218701904Y-88519142D01*
X218797142Y-88566761D01*
X218844761Y-88614380D01*
X218892380Y-88709619D01*
X218892380Y-88804857D01*
X218844761Y-88900095D01*
X218797142Y-88947714D01*
X218701904Y-88995333D01*
X218511428Y-89042952D01*
X218273333Y-89042952D01*
X218082857Y-88995333D01*
X217987619Y-88947714D01*
X217940000Y-88900095D01*
X217892380Y-88804857D01*
X221146666Y-79168476D02*
X221146666Y-78692285D01*
X221432380Y-79263714D02*
X220432380Y-78930380D01*
X221432380Y-78597047D01*
X221432380Y-77739904D02*
X221432380Y-78311333D01*
X221432380Y-78025619D02*
X220432380Y-78025619D01*
X220575238Y-78120857D01*
X220670476Y-78216095D01*
X220718095Y-78311333D01*
X221432380Y-76787523D02*
X221432380Y-77358952D01*
X221432380Y-77073238D02*
X220432380Y-77073238D01*
X220575238Y-77168476D01*
X220670476Y-77263714D01*
X220718095Y-77358952D01*
X208446666Y-79200285D02*
X208446666Y-78724095D01*
X208732380Y-79295523D02*
X207732380Y-78962190D01*
X208732380Y-78628857D01*
X207732380Y-77819333D02*
X207732380Y-78295523D01*
X208208571Y-78343142D01*
X208160952Y-78295523D01*
X208113333Y-78200285D01*
X208113333Y-77962190D01*
X208160952Y-77866952D01*
X208208571Y-77819333D01*
X208303809Y-77771714D01*
X208541904Y-77771714D01*
X208637142Y-77819333D01*
X208684761Y-77866952D01*
X208732380Y-77962190D01*
X208732380Y-78200285D01*
X208684761Y-78295523D01*
X208637142Y-78343142D01*
X210986666Y-79200285D02*
X210986666Y-78724095D01*
X211272380Y-79295523D02*
X210272380Y-78962190D01*
X211272380Y-78628857D01*
X210605714Y-77866952D02*
X211272380Y-77866952D01*
X210224761Y-78105047D02*
X210939047Y-78343142D01*
X210939047Y-77724095D01*
X188412380Y-91416000D02*
X187412380Y-91416000D01*
X187888571Y-91416000D02*
X187888571Y-90844571D01*
X188412380Y-90844571D02*
X187412380Y-90844571D01*
X188126666Y-90416000D02*
X188126666Y-89939809D01*
X188412380Y-90511238D02*
X187412380Y-90177904D01*
X188412380Y-89844571D01*
X188412380Y-89035047D02*
X188412380Y-89511238D01*
X187412380Y-89511238D01*
X187412380Y-88844571D02*
X187412380Y-88273142D01*
X188412380Y-88558857D02*
X187412380Y-88558857D01*
X167140000Y-78620857D02*
X167092380Y-78716095D01*
X167092380Y-78858952D01*
X167140000Y-79001809D01*
X167235238Y-79097047D01*
X167330476Y-79144666D01*
X167520952Y-79192285D01*
X167663809Y-79192285D01*
X167854285Y-79144666D01*
X167949523Y-79097047D01*
X168044761Y-79001809D01*
X168092380Y-78858952D01*
X168092380Y-78763714D01*
X168044761Y-78620857D01*
X167997142Y-78573238D01*
X167663809Y-78573238D01*
X167663809Y-78763714D01*
X167425714Y-78144666D02*
X168092380Y-78144666D01*
X167520952Y-78144666D02*
X167473333Y-78097047D01*
X167425714Y-78001809D01*
X167425714Y-77858952D01*
X167473333Y-77763714D01*
X167568571Y-77716095D01*
X168092380Y-77716095D01*
X168092380Y-76811333D02*
X167092380Y-76811333D01*
X168044761Y-76811333D02*
X168092380Y-76906571D01*
X168092380Y-77097047D01*
X168044761Y-77192285D01*
X167997142Y-77239904D01*
X167901904Y-77287523D01*
X167616190Y-77287523D01*
X167520952Y-77239904D01*
X167473333Y-77192285D01*
X167425714Y-77097047D01*
X167425714Y-76906571D01*
X167473333Y-76811333D01*
X178252380Y-89892095D02*
X177252380Y-89892095D01*
X177252380Y-89654000D01*
X177300000Y-89511142D01*
X177395238Y-89415904D01*
X177490476Y-89368285D01*
X177680952Y-89320666D01*
X177823809Y-89320666D01*
X178014285Y-89368285D01*
X178109523Y-89415904D01*
X178204761Y-89511142D01*
X178252380Y-89654000D01*
X178252380Y-89892095D01*
X177252380Y-88987333D02*
X177252380Y-88368285D01*
X177633333Y-88701619D01*
X177633333Y-88558761D01*
X177680952Y-88463523D01*
X177728571Y-88415904D01*
X177823809Y-88368285D01*
X178061904Y-88368285D01*
X178157142Y-88415904D01*
X178204761Y-88463523D01*
X178252380Y-88558761D01*
X178252380Y-88844476D01*
X178204761Y-88939714D01*
X178157142Y-88987333D01*
X184920000Y-78620857D02*
X184872380Y-78716095D01*
X184872380Y-78858952D01*
X184920000Y-79001809D01*
X185015238Y-79097047D01*
X185110476Y-79144666D01*
X185300952Y-79192285D01*
X185443809Y-79192285D01*
X185634285Y-79144666D01*
X185729523Y-79097047D01*
X185824761Y-79001809D01*
X185872380Y-78858952D01*
X185872380Y-78763714D01*
X185824761Y-78620857D01*
X185777142Y-78573238D01*
X185443809Y-78573238D01*
X185443809Y-78763714D01*
X185205714Y-78144666D02*
X185872380Y-78144666D01*
X185300952Y-78144666D02*
X185253333Y-78097047D01*
X185205714Y-78001809D01*
X185205714Y-77858952D01*
X185253333Y-77763714D01*
X185348571Y-77716095D01*
X185872380Y-77716095D01*
X185872380Y-76811333D02*
X184872380Y-76811333D01*
X185824761Y-76811333D02*
X185872380Y-76906571D01*
X185872380Y-77097047D01*
X185824761Y-77192285D01*
X185777142Y-77239904D01*
X185681904Y-77287523D01*
X185396190Y-77287523D01*
X185300952Y-77239904D01*
X185253333Y-77192285D01*
X185205714Y-77097047D01*
X185205714Y-76906571D01*
X185253333Y-76811333D01*
X197572380Y-90336571D02*
X198572380Y-90098476D01*
X197858095Y-89908000D01*
X198572380Y-89717523D01*
X197572380Y-89479428D01*
X198572380Y-88527047D02*
X198096190Y-88860380D01*
X198572380Y-89098476D02*
X197572380Y-89098476D01*
X197572380Y-88717523D01*
X197620000Y-88622285D01*
X197667619Y-88574666D01*
X197762857Y-88527047D01*
X197905714Y-88527047D01*
X198000952Y-88574666D01*
X198048571Y-88622285D01*
X198096190Y-88717523D01*
X198096190Y-89098476D01*
X213812380Y-78723904D02*
X213336190Y-79057238D01*
X213812380Y-79295333D02*
X212812380Y-79295333D01*
X212812380Y-78914380D01*
X212860000Y-78819142D01*
X212907619Y-78771523D01*
X213002857Y-78723904D01*
X213145714Y-78723904D01*
X213240952Y-78771523D01*
X213288571Y-78819142D01*
X213336190Y-78914380D01*
X213336190Y-79295333D01*
X212812380Y-78104857D02*
X212812380Y-77914380D01*
X212860000Y-77819142D01*
X212955238Y-77723904D01*
X213145714Y-77676285D01*
X213479047Y-77676285D01*
X213669523Y-77723904D01*
X213764761Y-77819142D01*
X213812380Y-77914380D01*
X213812380Y-78104857D01*
X213764761Y-78200095D01*
X213669523Y-78295333D01*
X213479047Y-78342952D01*
X213145714Y-78342952D01*
X212955238Y-78295333D01*
X212860000Y-78200095D01*
X212812380Y-78104857D01*
X213812380Y-77247714D02*
X212812380Y-77247714D01*
X213526666Y-76914380D01*
X212812380Y-76581047D01*
X213812380Y-76581047D01*
X213717142Y-75533428D02*
X213764761Y-75581047D01*
X213812380Y-75723904D01*
X213812380Y-75819142D01*
X213764761Y-75962000D01*
X213669523Y-76057238D01*
X213574285Y-76104857D01*
X213383809Y-76152476D01*
X213240952Y-76152476D01*
X213050476Y-76104857D01*
X212955238Y-76057238D01*
X212860000Y-75962000D01*
X212812380Y-75819142D01*
X212812380Y-75723904D01*
X212860000Y-75581047D01*
X212907619Y-75533428D01*
X213764761Y-75152476D02*
X213812380Y-75009619D01*
X213812380Y-74771523D01*
X213764761Y-74676285D01*
X213717142Y-74628666D01*
X213621904Y-74581047D01*
X213526666Y-74581047D01*
X213431428Y-74628666D01*
X213383809Y-74676285D01*
X213336190Y-74771523D01*
X213288571Y-74962000D01*
X213240952Y-75057238D01*
X213193333Y-75104857D01*
X213098095Y-75152476D01*
X213002857Y-75152476D01*
X212907619Y-75104857D01*
X212860000Y-75057238D01*
X212812380Y-74962000D01*
X212812380Y-74723904D01*
X212860000Y-74581047D01*
X196032380Y-89344476D02*
X195556190Y-89677809D01*
X196032380Y-89915904D02*
X195032380Y-89915904D01*
X195032380Y-89534952D01*
X195080000Y-89439714D01*
X195127619Y-89392095D01*
X195222857Y-89344476D01*
X195365714Y-89344476D01*
X195460952Y-89392095D01*
X195508571Y-89439714D01*
X195556190Y-89534952D01*
X195556190Y-89915904D01*
X196032380Y-88915904D02*
X195032380Y-88915904D01*
X195032380Y-88677809D01*
X195080000Y-88534952D01*
X195175238Y-88439714D01*
X195270476Y-88392095D01*
X195460952Y-88344476D01*
X195603809Y-88344476D01*
X195794285Y-88392095D01*
X195889523Y-88439714D01*
X195984761Y-88534952D01*
X196032380Y-88677809D01*
X196032380Y-88915904D01*
X165552380Y-89892095D02*
X164552380Y-89892095D01*
X164552380Y-89654000D01*
X164600000Y-89511142D01*
X164695238Y-89415904D01*
X164790476Y-89368285D01*
X164980952Y-89320666D01*
X165123809Y-89320666D01*
X165314285Y-89368285D01*
X165409523Y-89415904D01*
X165504761Y-89511142D01*
X165552380Y-89654000D01*
X165552380Y-89892095D01*
X164552380Y-88701619D02*
X164552380Y-88606380D01*
X164600000Y-88511142D01*
X164647619Y-88463523D01*
X164742857Y-88415904D01*
X164933333Y-88368285D01*
X165171428Y-88368285D01*
X165361904Y-88415904D01*
X165457142Y-88463523D01*
X165504761Y-88511142D01*
X165552380Y-88606380D01*
X165552380Y-88701619D01*
X165504761Y-88796857D01*
X165457142Y-88844476D01*
X165361904Y-88892095D01*
X165171428Y-88939714D01*
X164933333Y-88939714D01*
X164742857Y-88892095D01*
X164647619Y-88844476D01*
X164600000Y-88796857D01*
X164552380Y-88701619D01*
X190476190Y-78994000D02*
X190952380Y-78994000D01*
X189952380Y-79327333D02*
X190476190Y-78994000D01*
X189952380Y-78660666D01*
X157551428Y-79263714D02*
X157551428Y-78501809D01*
X157932380Y-78882761D02*
X157170476Y-78882761D01*
X156932380Y-77549428D02*
X156932380Y-78025619D01*
X157408571Y-78073238D01*
X157360952Y-78025619D01*
X157313333Y-77930380D01*
X157313333Y-77692285D01*
X157360952Y-77597047D01*
X157408571Y-77549428D01*
X157503809Y-77501809D01*
X157741904Y-77501809D01*
X157837142Y-77549428D01*
X157884761Y-77597047D01*
X157932380Y-77692285D01*
X157932380Y-77930380D01*
X157884761Y-78025619D01*
X157837142Y-78073238D01*
X156932380Y-77216095D02*
X157932380Y-76882761D01*
X156932380Y-76549428D01*
X202652380Y-91392190D02*
X203652380Y-91154095D01*
X202938095Y-90963619D01*
X203652380Y-90773142D01*
X202652380Y-90535047D01*
X203366666Y-90201714D02*
X203366666Y-89725523D01*
X203652380Y-90296952D02*
X202652380Y-89963619D01*
X203652380Y-89630285D01*
X203652380Y-89296952D02*
X202652380Y-89296952D01*
X202652380Y-88963619D02*
X202652380Y-88392190D01*
X203652380Y-88677904D02*
X202652380Y-88677904D01*
X180506666Y-79200285D02*
X180506666Y-78724095D01*
X180792380Y-79295523D02*
X179792380Y-78962190D01*
X180792380Y-78628857D01*
X179792380Y-78390761D02*
X179792380Y-77771714D01*
X180173333Y-78105047D01*
X180173333Y-77962190D01*
X180220952Y-77866952D01*
X180268571Y-77819333D01*
X180363809Y-77771714D01*
X180601904Y-77771714D01*
X180697142Y-77819333D01*
X180744761Y-77866952D01*
X180792380Y-77962190D01*
X180792380Y-78247904D01*
X180744761Y-78343142D01*
X180697142Y-78390761D01*
X180792380Y-89892095D02*
X179792380Y-89892095D01*
X179792380Y-89654000D01*
X179840000Y-89511142D01*
X179935238Y-89415904D01*
X180030476Y-89368285D01*
X180220952Y-89320666D01*
X180363809Y-89320666D01*
X180554285Y-89368285D01*
X180649523Y-89415904D01*
X180744761Y-89511142D01*
X180792380Y-89654000D01*
X180792380Y-89892095D01*
X180125714Y-88463523D02*
X180792380Y-88463523D01*
X179744761Y-88701619D02*
X180459047Y-88939714D01*
X180459047Y-88320666D01*
X155106666Y-90598476D02*
X155106666Y-90122285D01*
X155392380Y-90693714D02*
X154392380Y-90360380D01*
X155392380Y-90027047D01*
X155392380Y-89169904D02*
X155392380Y-89741333D01*
X155392380Y-89455619D02*
X154392380Y-89455619D01*
X154535238Y-89550857D01*
X154630476Y-89646095D01*
X154678095Y-89741333D01*
X154392380Y-88836571D02*
X154392380Y-88217523D01*
X154773333Y-88550857D01*
X154773333Y-88408000D01*
X154820952Y-88312761D01*
X154868571Y-88265142D01*
X154963809Y-88217523D01*
X155201904Y-88217523D01*
X155297142Y-88265142D01*
X155344761Y-88312761D01*
X155392380Y-88408000D01*
X155392380Y-88693714D01*
X155344761Y-88788952D01*
X155297142Y-88836571D01*
X215828571Y-78819142D02*
X215876190Y-78676285D01*
X215923809Y-78628666D01*
X216019047Y-78581047D01*
X216161904Y-78581047D01*
X216257142Y-78628666D01*
X216304761Y-78676285D01*
X216352380Y-78771523D01*
X216352380Y-79152476D01*
X215352380Y-79152476D01*
X215352380Y-78819142D01*
X215400000Y-78723904D01*
X215447619Y-78676285D01*
X215542857Y-78628666D01*
X215638095Y-78628666D01*
X215733333Y-78676285D01*
X215780952Y-78723904D01*
X215828571Y-78819142D01*
X215828571Y-79152476D01*
X215352380Y-78152476D02*
X216161904Y-78152476D01*
X216257142Y-78104857D01*
X216304761Y-78057238D01*
X216352380Y-77962000D01*
X216352380Y-77771523D01*
X216304761Y-77676285D01*
X216257142Y-77628666D01*
X216161904Y-77581047D01*
X215352380Y-77581047D01*
X216304761Y-77152476D02*
X216352380Y-77009619D01*
X216352380Y-76771523D01*
X216304761Y-76676285D01*
X216257142Y-76628666D01*
X216161904Y-76581047D01*
X216066666Y-76581047D01*
X215971428Y-76628666D01*
X215923809Y-76676285D01*
X215876190Y-76771523D01*
X215828571Y-76962000D01*
X215780952Y-77057238D01*
X215733333Y-77104857D01*
X215638095Y-77152476D01*
X215542857Y-77152476D01*
X215447619Y-77104857D01*
X215400000Y-77057238D01*
X215352380Y-76962000D01*
X215352380Y-76723904D01*
X215400000Y-76581047D01*
X216066666Y-76200095D02*
X216066666Y-75723904D01*
X216352380Y-76295333D02*
X215352380Y-75962000D01*
X216352380Y-75628666D01*
X216352380Y-75295333D02*
X215352380Y-75295333D01*
X216352380Y-74723904D02*
X215780952Y-75152476D01*
X215352380Y-74723904D02*
X215923809Y-75295333D01*
X160472380Y-89939714D02*
X159472380Y-89939714D01*
X160472380Y-89368285D01*
X159472380Y-89368285D01*
X160377142Y-88320666D02*
X160424761Y-88368285D01*
X160472380Y-88511142D01*
X160472380Y-88606380D01*
X160424761Y-88749238D01*
X160329523Y-88844476D01*
X160234285Y-88892095D01*
X160043809Y-88939714D01*
X159900952Y-88939714D01*
X159710476Y-88892095D01*
X159615238Y-88844476D01*
X159520000Y-88749238D01*
X159472380Y-88606380D01*
X159472380Y-88511142D01*
X159520000Y-88368285D01*
X159567619Y-88320666D01*
X195032380Y-79279714D02*
X195841904Y-79279714D01*
X195937142Y-79232095D01*
X195984761Y-79184476D01*
X196032380Y-79089238D01*
X196032380Y-78898761D01*
X195984761Y-78803523D01*
X195937142Y-78755904D01*
X195841904Y-78708285D01*
X195032380Y-78708285D01*
%TO.C,U4*%
X222872380Y-104901904D02*
X223681904Y-104901904D01*
X223777142Y-104854285D01*
X223824761Y-104806666D01*
X223872380Y-104711428D01*
X223872380Y-104520952D01*
X223824761Y-104425714D01*
X223777142Y-104378095D01*
X223681904Y-104330476D01*
X222872380Y-104330476D01*
X223205714Y-103425714D02*
X223872380Y-103425714D01*
X222824761Y-103663809D02*
X223539047Y-103901904D01*
X223539047Y-103282857D01*
X175172666Y-99520285D02*
X175172666Y-99044095D01*
X175458380Y-99615523D02*
X174458380Y-99282190D01*
X175458380Y-98948857D01*
X175458380Y-98091714D02*
X175458380Y-98663142D01*
X175458380Y-98377428D02*
X174458380Y-98377428D01*
X174601238Y-98472666D01*
X174696476Y-98567904D01*
X174744095Y-98663142D01*
X203366666Y-99520285D02*
X203366666Y-99044095D01*
X203652380Y-99615523D02*
X202652380Y-99282190D01*
X203652380Y-98948857D01*
X202652380Y-98710761D02*
X202652380Y-98044095D01*
X203652380Y-98472666D01*
X170537142Y-98909142D02*
X170584761Y-98956761D01*
X170632380Y-99099619D01*
X170632380Y-99194857D01*
X170584761Y-99337714D01*
X170489523Y-99432952D01*
X170394285Y-99480571D01*
X170203809Y-99528190D01*
X170060952Y-99528190D01*
X169870476Y-99480571D01*
X169775238Y-99432952D01*
X169680000Y-99337714D01*
X169632380Y-99194857D01*
X169632380Y-99099619D01*
X169680000Y-98956761D01*
X169727619Y-98909142D01*
X170632380Y-98337714D02*
X170584761Y-98432952D01*
X170489523Y-98480571D01*
X169632380Y-98480571D01*
X170632380Y-97956761D02*
X169632380Y-97956761D01*
X170251428Y-97861523D02*
X170632380Y-97575809D01*
X169965714Y-97575809D02*
X170346666Y-97956761D01*
X183332380Y-110632761D02*
X182332380Y-110632761D01*
X183332380Y-110156571D02*
X182332380Y-110156571D01*
X183332380Y-109585142D01*
X182332380Y-109585142D01*
X182332380Y-109251809D02*
X182332380Y-108680380D01*
X183332380Y-108966095D02*
X182332380Y-108966095D01*
X205811428Y-112251904D02*
X205811428Y-111490000D01*
X206192380Y-111870952D02*
X205430476Y-111870952D01*
X206192380Y-110490000D02*
X206192380Y-111061428D01*
X206192380Y-110775714D02*
X205192380Y-110775714D01*
X205335238Y-110870952D01*
X205430476Y-110966190D01*
X205478095Y-111061428D01*
X205287619Y-110109047D02*
X205240000Y-110061428D01*
X205192380Y-109966190D01*
X205192380Y-109728095D01*
X205240000Y-109632857D01*
X205287619Y-109585238D01*
X205382857Y-109537619D01*
X205478095Y-109537619D01*
X205620952Y-109585238D01*
X206192380Y-110156666D01*
X206192380Y-109537619D01*
X205192380Y-109251904D02*
X206192380Y-108918571D01*
X205192380Y-108585238D01*
X160091428Y-99583714D02*
X160091428Y-98821809D01*
X160472380Y-99202761D02*
X159710476Y-99202761D01*
X160472380Y-98298000D02*
X160472380Y-98107523D01*
X160424761Y-98012285D01*
X160377142Y-97964666D01*
X160234285Y-97869428D01*
X160043809Y-97821809D01*
X159662857Y-97821809D01*
X159567619Y-97869428D01*
X159520000Y-97917047D01*
X159472380Y-98012285D01*
X159472380Y-98202761D01*
X159520000Y-98298000D01*
X159567619Y-98345619D01*
X159662857Y-98393238D01*
X159900952Y-98393238D01*
X159996190Y-98345619D01*
X160043809Y-98298000D01*
X160091428Y-98202761D01*
X160091428Y-98012285D01*
X160043809Y-97917047D01*
X159996190Y-97869428D01*
X159900952Y-97821809D01*
X159472380Y-97536095D02*
X160472380Y-97202761D01*
X159472380Y-96869428D01*
X211272380Y-110283523D02*
X210272380Y-110283523D01*
X210986666Y-109950190D01*
X210272380Y-109616857D01*
X211272380Y-109616857D01*
X211272380Y-108616857D02*
X211272380Y-109188285D01*
X211272380Y-108902571D02*
X210272380Y-108902571D01*
X210415238Y-108997809D01*
X210510476Y-109093047D01*
X210558095Y-109188285D01*
X200731428Y-111521714D02*
X200731428Y-110759809D01*
X200112380Y-109807428D02*
X200112380Y-110283619D01*
X200588571Y-110331238D01*
X200540952Y-110283619D01*
X200493333Y-110188380D01*
X200493333Y-109950285D01*
X200540952Y-109855047D01*
X200588571Y-109807428D01*
X200683809Y-109759809D01*
X200921904Y-109759809D01*
X201017142Y-109807428D01*
X201064761Y-109855047D01*
X201112380Y-109950285D01*
X201112380Y-110188380D01*
X201064761Y-110283619D01*
X201017142Y-110331238D01*
X200112380Y-109474095D02*
X201112380Y-109140761D01*
X200112380Y-108807428D01*
X205906666Y-99520285D02*
X205906666Y-99044095D01*
X206192380Y-99615523D02*
X205192380Y-99282190D01*
X206192380Y-98948857D01*
X205192380Y-98186952D02*
X205192380Y-98377428D01*
X205240000Y-98472666D01*
X205287619Y-98520285D01*
X205430476Y-98615523D01*
X205620952Y-98663142D01*
X206001904Y-98663142D01*
X206097142Y-98615523D01*
X206144761Y-98567904D01*
X206192380Y-98472666D01*
X206192380Y-98282190D01*
X206144761Y-98186952D01*
X206097142Y-98139333D01*
X206001904Y-98091714D01*
X205763809Y-98091714D01*
X205668571Y-98139333D01*
X205620952Y-98186952D01*
X205573333Y-98282190D01*
X205573333Y-98472666D01*
X205620952Y-98567904D01*
X205668571Y-98615523D01*
X205763809Y-98663142D01*
X184229523Y-111974380D02*
X184800952Y-111974380D01*
X184515238Y-112974380D02*
X184515238Y-111974380D01*
X185277142Y-112974380D02*
X185181904Y-112926761D01*
X185134285Y-112879142D01*
X185086666Y-112783904D01*
X185086666Y-112498190D01*
X185134285Y-112402952D01*
X185181904Y-112355333D01*
X185277142Y-112307714D01*
X185420000Y-112307714D01*
X185515238Y-112355333D01*
X185562857Y-112402952D01*
X185610476Y-112498190D01*
X185610476Y-112783904D01*
X185562857Y-112879142D01*
X185515238Y-112926761D01*
X185420000Y-112974380D01*
X185277142Y-112974380D01*
X186039047Y-112307714D02*
X186039047Y-113307714D01*
X186039047Y-112355333D02*
X186134285Y-112307714D01*
X186324761Y-112307714D01*
X186420000Y-112355333D01*
X186467619Y-112402952D01*
X186515238Y-112498190D01*
X186515238Y-112783904D01*
X186467619Y-112879142D01*
X186420000Y-112926761D01*
X186324761Y-112974380D01*
X186134285Y-112974380D01*
X186039047Y-112926761D01*
X168092380Y-110212095D02*
X167092380Y-110212095D01*
X167092380Y-109974000D01*
X167140000Y-109831142D01*
X167235238Y-109735904D01*
X167330476Y-109688285D01*
X167520952Y-109640666D01*
X167663809Y-109640666D01*
X167854285Y-109688285D01*
X167949523Y-109735904D01*
X168044761Y-109831142D01*
X168092380Y-109974000D01*
X168092380Y-110212095D01*
X168092380Y-108688285D02*
X168092380Y-109259714D01*
X168092380Y-108974000D02*
X167092380Y-108974000D01*
X167235238Y-109069238D01*
X167330476Y-109164476D01*
X167378095Y-109259714D01*
X208351428Y-112251904D02*
X208351428Y-111490000D01*
X208732380Y-110490000D02*
X208732380Y-111061428D01*
X208732380Y-110775714D02*
X207732380Y-110775714D01*
X207875238Y-110870952D01*
X207970476Y-110966190D01*
X208018095Y-111061428D01*
X207827619Y-110109047D02*
X207780000Y-110061428D01*
X207732380Y-109966190D01*
X207732380Y-109728095D01*
X207780000Y-109632857D01*
X207827619Y-109585238D01*
X207922857Y-109537619D01*
X208018095Y-109537619D01*
X208160952Y-109585238D01*
X208732380Y-110156666D01*
X208732380Y-109537619D01*
X207732380Y-109251904D02*
X208732380Y-108918571D01*
X207732380Y-108585238D01*
X158186380Y-110212095D02*
X157186380Y-110212095D01*
X157186380Y-109974000D01*
X157234000Y-109831142D01*
X157329238Y-109735904D01*
X157424476Y-109688285D01*
X157614952Y-109640666D01*
X157757809Y-109640666D01*
X157948285Y-109688285D01*
X158043523Y-109735904D01*
X158138761Y-109831142D01*
X158186380Y-109974000D01*
X158186380Y-110212095D01*
X157186380Y-109307333D02*
X157186380Y-108640666D01*
X158186380Y-109069238D01*
X198048571Y-99234380D02*
X198096190Y-99091523D01*
X198143809Y-99043904D01*
X198239047Y-98996285D01*
X198381904Y-98996285D01*
X198477142Y-99043904D01*
X198524761Y-99091523D01*
X198572380Y-99186761D01*
X198572380Y-99567714D01*
X197572380Y-99567714D01*
X197572380Y-99234380D01*
X197620000Y-99139142D01*
X197667619Y-99091523D01*
X197762857Y-99043904D01*
X197858095Y-99043904D01*
X197953333Y-99091523D01*
X198000952Y-99139142D01*
X198048571Y-99234380D01*
X198048571Y-99567714D01*
X197572380Y-98567714D02*
X198381904Y-98567714D01*
X198477142Y-98520095D01*
X198524761Y-98472476D01*
X198572380Y-98377238D01*
X198572380Y-98186761D01*
X198524761Y-98091523D01*
X198477142Y-98043904D01*
X198381904Y-97996285D01*
X197572380Y-97996285D01*
X198524761Y-97567714D02*
X198572380Y-97424857D01*
X198572380Y-97186761D01*
X198524761Y-97091523D01*
X198477142Y-97043904D01*
X198381904Y-96996285D01*
X198286666Y-96996285D01*
X198191428Y-97043904D01*
X198143809Y-97091523D01*
X198096190Y-97186761D01*
X198048571Y-97377238D01*
X198000952Y-97472476D01*
X197953333Y-97520095D01*
X197858095Y-97567714D01*
X197762857Y-97567714D01*
X197667619Y-97520095D01*
X197620000Y-97472476D01*
X197572380Y-97377238D01*
X197572380Y-97139142D01*
X197620000Y-96996285D01*
X198572380Y-95996285D02*
X198096190Y-96329619D01*
X198572380Y-96567714D02*
X197572380Y-96567714D01*
X197572380Y-96186761D01*
X197620000Y-96091523D01*
X197667619Y-96043904D01*
X197762857Y-95996285D01*
X197905714Y-95996285D01*
X198000952Y-96043904D01*
X198048571Y-96091523D01*
X198096190Y-96186761D01*
X198096190Y-96567714D01*
X198667619Y-94901047D02*
X198620000Y-94996285D01*
X198524761Y-95091523D01*
X198381904Y-95234380D01*
X198334285Y-95329619D01*
X198334285Y-95424857D01*
X198572380Y-95377238D02*
X198524761Y-95472476D01*
X198429523Y-95567714D01*
X198239047Y-95615333D01*
X197905714Y-95615333D01*
X197715238Y-95567714D01*
X197620000Y-95472476D01*
X197572380Y-95377238D01*
X197572380Y-95186761D01*
X197620000Y-95091523D01*
X197715238Y-94996285D01*
X197905714Y-94948666D01*
X198239047Y-94948666D01*
X198429523Y-94996285D01*
X198524761Y-95091523D01*
X198572380Y-95186761D01*
X198572380Y-95377238D01*
X185872380Y-110823238D02*
X184872380Y-110823238D01*
X185872380Y-110251809D01*
X184872380Y-110251809D01*
X185872380Y-109775619D02*
X184872380Y-109775619D01*
X185586666Y-109442285D01*
X184872380Y-109108952D01*
X185872380Y-109108952D01*
X185872380Y-108632761D02*
X184872380Y-108632761D01*
X187412380Y-99694761D02*
X188412380Y-99361428D01*
X187412380Y-99028095D01*
X188412380Y-98694761D02*
X187745714Y-98694761D01*
X187412380Y-98694761D02*
X187460000Y-98742380D01*
X187507619Y-98694761D01*
X187460000Y-98647142D01*
X187412380Y-98694761D01*
X187507619Y-98694761D01*
X188412380Y-97790000D02*
X187412380Y-97790000D01*
X188364761Y-97790000D02*
X188412380Y-97885238D01*
X188412380Y-98075714D01*
X188364761Y-98170952D01*
X188317142Y-98218571D01*
X188221904Y-98266190D01*
X187936190Y-98266190D01*
X187840952Y-98218571D01*
X187793333Y-98170952D01*
X187745714Y-98075714D01*
X187745714Y-97885238D01*
X187793333Y-97790000D01*
X188364761Y-96932857D02*
X188412380Y-97028095D01*
X188412380Y-97218571D01*
X188364761Y-97313809D01*
X188269523Y-97361428D01*
X187888571Y-97361428D01*
X187793333Y-97313809D01*
X187745714Y-97218571D01*
X187745714Y-97028095D01*
X187793333Y-96932857D01*
X187888571Y-96885238D01*
X187983809Y-96885238D01*
X188079047Y-97361428D01*
X188412380Y-96313809D02*
X188364761Y-96409047D01*
X188317142Y-96456666D01*
X188221904Y-96504285D01*
X187936190Y-96504285D01*
X187840952Y-96456666D01*
X187793333Y-96409047D01*
X187745714Y-96313809D01*
X187745714Y-96170952D01*
X187793333Y-96075714D01*
X187840952Y-96028095D01*
X187936190Y-95980476D01*
X188221904Y-95980476D01*
X188317142Y-96028095D01*
X188364761Y-96075714D01*
X188412380Y-96170952D01*
X188412380Y-96313809D01*
X180554571Y-95686571D02*
X180697428Y-95734190D01*
X180745047Y-95781809D01*
X180792666Y-95877047D01*
X180792666Y-96019904D01*
X180745047Y-96115142D01*
X180697428Y-96162761D01*
X180602190Y-96210380D01*
X180221238Y-96210380D01*
X180221238Y-95210380D01*
X180554571Y-95210380D01*
X180649809Y-95258000D01*
X180697428Y-95305619D01*
X180745047Y-95400857D01*
X180745047Y-95496095D01*
X180697428Y-95591333D01*
X180649809Y-95638952D01*
X180554571Y-95686571D01*
X180221238Y-95686571D01*
X181364095Y-96210380D02*
X181268857Y-96162761D01*
X181221238Y-96115142D01*
X181173619Y-96019904D01*
X181173619Y-95734190D01*
X181221238Y-95638952D01*
X181268857Y-95591333D01*
X181364095Y-95543714D01*
X181506952Y-95543714D01*
X181602190Y-95591333D01*
X181649809Y-95638952D01*
X181697428Y-95734190D01*
X181697428Y-96019904D01*
X181649809Y-96115142D01*
X181602190Y-96162761D01*
X181506952Y-96210380D01*
X181364095Y-96210380D01*
X181983142Y-95543714D02*
X182364095Y-95543714D01*
X182126000Y-95210380D02*
X182126000Y-96067523D01*
X182173619Y-96162761D01*
X182268857Y-96210380D01*
X182364095Y-96210380D01*
X182554571Y-95543714D02*
X182935523Y-95543714D01*
X182697428Y-95210380D02*
X182697428Y-96067523D01*
X182745047Y-96162761D01*
X182840285Y-96210380D01*
X182935523Y-96210380D01*
X183411714Y-96210380D02*
X183316476Y-96162761D01*
X183268857Y-96115142D01*
X183221238Y-96019904D01*
X183221238Y-95734190D01*
X183268857Y-95638952D01*
X183316476Y-95591333D01*
X183411714Y-95543714D01*
X183554571Y-95543714D01*
X183649809Y-95591333D01*
X183697428Y-95638952D01*
X183745047Y-95734190D01*
X183745047Y-96019904D01*
X183697428Y-96115142D01*
X183649809Y-96162761D01*
X183554571Y-96210380D01*
X183411714Y-96210380D01*
X184173619Y-96210380D02*
X184173619Y-95543714D01*
X184173619Y-95638952D02*
X184221238Y-95591333D01*
X184316476Y-95543714D01*
X184459333Y-95543714D01*
X184554571Y-95591333D01*
X184602190Y-95686571D01*
X184602190Y-96210380D01*
X184602190Y-95686571D02*
X184649809Y-95591333D01*
X184745047Y-95543714D01*
X184887904Y-95543714D01*
X184983142Y-95591333D01*
X185030761Y-95686571D01*
X185030761Y-96210380D01*
X216066666Y-110188285D02*
X216066666Y-109712095D01*
X216352380Y-110283523D02*
X215352380Y-109950190D01*
X216352380Y-109616857D01*
X215780952Y-109140666D02*
X215733333Y-109235904D01*
X215685714Y-109283523D01*
X215590476Y-109331142D01*
X215542857Y-109331142D01*
X215447619Y-109283523D01*
X215400000Y-109235904D01*
X215352380Y-109140666D01*
X215352380Y-108950190D01*
X215400000Y-108854952D01*
X215447619Y-108807333D01*
X215542857Y-108759714D01*
X215590476Y-108759714D01*
X215685714Y-108807333D01*
X215733333Y-108854952D01*
X215780952Y-108950190D01*
X215780952Y-109140666D01*
X215828571Y-109235904D01*
X215876190Y-109283523D01*
X215971428Y-109331142D01*
X216161904Y-109331142D01*
X216257142Y-109283523D01*
X216304761Y-109235904D01*
X216352380Y-109140666D01*
X216352380Y-108950190D01*
X216304761Y-108854952D01*
X216257142Y-108807333D01*
X216161904Y-108759714D01*
X215971428Y-108759714D01*
X215876190Y-108807333D01*
X215828571Y-108854952D01*
X215780952Y-108950190D01*
X164600000Y-98940857D02*
X164552380Y-99036095D01*
X164552380Y-99178952D01*
X164600000Y-99321809D01*
X164695238Y-99417047D01*
X164790476Y-99464666D01*
X164980952Y-99512285D01*
X165123809Y-99512285D01*
X165314285Y-99464666D01*
X165409523Y-99417047D01*
X165504761Y-99321809D01*
X165552380Y-99178952D01*
X165552380Y-99083714D01*
X165504761Y-98940857D01*
X165457142Y-98893238D01*
X165123809Y-98893238D01*
X165123809Y-99083714D01*
X164885714Y-98464666D02*
X165552380Y-98464666D01*
X164980952Y-98464666D02*
X164933333Y-98417047D01*
X164885714Y-98321809D01*
X164885714Y-98178952D01*
X164933333Y-98083714D01*
X165028571Y-98036095D01*
X165552380Y-98036095D01*
X165552380Y-97131333D02*
X164552380Y-97131333D01*
X165504761Y-97131333D02*
X165552380Y-97226571D01*
X165552380Y-97417047D01*
X165504761Y-97512285D01*
X165457142Y-97559904D01*
X165361904Y-97607523D01*
X165076190Y-97607523D01*
X164980952Y-97559904D01*
X164933333Y-97512285D01*
X164885714Y-97417047D01*
X164885714Y-97226571D01*
X164933333Y-97131333D01*
X218606666Y-99520285D02*
X218606666Y-99044095D01*
X218892380Y-99615523D02*
X217892380Y-99282190D01*
X218892380Y-98948857D01*
X218892380Y-98567904D02*
X218892380Y-98377428D01*
X218844761Y-98282190D01*
X218797142Y-98234571D01*
X218654285Y-98139333D01*
X218463809Y-98091714D01*
X218082857Y-98091714D01*
X217987619Y-98139333D01*
X217940000Y-98186952D01*
X217892380Y-98282190D01*
X217892380Y-98472666D01*
X217940000Y-98567904D01*
X217987619Y-98615523D01*
X218082857Y-98663142D01*
X218320952Y-98663142D01*
X218416190Y-98615523D01*
X218463809Y-98567904D01*
X218511428Y-98472666D01*
X218511428Y-98282190D01*
X218463809Y-98186952D01*
X218416190Y-98139333D01*
X218320952Y-98091714D01*
X155106666Y-99488476D02*
X155106666Y-99012285D01*
X155392380Y-99583714D02*
X154392380Y-99250380D01*
X155392380Y-98917047D01*
X155392380Y-98059904D02*
X155392380Y-98631333D01*
X155392380Y-98345619D02*
X154392380Y-98345619D01*
X154535238Y-98440857D01*
X154630476Y-98536095D01*
X154678095Y-98631333D01*
X154487619Y-97678952D02*
X154440000Y-97631333D01*
X154392380Y-97536095D01*
X154392380Y-97298000D01*
X154440000Y-97202761D01*
X154487619Y-97155142D01*
X154582857Y-97107523D01*
X154678095Y-97107523D01*
X154820952Y-97155142D01*
X155392380Y-97726571D01*
X155392380Y-97107523D01*
X177712666Y-99520285D02*
X177712666Y-99044095D01*
X177998380Y-99615523D02*
X176998380Y-99282190D01*
X177998380Y-98948857D01*
X177093619Y-98663142D02*
X177046000Y-98615523D01*
X176998380Y-98520285D01*
X176998380Y-98282190D01*
X177046000Y-98186952D01*
X177093619Y-98139333D01*
X177188857Y-98091714D01*
X177284095Y-98091714D01*
X177426952Y-98139333D01*
X177998380Y-98710761D01*
X177998380Y-98091714D01*
X183332380Y-99591714D02*
X182332380Y-99591714D01*
X183332380Y-99020285D01*
X182332380Y-99020285D01*
X183237142Y-97972666D02*
X183284761Y-98020285D01*
X183332380Y-98163142D01*
X183332380Y-98258380D01*
X183284761Y-98401238D01*
X183189523Y-98496476D01*
X183094285Y-98544095D01*
X182903809Y-98591714D01*
X182760952Y-98591714D01*
X182570476Y-98544095D01*
X182475238Y-98496476D01*
X182380000Y-98401238D01*
X182332380Y-98258380D01*
X182332380Y-98163142D01*
X182380000Y-98020285D01*
X182427619Y-97972666D01*
X193492380Y-111783619D02*
X192492380Y-111783619D01*
X192492380Y-111116952D02*
X192492380Y-110926476D01*
X192540000Y-110831238D01*
X192635238Y-110736000D01*
X192825714Y-110688380D01*
X193159047Y-110688380D01*
X193349523Y-110736000D01*
X193444761Y-110831238D01*
X193492380Y-110926476D01*
X193492380Y-111116952D01*
X193444761Y-111212190D01*
X193349523Y-111307428D01*
X193159047Y-111355047D01*
X192825714Y-111355047D01*
X192635238Y-111307428D01*
X192540000Y-111212190D01*
X192492380Y-111116952D01*
X193492380Y-109688380D02*
X193016190Y-110021714D01*
X193492380Y-110259809D02*
X192492380Y-110259809D01*
X192492380Y-109878857D01*
X192540000Y-109783619D01*
X192587619Y-109736000D01*
X192682857Y-109688380D01*
X192825714Y-109688380D01*
X192920952Y-109736000D01*
X192968571Y-109783619D01*
X193016190Y-109878857D01*
X193016190Y-110259809D01*
X193587619Y-108593142D02*
X193540000Y-108688380D01*
X193444761Y-108783619D01*
X193301904Y-108926476D01*
X193254285Y-109021714D01*
X193254285Y-109116952D01*
X193492380Y-109069333D02*
X193444761Y-109164571D01*
X193349523Y-109259809D01*
X193159047Y-109307428D01*
X192825714Y-109307428D01*
X192635238Y-109259809D01*
X192540000Y-109164571D01*
X192492380Y-109069333D01*
X192492380Y-108878857D01*
X192540000Y-108783619D01*
X192635238Y-108688380D01*
X192825714Y-108640761D01*
X193159047Y-108640761D01*
X193349523Y-108688380D01*
X193444761Y-108783619D01*
X193492380Y-108878857D01*
X193492380Y-109069333D01*
X213812380Y-111609047D02*
X213336190Y-111942380D01*
X213812380Y-112180476D02*
X212812380Y-112180476D01*
X212812380Y-111799523D01*
X212860000Y-111704285D01*
X212907619Y-111656666D01*
X213002857Y-111609047D01*
X213145714Y-111609047D01*
X213240952Y-111656666D01*
X213288571Y-111704285D01*
X213336190Y-111799523D01*
X213336190Y-112180476D01*
X213288571Y-110847142D02*
X213288571Y-111180476D01*
X213812380Y-111180476D02*
X212812380Y-111180476D01*
X212812380Y-110704285D01*
X213764761Y-110370952D02*
X213812380Y-110228095D01*
X213812380Y-109990000D01*
X213764761Y-109894761D01*
X213717142Y-109847142D01*
X213621904Y-109799523D01*
X213526666Y-109799523D01*
X213431428Y-109847142D01*
X213383809Y-109894761D01*
X213336190Y-109990000D01*
X213288571Y-110180476D01*
X213240952Y-110275714D01*
X213193333Y-110323333D01*
X213098095Y-110370952D01*
X213002857Y-110370952D01*
X212907619Y-110323333D01*
X212860000Y-110275714D01*
X212812380Y-110180476D01*
X212812380Y-109942380D01*
X212860000Y-109799523D01*
X213812380Y-109370952D02*
X212812380Y-109370952D01*
X213288571Y-109370952D02*
X213288571Y-108799523D01*
X213812380Y-108799523D02*
X212812380Y-108799523D01*
X152566666Y-99488476D02*
X152566666Y-99012285D01*
X152852380Y-99583714D02*
X151852380Y-99250380D01*
X152852380Y-98917047D01*
X152852380Y-98059904D02*
X152852380Y-98631333D01*
X152852380Y-98345619D02*
X151852380Y-98345619D01*
X151995238Y-98440857D01*
X152090476Y-98536095D01*
X152138095Y-98631333D01*
X152185714Y-97202761D02*
X152852380Y-97202761D01*
X151804761Y-97440857D02*
X152519047Y-97678952D01*
X152519047Y-97059904D01*
X221432380Y-110259714D02*
X220432380Y-110259714D01*
X221432380Y-109688285D01*
X220432380Y-109688285D01*
X221337142Y-108640666D02*
X221384761Y-108688285D01*
X221432380Y-108831142D01*
X221432380Y-108926380D01*
X221384761Y-109069238D01*
X221289523Y-109164476D01*
X221194285Y-109212095D01*
X221003809Y-109259714D01*
X220860952Y-109259714D01*
X220670476Y-109212095D01*
X220575238Y-109164476D01*
X220480000Y-109069238D01*
X220432380Y-108926380D01*
X220432380Y-108831142D01*
X220480000Y-108688285D01*
X220527619Y-108640666D01*
X173172380Y-110212095D02*
X172172380Y-110212095D01*
X172172380Y-109974000D01*
X172220000Y-109831142D01*
X172315238Y-109735904D01*
X172410476Y-109688285D01*
X172600952Y-109640666D01*
X172743809Y-109640666D01*
X172934285Y-109688285D01*
X173029523Y-109735904D01*
X173124761Y-109831142D01*
X173172380Y-109974000D01*
X173172380Y-110212095D01*
X172172380Y-108783523D02*
X172172380Y-108974000D01*
X172220000Y-109069238D01*
X172267619Y-109116857D01*
X172410476Y-109212095D01*
X172600952Y-109259714D01*
X172981904Y-109259714D01*
X173077142Y-109212095D01*
X173124761Y-109164476D01*
X173172380Y-109069238D01*
X173172380Y-108878761D01*
X173124761Y-108783523D01*
X173077142Y-108735904D01*
X172981904Y-108688285D01*
X172743809Y-108688285D01*
X172648571Y-108735904D01*
X172600952Y-108783523D01*
X172553333Y-108878761D01*
X172553333Y-109069238D01*
X172600952Y-109164476D01*
X172648571Y-109212095D01*
X172743809Y-109259714D01*
X170632380Y-110212095D02*
X169632380Y-110212095D01*
X169632380Y-109974000D01*
X169680000Y-109831142D01*
X169775238Y-109735904D01*
X169870476Y-109688285D01*
X170060952Y-109640666D01*
X170203809Y-109640666D01*
X170394285Y-109688285D01*
X170489523Y-109735904D01*
X170584761Y-109831142D01*
X170632380Y-109974000D01*
X170632380Y-110212095D01*
X169727619Y-109259714D02*
X169680000Y-109212095D01*
X169632380Y-109116857D01*
X169632380Y-108878761D01*
X169680000Y-108783523D01*
X169727619Y-108735904D01*
X169822857Y-108688285D01*
X169918095Y-108688285D01*
X170060952Y-108735904D01*
X170632380Y-109307333D01*
X170632380Y-108688285D01*
X152566666Y-110918476D02*
X152566666Y-110442285D01*
X152852380Y-111013714D02*
X151852380Y-110680380D01*
X152852380Y-110347047D01*
X152852380Y-109489904D02*
X152852380Y-110061333D01*
X152852380Y-109775619D02*
X151852380Y-109775619D01*
X151995238Y-109870857D01*
X152090476Y-109966095D01*
X152138095Y-110061333D01*
X151852380Y-108585142D02*
X151852380Y-109061333D01*
X152328571Y-109108952D01*
X152280952Y-109061333D01*
X152233333Y-108966095D01*
X152233333Y-108728000D01*
X152280952Y-108632761D01*
X152328571Y-108585142D01*
X152423809Y-108537523D01*
X152661904Y-108537523D01*
X152757142Y-108585142D01*
X152804761Y-108632761D01*
X152852380Y-108728000D01*
X152852380Y-108966095D01*
X152804761Y-109061333D01*
X152757142Y-109108952D01*
X192492380Y-99647333D02*
X193492380Y-99314000D01*
X192492380Y-98980666D01*
X190952380Y-112299523D02*
X189952380Y-112299523D01*
X190666666Y-111966190D01*
X189952380Y-111632857D01*
X190952380Y-111632857D01*
X190952380Y-110585238D02*
X190476190Y-110918571D01*
X190952380Y-111156666D02*
X189952380Y-111156666D01*
X189952380Y-110775714D01*
X190000000Y-110680476D01*
X190047619Y-110632857D01*
X190142857Y-110585238D01*
X190285714Y-110585238D01*
X190380952Y-110632857D01*
X190428571Y-110680476D01*
X190476190Y-110775714D01*
X190476190Y-111156666D01*
X190428571Y-110156666D02*
X190428571Y-109823333D01*
X190952380Y-109680476D02*
X190952380Y-110156666D01*
X189952380Y-110156666D01*
X189952380Y-109680476D01*
X191047619Y-108585238D02*
X191000000Y-108680476D01*
X190904761Y-108775714D01*
X190761904Y-108918571D01*
X190714285Y-109013809D01*
X190714285Y-109109047D01*
X190952380Y-109061428D02*
X190904761Y-109156666D01*
X190809523Y-109251904D01*
X190619047Y-109299523D01*
X190285714Y-109299523D01*
X190095238Y-109251904D01*
X190000000Y-109156666D01*
X189952380Y-109061428D01*
X189952380Y-108870952D01*
X190000000Y-108775714D01*
X190095238Y-108680476D01*
X190285714Y-108632857D01*
X190619047Y-108632857D01*
X190809523Y-108680476D01*
X190904761Y-108775714D01*
X190952380Y-108870952D01*
X190952380Y-109061428D01*
X201102380Y-99002380D02*
X200626190Y-99335714D01*
X201102380Y-99573809D02*
X200102380Y-99573809D01*
X200102380Y-99192857D01*
X200150000Y-99097619D01*
X200197619Y-99050000D01*
X200292857Y-99002380D01*
X200435714Y-99002380D01*
X200530952Y-99050000D01*
X200578571Y-99097619D01*
X200626190Y-99192857D01*
X200626190Y-99573809D01*
X200578571Y-98573809D02*
X200578571Y-98240476D01*
X201102380Y-98097619D02*
X201102380Y-98573809D01*
X200102380Y-98573809D01*
X200102380Y-98097619D01*
X201054761Y-97716666D02*
X201102380Y-97573809D01*
X201102380Y-97335714D01*
X201054761Y-97240476D01*
X201007142Y-97192857D01*
X200911904Y-97145238D01*
X200816666Y-97145238D01*
X200721428Y-97192857D01*
X200673809Y-97240476D01*
X200626190Y-97335714D01*
X200578571Y-97526190D01*
X200530952Y-97621428D01*
X200483333Y-97669047D01*
X200388095Y-97716666D01*
X200292857Y-97716666D01*
X200197619Y-97669047D01*
X200150000Y-97621428D01*
X200102380Y-97526190D01*
X200102380Y-97288095D01*
X200150000Y-97145238D01*
X200578571Y-96716666D02*
X200578571Y-96383333D01*
X201102380Y-96240476D02*
X201102380Y-96716666D01*
X200102380Y-96716666D01*
X200102380Y-96240476D01*
X200102380Y-95954761D02*
X200102380Y-95383333D01*
X201102380Y-95669047D02*
X200102380Y-95669047D01*
X175712380Y-110212095D02*
X174712380Y-110212095D01*
X174712380Y-109974000D01*
X174760000Y-109831142D01*
X174855238Y-109735904D01*
X174950476Y-109688285D01*
X175140952Y-109640666D01*
X175283809Y-109640666D01*
X175474285Y-109688285D01*
X175569523Y-109735904D01*
X175664761Y-109831142D01*
X175712380Y-109974000D01*
X175712380Y-110212095D01*
X174712380Y-108735904D02*
X174712380Y-109212095D01*
X175188571Y-109259714D01*
X175140952Y-109212095D01*
X175093333Y-109116857D01*
X175093333Y-108878761D01*
X175140952Y-108783523D01*
X175188571Y-108735904D01*
X175283809Y-108688285D01*
X175521904Y-108688285D01*
X175617142Y-108735904D01*
X175664761Y-108783523D01*
X175712380Y-108878761D01*
X175712380Y-109116857D01*
X175664761Y-109212095D01*
X175617142Y-109259714D01*
X172886666Y-99520285D02*
X172886666Y-99044095D01*
X173172380Y-99615523D02*
X172172380Y-99282190D01*
X173172380Y-98948857D01*
X172172380Y-98425047D02*
X172172380Y-98329809D01*
X172220000Y-98234571D01*
X172267619Y-98186952D01*
X172362857Y-98139333D01*
X172553333Y-98091714D01*
X172791428Y-98091714D01*
X172981904Y-98139333D01*
X173077142Y-98186952D01*
X173124761Y-98234571D01*
X173172380Y-98329809D01*
X173172380Y-98425047D01*
X173124761Y-98520285D01*
X173077142Y-98567904D01*
X172981904Y-98615523D01*
X172791428Y-98663142D01*
X172553333Y-98663142D01*
X172362857Y-98615523D01*
X172267619Y-98567904D01*
X172220000Y-98520285D01*
X172172380Y-98425047D01*
X218606666Y-111172476D02*
X218606666Y-110696285D01*
X218892380Y-111267714D02*
X217892380Y-110934380D01*
X218892380Y-110601047D01*
X218892380Y-109743904D02*
X218892380Y-110315333D01*
X218892380Y-110029619D02*
X217892380Y-110029619D01*
X218035238Y-110124857D01*
X218130476Y-110220095D01*
X218178095Y-110315333D01*
X217892380Y-109124857D02*
X217892380Y-109029619D01*
X217940000Y-108934380D01*
X217987619Y-108886761D01*
X218082857Y-108839142D01*
X218273333Y-108791523D01*
X218511428Y-108791523D01*
X218701904Y-108839142D01*
X218797142Y-108886761D01*
X218844761Y-108934380D01*
X218892380Y-109029619D01*
X218892380Y-109124857D01*
X218844761Y-109220095D01*
X218797142Y-109267714D01*
X218701904Y-109315333D01*
X218511428Y-109362952D01*
X218273333Y-109362952D01*
X218082857Y-109315333D01*
X217987619Y-109267714D01*
X217940000Y-109220095D01*
X217892380Y-109124857D01*
X221146666Y-99488476D02*
X221146666Y-99012285D01*
X221432380Y-99583714D02*
X220432380Y-99250380D01*
X221432380Y-98917047D01*
X221432380Y-98059904D02*
X221432380Y-98631333D01*
X221432380Y-98345619D02*
X220432380Y-98345619D01*
X220575238Y-98440857D01*
X220670476Y-98536095D01*
X220718095Y-98631333D01*
X221432380Y-97107523D02*
X221432380Y-97678952D01*
X221432380Y-97393238D02*
X220432380Y-97393238D01*
X220575238Y-97488476D01*
X220670476Y-97583714D01*
X220718095Y-97678952D01*
X208446666Y-99520285D02*
X208446666Y-99044095D01*
X208732380Y-99615523D02*
X207732380Y-99282190D01*
X208732380Y-98948857D01*
X207732380Y-98139333D02*
X207732380Y-98615523D01*
X208208571Y-98663142D01*
X208160952Y-98615523D01*
X208113333Y-98520285D01*
X208113333Y-98282190D01*
X208160952Y-98186952D01*
X208208571Y-98139333D01*
X208303809Y-98091714D01*
X208541904Y-98091714D01*
X208637142Y-98139333D01*
X208684761Y-98186952D01*
X208732380Y-98282190D01*
X208732380Y-98520285D01*
X208684761Y-98615523D01*
X208637142Y-98663142D01*
X210986666Y-99520285D02*
X210986666Y-99044095D01*
X211272380Y-99615523D02*
X210272380Y-99282190D01*
X211272380Y-98948857D01*
X210605714Y-98186952D02*
X211272380Y-98186952D01*
X210224761Y-98425047D02*
X210939047Y-98663142D01*
X210939047Y-98044095D01*
X188412380Y-111736000D02*
X187412380Y-111736000D01*
X187888571Y-111736000D02*
X187888571Y-111164571D01*
X188412380Y-111164571D02*
X187412380Y-111164571D01*
X188126666Y-110736000D02*
X188126666Y-110259809D01*
X188412380Y-110831238D02*
X187412380Y-110497904D01*
X188412380Y-110164571D01*
X188412380Y-109355047D02*
X188412380Y-109831238D01*
X187412380Y-109831238D01*
X187412380Y-109164571D02*
X187412380Y-108593142D01*
X188412380Y-108878857D02*
X187412380Y-108878857D01*
X167140000Y-98940857D02*
X167092380Y-99036095D01*
X167092380Y-99178952D01*
X167140000Y-99321809D01*
X167235238Y-99417047D01*
X167330476Y-99464666D01*
X167520952Y-99512285D01*
X167663809Y-99512285D01*
X167854285Y-99464666D01*
X167949523Y-99417047D01*
X168044761Y-99321809D01*
X168092380Y-99178952D01*
X168092380Y-99083714D01*
X168044761Y-98940857D01*
X167997142Y-98893238D01*
X167663809Y-98893238D01*
X167663809Y-99083714D01*
X167425714Y-98464666D02*
X168092380Y-98464666D01*
X167520952Y-98464666D02*
X167473333Y-98417047D01*
X167425714Y-98321809D01*
X167425714Y-98178952D01*
X167473333Y-98083714D01*
X167568571Y-98036095D01*
X168092380Y-98036095D01*
X168092380Y-97131333D02*
X167092380Y-97131333D01*
X168044761Y-97131333D02*
X168092380Y-97226571D01*
X168092380Y-97417047D01*
X168044761Y-97512285D01*
X167997142Y-97559904D01*
X167901904Y-97607523D01*
X167616190Y-97607523D01*
X167520952Y-97559904D01*
X167473333Y-97512285D01*
X167425714Y-97417047D01*
X167425714Y-97226571D01*
X167473333Y-97131333D01*
X178252380Y-110212095D02*
X177252380Y-110212095D01*
X177252380Y-109974000D01*
X177300000Y-109831142D01*
X177395238Y-109735904D01*
X177490476Y-109688285D01*
X177680952Y-109640666D01*
X177823809Y-109640666D01*
X178014285Y-109688285D01*
X178109523Y-109735904D01*
X178204761Y-109831142D01*
X178252380Y-109974000D01*
X178252380Y-110212095D01*
X177252380Y-109307333D02*
X177252380Y-108688285D01*
X177633333Y-109021619D01*
X177633333Y-108878761D01*
X177680952Y-108783523D01*
X177728571Y-108735904D01*
X177823809Y-108688285D01*
X178061904Y-108688285D01*
X178157142Y-108735904D01*
X178204761Y-108783523D01*
X178252380Y-108878761D01*
X178252380Y-109164476D01*
X178204761Y-109259714D01*
X178157142Y-109307333D01*
X184920000Y-98940857D02*
X184872380Y-99036095D01*
X184872380Y-99178952D01*
X184920000Y-99321809D01*
X185015238Y-99417047D01*
X185110476Y-99464666D01*
X185300952Y-99512285D01*
X185443809Y-99512285D01*
X185634285Y-99464666D01*
X185729523Y-99417047D01*
X185824761Y-99321809D01*
X185872380Y-99178952D01*
X185872380Y-99083714D01*
X185824761Y-98940857D01*
X185777142Y-98893238D01*
X185443809Y-98893238D01*
X185443809Y-99083714D01*
X185205714Y-98464666D02*
X185872380Y-98464666D01*
X185300952Y-98464666D02*
X185253333Y-98417047D01*
X185205714Y-98321809D01*
X185205714Y-98178952D01*
X185253333Y-98083714D01*
X185348571Y-98036095D01*
X185872380Y-98036095D01*
X185872380Y-97131333D02*
X184872380Y-97131333D01*
X185824761Y-97131333D02*
X185872380Y-97226571D01*
X185872380Y-97417047D01*
X185824761Y-97512285D01*
X185777142Y-97559904D01*
X185681904Y-97607523D01*
X185396190Y-97607523D01*
X185300952Y-97559904D01*
X185253333Y-97512285D01*
X185205714Y-97417047D01*
X185205714Y-97226571D01*
X185253333Y-97131333D01*
X197572380Y-110656571D02*
X198572380Y-110418476D01*
X197858095Y-110228000D01*
X198572380Y-110037523D01*
X197572380Y-109799428D01*
X198572380Y-108847047D02*
X198096190Y-109180380D01*
X198572380Y-109418476D02*
X197572380Y-109418476D01*
X197572380Y-109037523D01*
X197620000Y-108942285D01*
X197667619Y-108894666D01*
X197762857Y-108847047D01*
X197905714Y-108847047D01*
X198000952Y-108894666D01*
X198048571Y-108942285D01*
X198096190Y-109037523D01*
X198096190Y-109418476D01*
X213812380Y-99043904D02*
X213336190Y-99377238D01*
X213812380Y-99615333D02*
X212812380Y-99615333D01*
X212812380Y-99234380D01*
X212860000Y-99139142D01*
X212907619Y-99091523D01*
X213002857Y-99043904D01*
X213145714Y-99043904D01*
X213240952Y-99091523D01*
X213288571Y-99139142D01*
X213336190Y-99234380D01*
X213336190Y-99615333D01*
X212812380Y-98424857D02*
X212812380Y-98234380D01*
X212860000Y-98139142D01*
X212955238Y-98043904D01*
X213145714Y-97996285D01*
X213479047Y-97996285D01*
X213669523Y-98043904D01*
X213764761Y-98139142D01*
X213812380Y-98234380D01*
X213812380Y-98424857D01*
X213764761Y-98520095D01*
X213669523Y-98615333D01*
X213479047Y-98662952D01*
X213145714Y-98662952D01*
X212955238Y-98615333D01*
X212860000Y-98520095D01*
X212812380Y-98424857D01*
X213812380Y-97567714D02*
X212812380Y-97567714D01*
X213526666Y-97234380D01*
X212812380Y-96901047D01*
X213812380Y-96901047D01*
X213717142Y-95853428D02*
X213764761Y-95901047D01*
X213812380Y-96043904D01*
X213812380Y-96139142D01*
X213764761Y-96282000D01*
X213669523Y-96377238D01*
X213574285Y-96424857D01*
X213383809Y-96472476D01*
X213240952Y-96472476D01*
X213050476Y-96424857D01*
X212955238Y-96377238D01*
X212860000Y-96282000D01*
X212812380Y-96139142D01*
X212812380Y-96043904D01*
X212860000Y-95901047D01*
X212907619Y-95853428D01*
X213764761Y-95472476D02*
X213812380Y-95329619D01*
X213812380Y-95091523D01*
X213764761Y-94996285D01*
X213717142Y-94948666D01*
X213621904Y-94901047D01*
X213526666Y-94901047D01*
X213431428Y-94948666D01*
X213383809Y-94996285D01*
X213336190Y-95091523D01*
X213288571Y-95282000D01*
X213240952Y-95377238D01*
X213193333Y-95424857D01*
X213098095Y-95472476D01*
X213002857Y-95472476D01*
X212907619Y-95424857D01*
X212860000Y-95377238D01*
X212812380Y-95282000D01*
X212812380Y-95043904D01*
X212860000Y-94901047D01*
X196032380Y-109664476D02*
X195556190Y-109997809D01*
X196032380Y-110235904D02*
X195032380Y-110235904D01*
X195032380Y-109854952D01*
X195080000Y-109759714D01*
X195127619Y-109712095D01*
X195222857Y-109664476D01*
X195365714Y-109664476D01*
X195460952Y-109712095D01*
X195508571Y-109759714D01*
X195556190Y-109854952D01*
X195556190Y-110235904D01*
X196032380Y-109235904D02*
X195032380Y-109235904D01*
X195032380Y-108997809D01*
X195080000Y-108854952D01*
X195175238Y-108759714D01*
X195270476Y-108712095D01*
X195460952Y-108664476D01*
X195603809Y-108664476D01*
X195794285Y-108712095D01*
X195889523Y-108759714D01*
X195984761Y-108854952D01*
X196032380Y-108997809D01*
X196032380Y-109235904D01*
X165552380Y-110212095D02*
X164552380Y-110212095D01*
X164552380Y-109974000D01*
X164600000Y-109831142D01*
X164695238Y-109735904D01*
X164790476Y-109688285D01*
X164980952Y-109640666D01*
X165123809Y-109640666D01*
X165314285Y-109688285D01*
X165409523Y-109735904D01*
X165504761Y-109831142D01*
X165552380Y-109974000D01*
X165552380Y-110212095D01*
X164552380Y-109021619D02*
X164552380Y-108926380D01*
X164600000Y-108831142D01*
X164647619Y-108783523D01*
X164742857Y-108735904D01*
X164933333Y-108688285D01*
X165171428Y-108688285D01*
X165361904Y-108735904D01*
X165457142Y-108783523D01*
X165504761Y-108831142D01*
X165552380Y-108926380D01*
X165552380Y-109021619D01*
X165504761Y-109116857D01*
X165457142Y-109164476D01*
X165361904Y-109212095D01*
X165171428Y-109259714D01*
X164933333Y-109259714D01*
X164742857Y-109212095D01*
X164647619Y-109164476D01*
X164600000Y-109116857D01*
X164552380Y-109021619D01*
X190476190Y-99314000D02*
X190952380Y-99314000D01*
X189952380Y-99647333D02*
X190476190Y-99314000D01*
X189952380Y-98980666D01*
X157551428Y-99583714D02*
X157551428Y-98821809D01*
X157932380Y-99202761D02*
X157170476Y-99202761D01*
X156932380Y-97869428D02*
X156932380Y-98345619D01*
X157408571Y-98393238D01*
X157360952Y-98345619D01*
X157313333Y-98250380D01*
X157313333Y-98012285D01*
X157360952Y-97917047D01*
X157408571Y-97869428D01*
X157503809Y-97821809D01*
X157741904Y-97821809D01*
X157837142Y-97869428D01*
X157884761Y-97917047D01*
X157932380Y-98012285D01*
X157932380Y-98250380D01*
X157884761Y-98345619D01*
X157837142Y-98393238D01*
X156932380Y-97536095D02*
X157932380Y-97202761D01*
X156932380Y-96869428D01*
X202652380Y-111712190D02*
X203652380Y-111474095D01*
X202938095Y-111283619D01*
X203652380Y-111093142D01*
X202652380Y-110855047D01*
X203366666Y-110521714D02*
X203366666Y-110045523D01*
X203652380Y-110616952D02*
X202652380Y-110283619D01*
X203652380Y-109950285D01*
X203652380Y-109616952D02*
X202652380Y-109616952D01*
X202652380Y-109283619D02*
X202652380Y-108712190D01*
X203652380Y-108997904D02*
X202652380Y-108997904D01*
X180506666Y-99520285D02*
X180506666Y-99044095D01*
X180792380Y-99615523D02*
X179792380Y-99282190D01*
X180792380Y-98948857D01*
X179792380Y-98710761D02*
X179792380Y-98091714D01*
X180173333Y-98425047D01*
X180173333Y-98282190D01*
X180220952Y-98186952D01*
X180268571Y-98139333D01*
X180363809Y-98091714D01*
X180601904Y-98091714D01*
X180697142Y-98139333D01*
X180744761Y-98186952D01*
X180792380Y-98282190D01*
X180792380Y-98567904D01*
X180744761Y-98663142D01*
X180697142Y-98710761D01*
X180792380Y-110212095D02*
X179792380Y-110212095D01*
X179792380Y-109974000D01*
X179840000Y-109831142D01*
X179935238Y-109735904D01*
X180030476Y-109688285D01*
X180220952Y-109640666D01*
X180363809Y-109640666D01*
X180554285Y-109688285D01*
X180649523Y-109735904D01*
X180744761Y-109831142D01*
X180792380Y-109974000D01*
X180792380Y-110212095D01*
X180125714Y-108783523D02*
X180792380Y-108783523D01*
X179744761Y-109021619D02*
X180459047Y-109259714D01*
X180459047Y-108640666D01*
X155106666Y-110918476D02*
X155106666Y-110442285D01*
X155392380Y-111013714D02*
X154392380Y-110680380D01*
X155392380Y-110347047D01*
X155392380Y-109489904D02*
X155392380Y-110061333D01*
X155392380Y-109775619D02*
X154392380Y-109775619D01*
X154535238Y-109870857D01*
X154630476Y-109966095D01*
X154678095Y-110061333D01*
X154392380Y-109156571D02*
X154392380Y-108537523D01*
X154773333Y-108870857D01*
X154773333Y-108728000D01*
X154820952Y-108632761D01*
X154868571Y-108585142D01*
X154963809Y-108537523D01*
X155201904Y-108537523D01*
X155297142Y-108585142D01*
X155344761Y-108632761D01*
X155392380Y-108728000D01*
X155392380Y-109013714D01*
X155344761Y-109108952D01*
X155297142Y-109156571D01*
X215828571Y-99139142D02*
X215876190Y-98996285D01*
X215923809Y-98948666D01*
X216019047Y-98901047D01*
X216161904Y-98901047D01*
X216257142Y-98948666D01*
X216304761Y-98996285D01*
X216352380Y-99091523D01*
X216352380Y-99472476D01*
X215352380Y-99472476D01*
X215352380Y-99139142D01*
X215400000Y-99043904D01*
X215447619Y-98996285D01*
X215542857Y-98948666D01*
X215638095Y-98948666D01*
X215733333Y-98996285D01*
X215780952Y-99043904D01*
X215828571Y-99139142D01*
X215828571Y-99472476D01*
X215352380Y-98472476D02*
X216161904Y-98472476D01*
X216257142Y-98424857D01*
X216304761Y-98377238D01*
X216352380Y-98282000D01*
X216352380Y-98091523D01*
X216304761Y-97996285D01*
X216257142Y-97948666D01*
X216161904Y-97901047D01*
X215352380Y-97901047D01*
X216304761Y-97472476D02*
X216352380Y-97329619D01*
X216352380Y-97091523D01*
X216304761Y-96996285D01*
X216257142Y-96948666D01*
X216161904Y-96901047D01*
X216066666Y-96901047D01*
X215971428Y-96948666D01*
X215923809Y-96996285D01*
X215876190Y-97091523D01*
X215828571Y-97282000D01*
X215780952Y-97377238D01*
X215733333Y-97424857D01*
X215638095Y-97472476D01*
X215542857Y-97472476D01*
X215447619Y-97424857D01*
X215400000Y-97377238D01*
X215352380Y-97282000D01*
X215352380Y-97043904D01*
X215400000Y-96901047D01*
X216066666Y-96520095D02*
X216066666Y-96043904D01*
X216352380Y-96615333D02*
X215352380Y-96282000D01*
X216352380Y-95948666D01*
X216352380Y-95615333D02*
X215352380Y-95615333D01*
X216352380Y-95043904D02*
X215780952Y-95472476D01*
X215352380Y-95043904D02*
X215923809Y-95615333D01*
X160472380Y-110259714D02*
X159472380Y-110259714D01*
X160472380Y-109688285D01*
X159472380Y-109688285D01*
X160377142Y-108640666D02*
X160424761Y-108688285D01*
X160472380Y-108831142D01*
X160472380Y-108926380D01*
X160424761Y-109069238D01*
X160329523Y-109164476D01*
X160234285Y-109212095D01*
X160043809Y-109259714D01*
X159900952Y-109259714D01*
X159710476Y-109212095D01*
X159615238Y-109164476D01*
X159520000Y-109069238D01*
X159472380Y-108926380D01*
X159472380Y-108831142D01*
X159520000Y-108688285D01*
X159567619Y-108640666D01*
X195032380Y-99599714D02*
X195841904Y-99599714D01*
X195937142Y-99552095D01*
X195984761Y-99504476D01*
X196032380Y-99409238D01*
X196032380Y-99218761D01*
X195984761Y-99123523D01*
X195937142Y-99075904D01*
X195841904Y-99028285D01*
X195032380Y-99028285D01*
%TO.C,U3*%
X222872380Y-66801904D02*
X223681904Y-66801904D01*
X223777142Y-66754285D01*
X223824761Y-66706666D01*
X223872380Y-66611428D01*
X223872380Y-66420952D01*
X223824761Y-66325714D01*
X223777142Y-66278095D01*
X223681904Y-66230476D01*
X222872380Y-66230476D01*
X222872380Y-65849523D02*
X222872380Y-65230476D01*
X223253333Y-65563809D01*
X223253333Y-65420952D01*
X223300952Y-65325714D01*
X223348571Y-65278095D01*
X223443809Y-65230476D01*
X223681904Y-65230476D01*
X223777142Y-65278095D01*
X223824761Y-65325714D01*
X223872380Y-65420952D01*
X223872380Y-65706666D01*
X223824761Y-65801904D01*
X223777142Y-65849523D01*
X195032380Y-61499714D02*
X195841904Y-61499714D01*
X195937142Y-61452095D01*
X195984761Y-61404476D01*
X196032380Y-61309238D01*
X196032380Y-61118761D01*
X195984761Y-61023523D01*
X195937142Y-60975904D01*
X195841904Y-60928285D01*
X195032380Y-60928285D01*
X160472380Y-72159714D02*
X159472380Y-72159714D01*
X160472380Y-71588285D01*
X159472380Y-71588285D01*
X160377142Y-70540666D02*
X160424761Y-70588285D01*
X160472380Y-70731142D01*
X160472380Y-70826380D01*
X160424761Y-70969238D01*
X160329523Y-71064476D01*
X160234285Y-71112095D01*
X160043809Y-71159714D01*
X159900952Y-71159714D01*
X159710476Y-71112095D01*
X159615238Y-71064476D01*
X159520000Y-70969238D01*
X159472380Y-70826380D01*
X159472380Y-70731142D01*
X159520000Y-70588285D01*
X159567619Y-70540666D01*
X215828571Y-61039142D02*
X215876190Y-60896285D01*
X215923809Y-60848666D01*
X216019047Y-60801047D01*
X216161904Y-60801047D01*
X216257142Y-60848666D01*
X216304761Y-60896285D01*
X216352380Y-60991523D01*
X216352380Y-61372476D01*
X215352380Y-61372476D01*
X215352380Y-61039142D01*
X215400000Y-60943904D01*
X215447619Y-60896285D01*
X215542857Y-60848666D01*
X215638095Y-60848666D01*
X215733333Y-60896285D01*
X215780952Y-60943904D01*
X215828571Y-61039142D01*
X215828571Y-61372476D01*
X215352380Y-60372476D02*
X216161904Y-60372476D01*
X216257142Y-60324857D01*
X216304761Y-60277238D01*
X216352380Y-60182000D01*
X216352380Y-59991523D01*
X216304761Y-59896285D01*
X216257142Y-59848666D01*
X216161904Y-59801047D01*
X215352380Y-59801047D01*
X216304761Y-59372476D02*
X216352380Y-59229619D01*
X216352380Y-58991523D01*
X216304761Y-58896285D01*
X216257142Y-58848666D01*
X216161904Y-58801047D01*
X216066666Y-58801047D01*
X215971428Y-58848666D01*
X215923809Y-58896285D01*
X215876190Y-58991523D01*
X215828571Y-59182000D01*
X215780952Y-59277238D01*
X215733333Y-59324857D01*
X215638095Y-59372476D01*
X215542857Y-59372476D01*
X215447619Y-59324857D01*
X215400000Y-59277238D01*
X215352380Y-59182000D01*
X215352380Y-58943904D01*
X215400000Y-58801047D01*
X216066666Y-58420095D02*
X216066666Y-57943904D01*
X216352380Y-58515333D02*
X215352380Y-58182000D01*
X216352380Y-57848666D01*
X216352380Y-57515333D02*
X215352380Y-57515333D01*
X216352380Y-56943904D02*
X215780952Y-57372476D01*
X215352380Y-56943904D02*
X215923809Y-57515333D01*
X155106666Y-72818476D02*
X155106666Y-72342285D01*
X155392380Y-72913714D02*
X154392380Y-72580380D01*
X155392380Y-72247047D01*
X155392380Y-71389904D02*
X155392380Y-71961333D01*
X155392380Y-71675619D02*
X154392380Y-71675619D01*
X154535238Y-71770857D01*
X154630476Y-71866095D01*
X154678095Y-71961333D01*
X154392380Y-71056571D02*
X154392380Y-70437523D01*
X154773333Y-70770857D01*
X154773333Y-70628000D01*
X154820952Y-70532761D01*
X154868571Y-70485142D01*
X154963809Y-70437523D01*
X155201904Y-70437523D01*
X155297142Y-70485142D01*
X155344761Y-70532761D01*
X155392380Y-70628000D01*
X155392380Y-70913714D01*
X155344761Y-71008952D01*
X155297142Y-71056571D01*
X180792380Y-72112095D02*
X179792380Y-72112095D01*
X179792380Y-71874000D01*
X179840000Y-71731142D01*
X179935238Y-71635904D01*
X180030476Y-71588285D01*
X180220952Y-71540666D01*
X180363809Y-71540666D01*
X180554285Y-71588285D01*
X180649523Y-71635904D01*
X180744761Y-71731142D01*
X180792380Y-71874000D01*
X180792380Y-72112095D01*
X180125714Y-70683523D02*
X180792380Y-70683523D01*
X179744761Y-70921619D02*
X180459047Y-71159714D01*
X180459047Y-70540666D01*
X180506666Y-61420285D02*
X180506666Y-60944095D01*
X180792380Y-61515523D02*
X179792380Y-61182190D01*
X180792380Y-60848857D01*
X179792380Y-60610761D02*
X179792380Y-59991714D01*
X180173333Y-60325047D01*
X180173333Y-60182190D01*
X180220952Y-60086952D01*
X180268571Y-60039333D01*
X180363809Y-59991714D01*
X180601904Y-59991714D01*
X180697142Y-60039333D01*
X180744761Y-60086952D01*
X180792380Y-60182190D01*
X180792380Y-60467904D01*
X180744761Y-60563142D01*
X180697142Y-60610761D01*
X202652380Y-73612190D02*
X203652380Y-73374095D01*
X202938095Y-73183619D01*
X203652380Y-72993142D01*
X202652380Y-72755047D01*
X203366666Y-72421714D02*
X203366666Y-71945523D01*
X203652380Y-72516952D02*
X202652380Y-72183619D01*
X203652380Y-71850285D01*
X203652380Y-71516952D02*
X202652380Y-71516952D01*
X202652380Y-71183619D02*
X202652380Y-70612190D01*
X203652380Y-70897904D02*
X202652380Y-70897904D01*
X157551428Y-61483714D02*
X157551428Y-60721809D01*
X157932380Y-61102761D02*
X157170476Y-61102761D01*
X156932380Y-59769428D02*
X156932380Y-60245619D01*
X157408571Y-60293238D01*
X157360952Y-60245619D01*
X157313333Y-60150380D01*
X157313333Y-59912285D01*
X157360952Y-59817047D01*
X157408571Y-59769428D01*
X157503809Y-59721809D01*
X157741904Y-59721809D01*
X157837142Y-59769428D01*
X157884761Y-59817047D01*
X157932380Y-59912285D01*
X157932380Y-60150380D01*
X157884761Y-60245619D01*
X157837142Y-60293238D01*
X156932380Y-59436095D02*
X157932380Y-59102761D01*
X156932380Y-58769428D01*
X190476190Y-61214000D02*
X190952380Y-61214000D01*
X189952380Y-61547333D02*
X190476190Y-61214000D01*
X189952380Y-60880666D01*
X165552380Y-72112095D02*
X164552380Y-72112095D01*
X164552380Y-71874000D01*
X164600000Y-71731142D01*
X164695238Y-71635904D01*
X164790476Y-71588285D01*
X164980952Y-71540666D01*
X165123809Y-71540666D01*
X165314285Y-71588285D01*
X165409523Y-71635904D01*
X165504761Y-71731142D01*
X165552380Y-71874000D01*
X165552380Y-72112095D01*
X164552380Y-70921619D02*
X164552380Y-70826380D01*
X164600000Y-70731142D01*
X164647619Y-70683523D01*
X164742857Y-70635904D01*
X164933333Y-70588285D01*
X165171428Y-70588285D01*
X165361904Y-70635904D01*
X165457142Y-70683523D01*
X165504761Y-70731142D01*
X165552380Y-70826380D01*
X165552380Y-70921619D01*
X165504761Y-71016857D01*
X165457142Y-71064476D01*
X165361904Y-71112095D01*
X165171428Y-71159714D01*
X164933333Y-71159714D01*
X164742857Y-71112095D01*
X164647619Y-71064476D01*
X164600000Y-71016857D01*
X164552380Y-70921619D01*
X196032380Y-71564476D02*
X195556190Y-71897809D01*
X196032380Y-72135904D02*
X195032380Y-72135904D01*
X195032380Y-71754952D01*
X195080000Y-71659714D01*
X195127619Y-71612095D01*
X195222857Y-71564476D01*
X195365714Y-71564476D01*
X195460952Y-71612095D01*
X195508571Y-71659714D01*
X195556190Y-71754952D01*
X195556190Y-72135904D01*
X196032380Y-71135904D02*
X195032380Y-71135904D01*
X195032380Y-70897809D01*
X195080000Y-70754952D01*
X195175238Y-70659714D01*
X195270476Y-70612095D01*
X195460952Y-70564476D01*
X195603809Y-70564476D01*
X195794285Y-70612095D01*
X195889523Y-70659714D01*
X195984761Y-70754952D01*
X196032380Y-70897809D01*
X196032380Y-71135904D01*
X213812380Y-60943904D02*
X213336190Y-61277238D01*
X213812380Y-61515333D02*
X212812380Y-61515333D01*
X212812380Y-61134380D01*
X212860000Y-61039142D01*
X212907619Y-60991523D01*
X213002857Y-60943904D01*
X213145714Y-60943904D01*
X213240952Y-60991523D01*
X213288571Y-61039142D01*
X213336190Y-61134380D01*
X213336190Y-61515333D01*
X212812380Y-60324857D02*
X212812380Y-60134380D01*
X212860000Y-60039142D01*
X212955238Y-59943904D01*
X213145714Y-59896285D01*
X213479047Y-59896285D01*
X213669523Y-59943904D01*
X213764761Y-60039142D01*
X213812380Y-60134380D01*
X213812380Y-60324857D01*
X213764761Y-60420095D01*
X213669523Y-60515333D01*
X213479047Y-60562952D01*
X213145714Y-60562952D01*
X212955238Y-60515333D01*
X212860000Y-60420095D01*
X212812380Y-60324857D01*
X213812380Y-59467714D02*
X212812380Y-59467714D01*
X213526666Y-59134380D01*
X212812380Y-58801047D01*
X213812380Y-58801047D01*
X213717142Y-57753428D02*
X213764761Y-57801047D01*
X213812380Y-57943904D01*
X213812380Y-58039142D01*
X213764761Y-58182000D01*
X213669523Y-58277238D01*
X213574285Y-58324857D01*
X213383809Y-58372476D01*
X213240952Y-58372476D01*
X213050476Y-58324857D01*
X212955238Y-58277238D01*
X212860000Y-58182000D01*
X212812380Y-58039142D01*
X212812380Y-57943904D01*
X212860000Y-57801047D01*
X212907619Y-57753428D01*
X213764761Y-57372476D02*
X213812380Y-57229619D01*
X213812380Y-56991523D01*
X213764761Y-56896285D01*
X213717142Y-56848666D01*
X213621904Y-56801047D01*
X213526666Y-56801047D01*
X213431428Y-56848666D01*
X213383809Y-56896285D01*
X213336190Y-56991523D01*
X213288571Y-57182000D01*
X213240952Y-57277238D01*
X213193333Y-57324857D01*
X213098095Y-57372476D01*
X213002857Y-57372476D01*
X212907619Y-57324857D01*
X212860000Y-57277238D01*
X212812380Y-57182000D01*
X212812380Y-56943904D01*
X212860000Y-56801047D01*
X197572380Y-72556571D02*
X198572380Y-72318476D01*
X197858095Y-72128000D01*
X198572380Y-71937523D01*
X197572380Y-71699428D01*
X198572380Y-70747047D02*
X198096190Y-71080380D01*
X198572380Y-71318476D02*
X197572380Y-71318476D01*
X197572380Y-70937523D01*
X197620000Y-70842285D01*
X197667619Y-70794666D01*
X197762857Y-70747047D01*
X197905714Y-70747047D01*
X198000952Y-70794666D01*
X198048571Y-70842285D01*
X198096190Y-70937523D01*
X198096190Y-71318476D01*
X184920000Y-60840857D02*
X184872380Y-60936095D01*
X184872380Y-61078952D01*
X184920000Y-61221809D01*
X185015238Y-61317047D01*
X185110476Y-61364666D01*
X185300952Y-61412285D01*
X185443809Y-61412285D01*
X185634285Y-61364666D01*
X185729523Y-61317047D01*
X185824761Y-61221809D01*
X185872380Y-61078952D01*
X185872380Y-60983714D01*
X185824761Y-60840857D01*
X185777142Y-60793238D01*
X185443809Y-60793238D01*
X185443809Y-60983714D01*
X185205714Y-60364666D02*
X185872380Y-60364666D01*
X185300952Y-60364666D02*
X185253333Y-60317047D01*
X185205714Y-60221809D01*
X185205714Y-60078952D01*
X185253333Y-59983714D01*
X185348571Y-59936095D01*
X185872380Y-59936095D01*
X185872380Y-59031333D02*
X184872380Y-59031333D01*
X185824761Y-59031333D02*
X185872380Y-59126571D01*
X185872380Y-59317047D01*
X185824761Y-59412285D01*
X185777142Y-59459904D01*
X185681904Y-59507523D01*
X185396190Y-59507523D01*
X185300952Y-59459904D01*
X185253333Y-59412285D01*
X185205714Y-59317047D01*
X185205714Y-59126571D01*
X185253333Y-59031333D01*
X178252380Y-72112095D02*
X177252380Y-72112095D01*
X177252380Y-71874000D01*
X177300000Y-71731142D01*
X177395238Y-71635904D01*
X177490476Y-71588285D01*
X177680952Y-71540666D01*
X177823809Y-71540666D01*
X178014285Y-71588285D01*
X178109523Y-71635904D01*
X178204761Y-71731142D01*
X178252380Y-71874000D01*
X178252380Y-72112095D01*
X177252380Y-71207333D02*
X177252380Y-70588285D01*
X177633333Y-70921619D01*
X177633333Y-70778761D01*
X177680952Y-70683523D01*
X177728571Y-70635904D01*
X177823809Y-70588285D01*
X178061904Y-70588285D01*
X178157142Y-70635904D01*
X178204761Y-70683523D01*
X178252380Y-70778761D01*
X178252380Y-71064476D01*
X178204761Y-71159714D01*
X178157142Y-71207333D01*
X167140000Y-60840857D02*
X167092380Y-60936095D01*
X167092380Y-61078952D01*
X167140000Y-61221809D01*
X167235238Y-61317047D01*
X167330476Y-61364666D01*
X167520952Y-61412285D01*
X167663809Y-61412285D01*
X167854285Y-61364666D01*
X167949523Y-61317047D01*
X168044761Y-61221809D01*
X168092380Y-61078952D01*
X168092380Y-60983714D01*
X168044761Y-60840857D01*
X167997142Y-60793238D01*
X167663809Y-60793238D01*
X167663809Y-60983714D01*
X167425714Y-60364666D02*
X168092380Y-60364666D01*
X167520952Y-60364666D02*
X167473333Y-60317047D01*
X167425714Y-60221809D01*
X167425714Y-60078952D01*
X167473333Y-59983714D01*
X167568571Y-59936095D01*
X168092380Y-59936095D01*
X168092380Y-59031333D02*
X167092380Y-59031333D01*
X168044761Y-59031333D02*
X168092380Y-59126571D01*
X168092380Y-59317047D01*
X168044761Y-59412285D01*
X167997142Y-59459904D01*
X167901904Y-59507523D01*
X167616190Y-59507523D01*
X167520952Y-59459904D01*
X167473333Y-59412285D01*
X167425714Y-59317047D01*
X167425714Y-59126571D01*
X167473333Y-59031333D01*
X188412380Y-73636000D02*
X187412380Y-73636000D01*
X187888571Y-73636000D02*
X187888571Y-73064571D01*
X188412380Y-73064571D02*
X187412380Y-73064571D01*
X188126666Y-72636000D02*
X188126666Y-72159809D01*
X188412380Y-72731238D02*
X187412380Y-72397904D01*
X188412380Y-72064571D01*
X188412380Y-71255047D02*
X188412380Y-71731238D01*
X187412380Y-71731238D01*
X187412380Y-71064571D02*
X187412380Y-70493142D01*
X188412380Y-70778857D02*
X187412380Y-70778857D01*
X210986666Y-61420285D02*
X210986666Y-60944095D01*
X211272380Y-61515523D02*
X210272380Y-61182190D01*
X211272380Y-60848857D01*
X210605714Y-60086952D02*
X211272380Y-60086952D01*
X210224761Y-60325047D02*
X210939047Y-60563142D01*
X210939047Y-59944095D01*
X208446666Y-61420285D02*
X208446666Y-60944095D01*
X208732380Y-61515523D02*
X207732380Y-61182190D01*
X208732380Y-60848857D01*
X207732380Y-60039333D02*
X207732380Y-60515523D01*
X208208571Y-60563142D01*
X208160952Y-60515523D01*
X208113333Y-60420285D01*
X208113333Y-60182190D01*
X208160952Y-60086952D01*
X208208571Y-60039333D01*
X208303809Y-59991714D01*
X208541904Y-59991714D01*
X208637142Y-60039333D01*
X208684761Y-60086952D01*
X208732380Y-60182190D01*
X208732380Y-60420285D01*
X208684761Y-60515523D01*
X208637142Y-60563142D01*
X221146666Y-61388476D02*
X221146666Y-60912285D01*
X221432380Y-61483714D02*
X220432380Y-61150380D01*
X221432380Y-60817047D01*
X221432380Y-59959904D02*
X221432380Y-60531333D01*
X221432380Y-60245619D02*
X220432380Y-60245619D01*
X220575238Y-60340857D01*
X220670476Y-60436095D01*
X220718095Y-60531333D01*
X221432380Y-59007523D02*
X221432380Y-59578952D01*
X221432380Y-59293238D02*
X220432380Y-59293238D01*
X220575238Y-59388476D01*
X220670476Y-59483714D01*
X220718095Y-59578952D01*
X218606666Y-73072476D02*
X218606666Y-72596285D01*
X218892380Y-73167714D02*
X217892380Y-72834380D01*
X218892380Y-72501047D01*
X218892380Y-71643904D02*
X218892380Y-72215333D01*
X218892380Y-71929619D02*
X217892380Y-71929619D01*
X218035238Y-72024857D01*
X218130476Y-72120095D01*
X218178095Y-72215333D01*
X217892380Y-71024857D02*
X217892380Y-70929619D01*
X217940000Y-70834380D01*
X217987619Y-70786761D01*
X218082857Y-70739142D01*
X218273333Y-70691523D01*
X218511428Y-70691523D01*
X218701904Y-70739142D01*
X218797142Y-70786761D01*
X218844761Y-70834380D01*
X218892380Y-70929619D01*
X218892380Y-71024857D01*
X218844761Y-71120095D01*
X218797142Y-71167714D01*
X218701904Y-71215333D01*
X218511428Y-71262952D01*
X218273333Y-71262952D01*
X218082857Y-71215333D01*
X217987619Y-71167714D01*
X217940000Y-71120095D01*
X217892380Y-71024857D01*
X172886666Y-61420285D02*
X172886666Y-60944095D01*
X173172380Y-61515523D02*
X172172380Y-61182190D01*
X173172380Y-60848857D01*
X172172380Y-60325047D02*
X172172380Y-60229809D01*
X172220000Y-60134571D01*
X172267619Y-60086952D01*
X172362857Y-60039333D01*
X172553333Y-59991714D01*
X172791428Y-59991714D01*
X172981904Y-60039333D01*
X173077142Y-60086952D01*
X173124761Y-60134571D01*
X173172380Y-60229809D01*
X173172380Y-60325047D01*
X173124761Y-60420285D01*
X173077142Y-60467904D01*
X172981904Y-60515523D01*
X172791428Y-60563142D01*
X172553333Y-60563142D01*
X172362857Y-60515523D01*
X172267619Y-60467904D01*
X172220000Y-60420285D01*
X172172380Y-60325047D01*
X175712380Y-72112095D02*
X174712380Y-72112095D01*
X174712380Y-71874000D01*
X174760000Y-71731142D01*
X174855238Y-71635904D01*
X174950476Y-71588285D01*
X175140952Y-71540666D01*
X175283809Y-71540666D01*
X175474285Y-71588285D01*
X175569523Y-71635904D01*
X175664761Y-71731142D01*
X175712380Y-71874000D01*
X175712380Y-72112095D01*
X174712380Y-70635904D02*
X174712380Y-71112095D01*
X175188571Y-71159714D01*
X175140952Y-71112095D01*
X175093333Y-71016857D01*
X175093333Y-70778761D01*
X175140952Y-70683523D01*
X175188571Y-70635904D01*
X175283809Y-70588285D01*
X175521904Y-70588285D01*
X175617142Y-70635904D01*
X175664761Y-70683523D01*
X175712380Y-70778761D01*
X175712380Y-71016857D01*
X175664761Y-71112095D01*
X175617142Y-71159714D01*
X201177380Y-60902380D02*
X200701190Y-61235714D01*
X201177380Y-61473809D02*
X200177380Y-61473809D01*
X200177380Y-61092857D01*
X200225000Y-60997619D01*
X200272619Y-60950000D01*
X200367857Y-60902380D01*
X200510714Y-60902380D01*
X200605952Y-60950000D01*
X200653571Y-60997619D01*
X200701190Y-61092857D01*
X200701190Y-61473809D01*
X200653571Y-60473809D02*
X200653571Y-60140476D01*
X201177380Y-59997619D02*
X201177380Y-60473809D01*
X200177380Y-60473809D01*
X200177380Y-59997619D01*
X201129761Y-59616666D02*
X201177380Y-59473809D01*
X201177380Y-59235714D01*
X201129761Y-59140476D01*
X201082142Y-59092857D01*
X200986904Y-59045238D01*
X200891666Y-59045238D01*
X200796428Y-59092857D01*
X200748809Y-59140476D01*
X200701190Y-59235714D01*
X200653571Y-59426190D01*
X200605952Y-59521428D01*
X200558333Y-59569047D01*
X200463095Y-59616666D01*
X200367857Y-59616666D01*
X200272619Y-59569047D01*
X200225000Y-59521428D01*
X200177380Y-59426190D01*
X200177380Y-59188095D01*
X200225000Y-59045238D01*
X200653571Y-58616666D02*
X200653571Y-58283333D01*
X201177380Y-58140476D02*
X201177380Y-58616666D01*
X200177380Y-58616666D01*
X200177380Y-58140476D01*
X200177380Y-57854761D02*
X200177380Y-57283333D01*
X201177380Y-57569047D02*
X200177380Y-57569047D01*
X190952380Y-74199523D02*
X189952380Y-74199523D01*
X190666666Y-73866190D01*
X189952380Y-73532857D01*
X190952380Y-73532857D01*
X190952380Y-72485238D02*
X190476190Y-72818571D01*
X190952380Y-73056666D02*
X189952380Y-73056666D01*
X189952380Y-72675714D01*
X190000000Y-72580476D01*
X190047619Y-72532857D01*
X190142857Y-72485238D01*
X190285714Y-72485238D01*
X190380952Y-72532857D01*
X190428571Y-72580476D01*
X190476190Y-72675714D01*
X190476190Y-73056666D01*
X190428571Y-72056666D02*
X190428571Y-71723333D01*
X190952380Y-71580476D02*
X190952380Y-72056666D01*
X189952380Y-72056666D01*
X189952380Y-71580476D01*
X191047619Y-70485238D02*
X191000000Y-70580476D01*
X190904761Y-70675714D01*
X190761904Y-70818571D01*
X190714285Y-70913809D01*
X190714285Y-71009047D01*
X190952380Y-70961428D02*
X190904761Y-71056666D01*
X190809523Y-71151904D01*
X190619047Y-71199523D01*
X190285714Y-71199523D01*
X190095238Y-71151904D01*
X190000000Y-71056666D01*
X189952380Y-70961428D01*
X189952380Y-70770952D01*
X190000000Y-70675714D01*
X190095238Y-70580476D01*
X190285714Y-70532857D01*
X190619047Y-70532857D01*
X190809523Y-70580476D01*
X190904761Y-70675714D01*
X190952380Y-70770952D01*
X190952380Y-70961428D01*
X192492380Y-61547333D02*
X193492380Y-61214000D01*
X192492380Y-60880666D01*
X152566666Y-72818476D02*
X152566666Y-72342285D01*
X152852380Y-72913714D02*
X151852380Y-72580380D01*
X152852380Y-72247047D01*
X152852380Y-71389904D02*
X152852380Y-71961333D01*
X152852380Y-71675619D02*
X151852380Y-71675619D01*
X151995238Y-71770857D01*
X152090476Y-71866095D01*
X152138095Y-71961333D01*
X151852380Y-70485142D02*
X151852380Y-70961333D01*
X152328571Y-71008952D01*
X152280952Y-70961333D01*
X152233333Y-70866095D01*
X152233333Y-70628000D01*
X152280952Y-70532761D01*
X152328571Y-70485142D01*
X152423809Y-70437523D01*
X152661904Y-70437523D01*
X152757142Y-70485142D01*
X152804761Y-70532761D01*
X152852380Y-70628000D01*
X152852380Y-70866095D01*
X152804761Y-70961333D01*
X152757142Y-71008952D01*
X170632380Y-72112095D02*
X169632380Y-72112095D01*
X169632380Y-71874000D01*
X169680000Y-71731142D01*
X169775238Y-71635904D01*
X169870476Y-71588285D01*
X170060952Y-71540666D01*
X170203809Y-71540666D01*
X170394285Y-71588285D01*
X170489523Y-71635904D01*
X170584761Y-71731142D01*
X170632380Y-71874000D01*
X170632380Y-72112095D01*
X169727619Y-71159714D02*
X169680000Y-71112095D01*
X169632380Y-71016857D01*
X169632380Y-70778761D01*
X169680000Y-70683523D01*
X169727619Y-70635904D01*
X169822857Y-70588285D01*
X169918095Y-70588285D01*
X170060952Y-70635904D01*
X170632380Y-71207333D01*
X170632380Y-70588285D01*
X173172380Y-72112095D02*
X172172380Y-72112095D01*
X172172380Y-71874000D01*
X172220000Y-71731142D01*
X172315238Y-71635904D01*
X172410476Y-71588285D01*
X172600952Y-71540666D01*
X172743809Y-71540666D01*
X172934285Y-71588285D01*
X173029523Y-71635904D01*
X173124761Y-71731142D01*
X173172380Y-71874000D01*
X173172380Y-72112095D01*
X172172380Y-70683523D02*
X172172380Y-70874000D01*
X172220000Y-70969238D01*
X172267619Y-71016857D01*
X172410476Y-71112095D01*
X172600952Y-71159714D01*
X172981904Y-71159714D01*
X173077142Y-71112095D01*
X173124761Y-71064476D01*
X173172380Y-70969238D01*
X173172380Y-70778761D01*
X173124761Y-70683523D01*
X173077142Y-70635904D01*
X172981904Y-70588285D01*
X172743809Y-70588285D01*
X172648571Y-70635904D01*
X172600952Y-70683523D01*
X172553333Y-70778761D01*
X172553333Y-70969238D01*
X172600952Y-71064476D01*
X172648571Y-71112095D01*
X172743809Y-71159714D01*
X221432380Y-72159714D02*
X220432380Y-72159714D01*
X221432380Y-71588285D01*
X220432380Y-71588285D01*
X221337142Y-70540666D02*
X221384761Y-70588285D01*
X221432380Y-70731142D01*
X221432380Y-70826380D01*
X221384761Y-70969238D01*
X221289523Y-71064476D01*
X221194285Y-71112095D01*
X221003809Y-71159714D01*
X220860952Y-71159714D01*
X220670476Y-71112095D01*
X220575238Y-71064476D01*
X220480000Y-70969238D01*
X220432380Y-70826380D01*
X220432380Y-70731142D01*
X220480000Y-70588285D01*
X220527619Y-70540666D01*
X152566666Y-61388476D02*
X152566666Y-60912285D01*
X152852380Y-61483714D02*
X151852380Y-61150380D01*
X152852380Y-60817047D01*
X152852380Y-59959904D02*
X152852380Y-60531333D01*
X152852380Y-60245619D02*
X151852380Y-60245619D01*
X151995238Y-60340857D01*
X152090476Y-60436095D01*
X152138095Y-60531333D01*
X152185714Y-59102761D02*
X152852380Y-59102761D01*
X151804761Y-59340857D02*
X152519047Y-59578952D01*
X152519047Y-58959904D01*
X213812380Y-73509047D02*
X213336190Y-73842380D01*
X213812380Y-74080476D02*
X212812380Y-74080476D01*
X212812380Y-73699523D01*
X212860000Y-73604285D01*
X212907619Y-73556666D01*
X213002857Y-73509047D01*
X213145714Y-73509047D01*
X213240952Y-73556666D01*
X213288571Y-73604285D01*
X213336190Y-73699523D01*
X213336190Y-74080476D01*
X213288571Y-72747142D02*
X213288571Y-73080476D01*
X213812380Y-73080476D02*
X212812380Y-73080476D01*
X212812380Y-72604285D01*
X213764761Y-72270952D02*
X213812380Y-72128095D01*
X213812380Y-71890000D01*
X213764761Y-71794761D01*
X213717142Y-71747142D01*
X213621904Y-71699523D01*
X213526666Y-71699523D01*
X213431428Y-71747142D01*
X213383809Y-71794761D01*
X213336190Y-71890000D01*
X213288571Y-72080476D01*
X213240952Y-72175714D01*
X213193333Y-72223333D01*
X213098095Y-72270952D01*
X213002857Y-72270952D01*
X212907619Y-72223333D01*
X212860000Y-72175714D01*
X212812380Y-72080476D01*
X212812380Y-71842380D01*
X212860000Y-71699523D01*
X213812380Y-71270952D02*
X212812380Y-71270952D01*
X213288571Y-71270952D02*
X213288571Y-70699523D01*
X213812380Y-70699523D02*
X212812380Y-70699523D01*
X193492380Y-73683619D02*
X192492380Y-73683619D01*
X192492380Y-73016952D02*
X192492380Y-72826476D01*
X192540000Y-72731238D01*
X192635238Y-72636000D01*
X192825714Y-72588380D01*
X193159047Y-72588380D01*
X193349523Y-72636000D01*
X193444761Y-72731238D01*
X193492380Y-72826476D01*
X193492380Y-73016952D01*
X193444761Y-73112190D01*
X193349523Y-73207428D01*
X193159047Y-73255047D01*
X192825714Y-73255047D01*
X192635238Y-73207428D01*
X192540000Y-73112190D01*
X192492380Y-73016952D01*
X193492380Y-71588380D02*
X193016190Y-71921714D01*
X193492380Y-72159809D02*
X192492380Y-72159809D01*
X192492380Y-71778857D01*
X192540000Y-71683619D01*
X192587619Y-71636000D01*
X192682857Y-71588380D01*
X192825714Y-71588380D01*
X192920952Y-71636000D01*
X192968571Y-71683619D01*
X193016190Y-71778857D01*
X193016190Y-72159809D01*
X193587619Y-70493142D02*
X193540000Y-70588380D01*
X193444761Y-70683619D01*
X193301904Y-70826476D01*
X193254285Y-70921714D01*
X193254285Y-71016952D01*
X193492380Y-70969333D02*
X193444761Y-71064571D01*
X193349523Y-71159809D01*
X193159047Y-71207428D01*
X192825714Y-71207428D01*
X192635238Y-71159809D01*
X192540000Y-71064571D01*
X192492380Y-70969333D01*
X192492380Y-70778857D01*
X192540000Y-70683619D01*
X192635238Y-70588380D01*
X192825714Y-70540761D01*
X193159047Y-70540761D01*
X193349523Y-70588380D01*
X193444761Y-70683619D01*
X193492380Y-70778857D01*
X193492380Y-70969333D01*
X183332380Y-61491714D02*
X182332380Y-61491714D01*
X183332380Y-60920285D01*
X182332380Y-60920285D01*
X183237142Y-59872666D02*
X183284761Y-59920285D01*
X183332380Y-60063142D01*
X183332380Y-60158380D01*
X183284761Y-60301238D01*
X183189523Y-60396476D01*
X183094285Y-60444095D01*
X182903809Y-60491714D01*
X182760952Y-60491714D01*
X182570476Y-60444095D01*
X182475238Y-60396476D01*
X182380000Y-60301238D01*
X182332380Y-60158380D01*
X182332380Y-60063142D01*
X182380000Y-59920285D01*
X182427619Y-59872666D01*
X177712666Y-61420285D02*
X177712666Y-60944095D01*
X177998380Y-61515523D02*
X176998380Y-61182190D01*
X177998380Y-60848857D01*
X177093619Y-60563142D02*
X177046000Y-60515523D01*
X176998380Y-60420285D01*
X176998380Y-60182190D01*
X177046000Y-60086952D01*
X177093619Y-60039333D01*
X177188857Y-59991714D01*
X177284095Y-59991714D01*
X177426952Y-60039333D01*
X177998380Y-60610761D01*
X177998380Y-59991714D01*
X155106666Y-61388476D02*
X155106666Y-60912285D01*
X155392380Y-61483714D02*
X154392380Y-61150380D01*
X155392380Y-60817047D01*
X155392380Y-59959904D02*
X155392380Y-60531333D01*
X155392380Y-60245619D02*
X154392380Y-60245619D01*
X154535238Y-60340857D01*
X154630476Y-60436095D01*
X154678095Y-60531333D01*
X154487619Y-59578952D02*
X154440000Y-59531333D01*
X154392380Y-59436095D01*
X154392380Y-59198000D01*
X154440000Y-59102761D01*
X154487619Y-59055142D01*
X154582857Y-59007523D01*
X154678095Y-59007523D01*
X154820952Y-59055142D01*
X155392380Y-59626571D01*
X155392380Y-59007523D01*
X218606666Y-61420285D02*
X218606666Y-60944095D01*
X218892380Y-61515523D02*
X217892380Y-61182190D01*
X218892380Y-60848857D01*
X218892380Y-60467904D02*
X218892380Y-60277428D01*
X218844761Y-60182190D01*
X218797142Y-60134571D01*
X218654285Y-60039333D01*
X218463809Y-59991714D01*
X218082857Y-59991714D01*
X217987619Y-60039333D01*
X217940000Y-60086952D01*
X217892380Y-60182190D01*
X217892380Y-60372666D01*
X217940000Y-60467904D01*
X217987619Y-60515523D01*
X218082857Y-60563142D01*
X218320952Y-60563142D01*
X218416190Y-60515523D01*
X218463809Y-60467904D01*
X218511428Y-60372666D01*
X218511428Y-60182190D01*
X218463809Y-60086952D01*
X218416190Y-60039333D01*
X218320952Y-59991714D01*
X164600000Y-60840857D02*
X164552380Y-60936095D01*
X164552380Y-61078952D01*
X164600000Y-61221809D01*
X164695238Y-61317047D01*
X164790476Y-61364666D01*
X164980952Y-61412285D01*
X165123809Y-61412285D01*
X165314285Y-61364666D01*
X165409523Y-61317047D01*
X165504761Y-61221809D01*
X165552380Y-61078952D01*
X165552380Y-60983714D01*
X165504761Y-60840857D01*
X165457142Y-60793238D01*
X165123809Y-60793238D01*
X165123809Y-60983714D01*
X164885714Y-60364666D02*
X165552380Y-60364666D01*
X164980952Y-60364666D02*
X164933333Y-60317047D01*
X164885714Y-60221809D01*
X164885714Y-60078952D01*
X164933333Y-59983714D01*
X165028571Y-59936095D01*
X165552380Y-59936095D01*
X165552380Y-59031333D02*
X164552380Y-59031333D01*
X165504761Y-59031333D02*
X165552380Y-59126571D01*
X165552380Y-59317047D01*
X165504761Y-59412285D01*
X165457142Y-59459904D01*
X165361904Y-59507523D01*
X165076190Y-59507523D01*
X164980952Y-59459904D01*
X164933333Y-59412285D01*
X164885714Y-59317047D01*
X164885714Y-59126571D01*
X164933333Y-59031333D01*
X216066666Y-72088285D02*
X216066666Y-71612095D01*
X216352380Y-72183523D02*
X215352380Y-71850190D01*
X216352380Y-71516857D01*
X215780952Y-71040666D02*
X215733333Y-71135904D01*
X215685714Y-71183523D01*
X215590476Y-71231142D01*
X215542857Y-71231142D01*
X215447619Y-71183523D01*
X215400000Y-71135904D01*
X215352380Y-71040666D01*
X215352380Y-70850190D01*
X215400000Y-70754952D01*
X215447619Y-70707333D01*
X215542857Y-70659714D01*
X215590476Y-70659714D01*
X215685714Y-70707333D01*
X215733333Y-70754952D01*
X215780952Y-70850190D01*
X215780952Y-71040666D01*
X215828571Y-71135904D01*
X215876190Y-71183523D01*
X215971428Y-71231142D01*
X216161904Y-71231142D01*
X216257142Y-71183523D01*
X216304761Y-71135904D01*
X216352380Y-71040666D01*
X216352380Y-70850190D01*
X216304761Y-70754952D01*
X216257142Y-70707333D01*
X216161904Y-70659714D01*
X215971428Y-70659714D01*
X215876190Y-70707333D01*
X215828571Y-70754952D01*
X215780952Y-70850190D01*
X180554571Y-57586571D02*
X180697428Y-57634190D01*
X180745047Y-57681809D01*
X180792666Y-57777047D01*
X180792666Y-57919904D01*
X180745047Y-58015142D01*
X180697428Y-58062761D01*
X180602190Y-58110380D01*
X180221238Y-58110380D01*
X180221238Y-57110380D01*
X180554571Y-57110380D01*
X180649809Y-57158000D01*
X180697428Y-57205619D01*
X180745047Y-57300857D01*
X180745047Y-57396095D01*
X180697428Y-57491333D01*
X180649809Y-57538952D01*
X180554571Y-57586571D01*
X180221238Y-57586571D01*
X181364095Y-58110380D02*
X181268857Y-58062761D01*
X181221238Y-58015142D01*
X181173619Y-57919904D01*
X181173619Y-57634190D01*
X181221238Y-57538952D01*
X181268857Y-57491333D01*
X181364095Y-57443714D01*
X181506952Y-57443714D01*
X181602190Y-57491333D01*
X181649809Y-57538952D01*
X181697428Y-57634190D01*
X181697428Y-57919904D01*
X181649809Y-58015142D01*
X181602190Y-58062761D01*
X181506952Y-58110380D01*
X181364095Y-58110380D01*
X181983142Y-57443714D02*
X182364095Y-57443714D01*
X182126000Y-57110380D02*
X182126000Y-57967523D01*
X182173619Y-58062761D01*
X182268857Y-58110380D01*
X182364095Y-58110380D01*
X182554571Y-57443714D02*
X182935523Y-57443714D01*
X182697428Y-57110380D02*
X182697428Y-57967523D01*
X182745047Y-58062761D01*
X182840285Y-58110380D01*
X182935523Y-58110380D01*
X183411714Y-58110380D02*
X183316476Y-58062761D01*
X183268857Y-58015142D01*
X183221238Y-57919904D01*
X183221238Y-57634190D01*
X183268857Y-57538952D01*
X183316476Y-57491333D01*
X183411714Y-57443714D01*
X183554571Y-57443714D01*
X183649809Y-57491333D01*
X183697428Y-57538952D01*
X183745047Y-57634190D01*
X183745047Y-57919904D01*
X183697428Y-58015142D01*
X183649809Y-58062761D01*
X183554571Y-58110380D01*
X183411714Y-58110380D01*
X184173619Y-58110380D02*
X184173619Y-57443714D01*
X184173619Y-57538952D02*
X184221238Y-57491333D01*
X184316476Y-57443714D01*
X184459333Y-57443714D01*
X184554571Y-57491333D01*
X184602190Y-57586571D01*
X184602190Y-58110380D01*
X184602190Y-57586571D02*
X184649809Y-57491333D01*
X184745047Y-57443714D01*
X184887904Y-57443714D01*
X184983142Y-57491333D01*
X185030761Y-57586571D01*
X185030761Y-58110380D01*
X187412380Y-61594761D02*
X188412380Y-61261428D01*
X187412380Y-60928095D01*
X188412380Y-60594761D02*
X187745714Y-60594761D01*
X187412380Y-60594761D02*
X187460000Y-60642380D01*
X187507619Y-60594761D01*
X187460000Y-60547142D01*
X187412380Y-60594761D01*
X187507619Y-60594761D01*
X188412380Y-59690000D02*
X187412380Y-59690000D01*
X188364761Y-59690000D02*
X188412380Y-59785238D01*
X188412380Y-59975714D01*
X188364761Y-60070952D01*
X188317142Y-60118571D01*
X188221904Y-60166190D01*
X187936190Y-60166190D01*
X187840952Y-60118571D01*
X187793333Y-60070952D01*
X187745714Y-59975714D01*
X187745714Y-59785238D01*
X187793333Y-59690000D01*
X188364761Y-58832857D02*
X188412380Y-58928095D01*
X188412380Y-59118571D01*
X188364761Y-59213809D01*
X188269523Y-59261428D01*
X187888571Y-59261428D01*
X187793333Y-59213809D01*
X187745714Y-59118571D01*
X187745714Y-58928095D01*
X187793333Y-58832857D01*
X187888571Y-58785238D01*
X187983809Y-58785238D01*
X188079047Y-59261428D01*
X188412380Y-58213809D02*
X188364761Y-58309047D01*
X188317142Y-58356666D01*
X188221904Y-58404285D01*
X187936190Y-58404285D01*
X187840952Y-58356666D01*
X187793333Y-58309047D01*
X187745714Y-58213809D01*
X187745714Y-58070952D01*
X187793333Y-57975714D01*
X187840952Y-57928095D01*
X187936190Y-57880476D01*
X188221904Y-57880476D01*
X188317142Y-57928095D01*
X188364761Y-57975714D01*
X188412380Y-58070952D01*
X188412380Y-58213809D01*
X185872380Y-72723238D02*
X184872380Y-72723238D01*
X185872380Y-72151809D01*
X184872380Y-72151809D01*
X185872380Y-71675619D02*
X184872380Y-71675619D01*
X185586666Y-71342285D01*
X184872380Y-71008952D01*
X185872380Y-71008952D01*
X185872380Y-70532761D02*
X184872380Y-70532761D01*
X198048571Y-61134380D02*
X198096190Y-60991523D01*
X198143809Y-60943904D01*
X198239047Y-60896285D01*
X198381904Y-60896285D01*
X198477142Y-60943904D01*
X198524761Y-60991523D01*
X198572380Y-61086761D01*
X198572380Y-61467714D01*
X197572380Y-61467714D01*
X197572380Y-61134380D01*
X197620000Y-61039142D01*
X197667619Y-60991523D01*
X197762857Y-60943904D01*
X197858095Y-60943904D01*
X197953333Y-60991523D01*
X198000952Y-61039142D01*
X198048571Y-61134380D01*
X198048571Y-61467714D01*
X197572380Y-60467714D02*
X198381904Y-60467714D01*
X198477142Y-60420095D01*
X198524761Y-60372476D01*
X198572380Y-60277238D01*
X198572380Y-60086761D01*
X198524761Y-59991523D01*
X198477142Y-59943904D01*
X198381904Y-59896285D01*
X197572380Y-59896285D01*
X198524761Y-59467714D02*
X198572380Y-59324857D01*
X198572380Y-59086761D01*
X198524761Y-58991523D01*
X198477142Y-58943904D01*
X198381904Y-58896285D01*
X198286666Y-58896285D01*
X198191428Y-58943904D01*
X198143809Y-58991523D01*
X198096190Y-59086761D01*
X198048571Y-59277238D01*
X198000952Y-59372476D01*
X197953333Y-59420095D01*
X197858095Y-59467714D01*
X197762857Y-59467714D01*
X197667619Y-59420095D01*
X197620000Y-59372476D01*
X197572380Y-59277238D01*
X197572380Y-59039142D01*
X197620000Y-58896285D01*
X198572380Y-57896285D02*
X198096190Y-58229619D01*
X198572380Y-58467714D02*
X197572380Y-58467714D01*
X197572380Y-58086761D01*
X197620000Y-57991523D01*
X197667619Y-57943904D01*
X197762857Y-57896285D01*
X197905714Y-57896285D01*
X198000952Y-57943904D01*
X198048571Y-57991523D01*
X198096190Y-58086761D01*
X198096190Y-58467714D01*
X198667619Y-56801047D02*
X198620000Y-56896285D01*
X198524761Y-56991523D01*
X198381904Y-57134380D01*
X198334285Y-57229619D01*
X198334285Y-57324857D01*
X198572380Y-57277238D02*
X198524761Y-57372476D01*
X198429523Y-57467714D01*
X198239047Y-57515333D01*
X197905714Y-57515333D01*
X197715238Y-57467714D01*
X197620000Y-57372476D01*
X197572380Y-57277238D01*
X197572380Y-57086761D01*
X197620000Y-56991523D01*
X197715238Y-56896285D01*
X197905714Y-56848666D01*
X198239047Y-56848666D01*
X198429523Y-56896285D01*
X198524761Y-56991523D01*
X198572380Y-57086761D01*
X198572380Y-57277238D01*
X158186380Y-72112095D02*
X157186380Y-72112095D01*
X157186380Y-71874000D01*
X157234000Y-71731142D01*
X157329238Y-71635904D01*
X157424476Y-71588285D01*
X157614952Y-71540666D01*
X157757809Y-71540666D01*
X157948285Y-71588285D01*
X158043523Y-71635904D01*
X158138761Y-71731142D01*
X158186380Y-71874000D01*
X158186380Y-72112095D01*
X157186380Y-71207333D02*
X157186380Y-70540666D01*
X158186380Y-70969238D01*
X208351428Y-74151904D02*
X208351428Y-73390000D01*
X208732380Y-72390000D02*
X208732380Y-72961428D01*
X208732380Y-72675714D02*
X207732380Y-72675714D01*
X207875238Y-72770952D01*
X207970476Y-72866190D01*
X208018095Y-72961428D01*
X207827619Y-72009047D02*
X207780000Y-71961428D01*
X207732380Y-71866190D01*
X207732380Y-71628095D01*
X207780000Y-71532857D01*
X207827619Y-71485238D01*
X207922857Y-71437619D01*
X208018095Y-71437619D01*
X208160952Y-71485238D01*
X208732380Y-72056666D01*
X208732380Y-71437619D01*
X207732380Y-71151904D02*
X208732380Y-70818571D01*
X207732380Y-70485238D01*
X168092380Y-72112095D02*
X167092380Y-72112095D01*
X167092380Y-71874000D01*
X167140000Y-71731142D01*
X167235238Y-71635904D01*
X167330476Y-71588285D01*
X167520952Y-71540666D01*
X167663809Y-71540666D01*
X167854285Y-71588285D01*
X167949523Y-71635904D01*
X168044761Y-71731142D01*
X168092380Y-71874000D01*
X168092380Y-72112095D01*
X168092380Y-70588285D02*
X168092380Y-71159714D01*
X168092380Y-70874000D02*
X167092380Y-70874000D01*
X167235238Y-70969238D01*
X167330476Y-71064476D01*
X167378095Y-71159714D01*
X184229523Y-73874380D02*
X184800952Y-73874380D01*
X184515238Y-74874380D02*
X184515238Y-73874380D01*
X185277142Y-74874380D02*
X185181904Y-74826761D01*
X185134285Y-74779142D01*
X185086666Y-74683904D01*
X185086666Y-74398190D01*
X185134285Y-74302952D01*
X185181904Y-74255333D01*
X185277142Y-74207714D01*
X185420000Y-74207714D01*
X185515238Y-74255333D01*
X185562857Y-74302952D01*
X185610476Y-74398190D01*
X185610476Y-74683904D01*
X185562857Y-74779142D01*
X185515238Y-74826761D01*
X185420000Y-74874380D01*
X185277142Y-74874380D01*
X186039047Y-74207714D02*
X186039047Y-75207714D01*
X186039047Y-74255333D02*
X186134285Y-74207714D01*
X186324761Y-74207714D01*
X186420000Y-74255333D01*
X186467619Y-74302952D01*
X186515238Y-74398190D01*
X186515238Y-74683904D01*
X186467619Y-74779142D01*
X186420000Y-74826761D01*
X186324761Y-74874380D01*
X186134285Y-74874380D01*
X186039047Y-74826761D01*
X205906666Y-61420285D02*
X205906666Y-60944095D01*
X206192380Y-61515523D02*
X205192380Y-61182190D01*
X206192380Y-60848857D01*
X205192380Y-60086952D02*
X205192380Y-60277428D01*
X205240000Y-60372666D01*
X205287619Y-60420285D01*
X205430476Y-60515523D01*
X205620952Y-60563142D01*
X206001904Y-60563142D01*
X206097142Y-60515523D01*
X206144761Y-60467904D01*
X206192380Y-60372666D01*
X206192380Y-60182190D01*
X206144761Y-60086952D01*
X206097142Y-60039333D01*
X206001904Y-59991714D01*
X205763809Y-59991714D01*
X205668571Y-60039333D01*
X205620952Y-60086952D01*
X205573333Y-60182190D01*
X205573333Y-60372666D01*
X205620952Y-60467904D01*
X205668571Y-60515523D01*
X205763809Y-60563142D01*
X200731428Y-73421714D02*
X200731428Y-72659809D01*
X200112380Y-71707428D02*
X200112380Y-72183619D01*
X200588571Y-72231238D01*
X200540952Y-72183619D01*
X200493333Y-72088380D01*
X200493333Y-71850285D01*
X200540952Y-71755047D01*
X200588571Y-71707428D01*
X200683809Y-71659809D01*
X200921904Y-71659809D01*
X201017142Y-71707428D01*
X201064761Y-71755047D01*
X201112380Y-71850285D01*
X201112380Y-72088380D01*
X201064761Y-72183619D01*
X201017142Y-72231238D01*
X200112380Y-71374095D02*
X201112380Y-71040761D01*
X200112380Y-70707428D01*
X211272380Y-72183523D02*
X210272380Y-72183523D01*
X210986666Y-71850190D01*
X210272380Y-71516857D01*
X211272380Y-71516857D01*
X211272380Y-70516857D02*
X211272380Y-71088285D01*
X211272380Y-70802571D02*
X210272380Y-70802571D01*
X210415238Y-70897809D01*
X210510476Y-70993047D01*
X210558095Y-71088285D01*
X160091428Y-61483714D02*
X160091428Y-60721809D01*
X160472380Y-61102761D02*
X159710476Y-61102761D01*
X160472380Y-60198000D02*
X160472380Y-60007523D01*
X160424761Y-59912285D01*
X160377142Y-59864666D01*
X160234285Y-59769428D01*
X160043809Y-59721809D01*
X159662857Y-59721809D01*
X159567619Y-59769428D01*
X159520000Y-59817047D01*
X159472380Y-59912285D01*
X159472380Y-60102761D01*
X159520000Y-60198000D01*
X159567619Y-60245619D01*
X159662857Y-60293238D01*
X159900952Y-60293238D01*
X159996190Y-60245619D01*
X160043809Y-60198000D01*
X160091428Y-60102761D01*
X160091428Y-59912285D01*
X160043809Y-59817047D01*
X159996190Y-59769428D01*
X159900952Y-59721809D01*
X159472380Y-59436095D02*
X160472380Y-59102761D01*
X159472380Y-58769428D01*
X205811428Y-74151904D02*
X205811428Y-73390000D01*
X206192380Y-73770952D02*
X205430476Y-73770952D01*
X206192380Y-72390000D02*
X206192380Y-72961428D01*
X206192380Y-72675714D02*
X205192380Y-72675714D01*
X205335238Y-72770952D01*
X205430476Y-72866190D01*
X205478095Y-72961428D01*
X205287619Y-72009047D02*
X205240000Y-71961428D01*
X205192380Y-71866190D01*
X205192380Y-71628095D01*
X205240000Y-71532857D01*
X205287619Y-71485238D01*
X205382857Y-71437619D01*
X205478095Y-71437619D01*
X205620952Y-71485238D01*
X206192380Y-72056666D01*
X206192380Y-71437619D01*
X205192380Y-71151904D02*
X206192380Y-70818571D01*
X205192380Y-70485238D01*
X183332380Y-72532761D02*
X182332380Y-72532761D01*
X183332380Y-72056571D02*
X182332380Y-72056571D01*
X183332380Y-71485142D01*
X182332380Y-71485142D01*
X182332380Y-71151809D02*
X182332380Y-70580380D01*
X183332380Y-70866095D02*
X182332380Y-70866095D01*
X170537142Y-60809142D02*
X170584761Y-60856761D01*
X170632380Y-60999619D01*
X170632380Y-61094857D01*
X170584761Y-61237714D01*
X170489523Y-61332952D01*
X170394285Y-61380571D01*
X170203809Y-61428190D01*
X170060952Y-61428190D01*
X169870476Y-61380571D01*
X169775238Y-61332952D01*
X169680000Y-61237714D01*
X169632380Y-61094857D01*
X169632380Y-60999619D01*
X169680000Y-60856761D01*
X169727619Y-60809142D01*
X170632380Y-60237714D02*
X170584761Y-60332952D01*
X170489523Y-60380571D01*
X169632380Y-60380571D01*
X170632380Y-59856761D02*
X169632380Y-59856761D01*
X170251428Y-59761523D02*
X170632380Y-59475809D01*
X169965714Y-59475809D02*
X170346666Y-59856761D01*
X203366666Y-61420285D02*
X203366666Y-60944095D01*
X203652380Y-61515523D02*
X202652380Y-61182190D01*
X203652380Y-60848857D01*
X202652380Y-60610761D02*
X202652380Y-59944095D01*
X203652380Y-60372666D01*
X175172666Y-61420285D02*
X175172666Y-60944095D01*
X175458380Y-61515523D02*
X174458380Y-61182190D01*
X175458380Y-60848857D01*
X175458380Y-59991714D02*
X175458380Y-60563142D01*
X175458380Y-60277428D02*
X174458380Y-60277428D01*
X174601238Y-60372666D01*
X174696476Y-60467904D01*
X174744095Y-60563142D01*
%TO.C,U2*%
X222872380Y-125221904D02*
X223681904Y-125221904D01*
X223777142Y-125174285D01*
X223824761Y-125126666D01*
X223872380Y-125031428D01*
X223872380Y-124840952D01*
X223824761Y-124745714D01*
X223777142Y-124698095D01*
X223681904Y-124650476D01*
X222872380Y-124650476D01*
X222967619Y-124221904D02*
X222920000Y-124174285D01*
X222872380Y-124079047D01*
X222872380Y-123840952D01*
X222920000Y-123745714D01*
X222967619Y-123698095D01*
X223062857Y-123650476D01*
X223158095Y-123650476D01*
X223300952Y-123698095D01*
X223872380Y-124269523D01*
X223872380Y-123650476D01*
X175172666Y-119840285D02*
X175172666Y-119364095D01*
X175458380Y-119935523D02*
X174458380Y-119602190D01*
X175458380Y-119268857D01*
X175458380Y-118411714D02*
X175458380Y-118983142D01*
X175458380Y-118697428D02*
X174458380Y-118697428D01*
X174601238Y-118792666D01*
X174696476Y-118887904D01*
X174744095Y-118983142D01*
X203366666Y-119840285D02*
X203366666Y-119364095D01*
X203652380Y-119935523D02*
X202652380Y-119602190D01*
X203652380Y-119268857D01*
X202652380Y-119030761D02*
X202652380Y-118364095D01*
X203652380Y-118792666D01*
X170537142Y-119229142D02*
X170584761Y-119276761D01*
X170632380Y-119419619D01*
X170632380Y-119514857D01*
X170584761Y-119657714D01*
X170489523Y-119752952D01*
X170394285Y-119800571D01*
X170203809Y-119848190D01*
X170060952Y-119848190D01*
X169870476Y-119800571D01*
X169775238Y-119752952D01*
X169680000Y-119657714D01*
X169632380Y-119514857D01*
X169632380Y-119419619D01*
X169680000Y-119276761D01*
X169727619Y-119229142D01*
X170632380Y-118657714D02*
X170584761Y-118752952D01*
X170489523Y-118800571D01*
X169632380Y-118800571D01*
X170632380Y-118276761D02*
X169632380Y-118276761D01*
X170251428Y-118181523D02*
X170632380Y-117895809D01*
X169965714Y-117895809D02*
X170346666Y-118276761D01*
X183332380Y-130952761D02*
X182332380Y-130952761D01*
X183332380Y-130476571D02*
X182332380Y-130476571D01*
X183332380Y-129905142D01*
X182332380Y-129905142D01*
X182332380Y-129571809D02*
X182332380Y-129000380D01*
X183332380Y-129286095D02*
X182332380Y-129286095D01*
X205811428Y-132571904D02*
X205811428Y-131810000D01*
X206192380Y-132190952D02*
X205430476Y-132190952D01*
X206192380Y-130810000D02*
X206192380Y-131381428D01*
X206192380Y-131095714D02*
X205192380Y-131095714D01*
X205335238Y-131190952D01*
X205430476Y-131286190D01*
X205478095Y-131381428D01*
X205287619Y-130429047D02*
X205240000Y-130381428D01*
X205192380Y-130286190D01*
X205192380Y-130048095D01*
X205240000Y-129952857D01*
X205287619Y-129905238D01*
X205382857Y-129857619D01*
X205478095Y-129857619D01*
X205620952Y-129905238D01*
X206192380Y-130476666D01*
X206192380Y-129857619D01*
X205192380Y-129571904D02*
X206192380Y-129238571D01*
X205192380Y-128905238D01*
X160091428Y-119903714D02*
X160091428Y-119141809D01*
X160472380Y-119522761D02*
X159710476Y-119522761D01*
X160472380Y-118618000D02*
X160472380Y-118427523D01*
X160424761Y-118332285D01*
X160377142Y-118284666D01*
X160234285Y-118189428D01*
X160043809Y-118141809D01*
X159662857Y-118141809D01*
X159567619Y-118189428D01*
X159520000Y-118237047D01*
X159472380Y-118332285D01*
X159472380Y-118522761D01*
X159520000Y-118618000D01*
X159567619Y-118665619D01*
X159662857Y-118713238D01*
X159900952Y-118713238D01*
X159996190Y-118665619D01*
X160043809Y-118618000D01*
X160091428Y-118522761D01*
X160091428Y-118332285D01*
X160043809Y-118237047D01*
X159996190Y-118189428D01*
X159900952Y-118141809D01*
X159472380Y-117856095D02*
X160472380Y-117522761D01*
X159472380Y-117189428D01*
X211272380Y-130603523D02*
X210272380Y-130603523D01*
X210986666Y-130270190D01*
X210272380Y-129936857D01*
X211272380Y-129936857D01*
X211272380Y-128936857D02*
X211272380Y-129508285D01*
X211272380Y-129222571D02*
X210272380Y-129222571D01*
X210415238Y-129317809D01*
X210510476Y-129413047D01*
X210558095Y-129508285D01*
X200731428Y-131841714D02*
X200731428Y-131079809D01*
X200112380Y-130127428D02*
X200112380Y-130603619D01*
X200588571Y-130651238D01*
X200540952Y-130603619D01*
X200493333Y-130508380D01*
X200493333Y-130270285D01*
X200540952Y-130175047D01*
X200588571Y-130127428D01*
X200683809Y-130079809D01*
X200921904Y-130079809D01*
X201017142Y-130127428D01*
X201064761Y-130175047D01*
X201112380Y-130270285D01*
X201112380Y-130508380D01*
X201064761Y-130603619D01*
X201017142Y-130651238D01*
X200112380Y-129794095D02*
X201112380Y-129460761D01*
X200112380Y-129127428D01*
X205906666Y-119840285D02*
X205906666Y-119364095D01*
X206192380Y-119935523D02*
X205192380Y-119602190D01*
X206192380Y-119268857D01*
X205192380Y-118506952D02*
X205192380Y-118697428D01*
X205240000Y-118792666D01*
X205287619Y-118840285D01*
X205430476Y-118935523D01*
X205620952Y-118983142D01*
X206001904Y-118983142D01*
X206097142Y-118935523D01*
X206144761Y-118887904D01*
X206192380Y-118792666D01*
X206192380Y-118602190D01*
X206144761Y-118506952D01*
X206097142Y-118459333D01*
X206001904Y-118411714D01*
X205763809Y-118411714D01*
X205668571Y-118459333D01*
X205620952Y-118506952D01*
X205573333Y-118602190D01*
X205573333Y-118792666D01*
X205620952Y-118887904D01*
X205668571Y-118935523D01*
X205763809Y-118983142D01*
X184229523Y-132294380D02*
X184800952Y-132294380D01*
X184515238Y-133294380D02*
X184515238Y-132294380D01*
X185277142Y-133294380D02*
X185181904Y-133246761D01*
X185134285Y-133199142D01*
X185086666Y-133103904D01*
X185086666Y-132818190D01*
X185134285Y-132722952D01*
X185181904Y-132675333D01*
X185277142Y-132627714D01*
X185420000Y-132627714D01*
X185515238Y-132675333D01*
X185562857Y-132722952D01*
X185610476Y-132818190D01*
X185610476Y-133103904D01*
X185562857Y-133199142D01*
X185515238Y-133246761D01*
X185420000Y-133294380D01*
X185277142Y-133294380D01*
X186039047Y-132627714D02*
X186039047Y-133627714D01*
X186039047Y-132675333D02*
X186134285Y-132627714D01*
X186324761Y-132627714D01*
X186420000Y-132675333D01*
X186467619Y-132722952D01*
X186515238Y-132818190D01*
X186515238Y-133103904D01*
X186467619Y-133199142D01*
X186420000Y-133246761D01*
X186324761Y-133294380D01*
X186134285Y-133294380D01*
X186039047Y-133246761D01*
X168092380Y-130532095D02*
X167092380Y-130532095D01*
X167092380Y-130294000D01*
X167140000Y-130151142D01*
X167235238Y-130055904D01*
X167330476Y-130008285D01*
X167520952Y-129960666D01*
X167663809Y-129960666D01*
X167854285Y-130008285D01*
X167949523Y-130055904D01*
X168044761Y-130151142D01*
X168092380Y-130294000D01*
X168092380Y-130532095D01*
X168092380Y-129008285D02*
X168092380Y-129579714D01*
X168092380Y-129294000D02*
X167092380Y-129294000D01*
X167235238Y-129389238D01*
X167330476Y-129484476D01*
X167378095Y-129579714D01*
X208351428Y-132571904D02*
X208351428Y-131810000D01*
X208732380Y-130810000D02*
X208732380Y-131381428D01*
X208732380Y-131095714D02*
X207732380Y-131095714D01*
X207875238Y-131190952D01*
X207970476Y-131286190D01*
X208018095Y-131381428D01*
X207827619Y-130429047D02*
X207780000Y-130381428D01*
X207732380Y-130286190D01*
X207732380Y-130048095D01*
X207780000Y-129952857D01*
X207827619Y-129905238D01*
X207922857Y-129857619D01*
X208018095Y-129857619D01*
X208160952Y-129905238D01*
X208732380Y-130476666D01*
X208732380Y-129857619D01*
X207732380Y-129571904D02*
X208732380Y-129238571D01*
X207732380Y-128905238D01*
X158186380Y-130532095D02*
X157186380Y-130532095D01*
X157186380Y-130294000D01*
X157234000Y-130151142D01*
X157329238Y-130055904D01*
X157424476Y-130008285D01*
X157614952Y-129960666D01*
X157757809Y-129960666D01*
X157948285Y-130008285D01*
X158043523Y-130055904D01*
X158138761Y-130151142D01*
X158186380Y-130294000D01*
X158186380Y-130532095D01*
X157186380Y-129627333D02*
X157186380Y-128960666D01*
X158186380Y-129389238D01*
X198048571Y-119554380D02*
X198096190Y-119411523D01*
X198143809Y-119363904D01*
X198239047Y-119316285D01*
X198381904Y-119316285D01*
X198477142Y-119363904D01*
X198524761Y-119411523D01*
X198572380Y-119506761D01*
X198572380Y-119887714D01*
X197572380Y-119887714D01*
X197572380Y-119554380D01*
X197620000Y-119459142D01*
X197667619Y-119411523D01*
X197762857Y-119363904D01*
X197858095Y-119363904D01*
X197953333Y-119411523D01*
X198000952Y-119459142D01*
X198048571Y-119554380D01*
X198048571Y-119887714D01*
X197572380Y-118887714D02*
X198381904Y-118887714D01*
X198477142Y-118840095D01*
X198524761Y-118792476D01*
X198572380Y-118697238D01*
X198572380Y-118506761D01*
X198524761Y-118411523D01*
X198477142Y-118363904D01*
X198381904Y-118316285D01*
X197572380Y-118316285D01*
X198524761Y-117887714D02*
X198572380Y-117744857D01*
X198572380Y-117506761D01*
X198524761Y-117411523D01*
X198477142Y-117363904D01*
X198381904Y-117316285D01*
X198286666Y-117316285D01*
X198191428Y-117363904D01*
X198143809Y-117411523D01*
X198096190Y-117506761D01*
X198048571Y-117697238D01*
X198000952Y-117792476D01*
X197953333Y-117840095D01*
X197858095Y-117887714D01*
X197762857Y-117887714D01*
X197667619Y-117840095D01*
X197620000Y-117792476D01*
X197572380Y-117697238D01*
X197572380Y-117459142D01*
X197620000Y-117316285D01*
X198572380Y-116316285D02*
X198096190Y-116649619D01*
X198572380Y-116887714D02*
X197572380Y-116887714D01*
X197572380Y-116506761D01*
X197620000Y-116411523D01*
X197667619Y-116363904D01*
X197762857Y-116316285D01*
X197905714Y-116316285D01*
X198000952Y-116363904D01*
X198048571Y-116411523D01*
X198096190Y-116506761D01*
X198096190Y-116887714D01*
X198667619Y-115221047D02*
X198620000Y-115316285D01*
X198524761Y-115411523D01*
X198381904Y-115554380D01*
X198334285Y-115649619D01*
X198334285Y-115744857D01*
X198572380Y-115697238D02*
X198524761Y-115792476D01*
X198429523Y-115887714D01*
X198239047Y-115935333D01*
X197905714Y-115935333D01*
X197715238Y-115887714D01*
X197620000Y-115792476D01*
X197572380Y-115697238D01*
X197572380Y-115506761D01*
X197620000Y-115411523D01*
X197715238Y-115316285D01*
X197905714Y-115268666D01*
X198239047Y-115268666D01*
X198429523Y-115316285D01*
X198524761Y-115411523D01*
X198572380Y-115506761D01*
X198572380Y-115697238D01*
X185872380Y-131143238D02*
X184872380Y-131143238D01*
X185872380Y-130571809D01*
X184872380Y-130571809D01*
X185872380Y-130095619D02*
X184872380Y-130095619D01*
X185586666Y-129762285D01*
X184872380Y-129428952D01*
X185872380Y-129428952D01*
X185872380Y-128952761D02*
X184872380Y-128952761D01*
X187412380Y-120014761D02*
X188412380Y-119681428D01*
X187412380Y-119348095D01*
X188412380Y-119014761D02*
X187745714Y-119014761D01*
X187412380Y-119014761D02*
X187460000Y-119062380D01*
X187507619Y-119014761D01*
X187460000Y-118967142D01*
X187412380Y-119014761D01*
X187507619Y-119014761D01*
X188412380Y-118110000D02*
X187412380Y-118110000D01*
X188364761Y-118110000D02*
X188412380Y-118205238D01*
X188412380Y-118395714D01*
X188364761Y-118490952D01*
X188317142Y-118538571D01*
X188221904Y-118586190D01*
X187936190Y-118586190D01*
X187840952Y-118538571D01*
X187793333Y-118490952D01*
X187745714Y-118395714D01*
X187745714Y-118205238D01*
X187793333Y-118110000D01*
X188364761Y-117252857D02*
X188412380Y-117348095D01*
X188412380Y-117538571D01*
X188364761Y-117633809D01*
X188269523Y-117681428D01*
X187888571Y-117681428D01*
X187793333Y-117633809D01*
X187745714Y-117538571D01*
X187745714Y-117348095D01*
X187793333Y-117252857D01*
X187888571Y-117205238D01*
X187983809Y-117205238D01*
X188079047Y-117681428D01*
X188412380Y-116633809D02*
X188364761Y-116729047D01*
X188317142Y-116776666D01*
X188221904Y-116824285D01*
X187936190Y-116824285D01*
X187840952Y-116776666D01*
X187793333Y-116729047D01*
X187745714Y-116633809D01*
X187745714Y-116490952D01*
X187793333Y-116395714D01*
X187840952Y-116348095D01*
X187936190Y-116300476D01*
X188221904Y-116300476D01*
X188317142Y-116348095D01*
X188364761Y-116395714D01*
X188412380Y-116490952D01*
X188412380Y-116633809D01*
X180554571Y-116006571D02*
X180697428Y-116054190D01*
X180745047Y-116101809D01*
X180792666Y-116197047D01*
X180792666Y-116339904D01*
X180745047Y-116435142D01*
X180697428Y-116482761D01*
X180602190Y-116530380D01*
X180221238Y-116530380D01*
X180221238Y-115530380D01*
X180554571Y-115530380D01*
X180649809Y-115578000D01*
X180697428Y-115625619D01*
X180745047Y-115720857D01*
X180745047Y-115816095D01*
X180697428Y-115911333D01*
X180649809Y-115958952D01*
X180554571Y-116006571D01*
X180221238Y-116006571D01*
X181364095Y-116530380D02*
X181268857Y-116482761D01*
X181221238Y-116435142D01*
X181173619Y-116339904D01*
X181173619Y-116054190D01*
X181221238Y-115958952D01*
X181268857Y-115911333D01*
X181364095Y-115863714D01*
X181506952Y-115863714D01*
X181602190Y-115911333D01*
X181649809Y-115958952D01*
X181697428Y-116054190D01*
X181697428Y-116339904D01*
X181649809Y-116435142D01*
X181602190Y-116482761D01*
X181506952Y-116530380D01*
X181364095Y-116530380D01*
X181983142Y-115863714D02*
X182364095Y-115863714D01*
X182126000Y-115530380D02*
X182126000Y-116387523D01*
X182173619Y-116482761D01*
X182268857Y-116530380D01*
X182364095Y-116530380D01*
X182554571Y-115863714D02*
X182935523Y-115863714D01*
X182697428Y-115530380D02*
X182697428Y-116387523D01*
X182745047Y-116482761D01*
X182840285Y-116530380D01*
X182935523Y-116530380D01*
X183411714Y-116530380D02*
X183316476Y-116482761D01*
X183268857Y-116435142D01*
X183221238Y-116339904D01*
X183221238Y-116054190D01*
X183268857Y-115958952D01*
X183316476Y-115911333D01*
X183411714Y-115863714D01*
X183554571Y-115863714D01*
X183649809Y-115911333D01*
X183697428Y-115958952D01*
X183745047Y-116054190D01*
X183745047Y-116339904D01*
X183697428Y-116435142D01*
X183649809Y-116482761D01*
X183554571Y-116530380D01*
X183411714Y-116530380D01*
X184173619Y-116530380D02*
X184173619Y-115863714D01*
X184173619Y-115958952D02*
X184221238Y-115911333D01*
X184316476Y-115863714D01*
X184459333Y-115863714D01*
X184554571Y-115911333D01*
X184602190Y-116006571D01*
X184602190Y-116530380D01*
X184602190Y-116006571D02*
X184649809Y-115911333D01*
X184745047Y-115863714D01*
X184887904Y-115863714D01*
X184983142Y-115911333D01*
X185030761Y-116006571D01*
X185030761Y-116530380D01*
X216066666Y-130508285D02*
X216066666Y-130032095D01*
X216352380Y-130603523D02*
X215352380Y-130270190D01*
X216352380Y-129936857D01*
X215780952Y-129460666D02*
X215733333Y-129555904D01*
X215685714Y-129603523D01*
X215590476Y-129651142D01*
X215542857Y-129651142D01*
X215447619Y-129603523D01*
X215400000Y-129555904D01*
X215352380Y-129460666D01*
X215352380Y-129270190D01*
X215400000Y-129174952D01*
X215447619Y-129127333D01*
X215542857Y-129079714D01*
X215590476Y-129079714D01*
X215685714Y-129127333D01*
X215733333Y-129174952D01*
X215780952Y-129270190D01*
X215780952Y-129460666D01*
X215828571Y-129555904D01*
X215876190Y-129603523D01*
X215971428Y-129651142D01*
X216161904Y-129651142D01*
X216257142Y-129603523D01*
X216304761Y-129555904D01*
X216352380Y-129460666D01*
X216352380Y-129270190D01*
X216304761Y-129174952D01*
X216257142Y-129127333D01*
X216161904Y-129079714D01*
X215971428Y-129079714D01*
X215876190Y-129127333D01*
X215828571Y-129174952D01*
X215780952Y-129270190D01*
X164600000Y-119260857D02*
X164552380Y-119356095D01*
X164552380Y-119498952D01*
X164600000Y-119641809D01*
X164695238Y-119737047D01*
X164790476Y-119784666D01*
X164980952Y-119832285D01*
X165123809Y-119832285D01*
X165314285Y-119784666D01*
X165409523Y-119737047D01*
X165504761Y-119641809D01*
X165552380Y-119498952D01*
X165552380Y-119403714D01*
X165504761Y-119260857D01*
X165457142Y-119213238D01*
X165123809Y-119213238D01*
X165123809Y-119403714D01*
X164885714Y-118784666D02*
X165552380Y-118784666D01*
X164980952Y-118784666D02*
X164933333Y-118737047D01*
X164885714Y-118641809D01*
X164885714Y-118498952D01*
X164933333Y-118403714D01*
X165028571Y-118356095D01*
X165552380Y-118356095D01*
X165552380Y-117451333D02*
X164552380Y-117451333D01*
X165504761Y-117451333D02*
X165552380Y-117546571D01*
X165552380Y-117737047D01*
X165504761Y-117832285D01*
X165457142Y-117879904D01*
X165361904Y-117927523D01*
X165076190Y-117927523D01*
X164980952Y-117879904D01*
X164933333Y-117832285D01*
X164885714Y-117737047D01*
X164885714Y-117546571D01*
X164933333Y-117451333D01*
X218606666Y-119840285D02*
X218606666Y-119364095D01*
X218892380Y-119935523D02*
X217892380Y-119602190D01*
X218892380Y-119268857D01*
X218892380Y-118887904D02*
X218892380Y-118697428D01*
X218844761Y-118602190D01*
X218797142Y-118554571D01*
X218654285Y-118459333D01*
X218463809Y-118411714D01*
X218082857Y-118411714D01*
X217987619Y-118459333D01*
X217940000Y-118506952D01*
X217892380Y-118602190D01*
X217892380Y-118792666D01*
X217940000Y-118887904D01*
X217987619Y-118935523D01*
X218082857Y-118983142D01*
X218320952Y-118983142D01*
X218416190Y-118935523D01*
X218463809Y-118887904D01*
X218511428Y-118792666D01*
X218511428Y-118602190D01*
X218463809Y-118506952D01*
X218416190Y-118459333D01*
X218320952Y-118411714D01*
X155106666Y-119808476D02*
X155106666Y-119332285D01*
X155392380Y-119903714D02*
X154392380Y-119570380D01*
X155392380Y-119237047D01*
X155392380Y-118379904D02*
X155392380Y-118951333D01*
X155392380Y-118665619D02*
X154392380Y-118665619D01*
X154535238Y-118760857D01*
X154630476Y-118856095D01*
X154678095Y-118951333D01*
X154487619Y-117998952D02*
X154440000Y-117951333D01*
X154392380Y-117856095D01*
X154392380Y-117618000D01*
X154440000Y-117522761D01*
X154487619Y-117475142D01*
X154582857Y-117427523D01*
X154678095Y-117427523D01*
X154820952Y-117475142D01*
X155392380Y-118046571D01*
X155392380Y-117427523D01*
X177712666Y-119840285D02*
X177712666Y-119364095D01*
X177998380Y-119935523D02*
X176998380Y-119602190D01*
X177998380Y-119268857D01*
X177093619Y-118983142D02*
X177046000Y-118935523D01*
X176998380Y-118840285D01*
X176998380Y-118602190D01*
X177046000Y-118506952D01*
X177093619Y-118459333D01*
X177188857Y-118411714D01*
X177284095Y-118411714D01*
X177426952Y-118459333D01*
X177998380Y-119030761D01*
X177998380Y-118411714D01*
X183332380Y-119911714D02*
X182332380Y-119911714D01*
X183332380Y-119340285D01*
X182332380Y-119340285D01*
X183237142Y-118292666D02*
X183284761Y-118340285D01*
X183332380Y-118483142D01*
X183332380Y-118578380D01*
X183284761Y-118721238D01*
X183189523Y-118816476D01*
X183094285Y-118864095D01*
X182903809Y-118911714D01*
X182760952Y-118911714D01*
X182570476Y-118864095D01*
X182475238Y-118816476D01*
X182380000Y-118721238D01*
X182332380Y-118578380D01*
X182332380Y-118483142D01*
X182380000Y-118340285D01*
X182427619Y-118292666D01*
X193492380Y-132103619D02*
X192492380Y-132103619D01*
X192492380Y-131436952D02*
X192492380Y-131246476D01*
X192540000Y-131151238D01*
X192635238Y-131056000D01*
X192825714Y-131008380D01*
X193159047Y-131008380D01*
X193349523Y-131056000D01*
X193444761Y-131151238D01*
X193492380Y-131246476D01*
X193492380Y-131436952D01*
X193444761Y-131532190D01*
X193349523Y-131627428D01*
X193159047Y-131675047D01*
X192825714Y-131675047D01*
X192635238Y-131627428D01*
X192540000Y-131532190D01*
X192492380Y-131436952D01*
X193492380Y-130008380D02*
X193016190Y-130341714D01*
X193492380Y-130579809D02*
X192492380Y-130579809D01*
X192492380Y-130198857D01*
X192540000Y-130103619D01*
X192587619Y-130056000D01*
X192682857Y-130008380D01*
X192825714Y-130008380D01*
X192920952Y-130056000D01*
X192968571Y-130103619D01*
X193016190Y-130198857D01*
X193016190Y-130579809D01*
X193587619Y-128913142D02*
X193540000Y-129008380D01*
X193444761Y-129103619D01*
X193301904Y-129246476D01*
X193254285Y-129341714D01*
X193254285Y-129436952D01*
X193492380Y-129389333D02*
X193444761Y-129484571D01*
X193349523Y-129579809D01*
X193159047Y-129627428D01*
X192825714Y-129627428D01*
X192635238Y-129579809D01*
X192540000Y-129484571D01*
X192492380Y-129389333D01*
X192492380Y-129198857D01*
X192540000Y-129103619D01*
X192635238Y-129008380D01*
X192825714Y-128960761D01*
X193159047Y-128960761D01*
X193349523Y-129008380D01*
X193444761Y-129103619D01*
X193492380Y-129198857D01*
X193492380Y-129389333D01*
X213812380Y-131929047D02*
X213336190Y-132262380D01*
X213812380Y-132500476D02*
X212812380Y-132500476D01*
X212812380Y-132119523D01*
X212860000Y-132024285D01*
X212907619Y-131976666D01*
X213002857Y-131929047D01*
X213145714Y-131929047D01*
X213240952Y-131976666D01*
X213288571Y-132024285D01*
X213336190Y-132119523D01*
X213336190Y-132500476D01*
X213288571Y-131167142D02*
X213288571Y-131500476D01*
X213812380Y-131500476D02*
X212812380Y-131500476D01*
X212812380Y-131024285D01*
X213764761Y-130690952D02*
X213812380Y-130548095D01*
X213812380Y-130310000D01*
X213764761Y-130214761D01*
X213717142Y-130167142D01*
X213621904Y-130119523D01*
X213526666Y-130119523D01*
X213431428Y-130167142D01*
X213383809Y-130214761D01*
X213336190Y-130310000D01*
X213288571Y-130500476D01*
X213240952Y-130595714D01*
X213193333Y-130643333D01*
X213098095Y-130690952D01*
X213002857Y-130690952D01*
X212907619Y-130643333D01*
X212860000Y-130595714D01*
X212812380Y-130500476D01*
X212812380Y-130262380D01*
X212860000Y-130119523D01*
X213812380Y-129690952D02*
X212812380Y-129690952D01*
X213288571Y-129690952D02*
X213288571Y-129119523D01*
X213812380Y-129119523D02*
X212812380Y-129119523D01*
X152566666Y-119808476D02*
X152566666Y-119332285D01*
X152852380Y-119903714D02*
X151852380Y-119570380D01*
X152852380Y-119237047D01*
X152852380Y-118379904D02*
X152852380Y-118951333D01*
X152852380Y-118665619D02*
X151852380Y-118665619D01*
X151995238Y-118760857D01*
X152090476Y-118856095D01*
X152138095Y-118951333D01*
X152185714Y-117522761D02*
X152852380Y-117522761D01*
X151804761Y-117760857D02*
X152519047Y-117998952D01*
X152519047Y-117379904D01*
X221432380Y-130579714D02*
X220432380Y-130579714D01*
X221432380Y-130008285D01*
X220432380Y-130008285D01*
X221337142Y-128960666D02*
X221384761Y-129008285D01*
X221432380Y-129151142D01*
X221432380Y-129246380D01*
X221384761Y-129389238D01*
X221289523Y-129484476D01*
X221194285Y-129532095D01*
X221003809Y-129579714D01*
X220860952Y-129579714D01*
X220670476Y-129532095D01*
X220575238Y-129484476D01*
X220480000Y-129389238D01*
X220432380Y-129246380D01*
X220432380Y-129151142D01*
X220480000Y-129008285D01*
X220527619Y-128960666D01*
X173172380Y-130532095D02*
X172172380Y-130532095D01*
X172172380Y-130294000D01*
X172220000Y-130151142D01*
X172315238Y-130055904D01*
X172410476Y-130008285D01*
X172600952Y-129960666D01*
X172743809Y-129960666D01*
X172934285Y-130008285D01*
X173029523Y-130055904D01*
X173124761Y-130151142D01*
X173172380Y-130294000D01*
X173172380Y-130532095D01*
X172172380Y-129103523D02*
X172172380Y-129294000D01*
X172220000Y-129389238D01*
X172267619Y-129436857D01*
X172410476Y-129532095D01*
X172600952Y-129579714D01*
X172981904Y-129579714D01*
X173077142Y-129532095D01*
X173124761Y-129484476D01*
X173172380Y-129389238D01*
X173172380Y-129198761D01*
X173124761Y-129103523D01*
X173077142Y-129055904D01*
X172981904Y-129008285D01*
X172743809Y-129008285D01*
X172648571Y-129055904D01*
X172600952Y-129103523D01*
X172553333Y-129198761D01*
X172553333Y-129389238D01*
X172600952Y-129484476D01*
X172648571Y-129532095D01*
X172743809Y-129579714D01*
X170632380Y-130532095D02*
X169632380Y-130532095D01*
X169632380Y-130294000D01*
X169680000Y-130151142D01*
X169775238Y-130055904D01*
X169870476Y-130008285D01*
X170060952Y-129960666D01*
X170203809Y-129960666D01*
X170394285Y-130008285D01*
X170489523Y-130055904D01*
X170584761Y-130151142D01*
X170632380Y-130294000D01*
X170632380Y-130532095D01*
X169727619Y-129579714D02*
X169680000Y-129532095D01*
X169632380Y-129436857D01*
X169632380Y-129198761D01*
X169680000Y-129103523D01*
X169727619Y-129055904D01*
X169822857Y-129008285D01*
X169918095Y-129008285D01*
X170060952Y-129055904D01*
X170632380Y-129627333D01*
X170632380Y-129008285D01*
X152566666Y-131238476D02*
X152566666Y-130762285D01*
X152852380Y-131333714D02*
X151852380Y-131000380D01*
X152852380Y-130667047D01*
X152852380Y-129809904D02*
X152852380Y-130381333D01*
X152852380Y-130095619D02*
X151852380Y-130095619D01*
X151995238Y-130190857D01*
X152090476Y-130286095D01*
X152138095Y-130381333D01*
X151852380Y-128905142D02*
X151852380Y-129381333D01*
X152328571Y-129428952D01*
X152280952Y-129381333D01*
X152233333Y-129286095D01*
X152233333Y-129048000D01*
X152280952Y-128952761D01*
X152328571Y-128905142D01*
X152423809Y-128857523D01*
X152661904Y-128857523D01*
X152757142Y-128905142D01*
X152804761Y-128952761D01*
X152852380Y-129048000D01*
X152852380Y-129286095D01*
X152804761Y-129381333D01*
X152757142Y-129428952D01*
X192492380Y-119967333D02*
X193492380Y-119634000D01*
X192492380Y-119300666D01*
X190952380Y-132619523D02*
X189952380Y-132619523D01*
X190666666Y-132286190D01*
X189952380Y-131952857D01*
X190952380Y-131952857D01*
X190952380Y-130905238D02*
X190476190Y-131238571D01*
X190952380Y-131476666D02*
X189952380Y-131476666D01*
X189952380Y-131095714D01*
X190000000Y-131000476D01*
X190047619Y-130952857D01*
X190142857Y-130905238D01*
X190285714Y-130905238D01*
X190380952Y-130952857D01*
X190428571Y-131000476D01*
X190476190Y-131095714D01*
X190476190Y-131476666D01*
X190428571Y-130476666D02*
X190428571Y-130143333D01*
X190952380Y-130000476D02*
X190952380Y-130476666D01*
X189952380Y-130476666D01*
X189952380Y-130000476D01*
X191047619Y-128905238D02*
X191000000Y-129000476D01*
X190904761Y-129095714D01*
X190761904Y-129238571D01*
X190714285Y-129333809D01*
X190714285Y-129429047D01*
X190952380Y-129381428D02*
X190904761Y-129476666D01*
X190809523Y-129571904D01*
X190619047Y-129619523D01*
X190285714Y-129619523D01*
X190095238Y-129571904D01*
X190000000Y-129476666D01*
X189952380Y-129381428D01*
X189952380Y-129190952D01*
X190000000Y-129095714D01*
X190095238Y-129000476D01*
X190285714Y-128952857D01*
X190619047Y-128952857D01*
X190809523Y-129000476D01*
X190904761Y-129095714D01*
X190952380Y-129190952D01*
X190952380Y-129381428D01*
X201152380Y-119302380D02*
X200676190Y-119635714D01*
X201152380Y-119873809D02*
X200152380Y-119873809D01*
X200152380Y-119492857D01*
X200200000Y-119397619D01*
X200247619Y-119350000D01*
X200342857Y-119302380D01*
X200485714Y-119302380D01*
X200580952Y-119350000D01*
X200628571Y-119397619D01*
X200676190Y-119492857D01*
X200676190Y-119873809D01*
X200628571Y-118873809D02*
X200628571Y-118540476D01*
X201152380Y-118397619D02*
X201152380Y-118873809D01*
X200152380Y-118873809D01*
X200152380Y-118397619D01*
X201104761Y-118016666D02*
X201152380Y-117873809D01*
X201152380Y-117635714D01*
X201104761Y-117540476D01*
X201057142Y-117492857D01*
X200961904Y-117445238D01*
X200866666Y-117445238D01*
X200771428Y-117492857D01*
X200723809Y-117540476D01*
X200676190Y-117635714D01*
X200628571Y-117826190D01*
X200580952Y-117921428D01*
X200533333Y-117969047D01*
X200438095Y-118016666D01*
X200342857Y-118016666D01*
X200247619Y-117969047D01*
X200200000Y-117921428D01*
X200152380Y-117826190D01*
X200152380Y-117588095D01*
X200200000Y-117445238D01*
X200628571Y-117016666D02*
X200628571Y-116683333D01*
X201152380Y-116540476D02*
X201152380Y-117016666D01*
X200152380Y-117016666D01*
X200152380Y-116540476D01*
X200152380Y-116254761D02*
X200152380Y-115683333D01*
X201152380Y-115969047D02*
X200152380Y-115969047D01*
X175712380Y-130532095D02*
X174712380Y-130532095D01*
X174712380Y-130294000D01*
X174760000Y-130151142D01*
X174855238Y-130055904D01*
X174950476Y-130008285D01*
X175140952Y-129960666D01*
X175283809Y-129960666D01*
X175474285Y-130008285D01*
X175569523Y-130055904D01*
X175664761Y-130151142D01*
X175712380Y-130294000D01*
X175712380Y-130532095D01*
X174712380Y-129055904D02*
X174712380Y-129532095D01*
X175188571Y-129579714D01*
X175140952Y-129532095D01*
X175093333Y-129436857D01*
X175093333Y-129198761D01*
X175140952Y-129103523D01*
X175188571Y-129055904D01*
X175283809Y-129008285D01*
X175521904Y-129008285D01*
X175617142Y-129055904D01*
X175664761Y-129103523D01*
X175712380Y-129198761D01*
X175712380Y-129436857D01*
X175664761Y-129532095D01*
X175617142Y-129579714D01*
X172886666Y-119840285D02*
X172886666Y-119364095D01*
X173172380Y-119935523D02*
X172172380Y-119602190D01*
X173172380Y-119268857D01*
X172172380Y-118745047D02*
X172172380Y-118649809D01*
X172220000Y-118554571D01*
X172267619Y-118506952D01*
X172362857Y-118459333D01*
X172553333Y-118411714D01*
X172791428Y-118411714D01*
X172981904Y-118459333D01*
X173077142Y-118506952D01*
X173124761Y-118554571D01*
X173172380Y-118649809D01*
X173172380Y-118745047D01*
X173124761Y-118840285D01*
X173077142Y-118887904D01*
X172981904Y-118935523D01*
X172791428Y-118983142D01*
X172553333Y-118983142D01*
X172362857Y-118935523D01*
X172267619Y-118887904D01*
X172220000Y-118840285D01*
X172172380Y-118745047D01*
X218606666Y-131492476D02*
X218606666Y-131016285D01*
X218892380Y-131587714D02*
X217892380Y-131254380D01*
X218892380Y-130921047D01*
X218892380Y-130063904D02*
X218892380Y-130635333D01*
X218892380Y-130349619D02*
X217892380Y-130349619D01*
X218035238Y-130444857D01*
X218130476Y-130540095D01*
X218178095Y-130635333D01*
X217892380Y-129444857D02*
X217892380Y-129349619D01*
X217940000Y-129254380D01*
X217987619Y-129206761D01*
X218082857Y-129159142D01*
X218273333Y-129111523D01*
X218511428Y-129111523D01*
X218701904Y-129159142D01*
X218797142Y-129206761D01*
X218844761Y-129254380D01*
X218892380Y-129349619D01*
X218892380Y-129444857D01*
X218844761Y-129540095D01*
X218797142Y-129587714D01*
X218701904Y-129635333D01*
X218511428Y-129682952D01*
X218273333Y-129682952D01*
X218082857Y-129635333D01*
X217987619Y-129587714D01*
X217940000Y-129540095D01*
X217892380Y-129444857D01*
X221146666Y-119808476D02*
X221146666Y-119332285D01*
X221432380Y-119903714D02*
X220432380Y-119570380D01*
X221432380Y-119237047D01*
X221432380Y-118379904D02*
X221432380Y-118951333D01*
X221432380Y-118665619D02*
X220432380Y-118665619D01*
X220575238Y-118760857D01*
X220670476Y-118856095D01*
X220718095Y-118951333D01*
X221432380Y-117427523D02*
X221432380Y-117998952D01*
X221432380Y-117713238D02*
X220432380Y-117713238D01*
X220575238Y-117808476D01*
X220670476Y-117903714D01*
X220718095Y-117998952D01*
X208446666Y-119840285D02*
X208446666Y-119364095D01*
X208732380Y-119935523D02*
X207732380Y-119602190D01*
X208732380Y-119268857D01*
X207732380Y-118459333D02*
X207732380Y-118935523D01*
X208208571Y-118983142D01*
X208160952Y-118935523D01*
X208113333Y-118840285D01*
X208113333Y-118602190D01*
X208160952Y-118506952D01*
X208208571Y-118459333D01*
X208303809Y-118411714D01*
X208541904Y-118411714D01*
X208637142Y-118459333D01*
X208684761Y-118506952D01*
X208732380Y-118602190D01*
X208732380Y-118840285D01*
X208684761Y-118935523D01*
X208637142Y-118983142D01*
X210986666Y-119840285D02*
X210986666Y-119364095D01*
X211272380Y-119935523D02*
X210272380Y-119602190D01*
X211272380Y-119268857D01*
X210605714Y-118506952D02*
X211272380Y-118506952D01*
X210224761Y-118745047D02*
X210939047Y-118983142D01*
X210939047Y-118364095D01*
X188412380Y-132056000D02*
X187412380Y-132056000D01*
X187888571Y-132056000D02*
X187888571Y-131484571D01*
X188412380Y-131484571D02*
X187412380Y-131484571D01*
X188126666Y-131056000D02*
X188126666Y-130579809D01*
X188412380Y-131151238D02*
X187412380Y-130817904D01*
X188412380Y-130484571D01*
X188412380Y-129675047D02*
X188412380Y-130151238D01*
X187412380Y-130151238D01*
X187412380Y-129484571D02*
X187412380Y-128913142D01*
X188412380Y-129198857D02*
X187412380Y-129198857D01*
X167140000Y-119260857D02*
X167092380Y-119356095D01*
X167092380Y-119498952D01*
X167140000Y-119641809D01*
X167235238Y-119737047D01*
X167330476Y-119784666D01*
X167520952Y-119832285D01*
X167663809Y-119832285D01*
X167854285Y-119784666D01*
X167949523Y-119737047D01*
X168044761Y-119641809D01*
X168092380Y-119498952D01*
X168092380Y-119403714D01*
X168044761Y-119260857D01*
X167997142Y-119213238D01*
X167663809Y-119213238D01*
X167663809Y-119403714D01*
X167425714Y-118784666D02*
X168092380Y-118784666D01*
X167520952Y-118784666D02*
X167473333Y-118737047D01*
X167425714Y-118641809D01*
X167425714Y-118498952D01*
X167473333Y-118403714D01*
X167568571Y-118356095D01*
X168092380Y-118356095D01*
X168092380Y-117451333D02*
X167092380Y-117451333D01*
X168044761Y-117451333D02*
X168092380Y-117546571D01*
X168092380Y-117737047D01*
X168044761Y-117832285D01*
X167997142Y-117879904D01*
X167901904Y-117927523D01*
X167616190Y-117927523D01*
X167520952Y-117879904D01*
X167473333Y-117832285D01*
X167425714Y-117737047D01*
X167425714Y-117546571D01*
X167473333Y-117451333D01*
X178252380Y-130532095D02*
X177252380Y-130532095D01*
X177252380Y-130294000D01*
X177300000Y-130151142D01*
X177395238Y-130055904D01*
X177490476Y-130008285D01*
X177680952Y-129960666D01*
X177823809Y-129960666D01*
X178014285Y-130008285D01*
X178109523Y-130055904D01*
X178204761Y-130151142D01*
X178252380Y-130294000D01*
X178252380Y-130532095D01*
X177252380Y-129627333D02*
X177252380Y-129008285D01*
X177633333Y-129341619D01*
X177633333Y-129198761D01*
X177680952Y-129103523D01*
X177728571Y-129055904D01*
X177823809Y-129008285D01*
X178061904Y-129008285D01*
X178157142Y-129055904D01*
X178204761Y-129103523D01*
X178252380Y-129198761D01*
X178252380Y-129484476D01*
X178204761Y-129579714D01*
X178157142Y-129627333D01*
X184920000Y-119260857D02*
X184872380Y-119356095D01*
X184872380Y-119498952D01*
X184920000Y-119641809D01*
X185015238Y-119737047D01*
X185110476Y-119784666D01*
X185300952Y-119832285D01*
X185443809Y-119832285D01*
X185634285Y-119784666D01*
X185729523Y-119737047D01*
X185824761Y-119641809D01*
X185872380Y-119498952D01*
X185872380Y-119403714D01*
X185824761Y-119260857D01*
X185777142Y-119213238D01*
X185443809Y-119213238D01*
X185443809Y-119403714D01*
X185205714Y-118784666D02*
X185872380Y-118784666D01*
X185300952Y-118784666D02*
X185253333Y-118737047D01*
X185205714Y-118641809D01*
X185205714Y-118498952D01*
X185253333Y-118403714D01*
X185348571Y-118356095D01*
X185872380Y-118356095D01*
X185872380Y-117451333D02*
X184872380Y-117451333D01*
X185824761Y-117451333D02*
X185872380Y-117546571D01*
X185872380Y-117737047D01*
X185824761Y-117832285D01*
X185777142Y-117879904D01*
X185681904Y-117927523D01*
X185396190Y-117927523D01*
X185300952Y-117879904D01*
X185253333Y-117832285D01*
X185205714Y-117737047D01*
X185205714Y-117546571D01*
X185253333Y-117451333D01*
X197572380Y-130976571D02*
X198572380Y-130738476D01*
X197858095Y-130548000D01*
X198572380Y-130357523D01*
X197572380Y-130119428D01*
X198572380Y-129167047D02*
X198096190Y-129500380D01*
X198572380Y-129738476D02*
X197572380Y-129738476D01*
X197572380Y-129357523D01*
X197620000Y-129262285D01*
X197667619Y-129214666D01*
X197762857Y-129167047D01*
X197905714Y-129167047D01*
X198000952Y-129214666D01*
X198048571Y-129262285D01*
X198096190Y-129357523D01*
X198096190Y-129738476D01*
X213812380Y-119363904D02*
X213336190Y-119697238D01*
X213812380Y-119935333D02*
X212812380Y-119935333D01*
X212812380Y-119554380D01*
X212860000Y-119459142D01*
X212907619Y-119411523D01*
X213002857Y-119363904D01*
X213145714Y-119363904D01*
X213240952Y-119411523D01*
X213288571Y-119459142D01*
X213336190Y-119554380D01*
X213336190Y-119935333D01*
X212812380Y-118744857D02*
X212812380Y-118554380D01*
X212860000Y-118459142D01*
X212955238Y-118363904D01*
X213145714Y-118316285D01*
X213479047Y-118316285D01*
X213669523Y-118363904D01*
X213764761Y-118459142D01*
X213812380Y-118554380D01*
X213812380Y-118744857D01*
X213764761Y-118840095D01*
X213669523Y-118935333D01*
X213479047Y-118982952D01*
X213145714Y-118982952D01*
X212955238Y-118935333D01*
X212860000Y-118840095D01*
X212812380Y-118744857D01*
X213812380Y-117887714D02*
X212812380Y-117887714D01*
X213526666Y-117554380D01*
X212812380Y-117221047D01*
X213812380Y-117221047D01*
X213717142Y-116173428D02*
X213764761Y-116221047D01*
X213812380Y-116363904D01*
X213812380Y-116459142D01*
X213764761Y-116602000D01*
X213669523Y-116697238D01*
X213574285Y-116744857D01*
X213383809Y-116792476D01*
X213240952Y-116792476D01*
X213050476Y-116744857D01*
X212955238Y-116697238D01*
X212860000Y-116602000D01*
X212812380Y-116459142D01*
X212812380Y-116363904D01*
X212860000Y-116221047D01*
X212907619Y-116173428D01*
X213764761Y-115792476D02*
X213812380Y-115649619D01*
X213812380Y-115411523D01*
X213764761Y-115316285D01*
X213717142Y-115268666D01*
X213621904Y-115221047D01*
X213526666Y-115221047D01*
X213431428Y-115268666D01*
X213383809Y-115316285D01*
X213336190Y-115411523D01*
X213288571Y-115602000D01*
X213240952Y-115697238D01*
X213193333Y-115744857D01*
X213098095Y-115792476D01*
X213002857Y-115792476D01*
X212907619Y-115744857D01*
X212860000Y-115697238D01*
X212812380Y-115602000D01*
X212812380Y-115363904D01*
X212860000Y-115221047D01*
X196032380Y-129984476D02*
X195556190Y-130317809D01*
X196032380Y-130555904D02*
X195032380Y-130555904D01*
X195032380Y-130174952D01*
X195080000Y-130079714D01*
X195127619Y-130032095D01*
X195222857Y-129984476D01*
X195365714Y-129984476D01*
X195460952Y-130032095D01*
X195508571Y-130079714D01*
X195556190Y-130174952D01*
X195556190Y-130555904D01*
X196032380Y-129555904D02*
X195032380Y-129555904D01*
X195032380Y-129317809D01*
X195080000Y-129174952D01*
X195175238Y-129079714D01*
X195270476Y-129032095D01*
X195460952Y-128984476D01*
X195603809Y-128984476D01*
X195794285Y-129032095D01*
X195889523Y-129079714D01*
X195984761Y-129174952D01*
X196032380Y-129317809D01*
X196032380Y-129555904D01*
X165552380Y-130532095D02*
X164552380Y-130532095D01*
X164552380Y-130294000D01*
X164600000Y-130151142D01*
X164695238Y-130055904D01*
X164790476Y-130008285D01*
X164980952Y-129960666D01*
X165123809Y-129960666D01*
X165314285Y-130008285D01*
X165409523Y-130055904D01*
X165504761Y-130151142D01*
X165552380Y-130294000D01*
X165552380Y-130532095D01*
X164552380Y-129341619D02*
X164552380Y-129246380D01*
X164600000Y-129151142D01*
X164647619Y-129103523D01*
X164742857Y-129055904D01*
X164933333Y-129008285D01*
X165171428Y-129008285D01*
X165361904Y-129055904D01*
X165457142Y-129103523D01*
X165504761Y-129151142D01*
X165552380Y-129246380D01*
X165552380Y-129341619D01*
X165504761Y-129436857D01*
X165457142Y-129484476D01*
X165361904Y-129532095D01*
X165171428Y-129579714D01*
X164933333Y-129579714D01*
X164742857Y-129532095D01*
X164647619Y-129484476D01*
X164600000Y-129436857D01*
X164552380Y-129341619D01*
X190476190Y-119634000D02*
X190952380Y-119634000D01*
X189952380Y-119967333D02*
X190476190Y-119634000D01*
X189952380Y-119300666D01*
X157551428Y-119903714D02*
X157551428Y-119141809D01*
X157932380Y-119522761D02*
X157170476Y-119522761D01*
X156932380Y-118189428D02*
X156932380Y-118665619D01*
X157408571Y-118713238D01*
X157360952Y-118665619D01*
X157313333Y-118570380D01*
X157313333Y-118332285D01*
X157360952Y-118237047D01*
X157408571Y-118189428D01*
X157503809Y-118141809D01*
X157741904Y-118141809D01*
X157837142Y-118189428D01*
X157884761Y-118237047D01*
X157932380Y-118332285D01*
X157932380Y-118570380D01*
X157884761Y-118665619D01*
X157837142Y-118713238D01*
X156932380Y-117856095D02*
X157932380Y-117522761D01*
X156932380Y-117189428D01*
X202652380Y-132032190D02*
X203652380Y-131794095D01*
X202938095Y-131603619D01*
X203652380Y-131413142D01*
X202652380Y-131175047D01*
X203366666Y-130841714D02*
X203366666Y-130365523D01*
X203652380Y-130936952D02*
X202652380Y-130603619D01*
X203652380Y-130270285D01*
X203652380Y-129936952D02*
X202652380Y-129936952D01*
X202652380Y-129603619D02*
X202652380Y-129032190D01*
X203652380Y-129317904D02*
X202652380Y-129317904D01*
X180506666Y-119840285D02*
X180506666Y-119364095D01*
X180792380Y-119935523D02*
X179792380Y-119602190D01*
X180792380Y-119268857D01*
X179792380Y-119030761D02*
X179792380Y-118411714D01*
X180173333Y-118745047D01*
X180173333Y-118602190D01*
X180220952Y-118506952D01*
X180268571Y-118459333D01*
X180363809Y-118411714D01*
X180601904Y-118411714D01*
X180697142Y-118459333D01*
X180744761Y-118506952D01*
X180792380Y-118602190D01*
X180792380Y-118887904D01*
X180744761Y-118983142D01*
X180697142Y-119030761D01*
X180792380Y-130532095D02*
X179792380Y-130532095D01*
X179792380Y-130294000D01*
X179840000Y-130151142D01*
X179935238Y-130055904D01*
X180030476Y-130008285D01*
X180220952Y-129960666D01*
X180363809Y-129960666D01*
X180554285Y-130008285D01*
X180649523Y-130055904D01*
X180744761Y-130151142D01*
X180792380Y-130294000D01*
X180792380Y-130532095D01*
X180125714Y-129103523D02*
X180792380Y-129103523D01*
X179744761Y-129341619D02*
X180459047Y-129579714D01*
X180459047Y-128960666D01*
X155106666Y-131238476D02*
X155106666Y-130762285D01*
X155392380Y-131333714D02*
X154392380Y-131000380D01*
X155392380Y-130667047D01*
X155392380Y-129809904D02*
X155392380Y-130381333D01*
X155392380Y-130095619D02*
X154392380Y-130095619D01*
X154535238Y-130190857D01*
X154630476Y-130286095D01*
X154678095Y-130381333D01*
X154392380Y-129476571D02*
X154392380Y-128857523D01*
X154773333Y-129190857D01*
X154773333Y-129048000D01*
X154820952Y-128952761D01*
X154868571Y-128905142D01*
X154963809Y-128857523D01*
X155201904Y-128857523D01*
X155297142Y-128905142D01*
X155344761Y-128952761D01*
X155392380Y-129048000D01*
X155392380Y-129333714D01*
X155344761Y-129428952D01*
X155297142Y-129476571D01*
X215828571Y-119459142D02*
X215876190Y-119316285D01*
X215923809Y-119268666D01*
X216019047Y-119221047D01*
X216161904Y-119221047D01*
X216257142Y-119268666D01*
X216304761Y-119316285D01*
X216352380Y-119411523D01*
X216352380Y-119792476D01*
X215352380Y-119792476D01*
X215352380Y-119459142D01*
X215400000Y-119363904D01*
X215447619Y-119316285D01*
X215542857Y-119268666D01*
X215638095Y-119268666D01*
X215733333Y-119316285D01*
X215780952Y-119363904D01*
X215828571Y-119459142D01*
X215828571Y-119792476D01*
X215352380Y-118792476D02*
X216161904Y-118792476D01*
X216257142Y-118744857D01*
X216304761Y-118697238D01*
X216352380Y-118602000D01*
X216352380Y-118411523D01*
X216304761Y-118316285D01*
X216257142Y-118268666D01*
X216161904Y-118221047D01*
X215352380Y-118221047D01*
X216304761Y-117792476D02*
X216352380Y-117649619D01*
X216352380Y-117411523D01*
X216304761Y-117316285D01*
X216257142Y-117268666D01*
X216161904Y-117221047D01*
X216066666Y-117221047D01*
X215971428Y-117268666D01*
X215923809Y-117316285D01*
X215876190Y-117411523D01*
X215828571Y-117602000D01*
X215780952Y-117697238D01*
X215733333Y-117744857D01*
X215638095Y-117792476D01*
X215542857Y-117792476D01*
X215447619Y-117744857D01*
X215400000Y-117697238D01*
X215352380Y-117602000D01*
X215352380Y-117363904D01*
X215400000Y-117221047D01*
X216066666Y-116840095D02*
X216066666Y-116363904D01*
X216352380Y-116935333D02*
X215352380Y-116602000D01*
X216352380Y-116268666D01*
X216352380Y-115935333D02*
X215352380Y-115935333D01*
X216352380Y-115363904D02*
X215780952Y-115792476D01*
X215352380Y-115363904D02*
X215923809Y-115935333D01*
X160472380Y-130579714D02*
X159472380Y-130579714D01*
X160472380Y-130008285D01*
X159472380Y-130008285D01*
X160377142Y-128960666D02*
X160424761Y-129008285D01*
X160472380Y-129151142D01*
X160472380Y-129246380D01*
X160424761Y-129389238D01*
X160329523Y-129484476D01*
X160234285Y-129532095D01*
X160043809Y-129579714D01*
X159900952Y-129579714D01*
X159710476Y-129532095D01*
X159615238Y-129484476D01*
X159520000Y-129389238D01*
X159472380Y-129246380D01*
X159472380Y-129151142D01*
X159520000Y-129008285D01*
X159567619Y-128960666D01*
X195032380Y-119919714D02*
X195841904Y-119919714D01*
X195937142Y-119872095D01*
X195984761Y-119824476D01*
X196032380Y-119729238D01*
X196032380Y-119538761D01*
X195984761Y-119443523D01*
X195937142Y-119395904D01*
X195841904Y-119348285D01*
X195032380Y-119348285D01*
%TO.C,U1*%
X183982095Y-135893380D02*
X183982095Y-136702904D01*
X184029714Y-136798142D01*
X184077333Y-136845761D01*
X184172571Y-136893380D01*
X184363047Y-136893380D01*
X184458285Y-136845761D01*
X184505904Y-136798142D01*
X184553523Y-136702904D01*
X184553523Y-135893380D01*
X185553523Y-136893380D02*
X184982095Y-136893380D01*
X185267809Y-136893380D02*
X185267809Y-135893380D01*
X185172571Y-136036238D01*
X185077333Y-136131476D01*
X184982095Y-136179095D01*
%TO.C,J2*%
X144613380Y-139271333D02*
X145327666Y-139271333D01*
X145470523Y-139318952D01*
X145565761Y-139414190D01*
X145613380Y-139557047D01*
X145613380Y-139652285D01*
X144708619Y-138842761D02*
X144661000Y-138795142D01*
X144613380Y-138699904D01*
X144613380Y-138461809D01*
X144661000Y-138366571D01*
X144708619Y-138318952D01*
X144803857Y-138271333D01*
X144899095Y-138271333D01*
X145041952Y-138318952D01*
X145613380Y-138890380D01*
X145613380Y-138271333D01*
X147899380Y-140024809D02*
X146899380Y-140024809D01*
X147232714Y-139548619D02*
X147899380Y-139548619D01*
X147327952Y-139548619D02*
X147280333Y-139501000D01*
X147232714Y-139405761D01*
X147232714Y-139262904D01*
X147280333Y-139167666D01*
X147375571Y-139120047D01*
X147899380Y-139120047D01*
X147232714Y-138786714D02*
X147232714Y-138405761D01*
X146899380Y-138643857D02*
X147756523Y-138643857D01*
X147851761Y-138596238D01*
X147899380Y-138501000D01*
X147899380Y-138405761D01*
X146851761Y-137358142D02*
X148137476Y-138215285D01*
X147375571Y-137024809D02*
X147375571Y-136691476D01*
X147899380Y-136548619D02*
X147899380Y-137024809D01*
X146899380Y-137024809D01*
X146899380Y-136548619D01*
X147899380Y-136215285D02*
X147232714Y-135691476D01*
X147232714Y-136215285D02*
X147899380Y-135691476D01*
X147232714Y-135453380D02*
X147232714Y-135072428D01*
X146899380Y-135310523D02*
X147756523Y-135310523D01*
X147851761Y-135262904D01*
X147899380Y-135167666D01*
X147899380Y-135072428D01*
X147851761Y-134024809D02*
X147899380Y-133929571D01*
X147899380Y-133739095D01*
X147851761Y-133643857D01*
X147756523Y-133596238D01*
X147708904Y-133596238D01*
X147613666Y-133643857D01*
X147566047Y-133739095D01*
X147566047Y-133881952D01*
X147518428Y-133977190D01*
X147423190Y-134024809D01*
X147375571Y-134024809D01*
X147280333Y-133977190D01*
X147232714Y-133881952D01*
X147232714Y-133739095D01*
X147280333Y-133643857D01*
X147851761Y-132786714D02*
X147899380Y-132881952D01*
X147899380Y-133072428D01*
X147851761Y-133167666D01*
X147756523Y-133215285D01*
X147375571Y-133215285D01*
X147280333Y-133167666D01*
X147232714Y-133072428D01*
X147232714Y-132881952D01*
X147280333Y-132786714D01*
X147375571Y-132739095D01*
X147470809Y-132739095D01*
X147566047Y-133215285D01*
X147899380Y-132167666D02*
X147851761Y-132262904D01*
X147756523Y-132310523D01*
X146899380Y-132310523D01*
X147851761Y-131405761D02*
X147899380Y-131501000D01*
X147899380Y-131691476D01*
X147851761Y-131786714D01*
X147756523Y-131834333D01*
X147375571Y-131834333D01*
X147280333Y-131786714D01*
X147232714Y-131691476D01*
X147232714Y-131501000D01*
X147280333Y-131405761D01*
X147375571Y-131358142D01*
X147470809Y-131358142D01*
X147566047Y-131834333D01*
X147851761Y-130501000D02*
X147899380Y-130596238D01*
X147899380Y-130786714D01*
X147851761Y-130881952D01*
X147804142Y-130929571D01*
X147708904Y-130977190D01*
X147423190Y-130977190D01*
X147327952Y-130929571D01*
X147280333Y-130881952D01*
X147232714Y-130786714D01*
X147232714Y-130596238D01*
X147280333Y-130501000D01*
X147232714Y-130215285D02*
X147232714Y-129834333D01*
X146899380Y-130072428D02*
X147756523Y-130072428D01*
X147851761Y-130024809D01*
X147899380Y-129929571D01*
X147899380Y-129834333D01*
%TO.C,J1*%
X142708380Y-115395333D02*
X143422666Y-115395333D01*
X143565523Y-115442952D01*
X143660761Y-115538190D01*
X143708380Y-115681047D01*
X143708380Y-115776285D01*
X143708380Y-114395333D02*
X143708380Y-114966761D01*
X143708380Y-114681047D02*
X142708380Y-114681047D01*
X142851238Y-114776285D01*
X142946476Y-114871523D01*
X142994095Y-114966761D01*
D12*
%TO.C,U5*%
X151130000Y-79570000D02*
X222380000Y-79570000D01*
X222380000Y-79570000D02*
X222380000Y-88070000D01*
X222380000Y-88070000D02*
X151130000Y-88070000D01*
X151130000Y-88070000D02*
X151130000Y-79570000D01*
X192278000Y-91694000D02*
X192278000Y-88392000D01*
X210058000Y-89916000D02*
X210058000Y-88392000D01*
X189738000Y-91948000D02*
X189738000Y-88392000D01*
X187198000Y-91694000D02*
X187198000Y-88392000D01*
X194818000Y-90170000D02*
X194818000Y-88392000D01*
X212598000Y-79248000D02*
X212598000Y-74422000D01*
X197358000Y-79248000D02*
X197358000Y-74676000D01*
X212598000Y-91948000D02*
X212598000Y-88392000D01*
X184658000Y-90678000D02*
X184658000Y-88392000D01*
X182118000Y-90424000D02*
X182118000Y-88392000D01*
X215138000Y-79248000D02*
X215138000Y-75184000D01*
X202438000Y-91440000D02*
X202438000Y-88392000D01*
X199898000Y-79248000D02*
X199898000Y-75438000D01*
X197358000Y-90424000D02*
X197358000Y-88392000D01*
%TO.C,U4*%
X151130000Y-99890000D02*
X222380000Y-99890000D01*
X222380000Y-99890000D02*
X222380000Y-108390000D01*
X222380000Y-108390000D02*
X151130000Y-108390000D01*
X151130000Y-108390000D02*
X151130000Y-99890000D01*
X192278000Y-112014000D02*
X192278000Y-108712000D01*
X210058000Y-110236000D02*
X210058000Y-108712000D01*
X189738000Y-112268000D02*
X189738000Y-108712000D01*
X187198000Y-112014000D02*
X187198000Y-108712000D01*
X194818000Y-110490000D02*
X194818000Y-108712000D01*
X212598000Y-99568000D02*
X212598000Y-94742000D01*
X197358000Y-99568000D02*
X197358000Y-94996000D01*
X212598000Y-112268000D02*
X212598000Y-108712000D01*
X184658000Y-110998000D02*
X184658000Y-108712000D01*
X182118000Y-110744000D02*
X182118000Y-108712000D01*
X215138000Y-99568000D02*
X215138000Y-95504000D01*
X202438000Y-111760000D02*
X202438000Y-108712000D01*
X199898000Y-99568000D02*
X199898000Y-95758000D01*
X197358000Y-110744000D02*
X197358000Y-108712000D01*
%TO.C,U3*%
X197358000Y-72644000D02*
X197358000Y-70612000D01*
X199898000Y-61468000D02*
X199898000Y-57658000D01*
X202438000Y-73660000D02*
X202438000Y-70612000D01*
X215138000Y-61468000D02*
X215138000Y-57404000D01*
X182118000Y-72644000D02*
X182118000Y-70612000D01*
X184658000Y-72898000D02*
X184658000Y-70612000D01*
X212598000Y-74168000D02*
X212598000Y-70612000D01*
X197358000Y-61468000D02*
X197358000Y-56896000D01*
X212598000Y-61468000D02*
X212598000Y-56642000D01*
X194818000Y-72390000D02*
X194818000Y-70612000D01*
X187198000Y-73914000D02*
X187198000Y-70612000D01*
X189738000Y-74168000D02*
X189738000Y-70612000D01*
X210058000Y-72136000D02*
X210058000Y-70612000D01*
X192278000Y-73914000D02*
X192278000Y-70612000D01*
X151130000Y-61790000D02*
X222380000Y-61790000D01*
X222380000Y-61790000D02*
X222380000Y-70290000D01*
X222380000Y-70290000D02*
X151130000Y-70290000D01*
X151130000Y-70290000D02*
X151130000Y-61790000D01*
%TO.C,U2*%
X151130000Y-120210000D02*
X222380000Y-120210000D01*
X222380000Y-120210000D02*
X222380000Y-128710000D01*
X222380000Y-128710000D02*
X151130000Y-128710000D01*
X151130000Y-128710000D02*
X151130000Y-120210000D01*
X192278000Y-132334000D02*
X192278000Y-129032000D01*
X210058000Y-130556000D02*
X210058000Y-129032000D01*
X189738000Y-132588000D02*
X189738000Y-129032000D01*
X187198000Y-132334000D02*
X187198000Y-129032000D01*
X194818000Y-130810000D02*
X194818000Y-129032000D01*
X212598000Y-119888000D02*
X212598000Y-115062000D01*
X197358000Y-119888000D02*
X197358000Y-115316000D01*
X212598000Y-132588000D02*
X212598000Y-129032000D01*
X184658000Y-131318000D02*
X184658000Y-129032000D01*
X182118000Y-131064000D02*
X182118000Y-129032000D01*
X215138000Y-119888000D02*
X215138000Y-115824000D01*
X202438000Y-132080000D02*
X202438000Y-129032000D01*
X199898000Y-119888000D02*
X199898000Y-116078000D01*
X197358000Y-131064000D02*
X197358000Y-129032000D01*
%TO.C,U1*%
X223014000Y-150281000D02*
X150054000Y-150281000D01*
X150054000Y-150281000D02*
X150054000Y-141351000D01*
X150054000Y-141351000D02*
X223014000Y-141351000D01*
X223014000Y-141351000D02*
X223014000Y-150281000D01*
%TO.C,J2*%
X146364000Y-129734000D02*
X146364000Y-131064000D01*
X146364000Y-132334000D02*
X146364000Y-137474000D01*
X143704000Y-137474000D02*
X146364000Y-137474000D01*
X143704000Y-132334000D02*
X146364000Y-132334000D01*
X145034000Y-129734000D02*
X146364000Y-129734000D01*
X143704000Y-132334000D02*
X143704000Y-137474000D01*
%TO.C,J1*%
X141732000Y-126492000D02*
X149352000Y-126492000D01*
X141732000Y-116332000D02*
X141732000Y-126492000D01*
X149352000Y-126492000D02*
X149352000Y-116332000D01*
X143002000Y-126492000D02*
X143002000Y-116332000D01*
X149352000Y-116332000D02*
X141732000Y-116332000D01*
%TD*%
M02*
